<?xml version="1.0" encoding="UTF-8"?>
<svg version="1.1" viewBox="0 0 1048 1600" width="1280" height="1280" xmlns="http://www.w3.org/2000/svg">
<path transform="translate(0)" d="m0 0h1048v1600h-1048v-1600z" fill="#000102"/>
<path transform="translate(540 50.8)" d="m0 0c2.02 0.696 4.03 1.39 6.05 2.08 1.02 0.352 2.05 0.704 3.1 1.07 3.04 1.02 6.1 1.96 9.17 2.89 8.8 2.68 17.5 5.71 26.2 8.71 10.5 3.61 21 7.22 31.6 10.7 0.761 0.249 1.52 0.499 2.31 0.755 3.56 1.17 7.13 2.33 10.7 3.47 1.27 0.416 2.55 0.831 3.82 1.25 1.64 0.526 1.64 0.526 3.3 1.06 3.39 1.38 6.14 3.04 9.06 5.24 0.688 2.31 0.688 2.31 0 5-1.59 2.5-3.18 4.75-5 7.06-1.02 1.34-2.04 2.69-3.06 4.03-0.504 0.663-1.01 1.33-1.53 2.01-1.93 2.59-3.71 5.26-5.48 7.96-2.9 4.42-5.91 8.72-9 13-7.01 9.63-7.01 9.63-12.9 19.9 0.762 0.0103 1.52 0.0206 2.31 0.0312 7.17 0.0978 14.3 0.2 21.5 0.308 3.68 0.0553 7.37 0.109 11.1 0.158 3.55 0.0476 7.11 0.0999 10.7 0.156 1.36 0.0204 2.72 0.0392 4.08 0.0561 1.9 0.024 3.79 0.0546 5.69 0.0856 1.62 0.0233 1.62 0.0233 3.28 0.0471 2.44 0.158 2.44 0.158 3.44 1.16 0.514 5.61-0.348 8.33-3.69 12.8-0.396 0.544-0.793 1.09-1.2 1.65-0.878 1.2-1.76 2.4-2.66 3.59-2.67 3.58-5.28 7.21-7.89 10.8-0.554 0.763-1.11 1.53-1.68 2.31-4.39 6.07-8.57 12.2-12.7 18.5-1.86 2.8-3.75 5.57-5.7 8.31-2.89 4.09-5.67 8.26-8.44 12.4-10.8 16.3-10.8 16.3-15.1 20.6-7.07-1.08-13.7-3.52-20.4-5.88-17.5-5.52-35.5-1.91-51.5 6.13-16.5 9.53-27.1 24.4-32.2 42.6-4.57 19.7 0.825 38 11 54.7 7.72 12.3 19.6 20.5 33.2 25.4 6.67 1.34 13.3 1.18 20.1 1.19 1.25 0.0122 2.49 0.0245 3.78 0.0371 19.4 0.0303 36.7-3.95 51.4-17.3 2.64-2.98 2.85-5.55 2.85-9.38 0.00315-0.895 0.0063-1.79 0.00955-2.71-0.00202-0.966-0.00405-1.93-0.00613-2.93 9.57e-4 -0.998 0.00191-2 0.0029-3.02 6.81e-4 -2.11-0.00117-4.23-0.00534-6.34-0.00532-3.22-6.66e-5 -6.43 0.00635-9.65-6.61e-4 -2.06-0.00194-4.11-0.00391-6.17 0.00202-0.955 0.00405-1.91 0.00613-2.9-0.0186-5.37-0.354-10.5-1.14-15.8-7.17-0.0254-14.3-0.0429-21.5-0.0549-2.44-0.00503-4.88-0.0118-7.32-0.0205-3.51-0.0121-7.01-0.0178-10.5-0.0222-1.63-0.00774-1.63-0.00774-3.3-0.0156-1.02-7.55e-5 -2.04-1.51e-4 -3.09-2.29e-4 -0.895-0.00222-1.79-0.00444-2.71-0.00673-2.6 0.123-5 0.544-7.54 1.12-1.33 4.67-1.22 9.24-1.25 14.1-0.0206 0.911-0.0412 1.82-0.0625 2.76-0.00516 0.875-0.0103 1.75-0.0156 2.65-0.014 1.2-0.014 1.2-0.0283 2.41 0.212 2.17 0.212 2.17 1.58 3.87 2.29 1.6 3.7 1.61 6.48 1.61 1.37 0.0261 1.37 0.0261 2.77 0.0527 1.92 0.00908 3.84 0.0143 5.76 0.0156 7.06 0.144 7.06 0.144 10.9 2.41 1.88 2.15 1.88 2.15 2.57 5.09-0.777 3.46-1.95 4.9-4.81 6.97-6.94 4.02-14 4.56-21.9 4.46-0.933 0.0116-1.87 0.0232-2.83 0.0352-11.5-0.048-18.9-3.6-27.2-11.4-6.2-6.27-9.05-16-9.5-24.6 0.535-9.75 5.71-20.4 12.4-27.4 7.8-6.61 17.9-11 28.2-10.4 9.3 1.35 17.4 4.24 25.4 9.25 3.17 1.49 5.02 1.64 8.5 1.17 2.38-2.35 2.38-2.35 4.28-5.59 0.374-0.578 0.749-1.16 1.13-1.75 1.2-1.85 2.36-3.72 3.53-5.6 1.54-2.43 3.1-4.85 4.65-7.28 0.566-0.889 0.566-0.889 1.14-1.8 2.67-4.16 5.54-8.05 8.63-11.9 2.87-3.66 5.42-7.54 8.01-11.4 4.4-6.5 8.91-12.8 13.7-19.1 5.87-7.76 11.2-15.9 16.7-23.9 3.53-5.17 7.1-10.3 10.7-15.4 2.33-3.31 4.65-6.63 6.96-9.96 1.02-1.46 2.05-2.92 3.08-4.37 1.32-1.85 2.6-3.72 3.89-5.59 1.06-1.52 1.06-1.52 2.15-3.07 2.1-4.01 2.1-4.01 1.48-12.2h-60c-0.33-0.66-0.66-1.32-1-2 3.9-7.72 9.62-14.8 14.6-21.8 0.49-0.686 0.98-1.37 1.49-2.08 0.724-1.01 0.724-1.01 1.46-2.04 1.44-2.12 2.69-4.3 3.96-6.53 1.54-2.45 2.14-3.39 4.76-4.72 3.84 0.251 7.1 1.56 10.6 2.99 8.48 3.29 17 6.23 25.7 9.06 9.22 3.04 18.4 6.16 27.5 9.5 10.8 3.94 21.7 7.59 32.6 11.2 11.3 3.74 22.6 7.54 33.8 11.4 12 4.12 23.9 8.15 35.9 12.1 13.3 4.4 26.5 9.01 39.7 13.8 5.71 2.06 11.5 3.99 17.2 5.89 4.81 1.59 9.62 3.2 14.4 4.84 0.871 0.29 1.74 0.579 2.64 0.878 0.815 0.28 1.63 0.56 2.47 0.849 0.727 0.246 1.45 0.491 2.2 0.745 2.24 1.04 3.38 1.99 4.94 3.9 0.385 2.08 0.385 2.08 0.399 4.51 0.0125 0.928 0.0251 1.86 0.038 2.81-0.00144 1.02-0.00287 2.04-0.00435 3.09 0.0153 1.62 0.0153 1.62 0.0309 3.27 0.0304 3.6 0.0394 7.2 0.0485 10.8 0.017 2.54 0.0352 5.08 0.0547 7.62 0.0433 6.11 0.0728 12.2 0.0955 18.3 0.0268 7.03 0.0692 14.1 0.112 21.1 0.0944 15.7 0.158 31.3 0.213 47 0.0155 4.26 0.0333 8.52 0.0514 12.8 0.147 34.9 0.0979 69.8-1.04 105-0.954 0.316-1.91 0.633-2.89 0.959-26.2 8.71-52.4 17.7-78.5 26.9-33.3 11.7-66.6 23.2-100 34.6-43.1 14.7-43.1 14.7-86.1 29.9-7.93 2.84-15.9 5.54-23.9 8.17-9.53 3.14-19 6.46-28.4 9.94-0.619 0.229-1.24 0.457-1.87 0.693-0.62 0.229-1.24 0.458-1.88 0.694-14.1 5.22-28.3 10.3-42.5 15.2-1 0.35-2.01 0.701-3.04 1.06-18.5 6.39-28.9 4.58-46.8-2.6-10.6-4.23-21.3-7.89-32-11.5-0.788-0.261-1.58-0.522-2.39-0.792-3.11-1.03-6.23-2.06-9.34-3.09-6.1-2.02-12.2-4.04-18.3-6.12-0.764-0.254-1.53-0.508-2.32-0.77-4.49-1.55-8-3.46-11.8-6.23 1.47-4.36 3.7-7.42 6.56-11 4.34-5.51 8.39-11.2 12.3-16.9 1.88-2.75 3.79-5.47 5.71-8.18 1.13-1.62 2.25-3.25 3.38-4.88 0.656-0.941 1.31-1.88 1.99-2.85 0.643-0.956 1.29-1.91 1.95-2.9 0.587-0.861 1.17-1.72 1.78-2.61 1.5-3.09 1.53-5.25 1.29-8.64-6-1.3-12-1.19-18.1-1.25-2.39-0.0329-4.77-0.0661-7.16-0.0996-3.76-0.0476-7.51-0.0921-11.3-0.131-3.63-0.0395-7.26-0.0911-10.9-0.144-1.13-0.00841-2.26-0.0168-3.42-0.0255-1.04-0.0166-2.08-0.0333-3.16-0.0504-0.919-0.0103-1.84-0.0206-2.78-0.0312-2.21-0.272-2.21-0.272-4.21-2.27 5.1-8.18 10.4-16.1 16-24 0.874-1.25 0.874-1.25 1.77-2.53 0.51-0.712 1.02-1.42 1.55-2.16 0.429-0.602 0.859-1.2 1.3-1.82 1.62-1.74 3.22-2.55 5.39-3.49 0.508 0.675 1.02 1.35 1.54 2.05 5.26 7.11 5.26 7.11 12.5 12 3.36 0.294 6.63 0.239 10 0-0.157-7.21-3.82-11.4-8-17-1.38-1.9-2.73-3.81-4.06-5.75-0.915-1.29-0.915-1.29-1.85-2.61-1.09-2.64-1.09-2.64-0.574-5.5 1.79-3.78 3.92-7.14 6.3-10.6 0.639-0.945 0.639-0.945 1.29-1.91 0.857-1.26 1.72-2.52 2.59-3.77 0.891-1.29 1.77-2.58 2.64-3.88 3.33-4.89 3.33-4.89 6.67-6 1.6 4.24 2.25 7.73 2.23 12.3-0.00193 1.79-0.00193 1.79-0.00391 3.62-0.0193 1.89-0.0193 1.89-0.0391 3.81-0.00645 1.29-0.0129 2.57-0.0195 3.9-0.0813 10.2-0.461 20.3-1.17 30.4 5.21 2.85 8.2 3.3 14 3 0.147-1.36 0.147-1.36 0.297-2.74 0.15-1.18 0.299-2.36 0.453-3.57l0.422-3.55c0.828-3.14 0.828-3.14 2.45-5 3.21-1.53 6.08-1.68 9.62-1.95 6.61-0.699 11.3-2.04 15.8-7.19 3.61-5 4.99-9.89 4-16-1.61-6.13-4.27-12-9.5-15.8-4.43-2.1-8.34-2.35-13.2-2.5-1.3-0.0419-2.59-0.0838-3.93-0.127-1.36-0.0398-2.73-0.0795-4.09-0.119-1.38-0.0432-2.76-0.0868-4.14-0.131-3.37-0.106-6.74-0.208-10.1-0.307-0.613-1.78-0.613-1.78-1-4 1.38-2.7 2.78-5.11 4.44-7.62 0.685-1.06 0.685-1.06 1.38-2.15 10.2-15.5 10.2-15.5 14.4-17 0.585-0.0812 1.17-0.162 1.77-0.246 3.28 3.88 4.86 8.25 6.66 13 1.51 3.74 2.76 6.08 6.34 8.04 3.19 1.01 6.09 1.12 9.42 1.1 1.02-0.00322 2.05-0.00645 3.11-0.00977l3.22-0.0254c1.08-0.00451 2.16-0.00902 3.27-0.0137 2.66-0.0118 5.32-0.0282 7.98-0.0488-0.718-2.46-1.45-4.92-2.19-7.38-0.295-1.02-0.295-1.02-0.596-2.06-1.17-3.85-2.56-7.39-4.41-11-3.99-7.74-7.21-15.8-10.6-23.9-0.723-1.72-1.45-3.45-2.17-5.17-3.61-8.61-7.19-17.2-10.7-25.9-3.5-8.61-7.07-17.2-10.7-25.8-0.617-1.47-1.23-2.93-1.84-4.4-3-7.17-5.97-14.2-9.99-20.9-0.856-1.61-0.856-1.61-0.856-3.61-6.61-0.8-13.2-1.15-19.9-1.25-0.725-0.0213-1.45-0.0425-2.2-0.0645-4.57-0.0296-7.52 0.198-10.9 3.31-4.32 6.91-6.98 14.8-9.88 22.4-4.35 11.2-8.9 22.4-13.6 33.5-4.53 10.8-8.99 21.6-13.3 32.5-2.08 5.22-4.17 10.4-6.26 15.7-0.371 0.93-0.742 1.86-1.12 2.82-0.942 2.34-1.9 4.67-2.88 7-0.742 1.8-0.742 1.8-1.5 3.64-1.5 2.54-1.5 2.54-3.38 3.74-3.55-0.333-4.87-2.57-7.12-5.2-1.66-2.17-3.25-4.33-4.81-6.56-0.429-0.609-0.859-1.22-1.3-1.85-5.61-7.99-11.2-16-15.9-24.6 0.808-0.664 1.62-1.33 2.45-2.01 1.08-0.892 2.16-1.78 3.24-2.68l1.61-1.32c9.76-8.08 15.8-15.8 17.1-28.7 0.747-15-4.39-27.2-14.4-38.3-0.99-0.66-1.98-1.32-3-2v-2c-0.714-0.277-1.43-0.554-2.16-0.84-1.83-0.749-3.64-1.55-5.42-2.41-12.3-5.76-25.7-4.9-39-4.84-1.31 0.00141-2.62 0.00283-3.97 0.00429-3.43 0.00376-6.86 0.0135-10.3 0.0247-3.52 0.0104-7.04 0.0148-10.6 0.0198-6.87 0.0106-13.7 0.0276-20.6 0.0488-0.0234 16.4-0.041 32.7-0.0518 49.1-0.00516 7.6-0.0122 15.2-0.0236 22.8-0.00996 6.62-0.0164 13.2-0.0186 19.9-0.0013 3.51-0.00437 7.01-0.0116 10.5-0.00805 3.91-0.00826 7.82-0.0078 11.7-0.0036 1.16-0.00719 2.33-0.0109 3.53 0.00206 1.6 0.00206 1.6 0.00417 3.23-9.22e-4 0.925-0.00184 1.85-0.00279 2.8 0.115 2.3 0.475 4.26 1.12 6.46 3.41 1.04 6.52 1.12 10.1 1.1 1.74-0.00483 1.74-0.00483 3.52-0.00977 1.21-0.00838 2.41-0.0168 3.66-0.0254l3.7-0.0137c3.02-0.0118 6.03-0.0282 9.05-0.0488-0.0763-1.03-0.153-2.07-0.231-3.13-0.279-3.85-0.537-7.7-0.788-11.5-0.112-1.66-0.229-3.33-0.353-4.99-0.177-2.39-0.332-4.79-0.484-7.19-0.0592-0.74-0.118-1.48-0.179-2.24-0.26-4.53 0.0576-7.39 3.03-10.9 2.87-0.655 5.1-0.927 8-1l2.57-0.152c5.23-0.195 8.04 0.0733 12.4 3.15 1.73 2.29 1.73 2.29 3.27 4.97l1.76 2.98c0.885 1.54 0.885 1.54 1.79 3.11 7.64 14.2 7.64 14.2 19.2 24.9 2.94 0.304 5.68 0.438 8.62 0.432 0.869 0.0102 1.74 0.0204 2.63 0.0309 2.87 0.0302 5.74 0.0394 8.6 0.0485 1.99 0.0168 3.98 0.035 5.97 0.0544 5.23 0.0475 10.5 0.0773 15.7 0.103 5.34 0.0298 10.7 0.0763 16 0.121 10.5 0.0861 21 0.153 31.4 0.209 1.56 7.99-1.79 12.4-5.94 19.1-2.06 1.88-2.06 1.88-5 2.5-4.07-0.831-5.41-2.48-8.06-5.62l-1.56-2.81c-3.67-3.29-7.19-2.56-12-2.36-0.82 0.058-1.64 0.116-2.48 0.176-0.992 2.59-1.16 3.64-0.0312 6.23 0.505 0.791 1.01 1.58 1.53 2.4 0.549 0.875 1.1 1.75 1.66 2.65 1.82 2.7 3.76 5.3 5.71 7.91 2.02 2.91 3.12 4.8 4.06 8.25-1.52 5.79-5.25 9.93-8.94 14.6-1.17 1.56-2.34 3.12-3.5 4.69-0.832 1.1-1.67 2.21-2.5 3.31-2.25-0.188-2.25-0.188-5-1-1.36-1.65-2.69-3.31-4-5-2.81-0.98-5.48-1.14-8.44-1.21-0.831-0.0284-1.66-0.0567-2.52-0.0859-1.74-0.0522-3.48-0.0964-5.22-0.133-0.83-0.0309-1.66-0.0619-2.51-0.0938l-2.29-0.0601c-2.53-0.522-3.47-1.38-5.02-3.42 0.188-2.12 0.188-2.12 1-4 2.46-1.23 4.26-1.21 7.01-1.32 0.986-0.0419 1.97-0.0838 2.99-0.127l3.13-0.119c1.04-0.0432 2.08-0.0864 3.15-0.131 2.57-0.106 5.15-0.208 7.72-0.307 0.054-1.62 0.0928-3.25 0.125-4.88 0.0232-0.905 0.0464-1.81 0.0703-2.74 0.0479-2.57 0.0479-2.57-2.2-4.38-2.07-0.304-2.07-0.304-4.43-0.273-0.878-0.0206-1.76-0.0412-2.66-0.0625-1.85-0.0259-3.7-0.0442-5.55-0.0547-6.81-0.179-6.81-0.179-10-2.65-0.677-0.971-0.677-0.971-1.37-1.96 0.33-0.99 0.66-1.98 1-3 5.87-2.43 12.8-2.39 19.1-2.62 0.866-0.0387 1.73-0.0773 2.62-0.117 2.1-0.093 4.21-0.176 6.31-0.258 0.438-4.88 0.438-4.88-1.48-9.22-3.6-2.55-6.92-2.23-11.2-2.06-1.25 0.0311-1.25 0.0311-2.52 0.0629-1.76 0.0485-3.51 0.107-5.27 0.175-2.69 0.102-5.39 0.166-8.08 0.225-1.71 0.0518-3.41 0.106-5.12 0.162-0.808 0.0189-1.62 0.0379-2.45 0.0574-2.5 0.0751-2.5 0.0751-5.92 0.595-2.19 3.28-2.26 4.27-2.27 8.08-0.00953 1.03-0.0191 2.07-0.0289 3.13 9.11e-4 1.12 0.00182 2.23 0.00276 3.38-0.00643 1.72-0.00643 1.72-0.013 3.47-0.00575 2.42-0.00624 4.84-0.00191 7.27 0.00316 3.72-0.0203 7.44-0.0457 11.2-0.00227 2.35-0.00298 4.7-0.00195 7.05-0.0138 1.68-0.0138 1.68-0.0279 3.39 0.00623 1.03 0.0125 2.06 0.0189 3.12-6.29e-4 0.91-0.00126 1.82-0.00191 2.76 0.123 0.724 0.247 1.45 0.374 2.19 3.85 2.57 7.1 2.33 11.6 2.38 1.26 0.0255 1.26 0.0255 2.54 0.0515 2.67 0.0531 5.35 0.0934 8.02 0.132 2.68 0.0439 5.36 0.0905 8.04 0.143 1.67 0.032 3.34 0.0589 5 0.0802 5.72 0.103 5.72 0.103 6.83 1.21 0.164 7.57-4.55 12.3-9 18-1.33 1.76-2.64 3.53-3.94 5.31-0.566 0.759-1.13 1.52-1.71 2.3-1.59 2.82-2.06 5.18-2.35 8.39 1.7 1.7 3.89 1.16 6.22 1.19 1.11 0.0167 2.23 0.0334 3.38 0.0507 1.21 0.0136 2.43 0.0272 3.68 0.0411 1.86 0.0276 1.86 0.0276 3.75 0.0558 3.97 0.059 7.94 0.112 11.9 0.163 5.22 0.0672 10.4 0.141 15.7 0.219 1.21 0.0136 2.42 0.0272 3.67 0.0411 1.12 0.0167 2.24 0.0334 3.39 0.0507 0.987 0.0125 1.97 0.0251 2.99 0.038 2.36 0.151 2.36 0.151 4.36 1.15-0.948 6.53-2.72 10.6-6.65 15.8-3.22 4.35-6.25 8.82-9.29 13.3-1.15 1.69-2.31 3.38-3.46 5.07-0.866 1.27-1.73 2.54-2.6 3.8-6.79-0.472-12-1.94-18.3-4.64-9.5-3.96-19.1-7.23-28.9-10.3-15-4.73-29.8-9.72-44.5-15.2-7.48-2.79-15-5.41-22.6-7.88-13.2-4.31-26.3-9.03-39.3-13.8-1.63-0.59-1.63-0.59-3.3-1.19-4.34-1.57-8.69-3.14-13-4.71-19.5-7.05-39.1-14-58.8-20.5-1.22-0.407-2.45-0.814-3.71-1.23-7.02-2.33-7.02-2.33-14.1-4.64-3.21-1.05-6.41-2.12-9.61-3.19-0.94-0.301-1.88-0.603-2.85-0.913-0.866-0.293-1.73-0.586-2.62-0.888-0.746-0.245-1.49-0.491-2.26-0.743-3.12-1.62-4.95-3.43-7.2-6.14-0.495-2.71-0.683-4.79-0.644-7.49-0.00888-0.74-0.0178-1.48-0.0269-2.24-0.0237-2.46-0.0124-4.91-0.00142-7.37-0.0106-1.75-0.0235-3.5-0.0386-5.24-0.0343-4.64-0.0396-9.27-0.0381-13.9-0.00227-4.54-0.0271-9.08-0.0522-13.6-0.00988-1.8-0.0197-3.6-0.0296-5.4-0.00497-0.895-0.00993-1.79-0.0151-2.71-0.0141-2.76-0.0246-5.53-0.0346-8.29-0.053-12.7-0.292-25.4-0.62-38.1-0.588-23.1-0.721-46.2-0.74-69.3-0.00563-5.8-0.0301-11.6-0.058-17.4-0.0185-4.52-0.0238-9.05-0.0254-13.6-0.00302-2.14-0.011-4.29-0.0242-6.43-0.0169-2.95-0.0152-5.9-0.00869-8.86-0.00921-0.874-0.0184-1.75-0.0279-2.65 0.0414-5.95 0.0414-5.95 1.79-8.05 1.82-1.49 3.35-2.14 5.58-2.88 0.801-0.271 1.6-0.543 2.43-0.822 0.868-0.284 1.74-0.568 2.63-0.861 0.905-0.304 1.81-0.609 2.74-0.922 1.94-0.651 3.88-1.3 5.82-1.94 5.06-1.68 10.1-3.38 15.2-5.08 1.49-0.499 1.49-0.499 3-1.01 7.26-2.44 14.5-4.97 21.7-7.6 8.24-3 16.5-5.91 24.8-8.75 12.6-4.31 25.1-8.73 37.6-13.2 0.964-0.343 1.93-0.686 2.92-1.04 10.1-3.59 20.2-7.2 30.3-10.8 0.799-0.288 1.6-0.575 2.42-0.871 0.792-0.285 1.58-0.571 2.4-0.865 0.786-0.283 1.57-0.566 2.38-0.858 1.58-0.57 3.17-1.14 4.75-1.71 13.9-5.01 27.9-9.88 41.8-14.7 11.2-3.9 22.5-7.89 33.6-12 12.5-4.66 25.2-8.93 37.9-13.1 8.42-2.76 16.8-5.69 25-8.85 9.04-3.42 18.2-6.54 27.3-9.67 13.9-4.76 27.8-9.67 41.5-14.9 0.849-0.317 1.7-0.634 2.57-0.961 1.8-0.682 3.57-1.41 5.34-2.16 8.13-1.93 16 1.45 23.7 4.12z" fill="#000102"/>
<path transform="translate(529,30)" d="m0 0c1.25 0.405 2.5 0.81 3.79 1.23 1.28 0.461 2.56 0.927 3.84 1.4 1.49 0.536 2.97 1.07 4.46 1.61 0.79 0.285 1.58 0.571 2.39 0.865 4.58 1.64 9.17 3.24 13.8 4.84 0.983 0.342 1.97 0.684 2.98 1.04 7.05 2.45 14.1 4.82 21.2 7.16 5.53 1.83 11 3.71 16.5 5.6 0.701 0.242 1.4 0.484 2.12 0.733 3.48 1.2 6.97 2.41 10.4 3.62 7.12 2.47 14.3 4.81 21.5 7 4.43 1.36 8.83 2.81 13.2 4.28 0.981 0.328 1.96 0.656 2.97 0.994 22.5 7.56 45.1 15.1 67.4 23.3 10.6 3.85 21.3 7.38 32.1 10.9 8.6 2.84 17.2 5.76 25.7 8.76 9.03 3.17 18.1 6.26 27.1 9.35 3.6 1.22 7.19 2.45 10.8 3.68 0.895 0.305 1.79 0.61 2.71 0.925 5.84 1.99 11.7 3.99 17.5 6 12.6 4.33 25.1 8.66 37.8 12.6 10.8 3.38 21.4 7.07 32.1 10.8 0.801 0.281 1.6 0.562 2.43 0.851 4.43 1.55 8.85 3.12 13.3 4.72 1.69 0.612 3.39 1.21 5.08 1.82 0.891 0.331 1.78 0.661 2.7 1 0.735 0.268 1.47 0.537 2.23 0.813 2.57 1.44 3.42 2.42 4.86 5.05 0.428 3.27 0.348 6.52 0.294 9.81-0.00412 0.991-0.00824 1.98-0.0125 3-0.0167 3.28-0.0544 6.57-0.0918 9.85-0.0152 2.31-0.0289 4.63-0.041 6.94-0.0266 4.79-0.0604 9.57-0.0994 14.4-0.0732 9.5-0.0675 19-0.0629 28.5 0.00119 5.11-0.0047 10.2-0.0111 15.3-0.00128 1.03-0.00255 2.06-0.00387 3.12-0.0199 14.6-0.0601 29.3-0.104 43.9-0.035 11.9-0.0601 23.7-0.0635 35.6-0.00303 10.5-0.0234 21-0.065 31.5-0.0213 5.51-0.034 11-0.0256 16.5 0.0075 5.14-0.00812 10.3-0.0419 15.4-0.00826 1.88-0.00795 3.77 0.00146 5.65 0.0116 2.56-0.00739 5.13-0.0342 7.69 0.016 1.12 0.016 1.12 0.0323 2.26-0.0737 3.77-0.361 5.3-3.04 8.04-2.73 1.64-5.26 2.75-8.28 3.77-1.62 0.552-1.62 0.552-3.27 1.11-1.14 0.376-2.28 0.752-3.45 1.14-1.17 0.395-2.34 0.789-3.54 1.2-3.36 1.13-6.72 2.25-10.1 3.37-1.53 0.517-3.06 1.03-4.59 1.55-5.65 1.91-11.3 3.73-17 5.45-4.23 1.29-8.35 2.72-12.5 4.34-6.58 2.55-13.2 4.88-19.9 7.16-2.54 0.871-5.09 1.74-7.63 2.62-0.665 0.228-1.33 0.457-2.02 0.692-8.42 2.9-16.8 5.86-25.2 8.82-1.61 0.567-3.22 1.13-4.83 1.7-0.783 0.276-1.57 0.551-2.37 0.835-0.77 0.271-1.54 0.542-2.33 0.821-0.758 0.267-1.52 0.533-2.3 0.808-12.8 4.5-25.6 8.95-38.4 13.3-0.826 0.281-1.65 0.563-2.5 0.853-7.17 2.44-7.17 2.44-10.5 3.57-13.1 4.46-26.2 9-39.2 13.6-14 4.94-28.1 9.72-42.2 14.4-11.2 3.7-22.3 7.48-33.5 11.3-1.14 0.392-1.14 0.392-2.31 0.791-9.3 3.18-18.6 6.4-27.9 9.66-6.42 2.25-12.8 4.48-19.3 6.71-1.96 0.679-3.92 1.36-5.88 2.04-2.97 1.03-5.94 2.06-8.91 3.09-10.3 3.58-20.7 7.16-30.9 11.1-10.2 3.89-17.2 3.13-27.3-0.62-2.06-0.741-4.11-1.48-6.17-2.22-1.06-0.387-2.13-0.774-3.22-1.17-5.27-1.9-10.6-3.72-15.9-5.54-2.19-0.759-4.38-1.52-6.57-2.28-4.65-1.61-9.29-3.2-13.9-4.79-11.7-4-23.3-8.08-34.9-12.4-11.3-4.25-22.7-8.11-34.2-11.9-10.1-3.33-20.1-6.74-30.1-10.4-9.23-3.34-18.5-6.54-27.8-9.62-45.9-15.2-91.7-31.1-137-47.5-0.656-0.237-1.31-0.473-1.99-0.717-3.21-1.16-6.4-2.34-9.59-3.55-3.9-1.47-7.83-2.8-11.8-4.09-1.49-0.491-2.97-0.982-4.46-1.47-0.768-0.253-1.54-0.506-2.33-0.767-12-3.96-24-7.95-35.9-12.2-1.01-0.349-2.02-0.698-3.06-1.06-0.928-0.332-1.86-0.664-2.81-1.01-1.19-0.42-1.19-0.42-2.4-0.848-2.95-1.4-4.96-2.77-7.29-5.09-0.52-2.63-0.697-4.62-0.67-7.25-0.0122-0.754-0.0244-1.51-0.037-2.29-0.0363-2.6-0.0372-5.2-0.0394-7.8-0.0202-1.92-0.0429-3.85-0.0677-5.77-0.0534-4.42-0.0919-8.84-0.122-13.3-0.0631-8.42-0.187-16.8-0.314-25.3-0.264-17.7-0.492-35.4-0.712-53.1-0.0768-6.14-0.157-12.3-0.238-18.4-0.243-18.5-0.472-36.9-0.656-55.4-0.073-7.24-0.153-14.5-0.264-21.7-0.0925-6.06-0.164-12.1-0.216-18.2-0.0226-2.13-0.0538-4.26-0.0943-6.4-0.0532-2.85-0.0758-5.71-0.0902-8.56-0.0228-0.816-0.0456-1.63-0.0692-2.47 0.0142-4.08 0.383-5.91 2.97-9.13 2.57-2 4.52-3.07 7.6-4.07 1.47-0.492 1.47-0.492 2.97-0.994 1.6-0.512 1.6-0.512 3.23-1.03 2.35-0.784 4.71-1.57 7.06-2.36 0.621-0.206 1.24-0.411 1.88-0.623 6.85-2.27 13.7-4.66 20.5-7.07 2.17-0.769 4.35-1.54 6.52-2.3 9.35-3.3 18.7-6.7 27.9-10.1 10.9-4.03 21.8-7.79 32.9-11.4 17.6-5.81 35.1-12 52.7-18.2 3.1-1.09 6.21-2.19 9.31-3.28 15.2-5.34 30.3-10.7 45.5-16.1 6.79-2.43 13.6-4.83 20.4-7.2 5.59-1.94 11.2-3.95 16.7-6.06 7.32-2.79 14.7-5.33 22.1-7.88 10.3-3.54 20.6-7.11 30.9-10.8 0.642-0.228 1.28-0.455 1.94-0.689 9.02-3.2 18-6.48 27-9.8 12.4-4.57 24.8-8.9 37.3-13 4.15-1.35 8.26-2.78 12.4-4.27 0.947-0.339 1.89-0.677 2.87-1.03 1.74-0.627 3.48-1.27 5.21-1.94 5.92-2.1 9.96-1.8 15.9 0.146zm-20.3 19.8c-11.5 4.47-23.1 8.4-34.9 12.2-7.36 2.4-14.6 5-21.7 7.93-4.31 1.75-8.6 3.32-13 4.75-1.54 0.504-3.08 1.01-4.62 1.52-1.28 0.421-1.28 0.421-2.59 0.85-23.2 7.71-46.3 16-69.3 24.2-8.01 2.87-16 5.73-24 8.58-0.63 0.224-1.26 0.447-1.91 0.678-8.41 2.99-16.8 5.92-25.3 8.82-10.3 3.55-20.6 7.22-30.8 10.9-22.5 8.14-45 16.1-67.6 23.9-13.8 4.78-27.6 9.69-41.4 14.6-0.991 0.351-1.98 0.703-3 1.06-1.96 0.696-3.92 1.39-5.88 2.09-4.83 1.72-9.66 3.41-14.5 5.06-0.931 0.319-1.86 0.637-2.82 0.965-1.76 0.601-3.53 1.2-5.29 1.79-4.26 1.13-4.26 1.13-7 4.24-0.0989 2.97-0.136 5.92-0.129 8.89-0.00175 0.924-0.0035 1.85-0.00531 2.8-0.00443 3.09-0.00147 6.18 0.00189 9.27-6.75e-4 2.18-0.00165 4.36-0.0029 6.54-0.00148 4.61 6.81e-4 9.21 0.00534 13.8 0.00556 5.76 0.00242 11.5-0.00345 17.3-0.0197 22.9 0.0989 45.8 0.696 68.7 0.332 12.7 0.522 25.5 0.568 38.2 0.0103 2.74 0.0242 5.48 0.0394 8.22 0.00489 0.893 0.00979 1.79 0.0148 2.71 0.00985 1.8 0.0198 3.59 0.0297 5.39 0.0237 4.59 0.0379 9.18 0.0364 13.8-7.85e-4 4.58 0.0224 9.15 0.0619 13.7 0.0104 1.71 0.012 3.42 0.00435 5.14-0.00959 2.36 0.0114 4.71 0.0397 7.07-0.0102 0.689-0.0204 1.38-0.0309 2.09 0.0802 3.72 0.604 5.31 2.95 8.26 2.41 1.9 4.1 3.02 6.97 3.96 0.813 0.275 1.63 0.551 2.46 0.834 0.875 0.28 1.75 0.559 2.65 0.848 0.928 0.31 1.86 0.62 2.81 0.939 2 0.666 4 1.33 6 1.98 3.17 1.04 6.34 2.09 9.51 3.15 3.25 1.09 6.51 2.17 9.76 3.25 10.2 3.4 20.4 6.92 30.6 10.5 0.822 0.288 1.64 0.576 2.49 0.872 12 4.19 23.9 8.51 35.8 12.9 12 4.42 24.1 8.58 36.2 12.7 5.58 1.91 11.2 3.83 16.7 5.75 1.07 0.37 2.15 0.741 3.25 1.12 5.1 1.77 10.2 3.56 15.3 5.42 14 5.12 28 9.77 42.2 14.3 10.6 3.38 21 6.8 31.2 11.3 4.93 2.15 9.5 2.94 14.9 3.27 0.357-0.523 0.714-1.05 1.08-1.59 1.06-1.55 2.12-3.11 3.19-4.66 1.2-1.76 2.4-3.51 3.59-5.27 3.03-4.44 6.11-8.8 9.32-13.1 3.07-4.32 4.05-8.15 4.81-13.4-2.58-1.29-4.48-1.16-7.37-1.21-1.12-0.0199-2.24-0.0399-3.4-0.0604-1.21-0.0167-2.43-0.0334-3.68-0.0506-1.24-0.0208-2.48-0.0416-3.76-0.063-3.3-0.0544-6.6-0.105-9.89-0.153-3.36-0.0502-6.73-0.106-10.1-0.161-6.6-0.107-13.2-0.209-19.8-0.307-1.15-4.68-1.15-4.68 0.188-7.58 0.598-0.882 1.2-1.76 1.81-2.67l1.95-2.9c2.43-3.38 4.95-6.66 7.54-9.92 3.14-4.01 5.09-6.72 4.51-11.9-2.07-2.07-6.45-1.21-9.3-1.25-1.71-0.0329-3.43-0.0662-5.14-0.0996-2.71-0.0474-5.43-0.0918-8.14-0.131-2.61-0.0397-5.22-0.0912-7.84-0.144-0.813-0.00841-1.63-0.0168-2.46-0.0255-3.87-0.085-5.82-0.161-9.11-2.35-0.374-2.19-0.374-2.19-0.372-4.95-0.00623-1.03-0.0125-2.06-0.0189-3.12 0.0138-1.68 0.0138-1.68 0.0279-3.39-7.48e-4 -1.72-7.48e-4 -1.72-0.00151-3.47 0.00234-2.42 0.0121-4.85 0.0286-7.27 0.0236-3.72 0.0206-7.43 0.0139-11.1 0.00558-2.35 0.0127-4.7 0.0215-7.05-9.11e-4 -1.12-0.00182-2.23-0.00276-3.38 0.00953-1.03 0.0191-2.07 0.0289-3.13 0.00461-0.911 0.00921-1.82 0.014-2.76 0.261-2.32 0.261-2.32 2.26-5.32 2.85-0.388 5.5-0.585 8.37-0.652 0.831-0.0274 1.66-0.0549 2.52-0.0831 1.76-0.0534 3.52-0.0991 5.28-0.138 2.69-0.0638 5.38-0.165 8.07-0.269 1.71-0.0472 3.42-0.0922 5.13-0.135 1.21-0.0497 1.21-0.0497 2.44-0.1 3.59-0.0507 5.74 0.0572 8.72 2.16 2.07 3.11 1.76 5.57 1.48 9.22l-3.84 0.148c-1.7 0.0751-3.4 0.151-5.1 0.227l-2.52 0.0938c-8.45 0.335-8.45 0.335-16.5 2.53-0.33 0.99-0.66 1.98-1 3 1.74 2.49 3.14 3.84 6.17 4.39 2.65 0.155 5.29 0.218 7.95 0.233 1.82 0.0255 3.63 0.0589 5.45 0.102 0.802 0.00596 1.6 0.0119 2.43 0.0181 2 0.255 2 0.255 4 2.26 0.195 2.38 0.195 2.38 0.125 5.12-0.018 0.91-0.0361 1.82-0.0547 2.76-0.0232 0.699-0.0464 1.4-0.0703 2.12-0.976 0.0219-0.976 0.0219-1.97 0.0442-2.95 0.0745-5.89 0.171-8.84 0.268-1.02 0.0226-2.05 0.0451-3.1 0.0684-1.47 0.0532-1.47 0.0532-2.98 0.107-0.906 0.0262-1.81 0.0524-2.75 0.0793-2.76 0.506-3.72 1.18-5.36 3.43 0.0761 2.14 0.0761 2.14 1 4 2.27 1.13 3.69 1.18 6.21 1.28 0.833 0.0374 1.67 0.0748 2.52 0.113 1.31 0.0522 1.31 0.0522 2.64 0.105 1.72 0.0692 3.43 0.142 5.15 0.219 0.762 0.0303 1.52 0.0606 2.31 0.0918 2.19 0.192 4.09 0.468 6.17 1.19 0.639 0.825 1.28 1.65 1.94 2.5 2.41 2.92 3.45 2.98 7.06 3.5 1.59-2.04 3.17-4.08 4.75-6.12 0.443-0.57 0.887-1.14 1.34-1.73 1.32-1.7 2.61-3.43 3.91-5.15 0.768-0.987 1.54-1.97 2.33-2.99 2.11-3.8 2.37-5.71 1.67-10-1.51-2.95-3.39-5.54-5.38-8.19-1.01-1.39-2.02-2.78-3.02-4.17-0.676-0.907-0.676-0.907-1.36-1.83-3.38-4.95-3.38-4.95-2.86-8.06 0.309-0.866 0.309-0.866 0.625-1.75 4.13-0.549 7.89-0.779 12 0 2.45 2.11 3.98 4.2 5.7 6.93 1.14 2.2 1.14 2.2 3.3 3.07 2.93 0.474 2.93 0.474 6 0 2.17-1.98 2.17-1.98 3.75-4.69 0.572-0.87 1.14-1.74 1.73-2.64 2.94-5.19 3.65-7.76 2.52-13.7-1.65 0.00119-1.65 0.00119-3.33 0.00241-10.4 0.00361-20.7-0.0242-31.1-0.0827-5.33-0.029-10.7-0.0471-16-0.0398-5.15 0.0066-10.3-0.0159-15.4-0.0584-1.96-0.0111-3.92-0.0118-5.89-0.00187-2.75 0.0122-5.5-0.013-8.26-0.0466-0.807 0.0122-1.61 0.0244-2.45 0.037-5.38-0.118-8.16-1.5-12.1-5.2-2.4-2.64-4.37-5.46-6.27-8.48-0.415-0.638-0.83-1.28-1.26-1.93-2.28-3.52-4.48-7.08-6.65-10.7-0.444-0.727-0.889-1.45-1.35-2.2-0.854-1.4-1.7-2.81-2.53-4.23-2.76-4.69-2.76-4.69-7.4-7.1-3.34-0.335-6.65-0.151-10 0-0.767 0.018-1.53 0.0361-2.32 0.0547-2.38 0.0925-2.38 0.0925-5.68 0.945-3.5 4.13-3.27 8.02-2.86 13.1 0.0486 0.77 0.0973 1.54 0.147 2.33 0.158 2.45 0.339 4.89 0.521 7.34 0.112 1.66 0.222 3.33 0.33 4.99 0.269 4.07 0.558 8.13 0.857 12.2-4.25 0.029-8.5 0.0468-12.8 0.0625-1.21 0.00838-2.41 0.0168-3.66 0.0254-1.74 0.00483-1.74 0.00483-3.52 0.00977-1.07 0.00524-2.14 0.0105-3.24 0.0159-2.46-0.0985-4.49-0.398-6.84-1.11-0.93-3.16-1.12-5.98-1.12-9.26-0.00206-1.6-0.00206-1.6-0.00417-3.23 0.0036-1.16 0.00719-2.33 0.0109-3.53-1.46e-4 -1.23-2.92e-4 -2.46-4.43e-4 -3.73 5.77e-4 -3.37 0.00559-6.73 0.0126-10.1 0.00625-3.52 0.00684-7.04 0.00803-10.6 0.00311-6.67 0.0113-13.3 0.0213-20 0.0112-7.59 0.0167-15.2 0.0217-22.8 0.0105-15.6 0.028-31.2 0.0503-46.8 7.56-0.0234 15.1-0.041 22.7-0.0518 3.51-0.00517 7.03-0.0122 10.5-0.0236 4.06-0.0132 8.12-0.0178 12.2-0.0222 1.24-0.00516 2.47-0.0103 3.74-0.0156 25.2-0.00158 25.2-0.00158 33.6 4.11l3.42 1.62c0.933 0.454 1.87 0.908 2.83 1.38 0.99 0.33 1.98 0.66 3 1v2l2.25 1.78c7.81 6.3 12.9 16.5 14.8 26.2 1.17 12.1-0.00792 24.2-7.95 34-3.78 3.71-8.05 6.8-12.3 9.91-2.77 1.82-2.77 1.82-3.73 4.1 2.59 3.84 5.19 7.68 7.79 11.5 0.881 1.3 1.76 2.61 2.64 3.91 2.84 4.2 5.7 8.39 8.57 12.6 0.587 0.877 1.17 1.75 1.78 2.66 2.78 4.13 2.78 4.13 7.09 6.34h2.12c5.36-9.73 9.39-19.9 13.4-30.2 3.85-9.95 7.92-19.8 12-29.7 5.33-12.7 10.5-25.4 15.6-38.2 1.31-3.3 2.63-6.6 3.94-9.89 0.442-1.12 0.884-2.24 1.34-3.4 0.432-1.08 0.864-2.15 1.31-3.26 0.381-0.957 0.762-1.91 1.15-2.9 1.17-2.39 2.13-3.79 4.2-5.44 3.71-1.24 7.14-1.15 11-1.12 1.13 0.0029 1.13 0.0029 2.29 0.00586 5.94 0.0455 11.8 0.406 17.7 1.12 0.248 0.66 0.495 1.32 0.75 2 1.25 3.11 1.25 3.11 3 6.43 3.09 6.1 5.63 12.5 8.25 18.8 0.575 1.38 1.15 2.76 1.73 4.13 4.32 10.3 8.6 20.7 12.9 31.1 5.06 12.2 10.2 24.4 15.4 36.6 0.328 0.77 0.655 1.54 0.993 2.33 3.94 9.26 3.94 9.26 8.15 18.4 1.27 3.35 2.03 6.77 2.86 10.3-3.69 0.0878-7.37 0.141-11.1 0.188-1.56 0.0377-1.56 0.0377-3.15 0.0762-6.02 0.0573-10.6-0.0248-15.8-3.26-1.89-2.71-1.89-2.71-3.25-5.81-0.459-1.02-0.918-2.03-1.39-3.08-0.449-1.02-0.897-2.05-1.36-3.11-1.39-3.26-1.39-3.26-3-6-0.99-0.33-1.98-0.66-3-1-7.67 7.4-15.9 17.1-20 27 0.406 2.1 0.406 2.1 1 4 0.842 0.0146 1.68 0.0292 2.55 0.0442 3.15 0.0614 6.3 0.136 9.45 0.218 1.36 0.0331 2.72 0.0611 4.08 0.084 15.7 0.271 15.7 0.271 22.1 5.4 4.75 5.9 7.24 11.4 7.08 19.1-0.696 5.55-3.46 9.83-7.58 13.5-4.94 3.46-10.5 3.66-16.3 4.11-3.54 0.543-5.05 0.83-7.39 3.52-0.916 3.18-0.916 3.18-1.25 6.69-0.15 1.18-0.299 2.36-0.453 3.57-0.147 1.36-0.147 1.36-0.297 2.74-5.8 0.3-8.79-0.154-14-3 0.0722-1.04 0.144-2.07 0.219-3.14 0.665-10.4 0.917-20.8 0.969-31.2 0.0193-1.89 0.0193-1.89 0.0391-3.81 0.00193-1.79 0.00193-1.79 0.00391-3.62 0.00411-1.06 0.00822-2.13 0.0125-3.22-0.262-3.28-1.08-5.97-2.24-9.04-4.06 2.11-6.04 4.09-8.38 8-0.588 0.971-1.18 1.94-1.78 2.94-0.608 1.01-1.22 2.02-1.84 3.06-1.87 2.87-3.74 5.73-5.62 8.59-1.77 3.03-1.77 3.03-2.38 6.41 1.17 2.56 1.17 2.56 3 5.12 0.963 1.45 0.963 1.45 1.95 2.93 1.32 1.9 2.67 3.78 4.05 5.64 3.58 4.86 5.87 8.18 6.01 14.3-5.4 0.598-9.7 0.761-14.2-2.5-3.91-3.32-6.9-7.25-9.75-11.5-3.13 1.35-4.79 2.65-6.76 5.42-0.512 0.713-1.02 1.43-1.55 2.16-0.556 0.799-1.11 1.6-1.69 2.42-0.617 0.88-1.23 1.76-1.87 2.67-2 2.87-3.97 5.76-5.94 8.65-0.68 0.988-1.36 1.98-2.06 2.99-0.646 0.947-1.29 1.89-1.96 2.87-0.585 0.855-1.17 1.71-1.77 2.59-1.54 2.26-1.54 2.26-2.4 5.23 2.49 1.24 4.21 1.15 7 1.19 1.04 0.0167 2.08 0.0334 3.16 0.0507 1.13 0.0136 2.26 0.0272 3.42 0.0411 1.74 0.0276 1.74 0.0276 3.51 0.0558 3.72 0.0589 7.44 0.112 11.2 0.163 4.88 0.0678 9.76 0.142 14.6 0.219 1.12 0.0136 2.24 0.0272 3.4 0.0411 5 0.0793 9.8 0.184 14.7 1.24 0.491 5.26-0.957 8.29-3.88 12.5-0.403 0.602-0.806 1.2-1.22 1.83-1.28 1.9-2.59 3.79-3.9 5.67-0.633 0.908-0.633 0.908-1.28 1.83-2.86 4.09-5.78 8.13-8.72 12.2-0.703 0.969-1.41 1.94-2.13 2.94-1.95 2.69-3.91 5.38-5.87 8.06-1.5 2.06-3 4.12-4.5 6.19-1.17 1.6-2.33 3.21-3.5 4.81 1.01 2.78 1.71 3.83 4.32 5.32 0.963 0.375 1.93 0.75 2.92 1.14 1.62 0.633 1.62 0.633 3.28 1.28 5.83 2.13 11.7 4.1 17.6 6.02 2.66 0.876 5.32 1.76 7.98 2.64 0.665 0.22 1.33 0.439 2.02 0.666 16 5.3 32 10.8 47.7 17.1 0.89 0.356 1.78 0.713 2.7 1.08 0.777 0.315 1.55 0.629 2.35 0.953 10.7 3.98 20 0.966 30.5-2.7 1.42-0.488 2.84-0.975 4.26-1.46 4.82-1.65 9.62-3.35 14.4-5.04 1.84-0.649 3.69-1.3 5.53-1.95 18.9-6.66 37.8-13.4 56.6-20.3 6.1-2.2 12.2-4.28 18.4-6.3 7.05-2.33 14-4.81 21-7.29 24.5-8.71 49.2-17.2 73.9-25.4 27.5-9.12 54.9-18.7 82.1-28.5 7.81-2.8 15.6-5.54 23.5-8.25 5.39-1.87 10.8-3.76 16.1-5.69 18.1-6.51 36.4-12.6 54.8-18.4 1.17-35.9 1.18-71.8 1.03-108-0.0191-4.53-0.0361-9.06-0.0521-13.6-0.0539-15.1-0.121-30.2-0.213-45.3-0.0426-7.03-0.0808-14.1-0.107-21.1-0.0251-6.69-0.0659-13.4-0.117-20.1-0.0167-2.5-0.0283-5-0.0346-7.51-0.00954-3.45-0.0374-6.89-0.07-10.3 0.00144-1.02 0.00287-2.04 0.00435-3.09-0.0125-0.928-0.0251-1.86-0.038-2.81-0.00461-0.805-0.00922-1.61-0.014-2.44-0.479-2.59-1.36-3.45-3.38-5.08-1.78-0.887-1.78-0.887-3.81-1.52-0.805-0.274-1.61-0.547-2.44-0.829-0.907-0.299-1.81-0.597-2.75-0.905-2.09-0.707-4.18-1.42-6.27-2.12-1.2-0.406-2.4-0.812-3.64-1.23-7.37-2.5-14.7-5.1-22.1-7.67-34.2-12-68.6-23.6-103-35-15.7-5.18-31.3-10.4-46.8-16-9.66-3.49-19.4-6.85-29.1-10.2-1.12-0.383-2.24-0.767-3.39-1.16-1.65-0.56-1.65-0.56-3.32-1.13-2.41-0.846-4.8-1.72-7.19-2.63-0.627-0.236-1.25-0.473-1.9-0.716-1.75-0.662-3.5-1.34-5.24-2.01-3.24-0.876-4.93-0.917-8.07 0.169-1.78 2.03-1.78 2.03-3.19 4.69-2.75 4.61-5.66 8.98-8.81 13.3-6.46 8.71-6.46 8.71-12 18 0.33 0.66 0.66 1.32 1 2h60c0 10.1 0 10.1-3.02 14.4-0.641 0.926-1.28 1.85-1.94 2.81-0.674 0.934-1.35 1.87-2.04 2.83-1.27 1.85-2.53 3.69-3.8 5.54-1.32 1.88-2.63 3.76-3.95 5.64-1.41 2.02-2.82 4.04-4.23 6.05-0.684 0.978-1.37 1.96-2.07 2.96-2.69 3.86-5.35 7.73-8.01 11.6-0.88 1.28-1.76 2.56-2.64 3.84-1.34 1.96-2.69 3.92-4.03 5.88-3.32 4.8-6.76 9.49-10.2 14.2-5.36 7.23-10.6 14.5-15.5 22-2.57 3.91-5.31 7.6-8.22 11.3-3.31 4.17-6.24 8.41-9.07 12.9-0.66 1.05-1.32 2.1-2 3.18-1.32 2.11-2.62 4.24-3.89 6.38-0.909 1.46-0.909 1.46-1.84 2.94-0.533 0.881-1.07 1.76-1.62 2.67-1.9 1.91-1.9 1.91-4.92 2.28-3.78-0.475-6.34-1.85-9.67-3.69-10.3-5.43-21.1-9.09-32.7-5.7-12.5 4.6-19.9 10.7-25.5 22.8-4.29 9.84-3.77 18-0.371 28.1 3.56 8.79 10.1 14.4 18.2 19.1 5.9 2.23 11.5 2.39 17.8 2.38 0.976-0.00161 1.95-0.00322 2.96-0.00488 8.01-0.136 15.3-0.878 21.5-6.32 2.01-1.99 2.01-1.99 2.32-5.05-0.316-3.08-0.316-3.08-2.43-5.15-4.52-2.67-8.6-2.41-13.8-2.41-1.89-0.00893-3.78-0.0305-5.66-0.0664-1.25-0.00109-1.25-0.00109-2.52-0.0022-2.19-0.369-2.19-0.369-3.96-1.61-1.56-2.25-1.59-3.56-1.55-6.29 0.00516-0.875 0.0103-1.75 0.0156-2.65 0.0206-0.911 0.0412-1.82 0.0625-2.76 0.00516-0.907 0.0103-1.81 0.0156-2.75 0.0465-3.95 0.147-7.5 1.23-11.3 3.48-0.79 6.68-1.12 10.2-1.11 1.53 1.13e-4 1.53 1.13e-4 3.09 2.29e-4 1.63 0.00774 1.63 0.00774 3.3 0.0156 1.69 0.00212 1.69 0.00212 3.41 0.00429 3.59 0.00559 7.17 0.0181 10.8 0.0309 2.43 0.00502 4.87 0.00958 7.3 0.0137 5.96 0.011 11.9 0.0277 17.9 0.0488 0.914 6.25 1.17 12.4 1.2 18.7 0.0057 0.998 0.0114 2 0.0173 3.02 0.0094 2.1 0.016 4.19 0.0198 6.29 0.00977 3.21 0.0409 6.41 0.0723 9.62 0.00653 2.04 0.0118 4.09 0.0156 6.13 0.0123 0.955 0.0247 1.91 0.0374 2.89-0.0166 4.95-0.117 8.36-3.37 12.4-15.2 14.6-34.5 17.2-54.6 17.2-1.28 0.0122-2.55 0.0245-3.87 0.0371-16.4 0.0255-29.5-5.56-41.8-16.4-13.7-14.2-20.2-33.1-20.1-52.5 0.144-7.71 1.26-14.3 4.36-21.4 0.712-1.72 0.712-1.72 1.44-3.47 7.53-16.6 20.5-28 37.6-34.5 19.3-7.27 37.3-4.3 56 3.11 3.62 1.09 3.62 1.09 7-0.109 5.27-5.28 9.24-11.8 13.2-18.1 2.37-3.75 4.9-7.38 7.44-11 2.45-3.52 4.85-7.07 7.21-10.6 8.02-12.1 16.6-23.8 25.1-35.5 0.522-0.718 1.04-1.44 1.58-2.18 0.463-0.635 0.926-1.27 1.4-1.93 2.46-3.55 2.27-6.33 2.12-10.6-1.77-1.77-4.32-1.17-6.71-1.21-1.22-0.0199-2.44-0.0399-3.7-0.0604-1.34-0.017-2.69-0.0339-4.03-0.0506-1.37-0.0206-2.73-0.0416-4.1-0.063-3.6-0.0553-7.2-0.105-10.8-0.153-3.67-0.0502-7.35-0.106-11-0.161-7.21-0.108-14.4-0.209-21.6-0.307 1.09-1.91 2.19-3.82 3.29-5.73 0.611-1.06 1.22-2.13 1.85-3.22 2.07-3.4 4.41-6.42 6.91-9.51 2.46-3.2 4.67-6.54 6.88-9.91 4.65-7.07 9.46-14 14.7-20.7 1.91-2.49 3.3-4.57 4.08-7.63-1.07-3.61-3.51-4.43-6.69-6.31-2.55-1.03-5.03-1.96-7.63-2.81-0.737-0.25-1.47-0.501-2.23-0.759-2.42-0.818-4.84-1.62-7.26-2.43-1.7-0.571-3.39-1.14-5.08-1.72-4.39-1.48-8.78-2.95-13.2-4.41-2.54-0.848-5.09-1.7-7.63-2.55-8.24-2.76-16.5-5.51-24.7-8.25-4.41-1.46-8.82-2.93-13.2-4.4-3-1-6.01-2-9.01-3-1.8-0.599-3.6-1.2-5.39-1.8-2.78-0.925-5.57-1.84-8.36-2.75-0.918-0.307-1.84-0.614-2.78-0.93-9.4-3.04-14.7-2-23.8 1.62z" fill="#FCFDFF"/>
<path transform="translate(528,1329)" d="m0 0c3 1 3 1 4.88 4.07 2.78 5.95 4.55 12.3 6.44 18.6 4.08 13.5 8.45 26.8 13.1 40.1 0.251 0.718 0.502 1.44 0.76 2.17 3.72 13.1 3.72 13.1 11.8 23.1 2.42 0.33 4.73 0.538 7.17 0.652 0.74 0.0387 1.48 0.0773 2.24 0.117 10.6 0.467 21.3 0.0783 31.9-0.207 24.3-0.615 24.3-0.615 35.9-0.66 1.23-0.00936 1.23-0.00936 2.48-0.0189 3.89-0.00147 7.51 0.16 11.3 1.12 1 3.06 1 3.06 1 7-3.94 5.27-10.3 8.59-15.8 12-12.4 7.81-24.2 16.5-36.2 25-0.804 0.571-1.61 1.14-2.44 1.73-2.46 1.75-4.92 3.51-7.38 5.27-0.759 0.54-1.52 1.08-2.3 1.64-5.43 3.68-5.43 3.68-9.89 8.36 0.461 5.19 2.21 9.94 3.91 14.8 0.291 0.845 0.581 1.69 0.881 2.56 0.939 2.73 1.88 5.46 2.83 8.18 0.967 2.81 1.93 5.61 2.9 8.42 0.632 1.84 1.26 3.67 1.9 5.51 2.78 8.08 5.51 16.2 8.18 24.3 0.946 2.87 1.92 5.72 2.92 8.57 0.24 0.691 0.479 1.38 0.726 2.1 0.628 1.81 1.26 3.61 1.9 5.41 0.864 3.19 1.01 5.84 0.848 9.13-2.98 0.534-5.15 0.527-7.77-1.1-1.44-1.16-2.87-2.33-4.29-3.52-3.78-3.07-7.73-5.87-11.7-8.7-5.4-3.87-10.8-7.79-16-11.9-6.01-4.66-12.1-9.11-18.4-13.5-2.06-1.45-4.09-2.93-6.13-4.42-1.42-1.02-2.85-2.03-4.27-3.05-0.658-0.486-1.32-0.972-2-1.47-2.94-2.07-5.01-3.31-8.59-3.97-3.74 0.727-6.17 2.45-9.11 4.75-1.22 0.915-2.44 1.83-3.66 2.74-0.658 0.493-1.32 0.986-1.99 1.49-4.79 3.51-9.75 6.79-14.7 10.1-3.96 2.69-7.77 5.45-11.5 8.47-2.24 1.62-4.49 3.22-6.75 4.81-4.09 2.9-8.13 5.82-12.1 8.94-11.6 9.08-11.6 9.08-16.8 9.62-1.21-0.186-1.21-0.186-2.44-0.375-1.26-4.39-0.651-7.36 0.574-11.7 0.182-0.65 0.364-1.3 0.551-1.97 2.07-7.25 4.48-14.4 6.91-21.5 1.34-3.93 2.66-7.87 3.98-11.8 0.26-0.773 0.519-1.55 0.787-2.34 2.52-7.54 4.85-15.1 7.05-22.8 1.34-4.58 2.95-8.62 5.14-12.9 0.207-3.24-0.189-5.03-2.3-7.55-4.91-4.56-10.6-8.17-16.1-11.9-5.45-3.7-10.6-7.65-15.8-11.7-6.73-5.3-13.5-10.2-20.8-14.8-2.67-1.76-5.34-3.54-8-5.31-0.636-0.421-1.27-0.842-1.93-1.28-1.7-1.13-3.39-2.27-5.07-3.41-0.797-0.539-1.59-1.08-2.41-1.63-1.59-1.37-1.59-1.37-1.96-3.93 0.375-2.44 0.375-2.44 2.38-4.44 2.95-0.218 5.81-0.311 8.76-0.319 0.907-0.01 1.81-0.0201 2.75-0.0304 3.01-0.031 6.02-0.0479 9.03-0.0648 2.08-0.0187 4.16-0.0383 6.25-0.0587 5.49-0.0514 11-0.091 16.5-0.128 5.6-0.04 11.2-0.0911 16.8-0.141 11-0.0969 22-0.181 33-0.258 4.75-14.7 9.5-29.3 14.1-44 0.935-2.98 1.87-5.97 2.81-8.95 0.629-2.01 1.25-4.02 1.88-6.04 0.929-3.01 1.87-6.01 2.82-9.01 0.271-0.89 0.542-1.78 0.821-2.7 1.81-5.67 4.2-10.4 7.6-15.3z" fill="#FCFDFF"/>
<path transform="translate(590 830)" d="m0 0c3.61 1.55 6 3.37 9.02 5.83 3.04 2.05 6.25 3.28 9.67 4.54 5.24 1.94 9.78 4.19 14.5 7.25 8.12 5.21 16.5 8.9 26.3 7.88 1.04-0.483 1.04-0.483 2.1-0.977 7.57-2.67 18.6-3.12 26.1-0.146 4.43 2.47 8.07 5.7 11.8 9.12 0.833 0.675 1.67 1.35 2.52 2.05 4.32 3.52 8.1 6.83 8.8 12.6-0.0258 0.947-0.0516 1.89-0.0781 2.87-0.0329 1.58-0.0329 1.58-0.0664 3.18-0.178 3.15-0.511 6.25-0.871 9.38-0.656 6.95 1.2 12.4 3.88 18.7 0.978 2.63 1.08 4.39 0.812 7.19-3.1 5-7.37 9.16-13 11-6.5 0.929-6.5 0.929-9.89-1.17-2.82-2.38-5.25-4.98-7.73-7.7-2.2-2.38-2.2-2.38-5.19-2.44-0.722 0.103-1.44 0.206-2.19 0.312-0.955 1.72-0.955 1.72-1 4 4.32 5.37 10.9 10.9 17 14 5.04 0.261 8.83-0.213 13.7-1.53 4.78-0.984 9.45-1.2 14.3-0.469 6.6 4.54 7.36 13.6 9 21 0.229 1.02 0.229 1.02 0.462 2.06 3.68 16.6 3.68 16.6 1.16 21.8-4.76 6.42-11.6 11.4-17.8 16.2-6.14 4.9-11.2 9.42-13.8 17-0.338 0.971-0.676 1.94-1.02 2.94-0.51 1.49-0.51 1.49-1.03 3-0.666 1.85-1.33 3.7-2 5.55-4.71 13.4-7.96 26.4-10 40.4-0.231 1.57-0.463 3.14-0.695 4.71-3.12 21.2-6 42.5-8.01 63.8-0.302 2.52-0.783 4.97-1.29 7.46-6.76 0.0507-13.5 0.0857-20.3 0.11-2.3 0.0101-4.6 0.0237-6.9 0.041-3.31 0.0242-6.61 0.0356-9.92 0.0444-1.54 0.0155-1.54 0.0155-3.12 0.0313-0.961 1.51e-4 -1.92 3.02e-4 -2.91 4.58e-4 -1.27 0.00666-1.27 0.00666-2.56 0.0135-2.51-0.262-4.14-0.981-6.3-2.24-0.107-13 0.166-26 0.75-39 0.0426-0.948 0.0851-1.9 0.129-2.87 3.35-72.2 3.35-72.2 24.1-92.1 2.53-2.14 5.11-4.19 7.73-6.22 5.68-4.36 5.68-4.36 8.27-10.8 0.168-2.31 0.266-4.62 0.312-6.94 0.0374-1.21 0.0748-2.41 0.113-3.65-0.499-3.99-1.77-5.48-4.43-8.41v-2c-0.897-0.402-0.897-0.402-1.81-0.812-2.31-1.26-3.57-2.11-5.19-4.19-2.12-10.3-0.796-21.3 1.59-31.5 0.533-3.22 0.376-6.18 0.164-9.44-0.067-1.18-0.134-2.37-0.203-3.59-0.743-4.72-2.13-8.22-5.73-11.4-6.21-2.34-11.1-0.00195-16.9 2.56-4.95 2.15-7.81 3.23-12.9 1.38-2.61-2.86-3.51-5.34-4.33-9.08-1.57-6.14-4.26-11.2-7.42-16.6-4.04-7.16-7.73-14.3-10.9-21.9-2.24-5.35-5.02-10-8.2-14.9-1.19-2.55-1.19-2.55-1.1-5.05 2.12-5.8 6.08-12.1 12.4-13z" fill="#FCFDFF"/>
<path transform="translate(465 830)" d="m0 0c2.5 1.26 3.52 2.69 5.07 5.01 0.764 1.1 0.764 1.1 1.54 2.22 2.18 4.65 3.1 8.35 1.39 13.2-1.32 2.81-2.75 5.52-4.25 8.24-1.03 1.96-2.06 3.93-3.09 5.89-0.491 0.931-0.982 1.86-1.49 2.82-1.51 2.95-2.79 5.95-3.98 9.04-1.97 5.01-4.6 9.51-7.36 14.1-3.11 5.35-5.13 10.8-7.05 16.7-0.91 2.67-0.91 2.67-1.91 3.67-4.68 0.38-7.67-0.494-11.9-2.5-6.46-2.81-10.6-3.76-17.4-1.31-3.64 2.45-5.07 4.86-6.38 9-0.705 6.35-0.733 11.9 1.19 18.1 2.8 9.37 2.64 20.4-0.5 29.8-2.42 3.84-5.45 6.22-9 9-2.46 4.92-1.51 12.1-0.125 17.2 3.38 4.37 7.75 7.43 12.1 10.8 17.5 13.3 22.6 34.4 25.4 55.2 3.46 28.2 4.92 56.4 4.57 84.8-6.78 0.0506-13.6 0.0857-20.3 0.11-2.31 0.0101-4.62 0.0237-6.92 0.041-3.31 0.0242-6.63 0.0356-9.94 0.0444-1.03 0.0103-2.07 0.0206-3.13 0.0313-0.961 1.51e-4 -1.92 3.02e-4 -2.91 4.58e-4 -0.846 0.00444-1.69 0.00888-2.56 0.0135-2.18-0.241-2.18-0.241-5.18-2.24-0.659-2.38-1.11-4.59-1.48-7.02-0.122-0.743-0.243-1.49-0.368-2.25-1.58-9.95-2.77-20-4.03-29.9-3.64-28.8-7.52-56.6-18.1-83.8-0.329-0.886-0.657-1.77-0.996-2.69-4.39-11.6-13.3-18.7-22.6-26.5-0.557-0.471-1.11-0.942-1.69-1.43-1.21-0.991-2.44-1.95-3.69-2.88-3.09-2.38-4.8-3.85-6.12-7.59 0.111-5.93 1.15-11.6 2.26-17.4 0.314-1.78 0.314-1.78 0.635-3.6 1.23-6.6 2.57-12.3 6.18-18 4.98-3.01 10.4-2.5 16-2 2.79 0.8 5.31 1.89 8 3 3.71 0.509 5.23 0.538 8.31-1.62 0.887-0.784 1.77-1.57 2.69-2.38 2.28-1.55 4.59-3.04 6.91-4.54 1.96-1.37 3.58-2.61 5.09-4.46-0.23-2.65-0.23-2.65-1-5-2.98-0.186-4.33-0.233-7 1-2.08 2.54-2.08 2.54-4 5.56-3.62 5.3-3.62 5.3-7.31 6.62-7.51-2.42-14.3-7.65-18.7-14.2 0-4.93 1.1-8.39 3.06-12.9 2.98-7.1 2.72-13.1 0.375-20.4-1.31-4.06-2.05-6.63-0.438-10.8 2.07-2.94 4.46-5.46 7-8 0.771-0.782 1.54-1.56 2.34-2.37 7.07-6.79 14.3-10.9 24.2-11.7 4.06 0.0838 7.99 0.877 12 1.55 9.74 1.39 17.9 1.4 26.5-3.5 1.79-0.965 3.57-1.93 5.36-2.89 1.31-0.701 2.61-1.41 3.91-2.11 3.92-2.11 7.83-3.93 12-5.56 5.3-2.08 9.74-4.89 14.4-8.18 2.38-1.26 2.38-1.26 4.49-1.21z" fill="#FCFDFF"/>
<path transform="translate(824 231)" d="m0 0c1.9-0.00135 3.81-0.00329 5.71-0.0058 3.97-0.00294 7.94 0.0013 11.9 0.0107 5.09 0.0114 10.2 0.0048 15.3-0.00714 3.92-0.00722 7.85-0.00493 11.8 2.56e-4 1.88 0.00133 3.76-3e-4 5.63-0.00496 2.62-0.00508 5.24 0.00266 7.85 0.0138 0.774-0.00405 1.55-0.0081 2.35-0.0123 6.74 0.0532 6.74 0.0532 9.84 2.27 4.02 8.04 1.94 21.4 1 30-8.24 0.905-16.4 1.16-24.7 1.21-2.6 0.028-5.2 0.0567-7.79 0.0859-4.06 0.0426-8.12 0.0795-12.2 0.104-3.94 0.0249-7.89 0.0732-11.8 0.122-1.22 0.00325-2.45 0.00651-3.71 0.00986-1.13 0.0166-2.25 0.0331-3.41 0.0502-0.993 0.00809-1.99 0.0162-3.01 0.0245-0.782 0.129-1.56 0.259-2.37 0.392-2.08 3.12-2.25 3.83-2.19 7.38 0.00645 0.75 0.0129 1.5 0.0195 2.27 0.18 2.52 0.655 4.88 1.17 7.35 0.747-0.00666 1.49-0.0133 2.26-0.0202 7.03-0.0601 14.1-0.106 21.1-0.135 3.62-0.0157 7.23-0.0369 10.8-0.0709 3.49-0.0325 6.98-0.0505 10.5-0.0583 1.98-0.00826 3.96-0.0317 5.95-0.0553 1.2-2.27e-4 2.4-4.53e-4 3.64-6.87e-4 1.06-0.00666 2.12-0.0133 3.22-0.0202 0.831 0.119 1.66 0.238 2.52 0.361 5.74 8.62 2 20.6 2 31-19.8 0.33-39.6 0.66-60 1-2.94 5.59-2.94 5.59-3.38 11.2-0.00773 0.839-0.0155 1.68-0.0234 2.54 0.49 2.79 1.21 3.52 3.4 5.27 1.95 0.427 1.95 0.427 4.11 0.328 0.81-0.00451 1.62-0.00902 2.45-0.0137 0.867-0.0213 1.73-0.0425 2.63-0.0645 0.903-0.011 1.81-0.0219 2.74-0.0332 5.27-0.0856 10.5-0.338 15.8-0.717 7.17-0.507 14.3-0.646 21.5-0.688 1.09-0.0129 2.18-0.0258 3.3-0.0391 1.03-0.00129 2.06-0.00258 3.12-0.00391 0.919-0.00411 1.84-0.00822 2.79-0.0125 4.01 0.373 6.76 1.39 9.61 4.24 0.227 2.8 0.227 2.8 0.195 6.32-0.00645 1.26-0.0129 2.51-0.0195 3.81-0.0251 1.98-0.0251 1.98-0.0508 4-0.01 1.34-0.0192 2.68-0.0273 4.02-0.0236 3.29-0.0566 6.57-0.0977 9.86-3.39 1.7-7.26 1.15-11 1.15-1.4 0.00504-1.4 0.00504-2.82 0.0102-3.09 0.00953-6.18 0.0115-9.27 0.0125-2.14 0.00321-4.28 0.00658-6.43 0.0101-4.49 6e-3 -8.99 0.00784-13.5 0.00725-5.77-1.02e-4 -11.5 0.0136-17.3 0.0308-4.43 0.0111-8.85 0.0131-13.3 0.0126-2.13 0.00118-4.25 0.00562-6.38 0.0133-2.97 0.00976-5.94 0.00694-8.91 8.95e-4 -0.884 0.00562-1.77 0.0112-2.68 0.017-6.1-0.0316-6.1-0.0316-9.44-2.26-1.4-6.04-1.19-12.3-1.24-18.4-0.0197-1.7-0.0197-1.7-0.0397-3.43-0.0417-3.73-0.0763-7.46-0.11-11.2-0.0257-2.6-0.0515-5.2-0.0773-7.8-0.0529-5.44-0.102-10.9-0.148-16.3-0.0539-6.28-0.119-12.6-0.189-18.8-0.0672-6.06-0.123-12.1-0.175-18.2-0.0234-2.57-0.0502-5.14-0.0803-7.71-0.0412-3.59-0.0693-7.19-0.0943-10.8-0.015-1.06-0.0299-2.12-0.0454-3.22-0.0219-5.11 0.132-9.31 2.2-14.1 9.83-2.56 19.6-2.29 29.6-2.27z" fill="#FCFDFF"/>
<path transform="translate(840,653)" d="m0 0c3.54 1.97 6.93 4.14 10.3 6.38 0.867 0.552 1.73 1.1 2.63 1.67 6.36 4.16 11.9 8.31 14.1 16 2.53 19 2.53 19-1 26-4.67 4.33-9.79 6-16.1 6.25-10 0.899-16.4 5.81-23.6 12.5-4.78 4.47-8.79 7.99-15.2 9.53-5.41 1.42-8.45 4.25-12.4 8.09-3 2.89-6.14 5.56-9.33 8.23-4.3 3.61-8.54 7.26-12.7 11-1.68 1.34-1.68 1.34-3.84 2.34-2.2 0.923-2.2 0.923-2.85 4-1.67 1.65-1.67 1.65-3.75 3.38-3.26 2.73-6.26 5.61-9.25 8.62-0.79 0.732-1.58 1.46-2.39 2.22-8.44 7.96-13.7 17.1-19 27.3-4.69 9.13-9.3 17.4-18.6 22.5-2.5 0.5-2.5 0.5-5 0-6.16-4.74-10.6-12.7-13-20-0.299-2.45-0.299-2.45 0-5 1.66-1.71 1.66-1.71 3.95-3.27 5.12-3.7 9.41-7.9 13.8-12.4 1.45-1.49 2.9-2.97 4.36-4.45 0.669-0.682 1.34-1.36 2.03-2.07 1.86-1.8 1.86-1.8 4.89-4.08 0.651-0.566 1.3-1.13 1.97-1.71-0.0636-3.7-0.0636-3.7-1-7-10 0.529-18.2 8.59-25.8 14.5-9.53 7.44-15.8 11.6-28.2 10.5-5.95-1.7-9.53-4.99-13-10-1.54-2.87-2.04-4.38-1.81-7.62 0.906-2.65 1.7-3.58 3.81-5.38 1.92-0.872 1.92-0.872 4.11-1.58 0.824-0.27 1.65-0.54 2.5-0.818 0.892-0.282 1.78-0.564 2.7-0.854 0.935-0.304 1.87-0.609 2.83-0.923 4.73-1.53 9.47-3.02 14.2-4.49 50.7-14.9 50.7-14.9 91.8-46.3 0.759-0.95 1.52-1.9 2.3-2.88 0.402-0.509 0.803-1.02 1.22-1.54 1.4-1.77 2.8-3.53 4.21-5.29 0.986-1.24 1.97-2.48 2.96-3.72 0.464-0.583 0.929-1.17 1.41-1.77 5.78-7.34 5.78-7.34 6.97-16.4-0.0232-1.66-0.0232-1.66-0.0469-3.34-0.1-3.09-0.1-3.09-0.875-5.76-0.656-4.8 2.96-8.67 5.67-12.4 2.2-2.5 4.55-4.75 7-7 1.33-1.39 1.33-1.39 2.69-2.81 7.62-7.21 15.8-4.19 24.3-0.188z" fill="#FCFDFF"/>
<path transform="translate(958,574)" d="m0 0c3.92 2.16 5.88 5.23 8.31 8.88 2.85 4.24 5.7 6.95 9.89 9.82 3.04 2.22 5.13 4.97 6.8 8.31 0.174 2.14 0.267 4.29 0.312 6.44 0.0561 1.73 0.0561 1.73 0.113 3.5-0.426 3.07-0.426 3.07-2.12 4.87-2.49 1.29-4.85 2.14-7.56 2.88-0.892 0.251-1.78 0.503-2.7 0.762-0.675 0.182-1.35 0.364-2.05 0.551 0.41 3.67 0.41 3.67 2.69 6.31 3.79 1.13 6.66 1.46 10.3-0.258 4.18-2.47 7.45-4.82 9.98-9.05 0.382-3.37 0.195-6.68 0-10.1-0.527-9.17-0.527-9.17 1.76-12.5 3.29-2.11 6.41-2.58 10.2-2.44 6.48 1.48 8.96 4.96 12.5 10.4 0.5 0.842 1 1.68 1.52 2.55 0.376 0.625 0.753 1.25 1.14 1.89 2.44 4.74 2.27 9.11 0.859 14.1-2.4 5.15-5.7 9.29-10 13-3.21 1.05-3.21 1.05-6.81 1.75-8.21 1.89-14.8 5.56-21.9 9.89-3.41 2.04-6.87 4-10.3 5.97-1.84 1.05-3.67 2.1-5.5 3.17-4.51 2.62-8.97 4.9-13.8 6.97-6.07 3.25-7.96 8.98-10.6 15-1.97 4.31-4.43 8.07-7.23 11.9-0.404 0.555-0.808 1.11-1.22 1.68-7.3 9.83-7.3 9.83-11.6 12.7-3.68-0.289-6.96-0.989-10.5-2.05-5.41-1.37-10.8-1.09-16.3-0.953-2.05 0.051-4.1 0.0931-6.14 0.125-0.897 0.0232-1.79 0.0464-2.72 0.0703-2.32-0.195-2.32-0.195-5.32-2.2 4.87-13.4 17.2-22.7 29.2-29.4 5.66-3.33 10-7.68 14.3-12.6 6.5-7.55 13.1-12.1 22.1-16.2 3.72-1.96 6.36-3.84 9.37-6.77 0.0283-3.26 0.0283-3.26-1-6-6.23 0.377-10.7 3.48-15.8 6.69-0.851 0.518-1.7 1.04-2.58 1.57-15.1 8.86-15.1 8.86-26 22.2-4.69 7.46-14.8 11.1-23 13.6-0.846 0.318-1.69 0.637-2.56 0.965-0.495 1.49-0.495 1.49-1 3-2.48 0.495-2.48 0.495-5 1v-2h-2c-0.42-0.978-0.42-0.978-0.848-1.98-4.63-10.1-10.7-14-20.3-19.3-7.07-4.22-7.07-4.22-8.87-7.59 0.00603-3.28 1.42-5.32 3.07-8.12 0.589-1.03 1.18-2.06 1.79-3.12 3.84-5.13 7.81-7.16 14.1-8.14 1.07-0.148 1.07-0.148 2.16-0.299 1.53-0.248 3.06-0.498 4.58-0.75 1.43-0.229 2.86-0.459 4.29-0.688 10.8-1.75 19.8-6.59 29.4-11.6 2.59-1.36 5.18-2.68 7.79-4.01 15.2-7.77 25.2-13.9 33.2-29.5 3.02-5.14 6.03-5.45 11.7-4.86z" fill="#FCFDFF"/>
<path transform="translate(234 649)" d="m0 0c1.71 1.41 3.31 2.89 4.9 4.43 0.568 0.543 1.14 1.09 1.72 1.65 11 10.8 11 10.8 11.3 19.1-0.112 2.85-0.409 4.57-1.7 7.13-1.33 4.36 0.914 7.24 2.91 11.1 3.48 6.38 8.22 11.4 13.3 16.5 1.24 1.41 2.47 2.82 3.69 4.25 1.1 1.25 2.21 2.5 3.31 3.75 0.469 0.559 0.938 1.12 1.42 1.7 19.6 21.7 57.4 33.4 84.3 41.7 0.654 0.202 1.31 0.404 1.98 0.613 3.18 0.981 6.37 1.95 9.56 2.89 16.4 4.92 16.4 4.92 20.7 10.1 0.622 3.52 0.593 5.91-1.14 9.09-3.02 4.24-6.06 7.73-10.9 9.91-9.05 1.06-15.5-0.551-22.6-6.09-1.79-1.43-3.58-2.87-5.37-4.31-12.3-10.4-12.3-10.4-27.3-13.5-1.24 0.289-2.48 0.577-3.75 0.875v3c2.22 2.13 2.22 2.13 5.06 4.25 5.95 4.72 11.2 9.58 16 15.4 2.66 3.19 5.44 5.11 8.94 7.31 2 4 1.51 8.66 1 13-1.84 5.11-4.47 9.86-8 14-3.22 0.766-5.19 0.402-8.14-1.07-9.4-5.86-14.1-13.1-18.8-22.9-4.76-9.81-11.2-17.6-19.1-25.1-3.43-3.41-6.83-6.84-10.2-10.3-1.51-1.52-3.02-3.03-4.53-4.55-1.03-1.03-2.05-2.07-3.08-3.1-5.87-5.92-11.8-11.7-18.2-17.1-0.82-0.748-1.64-1.5-2.48-2.27-6.53-5.72-13.5-9.54-21.2-13.6-6.29-3.38-11-7.08-16.1-12.1-5.11-4.81-9.73-6.12-16.6-6.97-6.56-0.898-11.7-2.57-16.6-7.12-5.09-7.43-4.86-16.1-3.6-24.7 1.95-8.42 7.3-12.2 14.3-16.7 4.54-2.8 9.26-5.1 14.1-7.35 1.25-0.597 1.25-0.597 2.54-1.21 12.5-5.87 12.5-5.87 18.3-1.98z" fill="#FCFDFF"/>
<path transform="translate(101 572)" d="m0 0c5.57 3.14 8.3 9.38 10.1 15.3 0.178 0.731 0.356 1.46 0.539 2.21 1.15 2.54 2.27 2.77 4.84 3.85 2.38 1.32 4.75 2.66 7.12 4 1.44 0.813 2.89 1.63 4.33 2.44 2.98 1.68 5.96 3.37 8.93 5.06 19.7 11.9 19.7 11.9 41.5 18.1 14.6 1.4 14.6 1.4 19.1 5.41 4.18 5.19 7.14 9.72 7.38 16.4 0.049 0.968 0.098 1.94 0.148 2.93-0.523 2.63-0.523 2.63-2.61 4.25-0.96 0.456-1.92 0.913-2.91 1.38-14.2 7.43-14.2 7.43-22 21-2.5 0.5-2.5 0.5-6 0-1.9-1.71-1.9-1.71-3.88-3.88-3.32-3.61-5.26-4.72-9.99-5.53-7.83-2.19-14.5-9.19-19.1-15.6-0.309-0.697-0.619-1.39-0.938-2.11-1.35-2.39-2.59-2.79-5.06-3.89-1.27-0.973-2.52-1.98-3.75-3-4.29-3.36-8.7-6.45-13.2-9.44-0.652-0.449-1.3-0.898-1.98-1.36-5.07-3.26-9.06-3.77-15-3.2v4c1.98 2.02 1.98 2.02 4.69 3.81 1.01 0.705 2.01 1.41 3.05 2.14 3.16 1.98 6.34 3.57 9.7 5.18 6.29 3.24 9.96 7.35 14.3 12.7 5.66 7 12 11.4 19.7 16 8.64 5.23 17.7 12 22.6 21.1 0.438 3.44 0.438 3.44 0 6-1 1-1 1-3.04 1.08-0.878-0.018-1.76-0.0359-2.66-0.0544-0.962-0.0122-1.92-0.0245-2.92-0.0371-2.03-0.0348-4.06-0.0738-6.09-0.117-5.26-0.0595-9.33 0.218-14.3 2.13-2.85 0.301-2.85 0.301-5.62 0.312-0.92 0.0168-1.84 0.0335-2.79 0.0508-3.02-0.424-4.41-1.26-6.59-3.36v-2h-2c-1.71-2.07-3.27-4.13-4.81-6.31-0.451-0.634-0.901-1.27-1.37-1.92-3.69-5.32-6.33-10.8-8.82-16.8-3.5-7.4-7.66-11.2-15.2-14.1-5.83-2.28-10.8-5.34-16.1-8.75-10.4-6.76-21.3-13.7-33.6-16.4-4.26-1.54-6.64-3.98-8.95-7.82-0.508-1.12-1.02-2.23-1.54-3.38-0.523-1.11-1.05-2.22-1.59-3.37-1.69-5.2-0.0906-8.52 2.27-13.3 2.88-5.53 5.62-9.15 11.6-11.5 4.1-0.811 8.25-0.00608 12.1 1.59 2.19 2.37 2.94 3.53 3.38 6.75-0.343 2.97-0.919 4.59-2.12 7.25-1.22 3.15-1.39 3.63-0.125 6.94 4.25 5.11 10.3 11.7 17.1 12.4 2.73-0.155 2.73-0.155 4.77-1.32 0.229-3.68 0.229-3.68-1-7-2.67-1.88-5.38-3.25-8.34-4.64-2.48-1.26-4.08-2.09-5.66-4.36 0.00391-2.05 0.00391-2.05 0.562-4.31 0.166-0.739 0.333-1.48 0.504-2.24 2.43-6.36 7.02-10.8 11.8-15.4 4.15-4.03 8.08-8.05 11.7-12.6 2.55-2.6 4.42-3.73 8.01-2.86z" fill="#FCFDFF"/>
<path transform="translate(636,371)" d="m0 0c0.795 0.191 1.59 0.382 2.41 0.578 5.65 1.43 8.9 2.9 12.6 7.42 0.33 0.33 0.66 0.66 1 1 0.141 2.67 0.0425 5.32 0 8-7.38 0.125-14.6-0.363-22-1 0.276 2.43 0.276 2.43 1 5 3.86 2.71 7.73 4.29 12.1 5.94 6.27 2.44 9.76 6.13 12.9 12.1 0.677 1.66 1.35 3.33 2 5 0.869-0.107 1.74-0.214 2.63-0.324 6.6-0.686 10.5-0.993 16.4 2.32 3.66 0.556 7.31 0.81 11 1-0.914-5.21-0.914-5.21-4.56-8.75-1.84-0.668-3.68-1.32-5.55-1.88-6.63-2.01-12.5-4.78-16.4-10.7-0.995-6.11-0.157-11.1 3-16.4 4.17-5.66 9.38-8.58 16.3-9.69 6.55-0.296 12.6 1.03 18.3 4.44 1.93 2.05 2.89 3.31 3.33 6.11-0.217 5.78-0.217 5.78-1.33 6.89-1.6 0.0992-3.21 0.13-4.81 0.125-0.873 0.00258-1.75 0.00516-2.64 0.00781-2.35-0.122-4.28-0.555-6.54-1.13-1.42-0.0646-2.83-0.0861-4.25-0.0625-1.24 0.0206-2.48 0.0412-3.75 0.0625 0.158 1.93 0.158 1.93 1 4 1.99 1.44 1.99 1.44 4.5 2.5 1.35 0.634 1.35 0.634 2.73 1.28 1.74 0.768 3.5 1.52 5.26 2.25 6.01 2.5 9.67 5.17 13.3 10.7 1.98 5.41 1.98 10.1 0 15.5-3.03 4.6-5.95 8.21-11.5 9.46-12.3 1.55-22.5 0.195-32.5-7.46-1.28-1.07-2.56-2.15-3.81-3.25-0.99 1.08-0.99 1.08-2 2.19-5.98 5.98-12.1 8.91-20.6 9.12-7.78-0.057-14.1-2.53-20.9-6.12-2.41-1.34-2.41-1.34-4.69-1.19-2.69 1.43-4.07 3.59-5.88 6-6.63 3.32-16.4 2.21-23.6 2.25-0.985 0.0206-1.97 0.0412-2.98 0.0625-6.24 0.0333-10.7-0.844-16.4-3.31-3.17-0.502-3.17-0.502-6 0-0.598 0.516-1.2 1.03-1.81 1.56-3.07 2.02-5.25 1.75-8.82 1.2-6.38-2.04-10.1-7.16-13.4-12.7-1.33-2.29-1.33-2.29-2.94-4.06-3.71-0.836-3.71-0.836-7 0-2.4 2.4-1.47 8.53-1.62 11.8-0.379 3.22-0.379 3.22-2.38 5.22-2.28 0.266-2.28 0.266-4.94 0.25-0.875 0.00516-1.75 0.0103-2.65 0.0156-2.41-0.266-2.41-0.266-5.41-2.27-2.63-15-1.58-31.4-0.188-46.4 0.07-0.827 0.14-1.65 0.212-2.51 0.593-5.57 0.593-5.57 2.32-7.75 6.71-5.3 22.2-2.57 30.2-2.06 5.39 0.677 8.7 2.53 12.1 6.88 4.19 6.02 5.85 10.8 5.84 18.1-0.781 4.31-3.16 7.15-5.87 10.5-1.63 2.22-2.41 3.5-2.63 6.23 0.662 2.07 0.662 2.07 1.94 4 0.38 0.66 0.761 1.32 1.15 2 1.97 2.06 3.49 2.9 6.03 4.12 0.725 0.353 1.45 0.706 2.2 1.07 0.555 0.266 1.11 0.531 1.68 0.805 0.00365-0.605 0.00729-1.21 0.011-1.83 0.0418-6.29 0.111-12.6 0.196-18.9 0.0282-2.35 0.0494-4.7 0.0635-7.05 0.0214-3.38 0.068-6.75 0.12-10.1 0.00123-1.05 0.00246-2.1 0.00372-3.19 0.143-7.09 0.143-7.09 2.09-10.6 3.77-2 7.16-1.87 11.4-1.8 1.28 0.00137 1.28 0.00137 2.59 0.00278 1.8 0.00603 3.61 0.0218 5.41 0.0465 2.77 0.0366 5.53 0.041 8.3 0.0405 1.75 0.00983 3.51 0.0215 5.26 0.0352 0.83 0.00223 1.66 0.00445 2.52 0.00674 5.84 0.097 5.84 0.097 8.07 2.33 0.23 2.35 0.23 2.35 0.188 5.06-0.00645 0.898-0.0129 1.8-0.0195 2.72-0.168 2.21-0.168 2.21-1.17 3.21-2 0.158-4 0.251-6 0.316-1.21 0.0419-2.43 0.0838-3.68 0.127-1.28 0.0393-2.56 0.0786-3.88 0.119-1.28 0.0432-2.57 0.0864-3.89 0.131-3.18 0.106-6.37 0.209-9.55 0.307-0.382 1.66-0.714 3.32-1 5 1.6 1.6 3.34 1.15 5.55 1.18 1.39 0.0358 1.39 0.0358 2.81 0.0723 1.96 0.0427 3.92 0.0741 5.88 0.0938 7.1 0.211 7.1 0.211 10.4 2.4 1.52 2.49 1.96 4.1 2.13 7 0.0567 0.799 0.113 1.6 0.172 2.42 0.0258 0.603 0.0516 1.21 0.0781 1.83-1.21 0.0606-2.41 0.121-3.66 0.184-1.61 0.0845-3.23 0.169-4.84 0.254-1.19 0.059-1.19 0.059-2.4 0.119-5.08 0.27-10.1 0.756-15.1 1.44v6c6.27 1.41 12.6 1.52 19 1.81 1.91 0.115 1.91 0.115 3.85 0.232 1.22 0.0535 2.45 0.107 3.71 0.162 1.12 0.0565 2.23 0.113 3.38 0.171 3.78-0.468 5.26-1.87 8.06-4.38 3.63-1.21 4.16-0.699 7.5 0.875 5.47 2.34 10.6 2.9 16.5 3.12-1.27-4.42-1.27-4.42-4-8-1.86-0.655-3.74-1.25-5.62-1.81-6.59-2.14-12.3-4.22-16.4-10-1.72-5.49-1.54-9.51 0.188-14.9 4.27-7.81 13.5-15.4 22.8-12.3z" fill="#FCFDFF"/>
<path transform="translate(736 625)" d="m0 0c6.08 3.25 9.03 7.32 11.3 13.7 0.438 4.24 0.37 8.49 0.375 12.8 0.0245 1.14 0.049 2.28 0.0742 3.46 0.0285 8.28-0.784 15.1-6.77 21.1-3.12 1.91-6.26 3.44-9.62 4.89-1.78 0.781-1.78 0.781-3.59 1.58-3.47 1.17-5.85 1.55-9.47 1.17-2.94-1.88-2.94-1.88-5-5-0.738-5.93 1.34-11.1 3.56-16.5 2.27-5.56 3.54-10.5 2.44-16.5-0.99-1.49-0.99-1.49-2-3-3.16 0.678-3.16 0.678-4.28 3.3-4.28 10.6-6.92 19.5-6.47 30.9 0.193 5.55 0.309 9.31-3.56 13.7-1.2 1.06-2.42 2.09-3.69 3.06-0.53 0.558-1.06 1.12-1.61 1.69-1.39 1.31-1.39 1.31-3.39 1.31-0.495 1.49-0.495 1.49-1 3-0.99 0.784-1.98 1.57-3 2.38-3.99 3.27-6.55 7.17-9.37 11.5-2.82 4.2-5.95 7.84-9.44 11.5-5.11 5.4-9.3 10.2-9.5 17.9 0.182 3.47 0.182 3.47 0.812 5.68 1.24 5.13 1.27 10.3-0.812 15.1-6.04 4.35-13.8 3.09-20.8 2.25-10.3-1.71-18-5.29-24.9-13.3-5.53-8.08-14-20.6-14-30.5 2.28-5.71 8.54-8.51 13.7-11.3 13.7-7.63 25.3-17.1 35.1-29.4 2.15-2.68 4.4-5.22 6.71-7.75 4.7-5.18 9.13-10.5 13.5-16 0.447-0.552 0.893-1.1 1.35-1.67 5.5-6.81 10.7-13.6 15.2-21.1 2.45-3.77 2.45-3.77 4.44-5.21 2.31-0.0117 2.31-0.0117 5 0.312 6.43 0.231 9.75-2.39 14.6-6.37 7.98-6.44 15.5-2.62 24.1 1.31z" fill="#FCFDFF"/>
<path transform="translate(333,619)" d="m0 0c2.68 1.64 2.68 1.64 5.44 3.81 7.21 5.71 7.21 5.71 16 7.31 2.91 0.257 4.19 0.539 6.38 2.51 1.85 2.39 3.52 4.85 5.18 7.36 1.45 1.97 2.91 3.93 4.38 5.88 0.763 1.02 1.53 2.04 2.31 3.09 3.65 4.78 7.46 9.42 11.3 14 0.425 0.512 0.851 1.02 1.29 1.55 5.96 7.17 12.1 14.1 18.5 20.9 2.21 2.56 2.21 2.56 3.27 4.77 1.24 2.35 2.56 2.69 4.94 3.79 1.39 1.19 2.74 2.43 4.06 3.69 5.7 5.17 12 9.08 18.7 12.9 5.13 2.94 9.22 5.28 12.3 10.4 1.72 6.69-1.01 12.1-4.16 17.9-3.07 5.2-6.38 10.2-9.84 15.1-0.55 0.812-1.1 1.62-1.67 2.46-0.501 0.714-1 1.43-1.52 2.16-0.64 0.917-0.64 0.917-1.29 1.85-6.32 6.34-19.4 5.98-27.8 6.04-5.28-0.162-8.5-1.38-12.4-4.81-1.89-2.5-2.36-4.53-2.16-7.64 0.157-1.02 0.157-1.02 0.316-2.06 1.66-11.7 1.66-11.7-2.11-22.4-2.04-2.41-4.27-4.59-6.55-6.77-3.65-3.68-6.55-7.98-9.45-12.3-5.48-7.93-13.5-19.1-22.3-23.5v-2h-2c-0.859-4.1-0.87-6.94 0-11 0.406-6.64-0.872-12-2.88-18.3-0.269-0.893-0.539-1.79-0.816-2.71-1.16-3.75-2.11-6.69-4.31-9.98-2.99 0.694-2.99 0.694-4.25 2.56-2.14 6.95 1.47 14.1 4.17 20.4 1.98 4.9 2.44 8.71 2.08 14-1 2-1 2-3 3-8.58 1.4-15.5-2.93-22.4-7.68-5.83-4.67-7.85-8.93-9.02-16.2-1.01-9.2-1.09-19.8 2.95-28.3 3.44-3.93 7.23-5.64 11.9-7.74 0.846-0.402 1.69-0.804 2.56-1.22 4.19-1.93 7.3-3.32 12-2.91z" fill="#FCFDFF"/>
<path transform="translate(167 233)" d="m0 0c0.885-0.00496 1.77-0.00993 2.68-0.015 2.93-0.0146 5.86-0.0214 8.79-0.0269 2.03-0.00575 4.06-0.0115 6.09-0.0173 4.26-0.0105 8.52-0.0164 12.8-0.0198 5.47-0.0055 10.9-0.0296 16.4-0.058 4.19-0.0186 8.39-0.0238 12.6-0.0254 2.02-0.00304 4.03-0.0111 6.05-0.0242 2.81-0.017 5.63-0.0152 8.44-0.00869 0.839-0.00921 1.68-0.0184 2.54-0.0279 2.32 0.0169 2.32 0.0169 5.99 0.384 2.38 3.57 2.25 5.15 2.23 9.38-0.00193 1.25-0.00387 2.5-0.00586 3.79-0.0122 1.31-0.0245 2.61-0.0371 3.96-9.67e-4 1.97-9.67e-4 1.97-0.00195 3.98-0.0454 9.75-0.0454 9.75-1.19 10.9-1.95 0.0782-3.91 0.0857-5.86 0.0659-1.25-0.00976-2.51-0.0195-3.8-0.0296-0.675-0.00736-1.35-0.0147-2.04-0.0223-2.11-0.0219-4.21-0.0361-6.32-0.0477-5.99-0.0337-12-0.0753-18-0.138-3.66-0.0376-7.32-0.0607-11-0.0743-1.4-0.00807-2.79-0.0217-4.19-0.0409-1.95-0.0264-3.9-0.0327-5.85-0.0381-1.11-0.00968-2.22-0.0194-3.37-0.0293-0.866 0.117-1.73 0.234-2.63 0.354-2.03 3.05-2.25 3.6-2.2 7.01 0.00967 1.14 0.00967 1.14 0.0195 2.29 0.0168 0.786 0.0335 1.57 0.0508 2.38 0.00902 0.797 0.018 1.59 0.0273 2.42 0.0235 1.97 0.0594 3.93 0.0977 5.9 0.71 0.00587 1.42 0.0117 2.15 0.0178 6.68 0.0579 13.4 0.13 20 0.218 3.43 0.0448 6.87 0.084 10.3 0.111 3.95 0.0309 7.89 0.0857 11.8 0.142 1.24 0.00639 2.47 0.0128 3.75 0.0194 1.71 0.0297 1.71 0.0297 3.46 0.06 1.51 0.0167 1.51 0.0167 3.06 0.0336 0.793 0.132 1.59 0.263 2.4 0.399 4.92 7.38 3.45 20.3 3 29-0.33 0.66-0.66 1.32-1 2-0.712-0.00222-1.42-0.00444-2.16-0.00673-6.7-0.02-13.4-0.0352-20.1-0.0451-3.44-0.00523-6.89-0.0123-10.3-0.0236-3.95-0.0129-7.91-0.0178-11.9-0.0222-1.24-0.00516-2.48-0.0103-3.76-0.0156-1.14-7.55e-5 -2.28-1.51e-4 -3.46-2.29e-4 -1.01-0.00222-2.02-0.00444-3.06-0.00673-2.25-0.137-2.25-0.137-3.28 1.12-0.122 1.47-0.178 2.95-0.205 4.43-0.0199 0.941-0.0399 1.88-0.0604 2.85-0.0251 1.53-0.0251 1.53-0.0506 3.1-0.0208 1.04-0.0416 2.08-0.063 3.16-0.0656 3.34-0.124 6.68-0.183 10-0.0432 2.26-0.0868 4.52-0.131 6.78-0.107 5.55-0.209 11.1-0.307 16.7-3.93 0.0742-7.86 0.129-11.8 0.165-2 0.0225-3.99 0.0606-5.99 0.0989-1.88 0.0145-1.88 0.0145-3.8 0.0293-1.74 0.0236-1.74 0.0236-3.51 0.0476-2.91-0.341-2.91-0.341-4.57-1.63-2.32-2.95-1.83-6.59-1.87-10.2-0.0199-0.867-0.0399-1.73-0.0604-2.63-0.0627-2.89-0.104-5.77-0.146-8.66-0.0394-2.03-0.0799-4.06-0.122-6.09-0.107-5.37-0.196-10.7-0.281-16.1-0.0887-5.34-0.197-10.7-0.302-16-0.215-11.1-0.382-22.2-0.527-33.3-0.0357-2.61-0.0764-5.21-0.119-7.82-0.0601-3.75-0.105-7.5-0.137-11.2-0.0193-1.95-0.0529-3.9-0.0869-5.85-0.00538-1.14-0.0108-2.27-0.0163-3.44-0.0105-0.973-0.0211-1.95-0.0319-2.95 0.353-2.41 0.353-2.41 1.69-4.19 4.01-2.95 8.59-2.38 13.3-2.39z" fill="#FCFDFF"/>
<path transform="translate(905,708)" d="m0 0c4.48 6.07 4.58 12.2 3.69 19.5-1.05 6.17-2.72 10.8-7.51 15.1-2.6 1.63-4.14 1.69-7.18 1.74-11.8 0.853-21.8 7.58-31.8 13.3-3.07 1.73-6.15 3.41-9.31 4.98-0.748 0.373-1.5 0.745-2.27 1.13-2.1 1-4.21 1.96-6.34 2.9-8.77 3.99-15.1 8.41-21.6 15.5-2.27 2.45-4.57 4.62-7.12 6.77-2.89 2.45-5.15 5.08-7.5 8.06h-2c-0.204 0.536-0.407 1.07-0.617 1.62-1.95 3.35-4.72 5.74-7.51 8.38-5.24 5.07-9.16 10.1-13 16.3-3.83 5.72-8.16 10.6-14.8 12.7-7.54 0.126-11.6-2.94-17-8-8.65-8.96-8.65-8.96-9.44-13.6 1.19-9.37 10.1-16.4 16.5-22.7 0.885-0.871 1.77-1.74 2.68-2.64 1.69-1.67 3.39-3.33 5.08-4.98 1.67-1.63 3.32-3.29 4.97-4.94 2.37-2.35 4.83-4.58 7.32-6.8 4.78-4.32 9.33-8.83 13.8-13.4 7.92-8.06 15.7-15.5 25-21.9 0.684-0.485 1.37-0.971 2.07-1.47 11.2-7.95 22.4-15.8 36.4-17.4 6.88-0.792 11.6-3.62 17.3-7.25 7.92-4.65 21.8-7.77 30.2-2.88z" fill="#FCFDFF"/>
<path transform="translate(178,708)" d="m0 0c2.98 1.67 5.95 3.34 8.87 5.13 5.41 3.27 10.6 4.99 16.9 5.12 9.4 0.84 16.7 6.82 23.7 12.7 2.67 2.17 5.42 4.15 8.23 6.14 4.05 2.9 7.58 5.95 11 9.59 1.32 1.47 1.32 1.47 3.34 2.35v2c0.552 0.223 1.1 0.446 1.67 0.676 3.06 1.74 5.14 3.98 7.58 6.51 3.15 3.23 6.31 6.39 9.75 9.31 3.33 2.84 6.43 5.88 9.5 9 3.05 3.09 6.12 6.12 9.44 8.94 3.56 3.06 6.96 6.28 10.3 9.56 0.762 0.73 0.762 0.73 1.54 1.47 4.04 4 7.5 8.27 8.74 14-0.0995 6.75-2.31 10.2-6.91 15.1-8.9 8.27-8.9 8.27-13.8 8.75-8.7-0.701-13.2-5.23-18.7-11.7-1.86-2.29-3.67-4.6-5.45-6.95-4.29-5.62-9.13-10.7-14-15.9-1.8-1.92-3.59-3.86-5.37-5.8-5.96-6.46-12-12.8-18.4-18.8-0.512-0.477-1.02-0.954-1.55-1.45-5.68-5.17-11.3-8.33-18.4-11-5.85-2.3-11.1-4.89-16.4-8.38-0.572-0.381-1.14-0.761-1.73-1.15-1.63-1.09-3.26-2.19-4.89-3.28-5.7-3.69-10.1-6.22-17-6.44-6.89-0.242-11.9-3.08-17-7.56-2.5-3.47-3.71-6.81-4.75-10.9-0.263-0.999-0.526-2-0.797-3.03-0.714-4.78 0.0158-8.05 2.3-12.3 6.72-8.21 23.6-6.14 32.2-1.75z" fill="#FCFDFF"/>
<path transform="translate(434,920)" d="m0 0c3.39 3.03 6.17 6.45 9 10 13 15.5 13 15.5 30 26 3.1 0.0582 6.13-0.129 9.22-0.32 2.78 0.32 2.78 0.32 4.61 2.16 1.69 3.14 1.85 4.62 1.17 8.16-1.36 1.67-1.36 1.67-3.12 3.5-15.1 16.1-17.4 45.7-17.2 66.8 0.232 6.68 1.3 13.2 2.3 19.8 1.74 11.7 2.23 22.9 2.03 34.6-0.198 12 0.734 23.7 2.32 35.6 0.641 4.92 0.78 9.66 0.656 14.6-2.89 0.757-5.5 1.19-8.5 1.25-1.13 0.0387-1.13 0.0387-2.28 0.0781-3.05-0.451-4.06-1.08-6.22-3.33-0.95-3.01-1.29-6.06-1.65-9.19-0.12-0.928-0.24-1.86-0.363-2.81-1.34-11-1.95-22-2.55-33-1.04-19-2.97-35.8-9.35-53.8-4.99-14.1-4.99-14.1-3.09-22.2 0.33-0.66 0.66-1.32 1-2 1.12-7.89-0.617-13.3-4.49-20.2-2.65-4.96-3.72-9.65-4.38-15.2-0.934-6.38-2.66-11.1-6.33-16.4-3.7-5.4-5.27-10.7-6.6-17-0.211-0.969-0.422-1.94-0.639-2.94-3.66-17.7-3.66-17.7 0.451-24.3 4.53-3.02 9.3-2.25 14 0z" fill="#FCFDFF"/>
<path transform="translate(630,919)" d="m0 0c3 1 3 1 4 3 0.951 15.7 0.763 34.3-9.53 47.2-3.35 4.56-4 9.6-4.97 15.1-2.33 12.2-2.33 12.2-5.38 17.2-3.31 6.24-1.95 12.9-1.47 19.7 0.565 9.06-0.746 16.2-3.66 24.8-0.524 1.6-1.05 3.2-1.57 4.8-1.24 3.76-2.51 7.5-3.83 11.2-1.38 4.52-1.78 8.9-1.97 13.6-0.0278 0.646-0.0556 1.29-0.0842 1.96-0.0595 1.4-0.117 2.79-0.173 4.19-0.0891 2.21-0.183 4.42-0.278 6.63-0.201 4.69-0.397 9.39-0.591 14.1-0.225 5.44-0.453 10.9-0.688 16.3-0.0923 2.17-0.18 4.35-0.267 6.52-0.0571 1.34-0.114 2.68-0.172 4.01-0.0721 1.75-0.0721 1.75-0.146 3.53-0.204 2.79-0.605 5.39-1.23 8.11-2.44 0.054-4.87 0.0937-7.31 0.125-0.69 0.0168-1.38 0.0335-2.09 0.0508-3.77 0.0364-5.38-0.032-8.6-2.18-1.09-6.74 0.26-14 1.07-20.8 1.77-14.7 2.2-29.2 1.82-44-0.171-8.55 0.377-16.6 2.01-25 4.38-22.6-0.43-57.4-13-76.9-2.48-3.56-5.14-6.95-7.9-10.3 0.844-1.95 0.844-1.95 2-4 2.84-0.853 5.28-1.09 8.23-0.734 5.74 0.548 8.64-0.417 13.1-4.08 1.89-1.71 3.77-3.44 5.62-5.19 1.01-0.891 2.03-1.78 3.05-2.66 5.94-5.21 11-10.7 15.9-16.9 5.35-6.44 9.54-9.76 18-9.46z" fill="#FCFDFF"/>
<path transform="translate(702 231)" d="m0 0c1.36-0.0029 1.36-0.0029 2.75-0.00586 1.41 0.0358 1.41 0.0358 2.84 0.0723 1.41-0.0164 1.41-0.0164 2.84-0.0332 6.72 0.0715 6.72 0.0715 10.3 2.06 3.49 3.71 3.04 6.76 2.92 11.7-0.00248 0.924-0.00496 1.85-0.00752 2.8-0.0137 3.05-0.0623 6.11-0.11 9.16-0.0144 2.12-0.0263 4.24-0.0358 6.36-0.0304 5.58-0.0891 11.2-0.155 16.7-0.102 8.94-0.166 17.9-0.222 26.8-0.0243 3.13-0.0629 6.26-0.103 9.38-0.0168 1.91-0.0333 3.82-0.0494 5.72-0.0226 1.31-0.0226 1.31-0.0456 2.65-0.0117 2.08 0.0809 4.16 0.193 6.23 1.79 2.21 1.79 2.21 4.23 2.23 1.39-0.0112 1.39-0.0112 2.8-0.0226 1.05-0.00338 2.1-0.00676 3.18-0.0102 1.14-0.0135 2.27-0.0269 3.44-0.0408 1.16-0.0052 2.33-0.0104 3.53-0.0158 3.73-0.0179 7.47-0.049 11.2-0.0819 3.73-0.0276 7.45-0.0523 11.2-0.0712 2.32-0.0123 4.64-0.0299 6.96-0.0533 1.05-0.00653 2.11-0.0131 3.19-0.0198 0.927-0.00825 1.85-0.0165 2.81-0.025 3.45 0.148 5.69 0.315 8.17 2.79 2.65 4.66 2.47 10 2.5 15.2 0.0142 1.16 0.0284 2.33 0.043 3.53-0.245 3.76-1.15 6.94-2.23 10.5-10.8 0.0696-21.7 0.123-32.5 0.155-5.04 0.0156-10.1 0.0369-15.1 0.0709-4.86 0.0326-9.73 0.0505-14.6 0.0583-1.85 0.00554-3.71 0.0163-5.56 0.0326-2.6 0.0218-5.2 0.0248-7.8 0.0234-0.764 0.0108-1.53 0.0216-2.31 0.0327-4.77-0.0275-8.05-0.794-12.1-3.37-2.17-3.26-2.25-4.19-2.27-7.96-0.00998-1.02-0.02-2.05-0.0302-3.1-6.65e-4 -1.12-0.00133-2.24-0.00201-3.4-0.00832-1.18-0.0166-2.36-0.0252-3.58-0.02-3.24-0.0307-6.49-0.0358-9.73-0.00364-2.03-0.00988-4.05-0.017-6.08-0.0245-7.07-0.0375-14.1-0.0411-21.2-0.00364-6.59-0.0335-13.2-0.0754-19.8-0.0347-5.66-0.0501-11.3-0.0508-17-7.93e-4 -3.38-0.00954-6.76-0.038-10.1-0.0268-3.77-0.0221-7.54-0.00958-11.3-0.0148-1.12-0.0297-2.24-0.045-3.39 0.0718-7.57 0.0718-7.57 3.03-11.5 2.81-1.94 4.14-2.44 7.52-2.44z" fill="#FCFDFF"/>
<path transform="translate(807 529)" d="m0 0c5.68 5.39 12.6 12.2 13.2 20.3-0.683 7.62-7.51 12.1-12.9 16.7-2.43 2.09-4.67 4.29-6.88 6.62-0.706 0.731-0.706 0.731-1.43 1.48-9.79 10.7-11.7 21.5-12.7 35.4-0.828 10.4-2.2 17-10.1 24.2-3.49 2.31-6.18 3.8-10.3 4.66-6.52-1.45-9.93-6.04-13.8-11.2-4.43-5.91-10.1-9.1-16.4-12.6-4.75-2.79-7.1-4.76-8.5-10.1-0.843-4.56-0.703-8.22 0.312-12.8 2.22-2.81 4.89-4.06 8.06-5.62 6.21-3.33 10.9-7.46 15.9-12.4 0.562-0.548 1.12-1.1 1.7-1.66 5.89-5.76 11.7-11.5 17-17.8 1.31-1.52 1.31-1.52 3.68-3.83 3.12-3.19 5.81-6.62 8.57-10.1 9.28-11.6 9.28-11.6 16.1-14.4 3.59-0.337 5.88 0.885 8.63 3.16z" fill="#FCFDFF"/>
<path transform="translate(257 528)" d="m0 0c5.26 4.4 9.68 9.58 14 14.9 5.85 7.31 12.1 14 18.7 20.6 0.523 0.525 1.05 1.05 1.59 1.59 7.15 7.15 14.4 13.8 22.9 19.4 3.55 2.49 6.96 5.11 8.93 9.05 0.154 2.41 0.137 4.6 0 7-0.0206 0.878-0.0412 1.76-0.0625 2.66-0.386 4.39-0.804 7.3-4.13 10.4-2.87 1.82-5.79 3.42-8.8 4.98-6.88 3.82-11.8 6.77-15.1 14.1-0.902 1.92-0.902 1.92-2.9 3.92-6.93 1.13-10.8-1.16-16.5-5.07-6.7-5.2-10.4-11.5-11.5-19.9-0.115-2.26-0.179-4.51-0.239-6.78-0.453-15.1-4.98-24.9-15.4-36.1-0.763-0.701-1.53-1.4-2.31-2.12-1.7-1.63-3.38-3.29-5-5v-2c-0.876-0.389-0.876-0.389-1.77-0.785-2.39-1.3-4.01-2.72-5.92-4.65-0.602-0.597-1.2-1.19-1.82-1.81-1.49-1.75-1.49-1.75-2.49-4.75 2.78-8.02 8.06-15.6 14.4-21.1 4.93-1.68 9-0.641 13.5 1.56z" fill="#FCFDFF"/>
<path transform="translate(663 232)" d="m0 0c0.811-0.029 1.62-0.058 2.46-0.0879 0.786-0.00838 1.57-0.0168 2.38-0.0254 0.714-0.0146 1.43-0.0292 2.16-0.0442 3.26 0.744 4.18 1.67 6.06 4.47 0.7 3.67 0.699 7.32 0.746 11 0.0287 1.2 0.0574 2.4 0.087 3.64 0.444 20.4 0.276 40.8 0.236 61.1-0.0104 5.79-0.0148 11.6-0.0198 17.4-0.0106 11.3-0.0276 22.5-0.0488 33.8-5.1 2.71-9.81 2.37-15.5 2.38-1.05 0.0245-2.09 0.049-3.17 0.0742-1.01 0.00387-2.01 0.00773-3.05 0.0117-0.917 0.00822-1.83 0.0164-2.78 0.0249-3.54-0.687-4.4-1.51-6.5-4.49-0.634-3.72-0.584-7.41-0.578-11.2-0.0203-1.71-0.0203-1.71-0.0411-3.46-0.0397-3.78-0.0509-7.55-0.061-11.3-0.0201-2.62-0.0416-5.25-0.0645-7.87-0.0451-5.5-0.0748-11-0.0947-16.5-0.023-6.35-0.067-12.7-0.123-19-0.0538-6.12-0.0956-12.2-0.131-18.4-0.0159-2.6-0.0342-5.2-0.0552-7.79-0.0271-3.64-0.0406-7.27-0.0502-10.9-0.0103-1.07-0.0205-2.14-0.0311-3.25 6.38e-4 -5.49 0.255-10.2 2.23-15.3 4.66-4.51 9.84-4.24 15.9-4.31z" fill="#FCFDFF"/>
<path transform="translate(871,453)" d="m0 0c5.67 2.67 7.87 6.34 10 12 0.563 2.92 0.695 5.78 0.75 8.75 0.0401 1.17 0.0401 1.17 0.0811 2.37 0.0495 1.57 0.0904 3.13 0.122 4.7 0.0418 1.95 0.12 3.9 0.203 5.84 0.163 5.47 0.255 8.82-3.16 13.3-1.95 1.26-1.95 1.26-4.12 2.12-0.789 0.322-1.58 0.645-2.39 0.977-3.14 1.14-6.32 2.11-9.54 2.99-2.58 1.2-3.41 2.51-4.95 4.91-0.96 2.82-0.96 2.82-1.65 5.94-0.425 1.71-0.425 1.71-0.859 3.46-0.578 2.4-1.15 4.8-1.71 7.2-0.286 1.14-0.572 2.28-0.867 3.46-0.248 1.04-0.496 2.09-0.751 3.16-1.69 4.05-4.5 5.76-8.15 7.99-4.28 1.67-8.53 1.54-13 0.785-6.8-3.19-10.9-9.31-15.3-15.2-3.16-4.25-6.49-7.34-10.8-10.3-2.12-1.62-3.48-3.21-4.91-5.46 0-3.42 0.784-4.75 3.03-7.34 3.57-3.2 7.34-5.46 11.5-7.85 16.9-10.1 32.8-22.8 44.1-39.1 3.61-4.51 6.63-5.39 12.4-4.7z" fill="#FCFDFF"/>
<path transform="translate(187,453)" d="m0 0c2.02 1.58 2.02 1.58 3.81 3.81 1.01 1.22 1.01 1.22 2.04 2.47 0.708 0.896 1.42 1.79 2.14 2.71 1.54 1.92 3.08 3.84 4.62 5.75 0.744 0.922 1.49 1.84 2.25 2.79 2.49 2.88 5.15 5.1 8.12 7.46v2c0.517 0.235 1.03 0.469 1.57 0.711 3.28 1.74 6.3 3.83 9.37 5.91 3.84 2.6 7.68 5.19 11.7 7.53 14.9 8.68 14.9 8.68 17.2 16.8-2.19 7.5-9.5 12.5-15.2 17.5-2 1.88-3.73 3.68-5.48 5.76-0.471 0.551-0.942 1.1-1.43 1.67-0.907 1.08-1.8 2.17-2.66 3.28-1.79 2.11-3.31 3.66-6.08 4.19-3.54 0.062-6.91-0.29-10.2-1.56-0.918-0.331-0.918-0.331-1.86-0.668-6.24-3.65-8.14-8.38-10.1-15-0.48-1.55-0.962-3.1-1.45-4.64-0.232-0.755-0.464-1.51-0.702-2.29-0.724-2.25-1.53-4.45-2.37-6.65-1.36-3.61-1.36-3.61-1.92-6.48-1.23-2.31-1.23-2.31-3.5-2.7-1.75-0.294-3.5-0.573-5.26-0.84-4.15-0.915-7.35-3-10.7-5.59-0.563-0.434-1.13-0.869-1.71-1.32-2.67-3.47-1.54-8.4-1.37-12.6 0.0867-2.34 0.128-4.67 0.172-7.01 0.05-1.7 0.102-3.4 0.156-5.09 0.0139-0.813 0.0277-1.63 0.042-2.46 0.213-5.07 0.869-7.9 4.71-11.5 1.93-1.36 1.93-1.36 3.88-2.31 0.637-0.326 1.27-0.652 1.93-0.988 2.92-0.931 5.14-1.05 8.2-0.699z" fill="#FCFDFF"/>
<path transform="translate(990 449)" d="m0 0c4.7 2.4 7.22 6.02 8.88 11 0.525 7.18 0.623 12.2-3.8 18.3-2.17 3.53-2.85 6.09-3.51 10.2-0.111 0.648-0.223 1.3-0.337 1.96-0.237 1.38-0.468 2.76-0.694 4.14-1.84 11.2-3.97 22.1-7.56 32.8-2.79 8.39-3.05 15.5-2.04 24.3 0.0915 0.859 0.183 1.72 0.277 2.6 0.399 3.68 0.847 7.33 1.41 11 0.471 3.63 0.531 7.12 0.496 10.8-0.00902 1.24-0.018 2.47-0.0273 3.75-0.0116 0.929-0.0232 1.86-0.0352 2.82-3.33 0.38-4.72 0.184-7.56-1.68-3.21-3.05-5.73-6.43-8.38-9.98-2.18-2.48-4.16-3.8-7.06-5.34-0.632-0.339-1.26-0.678-1.91-1.03-0.565-0.3-1.13-0.601-1.71-0.91-4.08-2.49-5.84-4.04-7.07-8.66-0.388-4.28 0.536-7.87 1.63-12 0.464-1.86 0.925-3.71 1.38-5.57 0.262-1.06 0.524-2.12 0.794-3.21 1.62-6.7 3.16-13.4 4.65-20.1 0.361-1.62 0.728-3.23 1.1-4.84 3.11-13.4 5.42-25.8-0.0879-39-0.973-3.4-0.86-5.35 0.223-8.72 3.93-4.3 9.2-5.78 14.6-7.62 1.69-0.594 3.38-1.19 5.07-1.79 0.743-0.257 1.49-0.515 2.25-0.78 2.16-0.768 2.16-0.768 4.21-1.93 1.91-0.874 1.91-0.874 4.85-0.436z" fill="#FCFDFF"/>
<path transform="translate(74.8 453)" d="m0 0c1.17 0.39 1.17 0.39 2.36 0.787 0.785 0.248 1.57 0.496 2.38 0.752 5.89 1.95 9.96 4.13 13.5 9.44 1.07 6.11-0.473 11-3.12 16.4-1.92 5.61-0.695 11.3 0.445 17 0.209 1.05 0.209 1.05 0.422 2.12 0.454 2.27 0.918 4.53 1.38 6.79 0.317 1.57 0.633 3.14 0.949 4.71 2.12 10.4 4.45 20.8 7.15 31.1 3.35 13.1 3.35 13.1-0.0962 19-2.33 2.47-4.73 3.64-7.81 5-5.8 2.6-9.02 6.76-12.8 11.7-2.52 2.13-2.52 2.13-6.26 2.02-3.26-0.883-3.26-0.883-4.26-1.88 0.0875-2.18 0.242-4.35 0.422-6.52 0.581-7.67 0.797-15.3 0.818-23 0.00979-2.11 0.041-4.23 0.0723-6.34 0.0932-11.9-1.99-22.4-6.44-33.4-2.3-5.97-3.23-11.1-3.25-17.5-0.0364-7.75-2.28-12.2-6.91-18.3-2.11-3.6-2.11-5.81-1.71-9.93 4.65-13.5 10.6-13.9 22.8-9.97z" fill="#FCFDFF"/>
<path transform="translate(1009 326)" d="m0 0c3.35 1.94 4.75 4.57 5.94 8.12 1.44 8.61-0.617 15.6-3.64 23.5-5.44 14.3-6.41 29.1-6.43 44.3-0.01 1.98-0.0204 3.97-0.0312 5.95-0.0168 3.07-0.0232 6.15 0.00195 9.22 0.0209 3-0.00221 6.01-0.0332 9.01 0.0174 0.916 0.0348 1.83 0.0527 2.77-0.117 6.22-0.117 6.22-2.42 9.13-6.19 5.45-14.6 9.1-22.9 9.79-4.91-0.932-7.55-2.77-10.6-6.69-4.47-7.76-4.11-17.9-2.27-26.4 1.55-5.24 3.5-10.2 5.65-15.3 4.93-11.5 8.26-23.6 11.2-35.8 3.66-14.9 7.92-27.5 21.2-36.5 2.29-1.17 2.29-1.17 4.35-1.3z" fill="#FCFDFF"/>
<path transform="translate(46,329)" d="m0 0c2.93 1.71 5.45 3.76 8 6 0.624 0.544 1.25 1.09 1.89 1.65 8.36 8.32 10 21.1 12.9 32.1 0.251 0.965 0.251 0.965 0.508 1.95 0.342 1.31 0.684 2.63 1.02 3.94 3.38 13 7.86 25.3 13.1 37.7 3.99 9.92 3.59 18.5-0.223 28.4-1.17 2.29-2.15 3.7-4.17 5.28-8.49 1.31-18.7-2.08-25.7-6.82-2.57-2.21-4.76-4.13-6.29-7.18-0.133-2.4-0.21-4.78-0.246-7.19-0.0314-1.51-0.0632-3.01-0.0952-4.52-0.0154-0.792-0.0307-1.58-0.0466-2.4 0.318-34.2 0.318-34.2-8.8-66.6-2.73-5.62-3.97-10.1-2.81-16.3 2.48-6.41 4.28-7.87 11-6z" fill="#FCFDFF"/>
<path transform="translate(1018,475)" d="m0 0c3.92 2.15 6.62 4.22 9 8 2.1 9.5-1.81 19.3-4.59 28.2-2.11 6.96-2.66 13.6-2.97 20.9-0.0615 1.4-0.0615 1.4-0.124 2.84-0.764 17.4-0.764 17.4 2.81 34.4 1.39 5.84 1.02 11.7 0.875 17.7-9.83 0.709-20.1-0.535-28.1-6.81-4.48-4.47-6.03-9.13-6.25-15.4 0.137-5.06 1.23-9.52 2.58-14.4 1.13-4.88 1.6-9.79 2.06-14.8 0.374-3.93 0.921-7.71 1.76-11.6 1.09-5.23 1.38-10.3 1.54-15.7 0.785-22.8 0.785-22.8 9.12-31.4 4.08-3.53 7.23-3.23 12.3-2z" fill="#FCFDFF"/>
<path transform="translate(43,474)" d="m0 0c6.7 4.1 9.57 10.7 12 18 0.103 1.67 0.155 3.35 0.176 5.02 0.276 13.2 1.55 25.6 4.31 38.5 6.4 30.7 6.4 30.7 2.59 41-3.33 4.7-8.32 5.96-13.8 7.06-14.3 1.88-14.3 1.88-18-0.803-1.3-1.76-1.3-1.76-1.29-3.9 0.177-0.813 0.354-1.63 0.536-2.46 0.278-1.35 0.278-1.35 0.562-2.73 0.211-0.94 0.423-1.88 0.641-2.85 5.52-25.9 3.58-53-4.88-78.2-1.3-3.93-1.33-6.49-0.871-10.6 4.18-5.71 10.9-9.21 18-8z" fill="#FCFDFF"/>
<path transform="translate(584,758)" d="m0 0c1.75 2.73 1.75 2.73 3.44 6.19 4.96 10.1 12.4 18 22.6 22.8 9.9 2.5 17.6-0.487 26.2-5.24 3.42-1.86 5.21-2.79 9.19-2.61 2.62 0.848 2.62 0.848 4.5 2.47 1.65 3.49 1.78 5.56 1.12 9.38-4.51 4.94-10.3 8.24-16 11.7-3.79 2.33-6.58 4.56-8.98 8.33-1.25 5.94 0.231 11.3 2.33 16.9 0.992 3.14 0.877 5.85 0.668 9.12-7.25 0.761-11.1-0.633-16.8-5.06-1.38-1.02-2.77-2.03-4.16-3.04-0.683-0.497-1.37-0.994-2.07-1.51-3.87-2.66-8.04-4.69-12.2-6.76-5.57-3.29-8.91-7.46-10.8-13.6-0.256-1.47-0.497-2.94-0.727-4.41-1.54-7.94-5.22-15.1-8.55-22.4-0.49-1.11-0.981-2.22-1.49-3.37-0.453-0.999-0.907-2-1.37-3.03-0.964-3.12-0.827-4.72 0.135-7.8 1.81-3.36 3.96-6.25 7.06-8.5 2.52-0.651 3.53-0.554 5.94 0.5z" fill="#FCFDFF"/>
<path transform="translate(469,756)" d="m0 0c3.63 1.21 5.94 3.55 7.99 6.74 3.69 8.27 0.975 16-2.08 23.9-1.56 3.9-3.19 7.77-4.83 11.6-2.05 5.04-3.8 10-4.71 15.4-2.1 5.05-5.73 6.69-10.4 9.31-1.12 0.641-2.24 1.28-3.39 1.94-1.81 1.03-3.62 2.06-5.44 3.08-3.54 1.99-6.88 4.12-10.2 6.48-2.72 1.85-3.98 2.5-7.31 3.06-2.95-0.618-4.49-1.53-6.69-3.56 0.905-4.24 1.82-8.42 3.12-12.6 1.08-4.24 1.36-7.06 0.875-11.4-4.58-6.95-11.8-10.5-18.8-14.7-2.61-1.64-4.98-3.19-7.22-5.3-0.927-4.59-0.551-6.13 1.94-10.1 3.06-1.94 3.06-1.94 6.88-1.69 3.83 1.09 7.33 2.72 10.9 4.41 7.34 3.42 14 6.42 22.3 4.34 3.58-1.82 6.19-4.16 9-7 0.785-0.772 1.57-1.54 2.38-2.34 4.61-4.81 7.81-9.46 10.6-15.5 1.27-2.56 2.85-4.34 5.06-6.14z" fill="#FCFDFF"/>
<path transform="translate(940,732)" d="m0 0c2.69 1.69 2.69 1.69 4 4 0.677 5.98-0.933 9.32-4.5 13.9-0.459 0.608-0.917 1.22-1.39 1.84-1.35 1.76-2.73 3.49-4.11 5.22-0.656 0.851-1.31 1.7-1.99 2.58-5.38 6.22-11.2 7.01-19 8.42-29.8 6.52-63.3 17.4-88.1 35.5-3.43 2.38-5.65 3.88-9.91 3.29-0.99-0.268-1.98-0.536-3-0.812 4.99-13.7 17.8-22.2 30-29 1.3-0.723 2.59-1.45 3.89-2.17 2.23-1.24 4.47-2.48 6.71-3.72 7.24-4 14.4-8.12 21.6-12.3 0.846-0.487 1.69-0.974 2.56-1.48 0.75-0.434 1.5-0.868 2.27-1.31 3.47-1.85 6.48-2.25 10.3-2.49 1.58-0.11 1.58-0.11 3.18-0.223 2.21-0.148 4.42-0.289 6.62-0.422 1.05-0.0761 2.11-0.152 3.19-0.23 1.44-0.0926 1.44-0.0926 2.91-0.187 3.17-0.592 5.15-1.58 7.72-3.51 1.18-3.25 1.18-3.25 1.69-6.94 1.38-8.06 1.38-8.06 3.31-11.1 6.05-3.03 15.7-0.782 22 1z" fill="#FCFDFF"/>
<path transform="translate(135 729)" d="m0 0c2.23 4 2.99 7.83 3.81 12.3 1.33 3.9 2.64 5.52 6 7.94 3.25 0.662 6.44 0.654 9.75 0.625 13 0 21.2 4.23 32.2 11 2.41 1.46 4.82 2.92 7.23 4.38 0.589 0.355 1.18 0.709 1.78 1.07 4.63 2.77 9.38 5.19 14.2 7.55 12.3 6.13 23.2 17 30.8 28.4v4c-6.11-0.372-10.1-3.33-15-6.62-13.4-8.68-27-14.7-42-20.2-3.27-1.22-6.51-2.49-9.75-3.76-10.8-4.19-21-7.93-32.5-9.4-12.3-1.69-19.9-10-27.1-19.5-2.95-4.14-4.8-7.5-5.69-12.5 2.41-3.39 3.93-4.72 8.02-5.78 14.6-2.29 14.6-2.29 18.2 0.527z" fill="#FCFDFF"/>
<path transform="translate(376 804)" d="m0 0c0.778-0.00761 1.56-0.0152 2.36-0.0231 1.64-0.0108 3.28-0.0137 4.92-0.00916 2.5 9.72e-4 4.99-0.0407 7.49-0.085 1.6-0.00521 3.2-0.0079 4.79-0.00781 0.741-0.0164 1.48-0.0328 2.24-0.0497 5.82 0.0769 8.11 1.67 12 5.64 3.24 4.52 5.68 9.12 6.62 14.6-1.46 7.91-4.48 12.9-10.6 18.1-4.21 2.76-9.08 2.88-14 2.31-1.18-0.516-2.35-1.03-3.56-1.56-4.3-1.8-5.95-1.69-10.4-0.438-2.01 1.02-4.01 2.06-6 3.12-3.6 1.85-5.68 2.85-9.75 3.12-3.67-1.41-6.22-3.29-9.25-5.76-1.94-1.45-3.69-2.35-5.93-3.24-3.06-1.25-3.06-1.25-4.06-3.25 0.681-0.66 1.36-1.32 2.06-2 0.98-0.999 1.96-2 2.94-3 0.531-0.512 1.06-1.02 1.61-1.55 4.85-5.02 7.67-10.6 10.5-16.9 0.463-1.01 0.463-1.01 0.936-2.04 0.264-0.604 0.529-1.21 0.801-1.83 3.57-5.05 8.64-5.15 14.3-5.15z" fill="#FCFDFF"/>
<path transform="translate(657 805)" d="m0 0c1.07-0.00855 1.07-0.00855 2.17-0.0173 1.51-0.00944 3.03-0.016 4.54-0.0198 2.31-0.0097 4.62-0.0407 6.93-0.0723 1.47-0.00653 2.95-0.0118 4.42-0.0156 0.687-0.0123 1.37-0.0247 2.08-0.0374 4.36 0.0201 7.03 0.746 10.5 3.37 1.55 1.8 1.55 1.8 2.88 3.88 0.503 0.786 1.01 1.57 1.52 2.38 1.82 3.11 3.45 6.29 5.1 9.49 2.73 5.21 2.73 5.21 6.88 9.25 3.09 2.35 3.1 3.31 3.62 7-0.675 0.398-1.35 0.797-2.05 1.21-0.892 0.53-1.78 1.06-2.7 1.61-0.882 0.522-1.76 1.04-2.67 1.58-2.57 1.53-2.57 1.53-4.7 3.31-1.88 1.3-1.88 1.3-5.12 1.23-3.7-0.926-6.62-2.19-9.95-4-3.54-1.85-6.43-2.07-10.4-2.06-1.46-0.00387-1.46-0.00387-2.94-0.00781-2.5-0.0337-2.5-0.0337-4.5 1.13-7.5 0.925-13 0.464-19.1-4.23-4.71-4.36-7.79-8.95-8.94-15.4 0.0821-5.6 3.1-10.3 6.83-14.3 4.99-4.44 8.93-5.23 15.5-5.27z" fill="#FCFDFF"/>
<path transform="translate(816,1214)" d="m0 0c5.04 4.2 8.92 9.77 11 16 1.22 15.7 1.22 15.7-4 22-6.4 5.96-12.2 8.35-20.9 8.31-1.04 0.0242-1.04 0.0242-2.09 0.0488-7.17 0.0068-12.2-2.92-17.4-7.56-4.34-4.86-6.38-11.4-6.61-17.8 1.1-7.43 4.12-15.1 10.3-19.7 9.11-5.19 20.4-6.81 29.7-1.29z" fill="#FCFDFF"/>
<path transform="translate(476 1212)" d="m0 0c5.4 3.95 8.51 9.6 10.6 15.9 0.301 3.34 0.301 3.34 0.312 6.94 0.0168 1.18 0.0335 2.37 0.0508 3.59-0.638 6.09-3.18 9.77-7.74 13.7-0.75 0.665-1.5 1.33-2.27 2.02-5.69 4.2-11 4.1-17.9 4.11-0.937 0.0245-1.87 0.049-2.84 0.0742-4.31 0.0183-6.95-0.038-10.7-2.22-6.65-7.68-4.36-22.7-3.93-32.2 0.439-5.64 0.916-9.57 4.38-14.1 8.64-6.17 21.5-2.48 30.1 2.25z" fill="#FCFDFF"/>
<path transform="translate(331 1209)" d="m0 0c4.8 4.07 8.91 9.63 10.9 15.6 1.21 17.9 1.21 17.9-4 24-6.51 6.69-15.8 8.14-24.8 8.38-4.73-0.129-8.35-0.364-12.2-3.38-2.19-4.15-2.31-8.12-2.3-12.7-0.00429-0.733-0.00857-1.47-0.013-2.22-0.00572-1.55-0.00626-3.09-0.00191-4.64 0.00316-2.35-0.0203-4.7-0.0457-7.06-0.00227-1.51-0.00298-3.01-0.00195-4.52-0.00921-0.697-0.0184-1.39-0.0279-2.11 0.0435-4.64 0.984-7.78 3.39-11.7 6.16-5.06 22.6-3.18 29.1 0.391z" fill="#FCFDFF"/>
<path transform="translate(1022,355)" d="m0 0c2.68 0.983 3.78 1.57 5.09 4.16 2.91 9.08 1.94 19.4 1.32 28.8-1.3 20.2-0.648 39.5 6.27 58.7 1.47 4.48 2.06 7.59 1.31 12.3-2.03 2.99-4.4 5.49-7 8-0.99 0.99-0.99 0.99-2 2-6.15 1-9.38-1.15-14.2-4.59-1.82-1.41-1.82-1.41-2.82-2.41-0.337-4.63-0.0981-8.03 1.5-12.4 2.06-6.65 1.91-13.1 1.82-20.1-0.0087-1.36-0.0172-2.72-0.0254-4.09-0.109-11.3-0.86-22.5-1.85-33.7-0.971-11.7-1.2-23.1 6.56-32.8 1.3-1.37 2.62-2.72 4-4z" fill="#FCFDFF"/>
<path transform="translate(27,356)" d="m0 0c2.23 0.102 2.23 0.102 5 1 1.66 2.14 2.94 4.04 4.25 6.38 0.351 0.59 0.701 1.18 1.06 1.79 3.62 6.19 3.87 10.7 3.88 17.7 0.0122 0.879 0.0245 1.76 0.0371 2.66 0.0108 5-0.365 9.7-1.22 14.6-1.17 7.08-1.35 14.1-1.32 21.2 0.00317 2.13-0.0204 4.26-0.0457 6.4-0.034 7.74 0.613 14.9 2.7 22.4 1.06 4.61 0.918 9.18 0.664 13.9-4.24 2.24-7.78 3.96-12.6 4.12-5.45-1.82-8.78-5.18-12.4-9.56-2.02-5.17 0.257-10.7 1.88-15.8 4.62-15.9 6.24-31.8 4.62-48.3-0.557-6.04-0.721-12.1-0.812-18.1-0.0445-1.46-0.0445-1.46-0.0898-2.95-0.0544-6.67 1.19-11.5 4.4-17.4z" fill="#FCFDFF"/>
<path transform="translate(522 1211)" d="m0 0c3.68 0.289 4.65 0.62 7.19 3.25 1 3.43 1.71 6.77 2.33 10.3 0.456 2.4 0.456 2.4 1.67 5.72 2.49 1.59 2.49 1.59 5 2 0.254-1.26 0.508-2.53 0.77-3.83 0.347-1.66 0.695-3.32 1.04-4.98 0.166-0.833 0.331-1.67 0.502-2.53 0.171-0.802 0.342-1.6 0.518-2.43 0.228-1.11 0.228-1.11 0.46-2.24 0.828-2.33 1.8-3.44 3.71-4.99 1.94-0.363 1.94-0.363 4-0.312 1.02 0.0058 1.02 0.0058 2.06 0.0117 1.94 0.301 1.94 0.301 4.94 2.3 0.935 3.59 1.65 7.14 2.29 10.8 0.917 4.83 0.917 4.83 4.35 8.24 1.17 0.478 1.17 0.478 2.37 0.965 0.098-0.606 0.196-1.21 0.297-1.84 2.71-15.2 2.71-15.2 6.7-19.2 1.81-0.133 1.81-0.133 4-0.125 0.722-0.00258 1.44-0.00516 2.19-0.00781 1.81 0.133 1.81 0.133 2.81 1.13-0.141 5.95-1.53 11.6-3.25 17.2-0.218 0.737-0.436 1.47-0.661 2.23-0.689 2.32-1.39 4.64-2.09 6.96-0.469 1.58-0.938 3.16-1.41 4.74-0.447 1.5-0.895 3-1.34 4.51-0.21 0.705-0.421 1.41-0.638 2.14-1.49 4.94-1.49 4.94-2.61 7.18-1.83 0.186-1.83 0.186-3.69 0.375-1.03 0.104-1.03 0.104-2.07 0.211-3.6-0.941-5.32-3.59-7.24-6.59-1.25-2.54-2.24-5.14-3.19-7.81-1.39-4.9-1.39-4.9-4.81-8.19-2.04 5.85-3.76 11.7-5.25 17.7-0.746 2.29-0.746 2.29-2.75 4.29-3.99 0.527-6.15 0.608-9.47-1.77-3.92-4.2-5.06-9.98-6.65-15.4-0.334-1.08-0.668-2.16-1.01-3.27-0.982-3.2-1.93-6.4-2.86-9.61-0.312-1.02-0.623-2.03-0.944-3.08-0.284-0.961-0.568-1.92-0.86-2.91-0.383-1.27-0.383-1.27-0.773-2.57-0.482-2.79-0.189-4.74 0.578-7.44 1-1 1-1 3.81-1.25z" fill="#FCFDFF"/>
<path transform="translate(738 826)" d="m0 0c3.94 1.43 6.92 3.93 9.75 7v2h2c3.54 3.53 6.73 7.1 7.44 12.1-2.18 4.37-5.61 6.94-9.44 9.88-1.06 0.845-1.06 0.845-2.14 1.71-1.86 1.29-1.86 1.29-3.86 1.29-0.375 1.26-0.375 1.26-0.758 2.54-1.38 3.85-3.15 7.26-5.12 10.8-2.18 4-4.32 7.97-6.19 12.1-2.29 4.7-6.23 9.15-10.9 11.5-6.16 0.448-6.16 0.448-9-1.06-1.58-3.06-0.811-5.74 0-8.94 0.515-1.61 1.04-3.21 1.56-4.81 1.54-5.15 2.74-9.86 1.44-15.2-1.84-3.11-3.87-5.85-6.15-8.65-1.85-2.35-1.85-2.35-2.85-5.35 0.814-2.89 1.88-3.91 4.31-5.69 3.72-1.33 6.4-1.49 10.3-1.62 5.01-0.189 5.01-0.189 8.94-3.06 1.6-4.04 3.09-8.09 4.41-12.2 1.35-3.14 2.79-4.39 6.28-4.39z" fill="#FCFDFF"/>
<path transform="translate(992,649)" d="m0 0c1.44 2.88 1.31 4.79 1 8-1.28 2.42-2.55 4.48-4.12 6.69-0.44 0.637-0.88 1.27-1.33 1.93-6.75 9.68-13.7 19.3-21 28.6-5.48 7.04-10 14.5-14.5 22.2-0.488 0.834-0.977 1.67-1.48 2.53-0.435 0.751-0.87 1.5-1.32 2.28-1.19 1.87-1.19 1.87-3.19 3.87-7.95-0.385-17.3-1.53-24-6 0.281-3.58 0.529-5.49 3-8.17 0.844-0.666 1.69-1.33 2.56-2.02 6.48-5.52 10.8-11.9 15.5-18.9 15-22 15-22 25.9-28.9 1.02-0.656 2.05-1.31 3.1-1.99 15.8-10 15.8-10 19.9-10z" fill="#FCFDFF"/>
<path transform="translate(316 824)" d="m0 0c5.12 4.16 7.67 9.7 10 15.7 0.969 2.25 0.969 2.25 3.99 3.92 2.16 0.27 4.33 0.448 6.5 0.562 3.45 0.19 6.22 0.343 9.5 1.44 2.43 3.64 2.72 4.7 2 9-1.65 2.43-3.44 4.63-5.37 6.85-2.12 2.8-2.78 4.81-2.38 8.33 0.173 0.772 0.346 1.54 0.524 2.34 0.276 1.29 0.276 1.29 0.557 2.6 0.199 0.889 0.398 1.78 0.604 2.69 1.3 5.84 2.33 11.2 2.06 17.2-5.83 0.745-8.92-0.741-13.8-3.91-6.54-6.19-10.1-15.5-13.9-23.5-2.96-5.84-5.96-9.78-11.3-13.6-4.6-3.36-7.73-6.24-9-12 2.5-7.55 9.65-12.5 15.8-17.1 2.25-0.938 2.25-0.938 4.25-0.562z" fill="#FCFDFF"/>
<path transform="translate(62,648)" d="m0 0c7.46 0.169 12.9 4.05 19 8 0.935 0.601 1.87 1.2 2.83 1.82 12.7 8.71 22.1 20.9 29.9 34.1 3.67 6.22 7.67 10.7 13.3 15.2 3.06 2.54 3.97 3.84 4.85 7.79 0.049 1.05 0.098 2.09 0.148 3.17-2.35 0.678-4.71 1.34-7.06 2-0.657 0.191-1.31 0.382-1.99 0.578-4.4 1.21-8.36 2.02-12.9 1.42-4.68-3.08-6.92-6.05-9.5-11.1-6.97-12.9-16-24.7-24.8-36.3-3.8-5.02-7.5-10.1-11-15.3-0.392-0.564-0.783-1.13-1.19-1.71-1.78-2.74-2.54-4.2-2.23-7.5 0.241-0.695 0.482-1.39 0.73-2.11z" fill="#FCFDFF"/>
<path transform="translate(444,277)" d="m0 0c2.47 0.348 3.66 0.556 5.2 2.58 3.14 6.68 5.87 13.5 8.56 20.4 2.86 7.26 6.03 14.4 9.36 21.4 0.362 0.781 0.724 1.56 1.1 2.37 0.321 0.679 0.642 1.36 0.972 2.06 0.997 2.7 1.41 5.36 1.81 8.2-6.8 0.0253-13.6 0.0428-20.4 0.0549-2.31 0.00504-4.63 0.0119-6.94 0.0205-3.32 0.0121-6.64 0.0178-9.96 0.0222-1.56 0.00774-1.56 0.00774-3.15 0.0156-0.961 7.55e-5 -1.92 1.51e-4 -2.91 2.29e-4 -0.848 0.00222-1.7 0.00444-2.57 0.00673-2.06-0.12-2.06-0.12-4.06-1.12 0.56-4.54 1.76-7.93 3.81-12 4.56-9.31 8.24-19 12-28.7 0.253-0.643 0.506-1.29 0.767-1.95 0.696-1.77 1.39-3.54 2.08-5.32 1.24-2.87 2.65-5.45 4.33-8.08z" fill="#000102"/>
<path transform="translate(209 1206)" d="m0 0c4.34 0.835 5.17 2.53 7.67 6.01 3.1 5.12 5.17 10.7 7.33 16.2 0.721 1.8 0.721 1.8 1.46 3.64 1.29 3.24 2.57 6.47 3.79 9.73 0.379 0.953 0.759 1.91 1.15 2.89 1.06 3.87 0.989 7.11 0.851 11.1-5.32 0.0495-10.6 0.0858-16 0.11-1.81 0.01-3.62 0.0237-5.43 0.041-2.6 0.0243-5.21 0.0356-7.81 0.0444-1.21 0.0155-1.21 0.0155-2.44 0.0313-4.19 8.33e-4 -7.6-0.12-11.4-2.23-1.81-4.26-0.473-7.53 1-11.8 0.337-0.966 0.337-0.966 0.682-1.95 11.5-32.2 11.5-32.2 19.1-33.9z" fill="#FCFDFF"/>
<path transform="translate(303 264)" d="m0 0c0.732 9.16e-4 1.46 0.00183 2.22 0.00278 1.55 0.00603 3.09 0.0218 4.64 0.0465 2.35 0.0363 4.7 0.041 7.05 0.0405 1.51 0.00984 3.02 0.0215 4.53 0.0352 1.04 0.00334 1.04 0.00334 2.11 0.00674 4.58 0.0877 8.57 0.74 12.9 2.33 4.23 5.23 5.44 9.33 5 16-1.33 4.37-2.37 6.49-5.94 9.38-4.95 2.63-9.24 2.8-14.8 2.83-0.742 0.0057-1.48 0.0114-2.25 0.0173-1.56 0.00942-3.13 0.016-4.69 0.0198-2.39 0.00975-4.79 0.0408-7.18 0.0723-1.52 0.00653-3.04 0.0118-4.56 0.0156-1.07 0.0185-1.07 0.0185-2.17 0.0374-2.83-0.0127-4.92-0.0598-7.37-1.56-2.29-3.92-1.52-8.83-1.49-13.2-0.02-1.05-0.04-2.1-0.0605-3.18 6.45e-4 -1.01 0.00129-2.02 0.00195-3.06-0.00185-0.924-0.00371-1.85-0.00562-2.8 1.33-6.69 6.14-7.1 12.1-6.98z" fill="#000102"/>
<path transform="translate(253,1208)" d="m0 0c4.07 3.08 6.72 7.55 9.49 11.8 0.436 0.665 0.872 1.33 1.32 2.02 0.864 1.33 1.71 2.68 2.55 4.03 2.44 3.83 4.42 6.17 8.64 8.19-0.0157-0.877-0.0157-0.877-0.0317-1.77-0.0417-2.66-0.0676-5.32-0.0933-7.98-0.0168-0.92-0.0335-1.84-0.0508-2.79-0.00967-1.33-0.00967-1.33-0.0195-2.7-0.0157-1.23-0.0157-1.23-0.0317-2.48 0.255-2.57 0.796-4.14 2.23-6.29 2.94-0.875 2.94-0.875 6-1 0.99 0.66 1.98 1.32 3 2 0.361 1.91 0.361 1.91 0.341 4.27-3.4e-4 1.32-3.4e-4 1.32-6.87e-4 2.67-0.0155 0.952-0.031 1.9-0.0469 2.89-0.00424 0.974-0.00849 1.95-0.0129 2.95-0.0168 3.12-0.0545 6.24-0.0926 9.35-0.015 2.11-0.0287 4.22-0.041 6.33-0.0331 5.18-0.0834 10.4-0.146 15.5-1.43 0.0577-2.86 0.0988-4.29 0.133-1.19 0.037-1.19 0.037-2.41 0.0747-4.36-0.392-6.59-2.98-9.3-6.21-2.7-3.51-5.26-7.11-7.77-10.8-0.737-1.07-1.47-2.14-2.23-3.24-0.797-1.2-0.797-1.2-1.61-2.43-0.459-0.518-0.918-1.04-1.39-1.57h-3c-0.0251 0.661-0.0501 1.32-0.0759 2-0.116 2.98-0.238 5.96-0.362 8.93-0.0393 1.04-0.0786 2.08-0.119 3.15-0.0419 0.989-0.0838 1.98-0.127 3-0.055 1.37-0.055 1.37-0.111 2.78-0.205 2.13-0.205 2.13-1.21 3.13-2.67 0.141-5.32 0.0425-8 0-1.66-5.08-2.3-9.62-2.27-15-0.00287-1.1-0.00287-1.1-0.0058-2.23-0.00135-1.54 0.00228-3.08 0.0107-4.63 0.0108-2.36 4.79e-5 -4.71-0.0127-7.07 0.00132-1.5 0.00388-3.01 0.00781-4.51-0.00405-0.701-0.0081-1.4-0.0123-2.12 0.0347-3.62 0.169-6.43 2.28-9.46 3.29-1.65 5.35-1.54 9-1z" fill="#FCFDFF"/>
<path transform="translate(902 1211)" d="m0 0c1.26 0.00322 2.51 0.00645 3.81 0.00977 1.32 0.00838 2.64 0.0168 4 0.0254 1.34 0.00502 2.68 0.00958 4.02 0.0137 3.29 0.0118 6.57 0.0283 9.86 0.0488 1 2 1 2 1 11-9.9 0.495-9.9 0.495-20 1-0.66 2.31-1.32 4.62-2 7 1.79 0.0735 1.79 0.0735 3.61 0.148 1.57 0.075 3.13 0.151 4.7 0.227 1.18 0.0464 1.18 0.0464 2.38 0.0938 1.14 0.058 1.14 0.058 2.29 0.117 1.04 0.0471 1.04 0.0471 2.11 0.0952 1.9 0.319 1.9 0.319 4.9 2.32v8c-6.27 0.33-12.5 0.66-19 1-0.33 2.31-0.66 4.62-1 7 0.84 0.014 0.84 0.014 1.7 0.0283 2.54 0.0537 5.08 0.137 7.62 0.222 0.881 0.0142 1.76 0.0284 2.67 0.043 6.48 0.246 6.48 0.246 9.11 2.49 1.48 3.61 1.16 6.34 0.91 10.2-1.72 1.72-3.88 1.13-6.17 1.14-0.707-0.00475-1.41-0.00951-2.14-0.0144-0.719-0.00411-1.44-0.00822-2.18-0.0125-18.7-0.193-18.7-0.193-22.5-4.11-1.35-4.04-1.15-8.28-1.12-12.5 0.00338-0.725 0.00677-1.45 0.0103-2.2 0.0563-6.21 0.241-12.4 0.49-18.6 0.0308-0.901 0.0616-1.8 0.0933-2.73 0.0388-0.848 0.0777-1.7 0.118-2.57 0.0471-1.13 0.0471-1.13 0.0952-2.27 0.362-2.4 1.05-4.05 2.32-6.11 2.82-1.41 5.17-1.11 8.32-1.1z" fill="#FCFDFF"/>
<path transform="translate(668,1211)" d="m0 0c3.41 3.41 2.47 8.27 2.66 12.9 0.17 1.53 0.17 1.53 0.344 3.09 2.29 1.15 3.8 1.2 6.35 1.32 0.851 0.0419 1.7 0.0838 2.58 0.127 0.889 0.0393 1.78 0.0786 2.7 0.119 0.897 0.0432 1.79 0.0864 2.72 0.131 2.22 0.106 4.44 0.208 6.66 0.307-0.0522-1.57-0.0522-1.57-0.105-3.18-0.0281-1.38-0.0554-2.76-0.082-4.14-0.0251-0.69-0.0503-1.38-0.0762-2.09-0.0425-2.94-0.0692-5.07 1.52-7.59 3.27-1.88 6.16-0.698 9.75-0.00391 1.55 1.55 1.13 2.99 1.13 5.14 0.00315 0.878 0.0063 1.76 0.00955 2.66-0.00202 0.954-0.00405 1.91-0.00613 2.89 9.57e-4 0.973 0.00191 1.95 0.0029 2.95 6.82e-4 2.06-0.00117 4.12-0.00534 6.18-0.00535 3.17-5.54e-5 6.33 0.00635 9.5-6.61e-4 2-0.00194 3.99-0.00391 5.99 0.00202 0.954 0.00405 1.91 0.00613 2.89-0.00473 1.32-0.00473 1.32-0.00955 2.66-7.96e-4 0.776-0.00159 1.55-0.00241 2.35-0.127 1.78-0.127 1.78-1.13 2.78-7.46 0.361-7.46 0.361-11-2-0.477-3.22-0.477-3.22-0.625-7.06 0.212-4.29 0.212-4.29-1.38-7.94-1.42-0.0865-2.84-0.107-4.25-0.0977-1.28 0.00483-1.28 0.00483-2.59 0.00977-0.898 0.00838-1.8 0.0168-2.72 0.0254-1.35 0.00677-1.35 0.00677-2.73 0.0137-2.24 0.0118-4.47 0.0298-6.71 0.0488-0.33 5.61-0.66 11.2-1 17-6.93 0.0977-6.93 0.0977-9 0-1.52-1.52-1.14-2.89-1.16-5.01-0.00961-0.851-0.0192-1.7-0.0291-2.58-0.00425-0.926-0.0085-1.85-0.0129-2.81-0.0057-0.946-0.0114-1.89-0.0173-2.87-0.00947-2.01-0.016-4.01-0.0198-6.02-0.0097-3.07-0.0407-6.15-0.0723-9.22-0.00653-1.95-0.0118-3.89-0.0156-5.84-0.0123-0.922-0.0247-1.84-0.0374-2.79 3e-3 -0.857 6e-3 -1.71 0.00909-2.6-0.00365-0.754-0.00729-1.51-0.011-2.29 0.872-4.72 4.01-5.54 8.37-4.99z" fill="#FCFDFF"/>
<path transform="translate(139 1207)" d="m0 0c1.67 0.0619 1.67 0.0619 3.38 0.125 1.73 3.46 1.41 7.43 1.62 11.2 0.116 2.89 0.116 2.89 2.38 4.75 2.03 0.369 2.03 0.369 4.35 0.414 0.851 0.0387 1.7 0.0773 2.58 0.117 0.889 0.0309 1.78 0.0619 2.7 0.0938 0.897 0.0387 1.79 0.0773 2.72 0.117 2.22 0.0944 4.44 0.18 6.66 0.258-0.0522-1.36-0.0522-1.36-0.105-2.74-0.0271-1.18-0.0541-2.36-0.082-3.57-0.0348-1.17-0.0696-2.34-0.105-3.55 0.293-3.14 0.293-3.14 1.58-5.03 2.87-1.86 5.41-1.47 8.71-1.11 2.08 3.11 2.25 3.76 2.23 7.29-1.51e-4 0.861-3.02e-4 1.72-4.58e-4 2.61-0.0103 0.925-0.0206 1.85-0.0313 2.8-0.00283 0.95-0.00566 1.9-0.00858 2.88-0.0112 3.04-0.0363 6.07-0.0617 9.11-0.01 2.06-0.0192 4.12-0.0273 6.17-0.0221 5.05-0.0566 10.1-0.0977 15.1-6.06 0.206-6.06 0.206-8 0-3.04-3.32-3.56-6.94-4.19-11.3-0.159-1.07-0.317-2.14-0.48-3.24-0.11-0.808-0.219-1.62-0.332-2.45-2.98-0.0268-5.96-0.0468-8.94-0.0625-0.85-0.00838-1.7-0.0168-2.58-0.0254-0.809-0.00322-1.62-0.00645-2.45-0.00977-0.749-0.00524-1.5-0.0105-2.27-0.0159-1.79-0.0799-1.79-0.0799-2.77 1.11-0.399 2.52-0.751 5.03-1.06 7.56-0.0909 0.711-0.182 1.42-0.275 2.15-0.225 1.76-0.444 3.52-0.662 5.28-6.62 0.25-6.62 0.25-10-2-0.374-1.82-0.374-1.82-0.372-4.05-0.00623-0.834-0.0125-1.67-0.0189-2.53 0.00921-0.902 0.0184-1.8 0.0279-2.73-7.48e-4 -1.39-7.48e-4 -1.39-0.00151-2.8 0.00234-1.96 0.0121-3.91 0.0286-5.87 0.0236-3 0.0206-6 0.0139-9.01 0.00558-1.9 0.0127-3.8 0.0215-5.7-0.00137-1.35-0.00137-1.35-0.00276-2.73 0.00953-0.834 0.0191-1.67 0.0289-2.53 0.00461-0.736 0.00921-1.47 0.014-2.23 0.548-3.83 2.32-3.82 5.89-3.95z" fill="#FCFDFF"/>
<path transform="translate(416 1207)" d="m0 0c1.66-0.0242 1.66-0.0242 3.36-0.0488 1.59-9.67e-4 1.59-9.67e-4 3.21-0.00195 0.97-0.00298 1.94-0.00596 2.94-0.00903 0.781 0.123 1.56 0.246 2.37 0.372 2.44 3.66 2.24 5.69 2 10-1.89 1.89-5.16 1.35-7.69 1.5-4.51 0.267-8.87 0.681-13.3 1.5-0.167 2.42-0.167 2.42 0 5 3.14 3.14 7.34 2.4 11.6 2.48 2 0.0801 2 0.0801 5.41 0.521 2 3 2 3 2 9-5.94 0.33-11.9 0.66-18 1-0.66 2.31-1.32 4.62-2 7 4.78 1.46 9.73 1.32 14.7 1.52 5.13 0.738 5.13 0.738 7.31 3.48 0.332 2.75 0.183 5.21 0 8-4.4 0.116-8.79 0.187-13.2 0.25-1.25 0.0335-2.49 0.067-3.78 0.102-1.2 0.0129-2.4 0.0258-3.64 0.0391-1.1 0.0209-2.21 0.0419-3.35 0.0635-3.76-0.56-5.38-1.79-8.05-4.45-2.09-6.27-1.73-13.4-2-20-0.0354-0.769-0.0709-1.54-0.107-2.33-0.675-16.2-0.675-16.2 4.11-22.7 4.84-3.17 10.6-2.33 16.1-2.31z" fill="#FCFDFF"/>
<path transform="translate(467,887)" d="m0 0c2.54 0.203 3.65 0.61 5.36 2.53 0.392 0.646 0.783 1.29 1.19 1.96 0.434 0.705 0.868 1.41 1.31 2.14 0.658 1.11 0.658 1.11 1.33 2.25 0.451 0.733 0.901 1.47 1.37 2.22 4.86 8 5.5 15.7 4.45 24.9-1.78 6.46-4.41 12.1-9 17-4.31 0.877-6.47 0.894-10.3-1.33-2.36-1.78-4.55-3.67-6.73-5.67-0.69-0.598-1.38-1.2-2.09-1.81-2.93-2.69-4.63-4.26-5.81-8.15-0.102-3.04-0.102-3.04 1.23-5.07 0.673-0.669 1.35-1.34 2.04-2.03 5.16-5.89 7.75-12.6 10.7-19.8 0.359-0.891 0.718-1.78 1.09-2.7 0.473-1.21 0.473-1.21 0.957-2.44 0.926-2 0.926-2 2.93-4z" fill="#FCFDFF"/>
<path transform="translate(585,887)" d="m0 0c4.75 3.68 5.93 8.72 7.81 14.2 2.46 6.88 4.72 12.8 9.94 18.1 1.7 2.34 1.57 3.89 1.25 6.72-1.38 2.31-1.38 2.31-3 4h-2c-0.242 0.581-0.485 1.16-0.734 1.76-2.36 4.17-6.21 6.82-10.3 9.24-4.24 0.424-6.43-1.12-9.69-3.62-5.26-4.86-7.14-11.5-8.31-18.4-0.217-1.2-0.217-1.2-0.438-2.43-0.984-10.4 5.65-18.5 11.6-26.5 1.83-2.12 1.83-2.12 3.83-3.12z" fill="#FCFDFF"/>
<path transform="translate(841 1211)" d="m0 0c3.34 1.48 3.93 3.09 5.44 6.39 0.498 1.08 0.995 2.16 1.51 3.27 0.492 1.13 0.985 2.26 1.49 3.42 0.739 1.66 0.739 1.66 1.49 3.36 3.51 8.13 3.51 8.13 3.51 11.6 1.98 0.66 3.96 1.32 6 2 0.194-1.08 0.194-1.08 0.391-2.19 1.01-4.65 2.8-9 4.48-13.4 0.352-0.954 0.704-1.91 1.07-2.89 0.52-1.37 0.52-1.37 1.05-2.77 0.47-1.25 0.47-1.25 0.949-2.52 1.11-2.3 2.03-3.64 4.06-5.19 3.62-0.25 3.62-0.25 7 0 1 1 1 1 1.05 2.76-0.885 11.7-5.52 22.3-10.2 32.9-0.337 0.766-0.673 1.53-1.02 2.32-3.42 7.58-3.42 7.58-5.86 9.99-2.09 0.566-2.09 0.566-4.38 0.562-0.75 0.0219-1.5 0.0438-2.27 0.0664-3.49-0.933-5.33-2.76-7.35-5.63-1.91-3.67-3.46-7.47-5-11.3-0.651-1.6-0.651-1.6-1.32-3.22-3.36-8.36-6.26-16.8-8.68-25.5 3.25-3.98 3.25-3.98 6.56-4.08z" fill="#FCFDFF"/>
<path transform="translate(633 1209)" d="m0 0c1.62-0.0242 1.62-0.0242 3.27-0.0488 1.03-6.45e-4 2.07-0.00129 3.13-0.00195 0.932-0.00298 1.86-0.00596 2.83-0.00903 2.4 0.372 2.4 0.372 4.21 1.73 1.68 2.3 1.55 3.86 1.19 6.64-2.68 2.68-5.4 3.07-9 4.02-2.12 0.755-2.12 0.755-2.6 2.58-0.536 3.26-0.63 6.5-0.711 9.79-0.0208 0.705-0.0416 1.41-0.063 2.14-0.0652 2.24-0.124 4.48-0.183 6.72-0.0432 1.52-0.0868 3.05-0.131 4.57-0.107 3.73-0.208 7.45-0.307 11.2-1.46 0.054-2.92 0.0928-4.38 0.125-0.812 0.0232-1.62 0.0464-2.46 0.0703-2.16-0.195-2.16-0.195-4.16-2.2-0.245-2.58-0.373-5.05-0.414-7.63-0.0194-0.752-0.0387-1.5-0.0587-2.28-0.0598-2.4-0.106-4.81-0.152-7.21-0.0382-1.63-0.0772-3.26-0.117-4.89-0.0961-4-0.18-7.99-0.258-12-0.615-0.266-1.23-0.531-1.86-0.805-1.21-0.53-1.21-0.53-2.45-1.07-0.801-0.348-1.6-0.696-2.43-1.05-2.26-1.07-2.26-1.07-5.26-3.07 0.33-1.65 0.66-3.3 1-5 7.22-1.9 13.9-2.34 21.4-2.31z" fill="#FCFDFF"/>
<path transform="translate(748,1212)" d="m0 0c1.48 2.96 1.06 5.57 0.992 8.87-0.0175 1.39-0.0344 2.79-0.0508 4.18-0.031 2.2-0.0665 4.39-0.113 6.59-0.0423 2.12-0.0658 4.24-0.0864 6.36-0.0221 1.27-0.0442 2.54-0.0669 3.85 0.0584 3.1 0.0584 3.1 1.65 5.03 4.01 2.7 8.42 2.37 13.1 2.55 2.59 0.574 2.59 0.574 4.44 2.24 1.44 2.91 1.24 5.12 1.16 8.33-4.42 0.116-8.83 0.187-13.2 0.25-1.88 0.0503-1.88 0.0503-3.8 0.102-1.81 0.0193-1.81 0.0193-3.65 0.0391-1.67 0.0314-1.67 0.0314-3.36 0.0635-2.93-0.454-2.93-0.454-5.29-1.89-2.49-3.9-2.21-7.5-2.17-12-0.00383-0.919-0.00765-1.84-0.0116-2.79-0.00272-1.94 0.00464-3.88 0.0214-5.82 0.0214-2.97 1.84e-4 -5.95-0.0254-8.92 0.00264-1.89 0.00777-3.77 0.0156-5.66-0.0081-0.891-0.0162-1.78-0.0245-2.7 0.0931-6.11 0.0931-6.11 2.39-8.74 3.05-1.27 5.04-0.808 8.17 0.0955z" fill="#FCFDFF"/>
<path transform="translate(364,1210)" d="m0 0c2 2 2 2 2.2 5.04-0.0232 1.28-0.0464 2.55-0.0703 3.87-0.00757 0.681-0.0151 1.36-0.0229 2.06-0.0328 2.92-0.0891 5.83-0.143 8.75-0.0361 2.13-0.0603 4.25-0.084 6.38-0.0232 1.28-0.0464 2.55-0.0703 3.87-0.134 3.15-0.134 3.15 2.2 5.04 3.18 0.258 6.31 0.366 9.5 0.391 3.23 0.114 5.05 0.205 7.49 2.41 1.49 3.25 0.73 5.78 0.00781 9.2-7.89 1.83-19.5 2.82-27-1-3.53-4.45-3.47-8.48-3.47-13.9-0.00761-0.851-0.0152-1.7-0.0231-2.58-0.0108-1.79-0.0137-3.59-0.00916-5.38 9.76e-4 -2.75-0.0407-5.49-0.085-8.24-0.0052-1.74-0.0079-3.49-0.00781-5.23-0.0164-0.822-0.0328-1.64-0.0497-2.49 0.0282-2.32 0.0282-2.32 0.643-6.16 3.1-2.65 5.16-3.72 9-2z" fill="#FCFDFF"/>
<path transform="translate(261,824)" d="m0 0c4.06 1.81 6.18 4.46 8.93 7.84 2.77 2.9 5.88 5.23 9.07 7.66 12.2 9.37 12.2 9.37 14 16.3v3.19c-2.74 2.74-4.37 2.3-8.19 2.31-8.57-0.17-13.8-2.67-20.1-8.43-4.53-4.94-5.49-11.5-6.73-17.9-0.248-1.09-0.495-2.19-0.75-3.31-0.278-2.99 0.0348-4.25 1.75-6.69 0.66-0.33 1.32-0.66 2-1z" fill="#FCFDFF"/>
<path transform="translate(790,827)" d="m0 0c3.69 0.692 3.69 0.692 5 2 0.912 10.7-0.0925 19.5-7.06 28-2.3 2.54-4.44 4.79-7.97 5.29-2.49 0.049-4.97 0.0808-7.46 0.0845-0.868 0.0245-1.74 0.049-2.63 0.0742-6.38 0.0296-6.38 0.0296-8.96-2.47-0.299-0.652-0.598-1.3-0.906-1.98 3.03-8.07 8.03-11.3 15-16 5.35-4.1 9.66-8.86 14-14l1-1z" fill="#FCFDFF"/>
<path transform="translate(454,744)" d="m0 0c3.47 2.49 4.8 3.98 5.62 8.19-1.69 10.3-8.19 17.8-15.6 24.8-4.04 2.84-6.79 3.57-11.6 3.44-4.06-0.753-7.12-2.97-10.4-5.44 0.178-2.4 0.178-2.4 1-5 2.27-0.988 2.27-0.988 5.15-1.64 6.05-1.95 8.05-4.63 11-10.1 0.471-0.964 0.942-1.93 1.43-2.92 0.997-1.92 2-3.84 3-5.76 0.633-1.27 0.633-1.27 1.28-2.57 2.18-3.73 5.14-3.45 9.15-2.98z" fill="#FCFDFF"/>
<path transform="translate(807,1221)" d="m0 0c3.84 2.31 6.32 4.84 8 9 0.538 4.89 0.67 9.34-1.19 13.9-3.42 3.89-5.82 6.29-11.1 6.69-5.49-0.256-8.92-2.8-12.7-6.62-2.19-2.81-2.19-2.81-3-6 1.02-6.82 4.33-12.2 9.81-16.4 3.43-0.979 6.69-1.19 10.2-0.625z" fill="#000102"/>
<path transform="translate(600 744)" d="m0 0c2.84 1.26 3.83 3 5.52 5.58 0.601 0.902 1.2 1.8 1.82 2.73 0.554 0.851 1.11 1.7 1.68 2.58 0.791 1.15 1.58 2.29 2.38 3.44 1.62 2.56 1.62 2.56 2.62 5.56 1.76 1.09 1.76 1.09 4 2 1.9 0.919 3.8 1.86 5.69 2.81 1.46 0.721 1.46 0.721 2.95 1.46 2.36 1.73 2.36 1.73 3.2 4.43 0.0554 0.759 0.111 1.52 0.168 2.3-10.3 3.93-10.3 3.93-16 3-2.93-1.71-5.43-3.8-8-6-1.01-0.742-2.02-1.49-3.06-2.25-5.44-4.6-10.6-12.1-12.9-18.8 0.636-3.82 1.88-4.9 4.88-7.38 3.12-1.62 3.12-1.62 5.1-1.52z" fill="#FCFDFF"/>
<path transform="translate(322,1217)" d="m0 0c4.57 2.93 7.19 5.88 9 11 0.773 5.35 0.102 9.45-3 14-3.27 2.89-5.8 4.25-10.1 4.44-5.61-0.634-5.61-0.634-7.88-3.44-1.9-7.74-1.95-16.5 1-24 3.7-2.47 6.71-2.79 11-2z" fill="#000102"/>
<path transform="translate(595 1212)" d="m0 0c3.56 0.188 3.56 0.188 5.56 2.19 0.188 2.89 0.256 5.69 0.23 8.59-6.87e-4 1.28-6.87e-4 1.28-0.00139 2.59-0.00302 1.81-0.0109 3.61-0.0233 5.42-0.0182 2.76-0.0205 5.53-0.0203 8.29-0.00492 1.76-0.0107 3.51-0.0176 5.27-0.00111 0.826-0.00223 1.65-0.00337 2.5-0.00638 0.774-0.0128 1.55-0.0193 2.35-0.00381 0.678-0.00762 1.36-0.0116 2.05-0.143 2.08-0.572 3.94-1.13 5.95-4.5 1.05-6.82 0.866-11-1-0.0495-5.32-0.0858-10.6-0.11-16-0.01-1.81-0.0237-3.62-0.041-5.43-0.0243-2.6-0.0356-5.21-0.0444-7.81-0.0155-1.21-0.0155-1.21-0.0313-2.44-8.41e-4 -4.24 0.22-7.52 2.23-11.4 1-1 1-1 4.44-1.19z" fill="#FCFDFF"/>
<path transform="translate(467 1219)" d="m0 0c4.3 2.22 6.43 5.77 8.23 10.1 0.846 4.36 0.538 7.73-1.19 11.8-4.87 5.87-4.87 5.87-9 6.54-3.53 0.128-5.9 0.163-9.04-1.6-2.76-2.72-2.59-5.11-2.81-8.85 0.0683-6.34 0.32-12.5 4.09-17.8 3.68-1.41 5.94-1.34 9.71-0.273z" fill="#000102"/>
<path transform="translate(533,387)" d="m0 0c4.63 2.27 4.63 2.27 6 5 0.188 3 0.188 3 0 6-2.83 2.83-5.59 2.37-9.38 2.38-0.673 0.0245-1.35 0.049-2.04 0.0742-3.45 0.0204-5.28-0.216-8.06-2.32-1.52-2.13-1.52-2.13-1.52-4.63 2.94-7.35 7.92-8.06 15-6.5z" fill="#000102"/>
<path transform="translate(208,1226)" d="m0 0c4.17 1.39 4.91 3.61 6.93 7.37 1.69 4.13 1.97 8.21 2.07 12.6-11.7 0.554-11.7 0.554-16-3 1.03-6.66 3.09-11.5 7-17z" fill="#000102"/>
<path transform="translate(476 386)" d="m0 0c4.43 0.791 5.89 1.99 8.5 5.62 0.438 3.19 0.438 3.19 0 6-2 2-2 2-4.71 2.27-1.06-0.00516-2.13-0.0103-3.22-0.0156-1.59 0.00773-1.59 0.00773-3.21 0.0156-2.85-0.266-2.85-0.266-5.85-2.27-0.5-2.81-0.5-2.81 0-6 2.61-3.64 4.07-4.83 8.5-5.62z" fill="#000102"/>
</svg>
