<?xml version="1.0" encoding="UTF-8"?>
<svg version="1.1" viewBox="0 0 1600 344" width="1280" height="1280" xmlns="http://www.w3.org/2000/svg">
<path transform="translate(0)" d="m0 0h1600v344h-1600v-344z"/>
<path transform="translate(0)" d="m0 0h1600v344h-65v-43l-14-8c-9.36-6.54-17.2-13.6-20-25-1.67-13.2 0.446-24 8.31-34.9 7.91-9.51 18.4-15.1 30.7-16.3 12.4-0.803 24.8 0.426 35 8.19v2h2c0.99 2.31 1.98 4.62 3 7-4 0-5.53-1.57-8.81-3.81-11.7-7.55-24.1-8.25-37.7-5.72-8.15 2.22-16.2 7.63-20.5 15-0.703 1.5-1.37 3.03-2 4.56-0.316 0.686-0.632 1.37-0.957 2.08-3.56 8.78-3.25 19.1-0.0898 28 2.76 5.18 6.5 8.26 11.3 11.5l3.27 2.25c3.67 2.4 7.54 4.28 11.5 6.18-0.0105-1.05-0.0209-2.1-0.0317-3.18-0.0361-3.89-0.0591-7.77-0.0781-11.7-0.0101-1.68-0.0237-3.37-0.041-5.05-0.0242-2.42-0.0356-4.84-0.0444-7.25-0.0103-0.755-0.0206-1.51-0.0313-2.29-4e-4 -1.86 0.104-3.71 0.227-5.56 2.34-2.34 2.87-2.28 6.05-2.41 0.834-0.0389 1.67-0.0778 2.53-0.118 1.35-0.046 1.35-0.046 2.73-0.093 1.39-0.0547 1.39-0.0547 2.8-0.111 6.86-0.247 13.7-0.393 20.6-0.452 0.902-0.0131 1.8-0.0261 2.73-0.0396 0.834-0.00113 1.67-0.00226 2.53-0.00342 0.736-0.00411 1.47-0.00822 2.23-0.0125 1.82 0.243 1.82 0.243 3.82 2.24 0.451 2.98 0.332 5.99 0.312 9-0.00628 1.29-0.00628 1.29-0.0127 2.6-0.22 12.4-0.22 12.4-3.3 17.4-1.33 0.669-2.67 1.34-4 2-0.688 1.32-1.36 2.66-2 4-8.82 5.39-18.7 7.21-28.9 7.69-0.687 0.102-1.37 0.204-2.08 0.309-1.67 3.33-1.12 7.07-1.1 10.7 0.00141 0.863 0.00283 1.73 0.00429 2.61 0.00561 2.76 0.0182 5.52 0.0309 8.28 0.00501 1.87 0.00958 3.74 0.0137 5.61 0.011 4.59 0.0283 9.18 0.0488 13.8 1.26-0.00524 2.52-0.0105 3.82-0.0159 4.74-0.0183 9.48-0.0297 14.2-0.0391 2.04-0.00498 4.08-0.0118 6.12-0.0205 2.95-0.0123 5.91-0.0178 8.86-0.0222 1.34-0.00774 1.34-0.00774 2.7-0.0156 7.52-6.45e-4 14.7 0.573 22.3 1.11v-342c-2.31 0.33-4.62 0.66-7 1-1.68 0.0812-3.37 0.125-5.06 0.125-1.43 0.00353-1.43 0.00353-2.89 0.00713-1.55-0.00376-1.55-0.00376-3.13-0.0076-1.11 0.00128-2.23 0.00256-3.38 0.00387-3.75 0.00308-7.51-0.00101-11.3-0.00502-2.72 1.83e-4 -5.44 0.00188-8.16 0.0035-5.95 0.00274-11.9 0.00174-17.8-0.00166-8.9-0.00507-17.8-0.00437-26.7-0.00253-15.2 0.00297-30.3 0.00119-45.5-0.00314-15.4-0.00437-30.8-0.00657-46.1-0.0061-1.46 4.3e-5 -1.46 4.3e-5 -2.94 8.69e-5 -4.95 1.56e-4 -9.9 3.48e-4 -14.8 5.53e-4 -35.8 0.00141-71.7-0.00203-108-0.00802-35.5-0.00592-71-0.00977-106-0.0109-1.65-5.16e-5 -1.65-5.16e-5 -3.34-1.04e-4 -10.1-3.13e-4 -20.1-6.01e-4 -30.2-8.58e-4 -25-6.39e-4 -50-0.0016-75.1-0.00278-1.14-5.33e-5 -2.28-1.07e-4 -3.45-1.62e-4 -55.4-0.00262-111-0.00893-166-0.0155-19.2-0.00229-38.5-0.00457-57.7-0.00677-1.19-1.37e-4 -2.39-2.74e-4 -3.62-4.15e-4 -55.5-0.00634-111-0.0101-166-0.0131-3.6-1.98e-4 -7.2-3.97e-4 -10.8-5.97e-4 -23.9-0.00132-47.7-0.00259-71.6-0.00384-47.5-0.00248-95-0.00522-142-0.00814-2.26-1.39e-4 -4.52-2.78e-4 -6.78-4.17e-4 -69.7-0.00428-139-0.00975-209-0.0165-2.81-2.71e-4 -5.62-5.42e-4 -8.43-8.12e-4 -78-0.00755-156-0.0164-234-0.0248v340c3.3 0.33 6.6 0.66 10 1l-0.312-2.69c0.312-3.31 0.312-3.31 2.38-6.25 2.94-2.06 2.94-2.06 6.62-1.88 1.09 0.268 2.19 0.536 3.31 0.812h2c0.16-6.8-0.422-13.2-1.44-19.9l-0.408-2.86c-0.58-4.75-0.58-4.75-2.15-9.2-0.151-2.81-0.231-5.57-0.25-8.38-0.0309-1.15-0.0309-1.15-0.0625-2.33-0.0395-5.71-0.0395-5.71 1.83-8.84l1.48-1.46c5.45 0.486 8.9 2.48 13.4 5.38 7.95 5.11 15.1 8.1 24.6 8.62l2.11 0.125c11.3 0.331 22.2-1.16 30.9-8.75 3-5.07 2.76-10 1.48-15.7-0.157-0.559-0.315-1.12-0.477-1.7h-2l-1.81-2.38c-2.9-3.47-5.42-4.44-9.89-4.91-1.44-0.028-1.44-0.028-2.91-0.0566-1.61-0.0419-1.61-0.0419-3.26-0.0847-1.13-0.0236-2.27-0.0472-3.44-0.0715-29.8-0.953-29.8-0.953-36.2-6.73-3.6-4.3-5.32-8.05-5.86-13.6 0.375-3.12 0.375-3.12 2.38-5.12l1.31-3.31c2.61-6.26 7.6-9.95 13.7-12.7 5.76-1.71 11-2.39 17-2.38 0.819 8.86e-4 1.64 0.00177 2.48 0.00269 10.2 0.194 20.6 2.21 29.5 7.37 2 3 2 3 2 7-5.35-0.433-9.57-2.53-14.3-4.84-6.14-2.65-12.4-2.37-19-2.41l-3.05-0.0625c-6.28-0.0327-11 0.568-16.6 3.31-0.525 0.529-1.05 1.06-1.59 1.6-1.41 1.4-1.41 1.4-3.41 1.4l-0.938 3.44c-1.06 3.56-1.06 3.56-2.06 4.56-0.136 3.66-0.165 6.51 1 10 1.78 1.14 1.78 1.14 4 2 1.06 0.506 1.06 0.506 2.13 1.02 3.65 1.25 7.17 1.42 11 1.58 0.775 0.0392 1.55 0.0784 2.35 0.119 2.47 0.124 4.94 0.235 7.41 0.346 2.46 0.116 4.92 0.235 7.39 0.357 1.53 0.0752 3.06 0.147 4.58 0.214 8.47 0.403 13.8 1.03 20.1 7.06 4.66 5.32 6.78 11.1 6.4 18.2-1.18 6.64-6.17 12.1-11.4 16.1-12.6 6.78-30.5 7.02-44 3-1.34-0.309-1.34-0.309-2.7-0.625-5.61-1.35-9.92-3.01-14.5-6.48-1.76-1.11-1.76-1.11-3.98-0.531l-1.78 0.641c0.115 2.52 0.242 5.04 0.375 7.56 0.0309 0.704 0.0619 1.41 0.0938 2.13 0.26 4.71 1.21 8.75 2.53 13.3 1.09 6.47 1.15 13 1.12 19.5l0.0117 2.74-0.00391 2.6-0.00342 2.35c-0.129 1.81-0.129 1.81-1.13 2.81h-29v-344z" fill="#020202"/>
<path transform="translate(591,45)" d="m0 0c16-0.0309 16-0.0309 32.4-0.0625 5.06-0.0137 5.06-0.0137 10.2-0.0276 2.66-0.00292 5.32-0.00547 7.98-0.00757 1.04-0.00392 1.04-0.00392 2.1-0.00792 2.04-0.0073 4.08-0.00776 6.12-0.00795 1.73-0.00333 1.73-0.00333 3.49-0.00673 2.71 0.12 2.71 0.12 4.71 1.12v5c-19.5 0.33-38.9 0.66-59 1-0.998 3-1.1 4.91-1.06 8.04 0.00773 0.974 0.0155 1.95 0.0234 2.95 0.0129 1.02 0.0258 2.03 0.0391 3.08 0.0254 2.01 0.0465 4.02 0.0625 6.04 0.0116 0.892 0.0232 1.78 0.0352 2.7-0.0977 2.2-0.0977 2.2-1.1 4.2 3.44 0.787 6.56 1.1 10.1 1.03 0.949-0.0122 1.9-0.0245 2.88-0.0371 1.98-0.0351 3.95-0.0741 5.93-0.117 5.1-0.0588 9.35 0.00344 14.1 2.13 1 1 1 1 1.06 3.56-0.0206 0.804-0.0412 1.61-0.0625 2.44-0.934-0.00524-1.87-0.0105-2.83-0.0159-3.45-0.017-6.91-0.0296-10.4-0.0391-1.5-0.00504-2.99-0.0119-4.49-0.0205-2.15-0.0121-4.29-0.0178-6.44-0.0222-1.29-0.00524-2.59-0.0105-3.92-0.0159-2.85-0.226-2.85-0.226-3.96 1.11-0.0997 1.91-0.131 3.83-0.133 5.75-0.00129 1.17-0.00258 2.33-0.00391 3.53 0.0058 1.84 0.0058 1.84 0.0117 3.72-0.00387 1.23-0.00773 2.45-0.0117 3.72 0.00193 1.75 0.00193 1.75 0.00391 3.53 0.00113 1.08 0.00226 2.16 0.00342 3.27-0.152 2.43-0.152 2.43 1.13 3.48 1.69 0.0831 3.38 0.0964 5.07 0.0818 1.62-0.0098 1.62-0.0098 3.28-0.0198 1.18-0.0114 2.36-0.0229 3.57-0.0347 2.48-0.0127 4.95-0.025 7.43-0.0371 3.92-0.0248 7.84-0.0527 11.8-0.0862 3.77-0.0302 7.54-0.048 11.3-0.0642 1.17-0.0135 2.34-0.0269 3.54-0.0408 10-0.0309 10-0.0309 15 2.2v3c0.66 0.33 1.32 0.66 2 1h-10c0.33 1.65 0.66 3.3 1 5 1.89 0.278 1.89 0.278 3.81 0.562 1.06 0.157 1.06 0.157 2.14 0.316 2.25 0.26 2.25 0.26 5.04-0.879-0.124 0.95-0.124 0.95-0.25 1.92-0.874 7.77-0.515 15.2 0.125 23 2.54 31.6 2.4 63.3 2.66 95 0.0401 4.77 0.0843 9.53 0.128 14.3 0.196 21.2 0.378 42.5 0.423 63.7 0.00396 1.66 0.00952 3.31 0.0167 4.97 0.0091 2.23 0.0118 4.46 0.0124 6.7 0.00368 1.86 0.00368 1.86 0.00743 3.76-0.12 2.74-0.12 2.74-1.12 3.74-1.67 0.0406-3.33 0.0427-5 0-1.62-3.25-1.22-6.83-1.28-10.4-0.0184-0.834-0.0368-1.67-0.0558-2.53-0.0588-2.67-0.112-5.34-0.163-8.01-0.0676-3.51-0.141-7.02-0.219-10.5-0.0136-0.809-0.0272-1.62-0.0411-2.45-0.0724-3.26-0.201-5.97-1.24-9.08-0.99-0.33-1.98-0.66-3-1-3.9-5.28-6.79-11.4-9.63-17.3-0.452-0.896-0.905-1.79-1.37-2.71-0.432-1.12-0.432-1.12-0.872-2.27-1.15-2.62-2.21-4.6-4.13-6.73-3.72-1.31-7.27-1.22-11.2-1.12-1.07 0.00411-2.13 0.00822-3.23 0.0125-2.17 0.0151-4.33 0.0475-6.5 0.0974-2.81 0.0138-5.52-0.157-8.31-0.426-6.57-0.473-6.57-0.473-12.8 1.44-4.32 4.39-6.7 10.1-9.03 15.7-0.956 2.3-1.97 4.55-3.05 6.79-0.302 0.634-0.604 1.27-0.916 1.92-1.5 2.42-3.45 3.48-6 4.61-0.66-0.66-1.32-1.32-2-2 0.375-3.62 0.375-3.62 1-7h2c0.162-0.545 0.324-1.09 0.491-1.65 1.83-5.85 4.26-11 7.2-16.4 0.893-1.66 1.79-3.33 2.68-5 0.443-0.826 0.886-1.65 1.34-2.5 4.34-8.17 8.49-16.5 12.2-25 1.65-3.62 3.42-7.18 5.19-10.7 0.511-1.03 0.511-1.03 1.03-2.08 5.24-10.4 5.24-10.4 8.28-11.5 3.47 1.07 4.46 2.96 6.19 6.04 0.473 0.914 0.946 1.83 1.43 2.77 0.587 1.13 1.17 2.26 1.78 3.43 4.14 8.1 8 16.3 11.9 24.6 2.68 5.67 5.55 11.2 8.54 16.7 8.83 16.3 8.83 16.3 8.83 20.3h3c-0.317-19-0.65-38-1-57-0.0193-1.06-0.0387-2.12-0.0586-3.21-0.376-20.5-0.905-40.9-1.75-61.4-0.0819-1.98-0.161-3.96-0.238-5.94-0.108-2.75-0.228-5.49-0.351-8.23-0.0303-0.801-0.0605-1.6-0.0917-2.43-0.261-5.44-1.17-10.5-2.51-15.8-0.186-0.746-0.372-1.49-0.564-2.26-0.144-0.574-0.288-1.15-0.436-1.74-0.803-0.0449-1.61-0.0898-2.43-0.136-14.4-0.824-28.8-1.74-43.2-3.36-1.08-0.118-2.15-0.237-3.26-0.359-1.5-0.178-1.5-0.178-3.03-0.36-0.866-0.102-1.73-0.205-2.62-0.311-2.46-0.471-2.46-0.471-7.46-2.47v-80z" fill="#F6F7F9"/>
<path transform="translate(805,44)" d="m0 0c3.34 0.595 3.85 0.806 6.05 3.66 1.87 3.19 3.58 6.39 5.2 9.71 0.445 0.9 0.445 0.9 0.899 1.82 1.28 2.59 2.55 5.18 3.81 7.77 3.59 7.4 7.3 14.6 11.7 21.5 3.95 6.34 6.65 12.8 9.1 19.8 1.08 3.11 2.26 6.13 3.53 9.17 2.57 6.36 3.88 12.7 4.75 19.5 0.168 1.09 0.335 2.18 0.508 3.31 0.803 6.03 0.878 12.1 1.05 18.1 0.021 0.715 0.042 1.43 0.0637 2.17 0.514 17.8 0.51 35.6 0.481 53.4-0.00639 4.59-0.00685 9.18-0.00803 13.8-0.00307 8.64-0.0112 17.3-0.0213 25.9-0.0113 9.86-0.0167 19.7-0.0217 29.6-0.0104 20.2-0.0279 40.4-0.0503 60.7h-7c-0.0251-1.29-0.0501-2.57-0.0759-3.9-0.0941-4.77-0.194-9.54-0.296-14.3-0.0433-2.07-0.085-4.13-0.125-6.2-0.0577-2.97-0.121-5.93-0.186-8.9-0.0167-0.925-0.0334-1.85-0.0506-2.8-0.0299-1.29-0.0299-1.29-0.0604-2.61-0.0233-1.14-0.0233-1.14-0.0471-2.29-0.0945-2.2-0.0945-2.2-1.16-4.99-1.32-0.694-2.65-1.36-4-2-1.46-1.42-1.46-1.42-2.94-3.19-2.41-2.87-4.84-5.7-7.34-8.5-0.581-0.657-1.16-1.31-1.76-1.99-1.17-1.32-2.34-2.64-3.52-3.95-2.9-3.3-5.16-6.08-6.44-10.4h-2c-1.34-1.77-2.68-3.55-3.98-5.35-2.43-3.2-5.06-6.19-7.71-9.21-4.95-5.66-9.46-11.5-13.7-17.7-2.56-3.75-2.56-3.75-6.57-5.71 0.0715 0.836 0.143 1.67 0.217 2.53 1.02 13.6 0.894 27.3 0.846 41-0.00503 2.48-0.00959 4.96-0.0137 7.44-0.0109 6.02-0.0276 12-0.0488 18.1-3.73 1.06-3.73 1.06-6.19 0.5-2.32-1.92-2.3-3.44-2.64-6.34-0.331-4.27-0.31-8.54-0.301-12.8-0.00144-1.54-0.00144-1.54-0.0029-3.11-6.79e-4 -2.18 0.00116-4.35 0.00534-6.53 0.00528-3.26 8.56e-5 -6.51-0.00635-9.77-0.00372-10.3 0.115-20.5 0.582-30.8 0.0387-0.879 0.0775-1.76 0.117-2.66 0.0413-0.807 0.0827-1.61 0.125-2.44 0.0359-0.703 0.0717-1.41 0.109-2.13 0.203-1.87 0.203-1.87 1.2-4.87 3.06-0.562 3.06-0.562 7 0 2.81 2.68 5.02 5.66 7 9v2c0.557 0.201 1.11 0.402 1.69 0.609 3.21 1.93 5.11 4.68 7.31 7.64 3.91 5.12 7.95 10.1 12.2 14.9 3.47 3.99 6.76 7.99 9.81 12.3 3.23 4.56 6.7 8.86 10.3 13.1 0.516 0.617 1.03 1.23 1.56 1.87 3 3.53 3 3.53 7.12 5.51-0.00999-1.21-0.00999-1.21-0.0202-2.45-0.06-7.62-0.106-15.2-0.135-22.9-0.0157-3.92-0.0369-7.84-0.0709-11.8-0.0325-3.78-0.0505-7.56-0.0583-11.3-0.00555-1.44-0.0164-2.89-0.0326-4.33-0.0217-2.02-0.023-4.04-0.0234-6.06-0.00999-1.73-0.00999-1.73-0.0202-3.49 0.119-0.894 0.238-1.79 0.361-2.71 0.99-0.66 1.98-1.32 3-2 0.281-3.1 0.371-5.99 0.328-9.09-0.00147-0.924-0.00293-1.85-0.00444-2.8-0.00928-3.02-0.0408-6.03-0.0737-9.05-0.0126-2.06-0.0244-4.12-0.0354-6.18 0.546-25.1 0.546-25.1-2.21-49.9-0.217-1.33-0.217-1.33-0.438-2.69-1.22-7.21-2.51-13.6-5.56-20.3-0.495-1.43-0.973-2.87-1.44-4.31-1.84-5.67-3.89-11.3-6.56-16.7-21.8-0.495-21.8-0.495-44-1-0.33 1.32-0.66 2.64-1 4-0.608 1.45-1.25 2.88-1.93 4.3-0.385 0.813-0.77 1.63-1.17 2.46l-1.22 2.55c-0.391 0.83-0.782 1.66-1.19 2.51-2.31 4.85-4.77 9.54-7.5 14.2h-5c0.483-5.34 1.91-9.29 4.56-13.9 3.54-6.35 6.71-12.8 9.73-19.4 1.71-3.72 3.54-7.23 5.7-10.7 0.684-1.28 1.35-2.57 2-3.88 0.309-0.616 0.619-1.23 0.938-1.87 0.856-1.82 1.66-3.66 2.45-5.52 1.7-3.98 3.57-7.87 5.49-11.7 0.326-0.673 0.652-1.35 0.988-2.04 2.32-4.67 5.01-8.78 8.14-13z" fill="#ECEDEF"/>
<path transform="translate(431,50)" d="m0 0c0.787 0.0179 1.57 0.0358 2.38 0.0542 2.52 0.0673 5.04 0.159 7.55 0.258 1.19 0.0336 1.19 0.0336 2.4 0.0679 6.22 0.29 11 1.39 15.9 5.53 8.58 9.89 12.8 19.6 12.7 32.9-0.399 5.52-1.83 10.2-4 15.2h-2c-0.227 0.722-0.454 1.44-0.688 2.19-2.79 5.97-7.62 8.97-13.3 11.8-4.45 1.21-8.93 1.18-13.5 1.2-0.809 0.0057-1.62 0.0114-2.45 0.0173-1.7 0.00941-3.41 0.016-5.11 0.0198-2.61 0.00977-5.23 0.0409-7.84 0.0723-1.66 0.00652-3.31 0.0118-4.97 0.0156-0.783 0.0123-1.57 0.0247-2.37 0.0374-2.2-0.00909-2.2-0.00909-5.74-0.366-2.34-3.51-2.25-4.94-2.26-9.09-0.0063-1.25-0.0126-2.51-0.0191-3.8 0.00358-1.37 0.00768-2.74 0.0123-4.11-0.00135-1.4-0.00329-2.81-0.0058-4.21-0.00295-2.94 0.00134-5.88 0.0107-8.82 0.0114-3.77 0.00483-7.54-0.00714-11.3-0.00722-2.9-0.00493-5.79 2.56e-4 -8.69 0.00134-1.39-3.09e-4 -2.78-0.00496-4.17-0.00507-1.94 0.00402-3.88 0.0138-5.82 0.00159-1.11 0.00318-2.21 0.00482-3.35 0.254-2.61 0.254-2.61 2.25-4.61 6.87-1.56 14-1.17 21-1z"/>
<path transform="translate(1008 224)" d="m0 0c1.07 0.0263 2.14 0.0525 3.24 0.0796 7.37 0.291 13.7 0.976 19.5 5.86 9.82 11.6 13.2 20.6 12.6 35.8-0.4 4.18-1.99 7.51-4.19 11-0.418 0.804-0.835 1.61-1.27 2.44-2.15 3.18-4.58 5.04-7.67 7.31-1.04 0.779-2.08 1.56-3.15 2.36-3.71 2.41-6.56 3.01-10.9 3.02-0.777 0.00315-1.55 0.0063-2.36 0.00955-1.24-0.00304-1.24-0.00304-2.51-0.00613-0.858 9.57e-4 -1.72 0.00191-2.6 0.0029-1.81 6.79e-4 -3.62-0.00116-5.42-0.00534-2.78-0.00537-5.56-3.64e-5 -8.33 0.00635-1.76-6.6e-4 -3.51-0.00194-5.27-0.00391-1.25 0.00304-1.25 0.00304-2.53 0.00613-5.84-0.024-5.84-0.024-6.96-1.14-0.0994-2.02-0.128-4.04-0.129-6.06-0.00315-1.3-0.0063-2.6-0.00955-3.93 0.00179-1.43 0.00384-2.86 0.00613-4.28-6.73e-4 -1.45-0.00164-2.91-0.0029-4.36-0.00148-3.05 6.77e-4 -6.1 0.00534-9.15 0.0057-3.92 0.00242-7.84-0.00357-11.8-0.00361-3-0.00247-6 1.28e-4 -9.01 6.69e-4 -1.44-1.59e-4 -2.89-0.00248-4.33-0.00253-2.02 2e-3 -4.03 0.0069-6.05 7.96e-4 -1.15 0.00159-2.3 0.00241-3.48 0.127-2.58 0.127-2.58 1.13-3.58 8.88-1.37 17.9-1.04 26.9-0.75z"/>
<path transform="translate(425,217)" d="m0 0c1.59 0.0268 1.59 0.0268 3.22 0.0542 3.59 0.0683 7.19 0.16 10.8 0.258 1.16 0.0224 2.32 0.0448 3.51 0.0679 7.37 0.236 14 0.502 19.7 5.6 5.69 7.69 7.58 13.7 6.42 23.3-1.31 5.45-4.04 9.87-8.62 13.2-3.88 2.08-7.63 3.15-12 3.59 0.581 3.78 1.65 6.51 3.58 9.8 0.52 0.895 1.04 1.79 1.58 2.71 0.546 0.924 1.09 1.85 1.65 2.8 10.8 18.5 10.8 18.5 10.2 23.7-11.2-7.18-16.7-18.7-23-30-1.32-2.31-2.64-4.62-4-7h-36c-0.33 11.2-0.66 22.4-1 34-2.31-0.33-4.62-0.66-7-1-0.0463-10.1-0.0818-20.3-0.104-30.4-0.0105-4.71-0.0246-9.41-0.0473-14.1-0.0217-4.54-0.0337-9.08-0.0389-13.6-0.0037-1.73-0.0109-3.47-0.0217-5.2-0.0144-2.42-0.0165-4.85-0.0156-7.27-0.00719-0.722-0.0144-1.44-0.0218-2.19 0.0207-4.97 0.0207-4.97 2.25-7.2 9.49-1.59 19.4-1.19 29-1z" fill="#F6F7F9"/>
<path transform="translate(941,45)" d="m0 0h70c1 4 1 4 0 6h-31v8.61c0 36.2 0 36.2-0.438 48.9-0.0393 1.22-0.0786 2.43-0.119 3.69-0.231 6.66-0.616 13.3-1.2 19.9-2.29 27.8-1.34 56-1.24 83.9 3.4 1.7 7.29 1.18 11 1.21 1.86 0.0281 3.72 0.0568 5.59 0.0859 2.93 0.0411 5.86 0.0779 8.79 0.104 2.83 0.0279 5.66 0.0738 8.5 0.122 0.861 0.00325 1.72 0.00651 2.61 0.00986 7.64 0.152 17.1 1.44 23 6.84 9.86 11.6 14.8 23.3 14.5 38.6-0.887 5.96-2.09 11.7-5 17h-2c-0.227 0.701-0.454 1.4-0.688 2.12-1.88 4.12-4.22 8.08-8.62 9.75-0.557 0.0412-1.11 0.0825-1.69 0.125v2c-7.95 4.37-15.1 5.3-24 5.2-0.818-0.00201-1.64-0.00403-2.48-0.0061-3.02-0.0104-6.04-0.0383-9.05-0.0642-6.76-0.0412-13.5-0.0825-20.5-0.125-0.33 14.8-0.66 29.7-1 45h-5c-0.917-9.74-1.15-19.4-1.13-29.2-0.00106-1.6-0.00245-3.19-0.00414-4.79-0.00281-4.33 0.00162-8.65 0.00817-13 0.0038-2.74 0.00585-5.48 0.00747-8.23 0.0396-57.4 0.628-115 1.62-172 0.0179-1.06 0.0358-2.12 0.0542-3.22 0.216-12.5 0.587-25 1.1-37.5 0.55-11.4 0.55-11.4 0.341-22.8-1.85-1.85-4.89-1.2-7.37-1.25-1.3-0.0329-2.59-0.0657-3.93-0.0996-2.07-0.0475-4.14-0.0919-6.22-0.131-1.99-0.0397-3.99-0.0918-5.98-0.144-1.2-0.0251-2.4-0.0501-3.63-0.0759-2.87-0.303-2.87-0.303-4.87-2.3v-4zm40 180c-1.81 1.81-1.13 4.62-1.13 7.06-0.00315 1.3-0.0063 2.6-0.00955 3.93 0.00179 1.43 0.00384 2.86 0.00613 4.28-6.73e-4 1.45-0.00164 2.91-0.0029 4.36-0.00148 3.05 6.77e-4 6.1 0.00534 9.15 0.0057 3.92 0.00242 7.84-0.00357 11.8-0.00361 3-0.00247 6 1.28e-4 9.01 6.69e-4 1.44-1.59e-4 2.89-0.00248 4.33-0.00253 2.02 2e-3 4.03 0.0069 6.05 7.96e-4 1.15 0.00159 2.3 0.00241 3.48-0.166 2.51-0.166 2.51 1.13 3.58 2.8 0.126 5.58 0.189 8.38 0.203 1.27 0.00855 1.27 0.00855 2.57 0.0173 1.8 0.00947 3.6 0.016 5.4 0.0198 2.74 0.00965 5.48 0.0406 8.22 0.0723 1.75 0.00654 3.5 0.0118 5.25 0.0156 1.22 0.0185 1.22 0.0185 2.47 0.0374 8.79-0.0339 14.7-3.5 21.4-9.04 7.21-7.27 8.57-16.1 8.56-25.9-0.149-9.59-3.69-15.8-9.25-23.5-0.66-0.949-1.32-1.9-2-2.88-6.41-6.81-15.2-6.41-23.9-6.75-1.12-0.0443-2.24-0.0886-3.4-0.134-7.93-0.272-15.9-0.454-23.7 0.759z" fill="#F5F6F8"/>
<path transform="translate(1572 223)" d="m0 0c0.86 0.655 1.72 1.31 2.61 1.98v2h2c0.99 2.31 1.98 4.62 3 7-4 0-5.53-1.57-8.81-3.81-11.7-7.55-24.1-8.25-37.7-5.72-8.15 2.22-16.2 7.63-20.5 15-0.703 1.5-1.37 3.03-2 4.56-0.316 0.686-0.632 1.37-0.957 2.08-3.56 8.78-3.25 19.1-0.0898 28 2.76 5.18 6.5 8.26 11.3 11.5 1.08 0.744 2.16 1.49 3.27 2.25 3.67 2.4 7.54 4.28 11.5 6.18-0.0157-1.57-0.0157-1.57-0.0317-3.18-0.0361-3.89-0.0591-7.77-0.0781-11.7-0.0101-1.68-0.0237-3.37-0.041-5.05-0.0242-2.42-0.0356-4.84-0.0444-7.25-0.0103-0.755-0.0206-1.51-0.0313-2.29-4e-4 -1.86 0.104-3.71 0.227-5.56 2.34-2.34 2.87-2.28 6.05-2.41 0.834-0.0389 1.67-0.0778 2.53-0.118 0.902-0.0307 1.8-0.0614 2.73-0.093 1.39-0.0547 1.39-0.0547 2.8-0.111 6.86-0.247 13.7-0.393 20.6-0.452 0.902-0.0131 1.8-0.0261 2.73-0.0396 0.834-0.00113 1.67-0.00226 2.53-0.00342 0.736-0.00411 1.47-0.00822 2.23-0.0125 1.82 0.243 1.82 0.243 3.82 2.24 0.451 2.98 0.332 5.99 0.312 9-0.00419 0.859-0.00838 1.72-0.0127 2.6-0.22 12.4-0.22 12.4-3.3 17.4-1.33 0.669-2.67 1.34-4 2-0.688 1.32-1.36 2.66-2 4-8.82 5.39-18.7 7.21-28.9 7.69-0.687 0.102-1.37 0.204-2.08 0.309-1.66 3.31-1.22 7.01-1.28 10.7-0.0276 1.29-0.0276 1.29-0.0558 2.6-0.0588 2.75-0.112 5.5-0.163 8.24-0.0675 3.61-0.141 7.23-0.219 10.8-0.0136 0.836-0.0272 1.67-0.0411 2.53-0.127 5.9-0.127 5.9-1.24 8.12h-4v-43c-6.93-3.96-6.93-3.96-14-8-9.36-6.54-17.2-13.6-20-25-1.67-13.2 0.446-24 8.31-34.9 14.9-18 43-22 63.1-10.1z" fill="#EBECEE"/>
<path transform="translate(777,218)" d="m0 0c3.06-0.562 3.06-0.562 7 0 2.81 2.68 5.02 5.66 7 9v2c0.557 0.201 1.11 0.402 1.69 0.609 3.21 1.93 5.11 4.68 7.31 7.64 3.91 5.12 7.95 10.1 12.2 14.9 3.47 3.99 6.76 7.99 9.81 12.3 3.23 4.56 6.7 8.86 10.3 13.1 0.516 0.617 1.03 1.23 1.56 1.87 3 3.53 3 3.53 7.12 5.51v-65h3c0.495 1.49 0.495 1.49 1 3 0.619-0.186 1.24-0.371 1.88-0.562 2.12-0.438 2.12-0.438 4.12 0.562 0.977 2.93 1.12 4.79 1.12 7.84 0.00206 1.5 0.00206 1.5 0.00417 3.02-0.00539 1.64-0.00539 1.64-0.0109 3.31 1.46e-4 1.15 2.92e-4 2.3 4.43e-4 3.49-6.98e-4 3.81-0.00849 7.63-0.0163 11.4-0.00186 2.64-0.00329 5.28-0.00429 7.92-0.00311 6.25-0.0113 12.5-0.0213 18.7-0.0112 7.11-0.0167 14.2-0.0217 21.3-0.0105 14.6-0.028 29.3-0.0503 43.9h-7c-0.0251-1.29-0.0501-2.57-0.0759-3.9-0.0941-4.77-0.194-9.54-0.296-14.3-0.0433-2.07-0.085-4.13-0.125-6.2-0.0577-2.97-0.121-5.93-0.186-8.9-0.0167-0.925-0.0334-1.85-0.0506-2.8-0.0299-1.29-0.0299-1.29-0.0604-2.61-0.0155-0.757-0.0311-1.51-0.0471-2.29-0.0945-2.2-0.0945-2.2-1.16-4.99-1.32-0.694-2.65-1.36-4-2-1.46-1.42-1.46-1.42-2.94-3.19-2.41-2.87-4.84-5.7-7.34-8.5-0.581-0.657-1.16-1.31-1.76-1.99-1.17-1.32-2.34-2.64-3.52-3.95-2.9-3.3-5.16-6.08-6.44-10.4h-2c-1.34-1.77-2.68-3.55-3.98-5.35-2.43-3.2-5.06-6.19-7.71-9.21-4.95-5.66-9.46-11.5-13.7-17.7-2.56-3.75-2.56-3.75-6.57-5.71 0.107 1.25 0.107 1.25 0.217 2.53 1.02 13.6 0.894 27.3 0.846 41-0.00503 2.48-0.00959 4.96-0.0137 7.44-0.0109 6.02-0.0276 12-0.0488 18.1-3.73 1.06-3.73 1.06-6.19 0.5-2.32-1.92-2.3-3.44-2.64-6.34-0.331-4.27-0.31-8.54-0.301-12.8-9.57e-4 -1.03-0.00191-2.06-0.0029-3.11-6.79e-4 -2.18 0.00116-4.35 0.00534-6.53 0.00528-3.26 8.56e-5 -6.51-0.00635-9.77-0.00372-10.3 0.115-20.5 0.582-30.8 0.0387-0.879 0.0775-1.76 0.117-2.66 0.0413-0.807 0.0827-1.61 0.125-2.44 0.0359-0.703 0.0717-1.41 0.109-2.13 0.203-1.87 0.203-1.87 1.2-4.87z" fill="#F5F6F8"/>
<path transform="translate(618 216)" d="m0 0c3.47 1.07 4.46 2.96 6.19 6.04 0.473 0.914 0.946 1.83 1.43 2.77 0.88 1.7 0.88 1.7 1.78 3.43 4.14 8.1 8 16.3 11.9 24.6 2.64 5.6 5.49 11.1 8.46 16.5 3.76 6.97 6.83 14.2 9.9 21.5-0.66 0.66-1.32 1.32-2 2-0.66-1.32-1.32-2.64-2-4v5h-2c-0.447-0.906-0.895-1.81-1.36-2.75-0.611-1.23-1.22-2.46-1.83-3.69-0.292-0.592-0.584-1.18-0.885-1.79-0.62-1.25-1.25-2.48-1.9-3.72-1.03-2.05-1.03-2.05-1.99-4.49-1.13-2.57-2.13-4.49-4.04-6.56-3.73-1.3-7.27-1.22-11.2-1.12-1.07 0.00411-2.13 0.00822-3.23 0.0125-2.17 0.0151-4.33 0.0475-6.5 0.0974-2.81 0.0138-5.52-0.157-8.31-0.426-6.57-0.473-6.57-0.473-12.8 1.44-4.32 4.39-6.7 10.1-9.03 15.7-0.956 2.3-1.97 4.55-3.05 6.79-0.453 0.951-0.453 0.951-0.916 1.92-1.5 2.42-3.45 3.48-6 4.61-0.66-0.66-1.32-1.32-2-2 0.375-3.62 0.375-3.62 1-7h2c0.162-0.545 0.324-1.09 0.491-1.65 1.83-5.85 4.26-11 7.2-16.4 0.893-1.66 1.79-3.33 2.68-5 0.443-0.826 0.886-1.65 1.34-2.5 4.34-8.17 8.49-16.5 12.2-25 1.65-3.62 3.42-7.18 5.19-10.7 0.341-0.686 0.682-1.37 1.03-2.08 5.24-10.4 5.24-10.4 8.28-11.5z" fill="#F6F7F9"/>
<path transform="translate(444 224)" d="m0 0c0.691 0.0224 1.38 0.0448 2.09 0.0679 5.69 0.313 8.72 1.92 12.7 5.84 3.31 5.34 2.48 11.7 1.72 17.8-1.6 4-4.25 5.6-8.02 7.62-4.79 1.97-9.55 1.81-14.7 1.78-1.01 0.00287-2.01 0.00574-3.05 0.0087-2.12 0.00203-4.23-0.00344-6.35-0.016-3.25-0.0161-6.49-8.18e-5 -9.74 0.019-2.06-0.00198-4.12-0.00582-6.17-0.0117-0.974 0.00607-1.95 0.0121-2.95 0.0184-0.898-0.00946-1.8-0.0189-2.72-0.0287-1.19-0.00358-1.19-0.00358-2.4-0.00723-0.64-0.126-1.28-0.251-1.94-0.381-2.34-3.52-2.25-4.97-2.23-9.13 0.00193-1.2 0.00387-2.4 0.00586-3.63 0.0122-1.25 0.0245-2.51 0.0371-3.8 6.45e-4 -1.26 0.00129-2.51 0.00195-3.81 0.0452-9.35 0.0452-9.35 1.19-11.6 13.6-2.52 28.7-1.3 42.4-0.688z"/>
<path transform="translate(408 43.8)" d="m0 0c0.845-0.00961 1.69-0.0192 2.56-0.0291 0.918-0.00425 1.84-0.0085 2.78-0.0129 0.948-0.0057 1.9-0.0114 2.87-0.0173 2.01-0.00946 4.03-0.016 6.04-0.0198 3.05-0.00963 6.1-0.0406 9.14-0.0723 22.2-0.122 22.2-0.122 30.7 5.38 1.81 1.94 1.81 1.94 1.81 3.94 0.576 0.193 1.15 0.387 1.75 0.586 3.18 2 4.57 4.82 6.32 8.04 0.338 0.592 0.677 1.18 1.03 1.79 6.25 11.2 8.06 22.4 5.1 35-3.57 9.45-10.8 20.1-20.2 24.6-5.03 1.66-9.71 2.13-15 2-0.99 0.495-0.99 0.495-2 1-2.84 0.0869-5.66 0.116-8.51 0.0977-1.26-0.00212-1.26-0.00212-2.55-0.00429-2.69-0.00561-5.38-0.0182-8.07-0.0309-1.82-0.00501-3.64-0.00958-5.46-0.0137-4.47-0.011-8.94-0.0283-13.4-0.0488v-2h-2c-0.0259-7.23-0.0431-14.5-0.0549-21.7-0.00495-2.45-0.0117-4.9-0.0205-7.34-0.0583-16.7 0.254-33.3 1.08-50 2.28-1.14 3.56-1.14 6.09-1.16zm-0.0916 9.16c-0.307 2.73-0.307 2.73-0.259 5.96-0.0063 1.25-0.0126 2.5-0.0191 3.79 0.00358 1.37 0.00768 2.74 0.0123 4.12-0.00135 1.4-0.00329 2.8-0.0058 4.21-0.00295 2.94 0.00135 5.88 0.0107 8.82 0.0114 3.77 0.00484 7.54-0.00714 11.3-0.00723 2.9-0.00493 5.79 2.56e-4 8.69 0.00133 1.39-3.04e-4 2.78-0.00496 4.17-0.00508 1.94 0.00403 3.89 0.0138 5.83 0.00159 1.11 0.00318 2.21 0.00482 3.35 0.0551 2.96 0.0551 2.96 2.25 5.74 2.73 0.305 5.24 0.42 7.97 0.398 0.797 0.00287 1.59 0.00574 2.42 0.0087 1.69 0.00204 3.38-0.00351 5.08-0.016 2.56-0.0159 5.13-2.43e-4 7.69 0.019 11.2 0.0149 21.2-0.398 29.8-8.41 2.4-3.21 2.4-3.21 3-7 0.99-0.33 1.98-0.66 3-1 4.33-11.1 3.71-21.8 0-33-3.5-7.19-8.25-13.6-15-18-2.7-0.807-5.25-1.17-8.05-1.32-1.16-0.0631-1.16-0.0631-2.34-0.127-1.23-0.0587-1.23-0.0587-2.48-0.119-0.843-0.0417-1.69-0.0835-2.56-0.126-16.3-1.99-16.3-1.99-30.6 2.69z" fill="#F6F7F9"/>
<path transform="translate(1309,217)" d="m0 0c2.31-0.25 2.31-0.25 5 0 1.98 2.04 3 3.12 3 6 0.619 0.227 1.24 0.454 1.88 0.688 2.75 1.7 2.99 3.37 4.12 6.31 0.99 0.33 1.98 0.66 3 1 0.667 1.67 1.33 3.33 2 5 0.99 0.33 1.98 0.66 3 1 1.59 1.93 3.06 3.84 4.5 5.88 2.33 3.24 4.63 6.33 7.5 9.12 1.22 1.67 2.37 3.37 3.52 5.09 1.53 2.07 1.53 2.07 3.82 4.23 2.86 2.89 5.28 5.93 7.71 9.18 3.54 4.68 3.54 4.68 7.25 9.22 1.69 2.28 1.69 2.28 1.69 5.28 1.98 0.66 3.96 1.32 6 2v-69h5c2 2 2 2 2.24 3.88-0.00411 0.79-0.00822 1.58-0.0125 2.39-0.00129 0.946-0.00258 1.89-0.00391 2.87-0.0129 1.07-0.0258 2.14-0.0391 3.24-0.00645 1.13-0.0129 2.25-0.0195 3.41-0.178 21.7-0.708 43.5-1.17 65.2-10.7-1.95-16.9-12.5-22.8-20.9-1.67-2.34-3.17-4.08-5.19-6.06-2.4-2.82-4.74-5.68-7.08-8.55-4.13-5.07-8.29-10.1-12.7-14.9-1.21-1.56-1.21-1.56-1.21-3.56h-2c-0.268-0.598-0.536-1.2-0.812-1.81-1.2-2.21-2.38-3.45-4.19-5.19l-4-5c-2.12-2.38-2.87-2.96-6-4 0.161 1.28 0.322 2.57 0.488 3.89 0.787 7.94 0.707 15.9 0.699 23.9 5.89e-4 1.26 5.89e-4 1.26 0.00119 2.54-0.00678 12.2-0.45 24.2-1.4 36.4-0.919 12-1.21 24-1.44 36-0.0163 0.751-0.0326 1.5-0.0494 2.27-0.044 2.05-0.0817 4.1-0.119 6.14-0.174 2.94-0.174 2.94-1.17 3.94-1.67 0.0406-3.33 0.0427-5 0 0.0251-1.01 0.0501-2.02 0.0759-3.06 0.475-19.2 0.938-38.3 1.36-57.5 0.123-5.52 0.248-11 0.374-16.6 0.107-4.7 0.211-9.4 0.312-14.1 0.101-4.67 0.206-9.34 0.315-14 0.0399-1.75 0.0782-3.51 0.115-5.26 0.0504-2.41 0.107-4.82 0.164-7.23 0.0203-1.07 0.0203-1.07 0.041-2.16 0.126-4.9 0.126-4.9 1.24-7.12z" fill="#EEEFF1"/>
<path transform="translate(65 217)" d="m0 0c0.819 8.86e-4 1.64 0.00177 2.48 0.00269 10.2 0.194 20.6 2.21 29.5 7.37 2 3 2 3 2 7-5.35-0.433-9.57-2.53-14.3-4.84-6.14-2.65-12.4-2.37-19-2.41-1.01-0.0206-2.01-0.0412-3.05-0.0625-6.28-0.0327-11 0.568-16.6 3.31-0.525 0.529-1.05 1.06-1.59 1.6-1.41 1.4-1.41 1.4-3.41 1.4-0.309 1.13-0.619 2.27-0.938 3.44-1.06 3.56-1.06 3.56-2.06 4.56-0.136 3.66-0.165 6.51 1 10 1.78 1.14 1.78 1.14 4 2 0.704 0.337 1.41 0.674 2.13 1.02 3.65 1.25 7.17 1.42 11 1.58 0.775 0.0392 1.55 0.0784 2.35 0.119 2.47 0.124 4.94 0.235 7.41 0.346 2.46 0.116 4.92 0.235 7.39 0.357 1.53 0.0752 3.06 0.147 4.58 0.214 8.47 0.403 13.8 1.03 20.1 7.06 4.66 5.32 6.78 11.1 6.4 18.2-1.18 6.64-6.17 12.1-11.4 16.1-12.6 6.78-30.5 7.02-44 3-1.34-0.309-1.34-0.309-2.7-0.625-5.61-1.35-9.92-3.01-14.5-6.48-1.76-1.11-1.76-1.11-3.98-0.531-0.587 0.211-1.17 0.423-1.78 0.641 0.115 2.52 0.242 5.04 0.375 7.56 0.0309 0.704 0.0619 1.41 0.0938 2.13 0.26 4.71 1.21 8.75 2.53 13.3 1.1 6.5 1.13 13 1.06 19.6-0.00451 0.913-0.00902 1.83-0.0137 2.77-0.0116 2.22-0.028 4.45-0.0488 6.67-1.98 0.495-1.98 0.495-4 1l-0.113-3.64c-0.351-9.41-1.04-18.7-2.39-28-0.131-0.906-0.261-1.81-0.396-2.74-0.588-4.45-0.588-4.45-2.1-8.63-0.151-2.81-0.231-5.57-0.25-8.38-0.0206-0.768-0.0413-1.54-0.0625-2.33-0.0395-5.71-0.0395-5.71 1.83-8.84 0.49-0.482 0.98-0.964 1.48-1.46 5.45 0.486 8.9 2.48 13.4 5.38 7.95 5.11 15.1 8.1 24.6 8.62 0.697 0.0412 1.39 0.0825 2.11 0.125 11.3 0.331 22.2-1.16 30.9-8.75 3-5.07 2.76-10 1.48-15.7-0.157-0.559-0.315-1.12-0.477-1.7h-2c-0.598-0.784-1.2-1.57-1.81-2.38-2.9-3.47-5.42-4.44-9.89-4.91-0.961-0.0187-1.92-0.0374-2.91-0.0566-1.08-0.028-2.15-0.0559-3.26-0.0847-1.7-0.0354-1.7-0.0354-3.44-0.0715-29.8-0.953-29.8-0.953-36.2-6.73-3.6-4.3-5.32-8.05-5.86-13.6 0.375-3.12 0.375-3.12 2.38-5.12 0.433-1.09 0.866-2.19 1.31-3.31 2.61-6.26 7.6-9.95 13.7-12.7 5.76-1.71 11-2.39 17-2.38z" fill="#E0E1E2"/>
<path transform="translate(657,133)" d="m0 0h2c0.33 0.66 0.66 1.32 1 2h3c1.75 5.26 1.64 10.9 2 16.4 0.124 1.76 0.124 1.76 0.25 3.56 2.02 30.6 2.03 61.3 2.28 91.9 0.0401 4.77 0.0843 9.53 0.128 14.3 0.196 21.2 0.378 42.5 0.423 63.7 0.00396 1.66 0.00952 3.31 0.0167 4.97 0.0091 2.23 0.0118 4.46 0.0124 6.7 0.00245 1.24 0.0049 2.48 0.00743 3.76-0.12 2.74-0.12 2.74-1.12 3.74-1.67 0.0406-3.33 0.0427-5 0-1.62-3.25-1.22-6.83-1.28-10.4-0.0184-0.834-0.0368-1.67-0.0558-2.53-0.0588-2.67-0.112-5.34-0.163-8.01-0.0676-3.51-0.141-7.02-0.219-10.5-0.0136-0.809-0.0272-1.62-0.0411-2.45-0.0724-3.26-0.201-5.97-1.24-9.08-0.99-0.33-1.98-0.66-3-1-2.18-1.94-2.95-3.35-3.19-6.27 0-2.25 0.0578-4.49 0.188-6.73 1.32 1.32 2.64 2.64 4 4 0.99-0.33 1.98-0.66 3-1-0.317-19-0.65-38-1-57-0.0193-1.06-0.0387-2.12-0.0586-3.21-0.394-21.5-1-43-1.94-64.5-0.0419-0.971-0.0838-1.94-0.127-2.94-0.12-2.75-0.246-5.5-0.373-8.26-0.0354-0.806-0.0708-1.61-0.107-2.44-0.238-4.93-0.724-9.78-1.39-14.7h2v-4z" fill="#F5F6F8"/>
<path transform="translate(1131,44)" d="m0 0c2-0.0425 4-0.0408 6 0 1.95 1.95 1.23 5.62 1.28 8.28 0.0184 0.729 0.0368 1.46 0.0558 2.21 0.0789 3.13 0.147 6.26 0.215 9.39 0.0516 2.28 0.109 4.56 0.167 6.84 0.0204 1.07 0.0204 1.07 0.0411 2.16-0.201 3.35-0.201 3.35 1.24 6.12 6.37 1.05 12.6 1.13 19.1 1.1 1.55-0.00212 1.55-0.00212 3.13-0.00429 3.27-0.00556 6.54-0.0181 9.81-0.0309 2.23-0.00502 4.46-0.00958 6.68-0.0137 5.44-0.011 10.9-0.0277 16.3-0.0488-0.00524-0.989-0.0105-1.98-0.0159-3-0.0181-3.66-0.0296-7.33-0.0391-11-0.00503-1.59-0.0119-3.17-0.0205-4.76-0.0121-2.28-0.0178-4.56-0.0222-6.84-0.00516-0.712-0.0103-1.42-0.0156-2.16-5.75e-4 -5.03-5.75e-4 -5.03 1.11-7.26 1.67-0.0427 3.33-0.0406 5 0 1.72 1.72 1.12 3.91 1.12 6.2-0.00539 1.12-0.00539 1.12-0.0109 2.26 1.46e-4 0.78 2.92e-4 1.56 4.43e-4 2.36-6.99e-4 2.59-0.00849 5.18-0.0163 7.78-0.00186 1.79-0.00329 3.58-0.00429 5.38-0.00383 4.73-0.0137 9.45-0.0247 14.2-0.0102 4.82-0.0148 9.64-0.0198 14.5-0.0107 9.46-0.0278 18.9-0.0488 28.4h-6c-1.49-2.98-1.08-6.01-1.03-9.27 0.0126-1.48 0.025-2.96 0.0371-4.44 0.0248-2.33 0.0528-4.67 0.0862-7 0.0303-2.25 0.048-4.5 0.0642-6.75 0.0135-0.695 0.0269-1.39 0.0408-2.11 0.0194-3.76-0.396-6.17-2.2-9.43-7.53-0.0253-15.1-0.0428-22.6-0.0549-2.56-0.00504-5.13-0.0119-7.69-0.0205-3.68-0.0121-7.35-0.0178-11-0.0222-1.73-0.00774-1.73-0.00774-3.5-0.0156-1.06-7.55e-5 -2.12-1.51e-4 -3.22-2.29e-4 -0.939-0.00222-1.88-0.00444-2.85-0.00673-2.12-0.118-2.12-0.118-3.13 1.12-0.16 2.81-0.26 5.6-0.316 8.41-0.0208 0.842-0.0416 1.68-0.063 2.55-0.0656 2.7-0.124 5.4-0.183 8.1-0.0432 1.83-0.0868 3.65-0.131 5.48-0.107 4.49-0.209 8.97-0.307 13.5-2.38 0.625-2.38 0.625-5 1-2.5-2.5-2.24-3.98-2.25-7.39 0.00719-0.75 0.0144-1.5 0.0218-2.27-2.92e-4 -0.79-5.84e-4 -1.58-8.85e-4 -2.39 0.0014-2.62 0.017-5.24 0.0326-7.86 0.00373-1.81 0.00658-3.63 0.00858-5.44 0.00764-4.78 0.0273-9.55 0.0494-14.3 0.0204-4.87 0.0296-9.75 0.0397-14.6 0.0215-9.57 0.0556-19.1 0.0977-28.7z" fill="#F6F7F9"/>
<path transform="translate(941,45)" d="m0 0h70c1 4 1 4 0 6h-31v8.61c0 36.2 0 36.2-0.438 48.9-0.0393 1.22-0.0786 2.43-0.119 3.69-0.0628 1.81-0.0628 1.81-0.127 3.66-0.0367 1.08-0.0733 2.17-0.111 3.29-0.162 3.06-0.4 6.08-0.678 9.12-0.735 8.6-0.98 17.2-1.28 25.9-0.0656 1.82-0.131 3.64-0.197 5.46-0.172 4.75-0.34 9.51-0.508 14.3-0.172 4.87-0.348 9.73-0.523 14.6-0.342 9.52-0.681 19-1.02 28.6-2.15-3.23-2.2-4.28-2-8-0.33 2.31-0.66 4.62-1 7h-1c-0.101-32.5-0.16-65 0.438-97.6 0.0196-1.11 0.0393-2.22 0.0595-3.36 0.238-13.1 0.62-26.3 1.16-39.4 0.547-11.4 0.547-11.4 0.338-22.7-1.85-1.85-4.89-1.2-7.37-1.25-1.3-0.0329-2.59-0.0657-3.93-0.0996-2.07-0.0475-4.14-0.0919-6.22-0.131-1.99-0.0397-3.99-0.0918-5.98-0.144-1.2-0.0251-2.4-0.0501-3.63-0.0759-2.87-0.303-2.87-0.303-4.87-2.3v-4z" fill="#ECEDEF"/>
<path transform="translate(218 218)" d="m0 0c0.651-0.00336 1.3-0.00672 1.97-0.0102 2.15-0.00951 4.31-0.0115 6.46-0.0125 1.49-0.00321 2.99-0.00658 4.48-0.0101 3.13-0.00599 6.27-0.00784 9.4-0.00725 4.02 1.02e-4 8.04-0.0136 12.1-0.0308 3.09-0.0111 6.17-0.0131 9.26-0.0126 1.48-0.00118 2.97-0.00562 4.45-0.0133 2.07-0.00976 4.14-0.00694 6.21-8.95e-4 1.18-0.00143 2.36-0.00285 3.58-0.00432 2.77 0.247 2.77 0.247 4.77 2.25-0.25 2.06-0.25 2.06-1 4-2.71 1.35-4.79 1.08-7.81 1.03-1.16-0.0122-2.32-0.0245-3.51-0.0371-2.45-0.0352-4.91-0.0742-7.36-0.117-1.16-0.011-2.32-0.0219-3.51-0.0332-1.07-0.0168-2.13-0.0337-3.23-0.051-2.75-0.0557-2.75-0.0557-4.58 2.21-0.182 2.52-0.232 4.92-0.188 7.44 0.0108 1.21 0.0108 1.21 0.0217 2.44 0.0967 7.62 0.426 15.2 0.737 22.8 0.494 12.7 0.74 25.5 0.991 38.2 0.0221 1.09 0.0443 2.18 0.0671 3.3 0.281 13.9 0.432 27.8 0.37 41.8-1.98 0.495-1.98 0.495-4 1-1.21-8.89-2.03-17.8-2.51-26.7-0.0622-1.16-0.0622-1.16-0.126-2.34-0.207-3.92-0.401-7.84-0.581-11.8-0.0743-1.48-0.149-2.96-0.223-4.44-0.0606-1.32-0.121-2.63-0.184-3.99-0.385-3.78-1.33-7.08-2.38-10.7-0.211-2.89-0.211-2.89-0.16-5.75 0.0117-1.07 0.0234-2.15 0.0354-3.25 0.0205-1.13 0.0411-2.27 0.0623-3.44 0.0854-9.26 0.0209-18.5-0.375-27.8-0.0394-0.972-0.0788-1.94-0.119-2.95-0.243-5.34-0.703-10.6-1.44-15.9-0.802 0.0209-1.6 0.0419-2.43 0.0635-3.63 0.083-7.25 0.135-10.9 0.187-1.26 0.0335-2.53 0.067-3.83 0.102-1.81 0.0193-1.81 0.0193-3.66 0.0391-1.67 0.0314-1.67 0.0314-3.38 0.0635-2.82-0.454-2.82-0.454-4.71-2.35-1.11-2.1-1.11-2.1-1.11-4.1 2.82-1.41 5.19-1.14 8.35-1.15z" fill="#ECEDEF"/>
<path transform="translate(1575,262)" d="m0 0c2.79 7.96 2.58 14.4-1 22-5.76 7.2-12.3 9.44-21.1 10.7-8.65 0.926-8.65 0.926-11.9-0.691-0.0247-4.09-0.0429-8.19-0.0549-12.3-0.00503-1.39-0.0119-2.79-0.0205-4.18-0.0121-2-0.0173-4-0.0222-6-0.00524-1.2-0.0105-2.41-0.0159-3.65 0.114-2.89 0.114-2.89 1.11-4.89 2.75-0.414 2.75-0.414 6.44-0.625 0.98-0.0569 0.98-0.0569 1.98-0.115 8.19-0.423 16.4-0.345 24.6-0.26z"/>
<path transform="translate(1173,217)" d="m0 0c2.62 0.375 2.62 0.375 5 1 0.893 6.94 1.18 13.8 1.25 20.7 0.0318 2.36 0.0638 4.72 0.0959 7.09 0.0154 1.24 0.0308 2.48 0.0467 3.76 0.292 23 0.846 46.1 1.67 69.1 0.0462 1.28 0.0923 2.57 0.14 3.89 0.259 7.14 0.524 14.3 0.798 21.4h-6c-0.0354-0.572-0.0707-1.14-0.107-1.73-0.368-5.94-0.742-11.9-1.12-17.8-0.14-2.22-0.279-4.43-0.416-6.65-0.197-3.18-0.4-6.36-0.603-9.55-0.0605-0.996-0.121-1.99-0.183-3.02-0.09-1.38-0.09-1.38-0.182-2.79-0.0511-0.813-0.102-1.63-0.155-2.46-0.129-2.06-0.129-2.06-1.23-3.99-0.117-1.35-0.177-2.71-0.205-4.07-0.0199-0.845-0.0399-1.69-0.0604-2.56-0.0167-0.923-0.0335-1.85-0.0507-2.8-0.0209-0.96-0.0418-1.92-0.0634-2.91-0.0664-3.14-0.125-6.28-0.183-9.42-0.0205-1.06-0.041-2.12-0.0622-3.21-0.142-7.35-0.266-14.7-0.375-22-0.0131-0.875-0.0262-1.75-0.0397-2.65-0.0725-5.05-0.12-10.1-0.148-15.2-0.013-1.23-0.0259-2.46-0.0393-3.73-0.00121-1.11-0.00242-2.21-0.00366-3.35-0.00411-0.947-0.00822-1.89-0.0125-2.87 0.243-2.24 0.243-2.24 2.24-4.24z" fill="#F5F6F8"/>
<path transform="translate(841,220)" d="m0 0h3c0.33 0.99 0.66 1.98 1 3 0.928-0.278 0.928-0.278 1.88-0.562 2.12-0.438 2.12-0.438 4.12 0.562 1.17 3.51 1.13 6.66 1.11 10.3 1.46e-4 0.742 2.92e-4 1.48 4.43e-4 2.25-6.97e-4 2.45-0.00848 4.9-0.0163 7.35-0.00187 1.7-0.00329 3.4-0.00429 5.1-0.00382 4.47-0.0136 8.95-0.0247 13.4-0.0102 4.56-0.0148 9.13-0.0198 13.7-0.0107 8.96-0.0278 17.9-0.0488 26.9h-2c-0.33 1.32-0.66 2.64-1 4-0.454-0.928-0.908-1.86-1.38-2.81-1.57-3.23-1.57-3.23-3.62-6.19-0.309-1.11-0.619-2.23-0.938-3.38-0.979-3.34-2.15-5.75-4.06-8.62h2v-65z" fill="#DFE0E1"/>
<path transform="translate(610 116)" d="m0 0c0.981-0.00638 1.96-0.0128 2.97-0.0193 1.57-0.00167 1.57-0.00167 3.18-0.00337 1.09-0.00333 2.18-0.00666 3.3-0.0101 2.3-0.00506 4.6-0.00741 6.9-0.00725 3.51-0.00219 7.02-0.0204 10.5-0.0393 2.24-0.00293 4.47-0.00492 6.71-0.00586 1.57-0.0108 1.57-0.0108 3.17-0.0218 5.12 0.016 9.38 0.191 14.2 2.25v3c0.66 0.33 1.32 0.66 2 1h-10c0.495 2.47 0.495 2.47 1 5 1.26 0.186 2.52 0.371 3.81 0.562 0.708 0.104 1.42 0.209 2.14 0.316 2.25 0.26 2.25 0.26 5.04-0.879-0.256 2.34-0.593 4.68-1 7l-2 1c-0.66 0.99-1.32 1.98-2 3-0.33-1.65-0.66-3.3-1-5h-2v4c-0.99-0.33-1.98-0.66-3-1-0.688-2.06-0.688-2.06-1-4-0.829-0.0449-1.66-0.0898-2.51-0.136-16.6-0.924-33-2.11-49.5-4.86-0.764-3.44-1-6.46-1-10 3.41-0.767 6.57-1.13 10.1-1.15z" fill="#DFE0E1"/>
<path transform="translate(805,44)" d="m0 0c3.34 0.595 3.85 0.806 6.05 3.66 1.87 3.19 3.58 6.39 5.2 9.71 0.605 1.23 1.21 2.45 1.82 3.68 0.645 1.31 1.29 2.63 1.93 3.95 1.39 2.84 2.79 5.67 4.19 8.5 0.481 0.987 0.481 0.987 0.972 1.99 2.01 4.06 4.25 7.78 6.84 11.5-0.495 0.99-0.495 0.99-1 2-1.49-0.99-1.49-0.99-3-2h-3c-0.33-0.66-0.66-1.32-1-2h-2c-3.44-6.48-6.23-13.1-8.8-19.9-1.5-3.84-3.28-7.43-5.2-11.1-3.03 0.661-3.03 0.661-4.07 2.67-0.485 1.07-0.485 1.07-0.979 2.16-0.366 0.793-0.733 1.59-1.11 2.4-0.38 0.85-0.76 1.7-1.15 2.58-0.794 1.74-1.59 3.48-2.39 5.22-0.388 0.851-0.777 1.7-1.18 2.58-0.971 2.06-1.99 4.07-3.08 6.07-3.42 5.87-3.42 5.87-3.98 12.4 0.828 2.78 0.828 2.78 1.94 4.88-2.64 0.33-5.28 0.66-8 1-0.125 0.571-0.251 1.14-0.38 1.73-0.641 2.35-1.5 4.37-2.55 6.57-0.385 0.813-0.77 1.63-1.17 2.46l-1.22 2.55c-0.391 0.83-0.782 1.66-1.19 2.51-2.31 4.85-4.77 9.54-7.5 14.2h-5c0.483-5.34 1.91-9.29 4.56-13.9 3.54-6.35 6.71-12.8 9.73-19.4 1.71-3.72 3.54-7.23 5.7-10.7 0.684-1.28 1.35-2.57 2-3.88 0.309-0.616 0.619-1.23 0.938-1.87 0.856-1.82 1.66-3.66 2.45-5.52 1.7-3.98 3.57-7.87 5.49-11.7 0.326-0.673 0.652-1.35 0.988-2.04 2.32-4.67 5.01-8.78 8.14-13z" fill="#EDEEF0"/>
<path transform="translate(1571 256)" d="m0 0c1.35-0.0196 1.35-0.0196 2.73-0.0396 0.834-0.00113 1.67-0.00226 2.53-0.00342 0.736-0.00411 1.47-0.00822 2.23-0.0125 1.82 0.243 1.82 0.243 3.82 2.24 0.451 2.98 0.332 5.99 0.312 9-0.00628 1.29-0.00628 1.29-0.0127 2.6-0.22 12.4-0.22 12.4-3.3 17.4-1.33 0.669-2.67 1.34-4 2-0.688 1.32-1.36 2.66-2 4-11.6 7.07-23.9 7.95-37 6-0.66-0.66-1.32-1.32-2-2 3.46-0.495 3.46-0.495 7-1h-5c-0.0494-5.23-0.0857-10.5-0.11-15.7-0.0101-1.78-0.0237-3.56-0.041-5.34-0.0242-2.56-0.0356-5.11-0.0444-7.67-0.0103-0.799-0.0206-1.6-0.0313-2.42-3.99e-4 -1.96 0.104-3.91 0.227-5.87 2.34-2.34 2.87-2.28 6.05-2.41 1.25-0.0584 1.25-0.0584 2.53-0.118 1.35-0.046 1.35-0.046 2.73-0.093 0.925-0.0365 1.85-0.073 2.8-0.111 6.86-0.247 13.7-0.393 20.6-0.452zm-22.2 6.56c-1.22 0.0696-2.44 0.139-3.69 0.211-0.906 0.137-1.81 0.273-2.75 0.414-1.44 2.87-1.11 5.34-1.1 8.54 0.00322 1.3 0.00645 2.6 0.00977 3.95 0.00836 1.38 0.0168 2.76 0.0254 4.14 0.00501 1.39 0.00958 2.78 0.0137 4.16 0.0118 3.4 0.0283 6.81 0.0488 10.2 5.58 2.79 15.1 0.517 20.9-1.25 5.54-2.15 10.4-4.7 12.9-10.3 0.371-1.13 0.743-2.27 1.12-3.44 0.227-0.66 0.454-1.32 0.688-2 0.862-5.52 0.166-9.8-1.69-15-8.86-0.0914-17.7-0.139-26.6 0.375z" fill="#DFE0E1"/>
<path transform="translate(1309,217)" d="m0 0c2.19-0.5 2.19-0.5 5 0 2.14 2.42 3.8 5 5 8-0.33 0.99-0.66 1.98-1 3-2.06 0.688-2.06 0.688-4 1 0.0105 1.3 0.0209 2.59 0.0317 3.93 0.323 43.9 0.323 43.9-1.25 63.2-0.945 11.8-1.21 23.6-1.44 35.5-0.0163 0.75-0.0326 1.5-0.0494 2.27-0.044 2.05-0.0817 4.1-0.119 6.14-0.174 2.94-0.174 2.94-1.17 3.94-1.67 0.0406-3.33 0.0427-5 0 0.0251-1.01 0.0501-2.02 0.0759-3.06 0.475-19.2 0.938-38.3 1.36-57.5 0.123-5.52 0.248-11 0.374-16.6 0.107-4.7 0.211-9.4 0.312-14.1 0.101-4.67 0.206-9.34 0.315-14 0.0399-1.75 0.0782-3.51 0.115-5.26 0.0504-2.41 0.107-4.82 0.164-7.23 0.0203-1.07 0.0203-1.07 0.041-2.16 0.126-4.9 0.126-4.9 1.24-7.12z" fill="#F6F7F9"/>
<path transform="translate(1131,44)" d="m0 0c2-0.0425 4-0.0408 6 0 1.95 1.95 1.23 5.62 1.28 8.28 0.0184 0.729 0.0368 1.46 0.0558 2.21 0.0789 3.13 0.147 6.26 0.215 9.39 0.0516 2.28 0.109 4.56 0.167 6.84 0.0204 1.07 0.0204 1.07 0.0411 2.16-0.201 3.35-0.201 3.35 1.24 6.12 7.61 1.28 15.3 1.33 23 1.56 1.36 0.0433 2.72 0.0869 4.08 0.131 3.31 0.106 6.61 0.208 9.92 0.307-2.87 2.87-5.79 2.35-9.63 2.41-0.752 0.0194-1.5 0.0387-2.28 0.0587-2.4 0.0598-4.81 0.106-7.21 0.152-1.63 0.0382-3.26 0.0772-4.89 0.117-4 0.0978-7.99 0.177-12 0.258 5.94 0.33 11.9 0.66 18 1v1c-0.855 0.0376-0.855 0.0376-1.73 0.0759-2.57 0.116-5.14 0.239-7.71 0.362-0.898 0.0393-1.8 0.0786-2.72 0.119-0.854 0.0419-1.71 0.0838-2.59 0.127-0.791 0.0367-1.58 0.0733-2.4 0.111-1.87 0.011-1.87 0.011-2.86 1.21-0.16 2.81-0.26 5.6-0.316 8.41-0.0208 0.842-0.0416 1.68-0.063 2.55-0.0656 2.7-0.124 5.4-0.183 8.1-0.0432 1.83-0.0868 3.65-0.131 5.48-0.107 4.49-0.209 8.97-0.307 13.5-2.38 0.625-2.38 0.625-5 1-2.5-2.5-2.24-3.98-2.25-7.39 0.00719-0.75 0.0144-1.5 0.0218-2.27-2.92e-4 -0.79-5.84e-4 -1.58-8.85e-4 -2.39 0.0014-2.62 0.017-5.24 0.0326-7.86 0.00373-1.81 0.00658-3.63 0.00858-5.44 0.00764-4.78 0.0273-9.55 0.0494-14.3 0.0204-4.87 0.0296-9.75 0.0397-14.6 0.0215-9.57 0.0556-19.1 0.0977-28.7z" fill="#F5F6F8"/>
<path transform="translate(806,53)" d="m0 0c3 1 3 1 4.03 2.56 0.3 0.662 0.601 1.32 0.91 2.01 0.338 0.732 0.675 1.46 1.02 2.22 0.343 0.771 0.686 1.54 1.04 2.34 0.343 0.748 0.686 1.5 1.04 2.27 2.06 4.51 4.02 9.05 5.96 13.6 0.313 0.684 0.626 1.37 0.949 2.07 1.51 3.31 2.05 5.21 2.05 8.93h-32c-1.09-4.37-0.986-4.77 0.875-8.56 0.458-0.949 0.915-1.9 1.39-2.88 0.574-1.18 1.15-2.35 1.74-3.56 0.759-1.62 1.52-3.25 2.27-4.88 0.806-1.73 1.61-3.46 2.42-5.19 0.392-0.846 0.785-1.69 1.19-2.56 0.375-0.795 0.749-1.59 1.14-2.41 0.335-0.716 0.67-1.43 1.01-2.17 0.974-1.8 0.974-1.8 2.97-3.8z"/>
<path transform="translate(941,45)" d="m0 0h70c1 4 1 4 0 6h-31v40l-2 1c-0.469 2.82-0.469 2.82-0.625 6.06-0.0748 1.1-0.15 2.21-0.227 3.35-0.049 0.855-0.098 1.71-0.148 2.59h-1c-1.29-4.92-1.11-9.77-1.06-14.8 0.00451-0.884 0.00902-1.77 0.0137-2.68 0.0117-2.17 0.0297-4.34 0.0488-6.51l-2-1c0.00524-0.782 0.0105-1.56 0.0159-2.37 0.0207-3.52 0.0338-7.04 0.0466-10.6 0.0126-1.85 0.0126-1.85 0.0254-3.73 0.00322-1.17 0.00645-2.34 0.00977-3.54 0.00524-1.08 0.0105-2.17 0.0159-3.28 0.171-2.44 0.171-2.44-1.11-3.5-2.12-0.134-4.25-0.204-6.37-0.246-1.3-0.0329-2.59-0.0657-3.93-0.0996-2.07-0.0475-4.14-0.0919-6.22-0.131-1.99-0.0397-3.99-0.0918-5.98-0.144-1.2-0.0251-2.4-0.0501-3.63-0.0759-2.87-0.303-2.87-0.303-4.87-2.3v-4z" fill="#EEEFF0"/>
<path transform="translate(617,228)" d="m0 0c1.89 0.305 1.89 0.305 4 1 1.54 2.65 2.76 5.21 4 8 0.857 1.82 1.71 3.65 2.57 5.47 1.49 3.17 2.96 6.35 4.43 9.53 0.442 0.956 0.884 1.91 1.34 2.9 0.543 1.19 0.543 1.19 1.1 2.41 0.308 0.677 0.616 1.35 0.934 2.05 0.629 1.64 0.629 1.64 0.629 3.64h-33c-1.41-4.23 0.411-6.84 2.19-10.7 0.326-0.723 0.652-1.45 0.988-2.19 2.16-4.77 4.42-9.47 6.82-14.1 0.752-1.5 1.5-3 2.25-4.5 0.866-1.73 0.866-1.73 1.75-3.5z"/>
<path transform="translate(843,137)" d="m0 0c2.31 0.33 4.62 0.66 7 1 1.21 6.59 1.37 13.1 1.56 19.8 0.0318 1.03 0.0318 1.03 0.0642 2.08 0.661 22 0.461 44.1 0.373 66.1-0.33-0.99-0.66-1.98-1-3-3.47 0.495-3.47 0.495-7 1v-4c-0.66-0.33-1.32-0.66-2-1 0.99-0.495 0.99-0.495 2-1 0.207-30.5 0.207-30.5-0.438-61-0.0392-1.07-0.0785-2.14-0.119-3.24-0.213-5.24-0.213-5.24-0.991-10.4-0.483-2.5-0.249-3.96 0.547-6.34z" fill="#EBECEE"/>
<path transform="translate(24,280)" d="m0 0c5.45 0.486 8.9 2.48 13.4 5.38 7.82 5.03 14.8 7.88 24.1 8.81 0.727 0.0819 1.45 0.164 2.2 0.248 1.76 0.197 3.53 0.382 5.3 0.564v1h14v3c-11.2 1.58-23 2.26-34-1-0.891-0.206-1.78-0.413-2.7-0.625-5.61-1.35-9.92-3.01-14.5-6.48-1.76-1.11-1.76-1.11-3.98-0.531-0.88 0.317-0.88 0.317-1.78 0.641 0.115 2.52 0.242 5.04 0.375 7.56 0.0309 0.704 0.0619 1.41 0.0938 2.13 0.26 4.71 1.21 8.75 2.53 13.3 1.1 6.5 1.13 13 1.06 19.6-0.00451 0.913-0.00902 1.83-0.0137 2.77-0.0116 2.22-0.028 4.45-0.0488 6.67-1.98 0.495-1.98 0.495-4 1-0.0561-1.8-0.0561-1.8-0.113-3.64-0.351-9.41-1.04-18.7-2.39-28-0.131-0.906-0.261-1.81-0.396-2.74-0.588-4.45-0.588-4.45-2.1-8.63-0.151-2.81-0.231-5.57-0.25-8.38-0.0206-0.768-0.0413-1.54-0.0625-2.33-0.0395-5.71-0.0395-5.71 1.83-8.84 0.49-0.482 0.98-0.964 1.48-1.46z" fill="#DFE0E1"/>
<path transform="translate(591,45)" d="m0 0c16.1-0.0401 16.1-0.0401 23-0.0488 4.69-0.00598 9.38-0.0131 14.1-0.0266 3.78-0.0108 7.56-0.0168 11.3-0.0194 1.44-0.00185 2.89-0.00547 4.33-0.0109 2.02-0.00723 4.04-0.00768 6.06-0.0078 1.73-0.00333 1.73-0.00333 3.49-0.00673 2.71 0.12 2.71 0.12 4.71 1.12v5c-19.5 0.33-38.9 0.66-59 1-1.4 4.19-1.01 8.28-0.873 12.6 0.0298 1.79-0.0421 3.58-0.127 5.36-0.66 0.66-1.32 1.32-2 2v-19h-2c0.0116 1.13 0.0232 2.27 0.0352 3.44 0.00939 1.52 0.0185 3.04 0.0273 4.56 0.00838 0.744 0.0168 1.49 0.0254 2.25 0.0218 5.01-0.212 9.81-1.09 14.7-0.99 0.495-0.99 0.495-2 1v-34z" fill="#F6F7F9"/>
<path transform="translate(218 218)" d="m0 0c0.651-0.00336 1.3-0.00672 1.97-0.0102 2.15-0.00951 4.31-0.0115 6.46-0.0125 1.49-0.00321 2.99-0.00658 4.48-0.0101 3.13-0.00599 6.27-0.00784 9.4-0.00725 4.02 1.02e-4 8.04-0.0136 12.1-0.0308 3.09-0.0111 6.17-0.0131 9.26-0.0126 1.48-0.00118 2.97-0.00562 4.45-0.0133 2.07-0.00976 4.14-0.00694 6.21-8.95e-4 1.18-0.00143 2.36-0.00285 3.58-0.00432 2.77 0.247 2.77 0.247 4.77 2.25-0.25 2.06-0.25 2.06-1 4-2.77 1.39-5.05 1.15-8.15 1.18-1.29 0.0128-2.58 0.0257-3.91 0.0389-1.42 0.00817-2.83 0.0156-4.25 0.0224-1.07 0.00611-1.07 0.00611-2.16 0.0124-3.76 0.0209-7.53 0.0352-11.3 0.0445-3.89 0.0111-7.78 0.0455-11.7 0.0852-2.99 0.0261-5.98 0.0345-8.97 0.0381-1.43 0.00488-2.87 0.0165-4.3 0.035-2.01 0.0243-4.01 0.021-6.02 0.0165-1.14 0.00587-2.28 0.0117-3.46 0.0178-2.81-0.488-2.81-0.488-4.71-2.39-1.11-2.1-1.11-2.1-1.11-4.1 2.82-1.41 5.19-1.14 8.35-1.15z" fill="#F3F4F6"/>
<path transform="translate(1572 223)" d="m0 0c0.86 0.655 1.72 1.31 2.61 1.98v2h2c0.99 2.31 1.98 4.62 3 7-4 0-5.53-1.57-8.81-3.81-11.7-7.55-24.1-8.25-37.7-5.72-7.85 2.14-15 7.68-20.5 13.5-0.99-0.33-1.98-0.66-3-1-0.33 0.99-0.66 1.98-1 3-0.812-2.12-0.812-2.12-1-5 5.97-9.04 16-15 26.4-17.4 12.9-2.09 26.5-1.37 38 5.44z" fill="#ECEDEF"/>
<path transform="translate(1165,336)" d="m0 0h4v6h7v2h-200c0.33-1.32 0.66-2.64 1-4v2c0.921-9.22e-4 1.84-0.00184 2.79-0.00279 22.4-0.0221 44.8-0.0386 67.3-0.049 10.8-0.00516 21.7-0.0122 32.5-0.0236 9.45-0.00997 18.9-0.0164 28.3-0.0186 5-0.0013 10-0.00437 15-0.0116 4.71-0.00679 9.42-0.00888 14.1-0.00738 1.73-2.75e-4 3.45-0.00226 5.18-0.0061 2.36-0.00499 4.72-0.00377 7.09-0.00105 1.02-0.00437 1.02-0.00437 2.06-0.00883 4.31 0.0134 8.37 0.437 12.6 1.13-0.0309-1.45-0.0309-1.45-0.0625-2.94 0.0625-3.06 0.0625-3.06 1.06-4.06z" fill="#020202"/>
<path transform="translate(1318,223)" d="m0 0c1.71 1.62 3.37 3.29 5 5v2c0.99 0.33 1.98 0.66 3 1 0.667 1.67 1.33 3.33 2 5 0.99 0.33 1.98 0.66 3 1 1.59 1.93 3.06 3.84 4.5 5.88 2.33 3.24 4.63 6.33 7.5 9.12 0.814 1.11 1.61 2.23 2.38 3.38 1.55 2.22 3.01 4.01 4.94 5.94 2.47 2.47 4.79 4.98 7.06 7.62 0.709 0.813 1.42 1.63 2.15 2.46 1.89 3.33 1.34 4.96 0.477 8.6 0.33 0.66 0.66 1.32 1 2-4.03-1.34-4.75-3.49-7-7-0.979-1.02-1.98-2.02-3-3-2.4-2.82-4.74-5.68-7.08-8.55-4.13-5.07-8.29-10.1-12.7-14.9-1.21-1.56-1.21-1.56-1.21-3.56h-2c-0.402-0.897-0.402-0.897-0.812-1.81-1.2-2.21-2.38-3.45-4.19-5.19-1.33-1.67-2.67-3.33-4-5-1.68-1.81-2.79-2.89-5-4 0.33-0.66 0.66-1.32 1-2h3v-4z" fill="#F4F5F7"/>
<path transform="translate(838,288)" d="m0 0c0.66 0.66 1.32 1.32 2 2-0.33 0.66-0.66 1.32-1 2h2c0.33-0.99 0.66-1.98 1-3 2.57 2.57 2.72 4.66 3.44 8.12 0.467 2.1 0.467 2.1 2.56 3.88 0.625 2.12 0.625 2.12 1 4 0.33-0.99 0.66-1.98 1-3h2v42h-7c-0.0251-1.29-0.0501-2.57-0.0759-3.9-0.0941-4.77-0.194-9.54-0.296-14.3-0.0433-2.07-0.085-4.13-0.125-6.2-0.0577-2.97-0.121-5.93-0.186-8.9-0.0167-0.925-0.0334-1.85-0.0506-2.8-0.0199-0.861-0.0399-1.72-0.0604-2.61-0.0155-0.757-0.0311-1.51-0.0471-2.29-0.0945-2.2-0.0945-2.2-1.16-4.99-0.639-0.268-1.28-0.536-1.94-0.812-2.06-1.19-2.06-1.19-3.38-4.19-0.688-3-0.688-3 0.312-5z" fill="#EFF0F2"/>
<path transform="translate(786,80)" d="m0 0h2v5c0.66 0.33 1.32 0.66 2 1 0.381 2.33 0.713 4.66 1 7 0.33 0.66 0.66 1.32 1 2-2.64 0.33-5.28 0.66-8 1-0.125 0.571-0.251 1.14-0.38 1.73-0.641 2.35-1.5 4.37-2.55 6.57-0.385 0.813-0.77 1.63-1.17 2.46-0.604 1.26-0.604 1.26-1.22 2.55-0.391 0.83-0.782 1.66-1.19 2.51-2.31 4.85-4.77 9.54-7.5 14.2h-5c0.483-5.34 1.91-9.29 4.56-13.9 3.54-6.35 6.71-12.8 9.73-19.4 1.71-3.72 3.53-7.24 5.7-10.7 0.33-0.66 0.66-1.32 1-2z" fill="#F5F6F8"/>
<path transform="translate(1311,229)" d="m0 0h1c0.0236 9.55 0.0412 19.1 0.0518 28.6 0.00512 4.44 0.012 8.88 0.0236 13.3 0.0479 18.9-0.0179 37.7-0.517 56.6-0.0195 0.787-0.0391 1.57-0.0592 2.38-0.056 2.19-0.119 4.38-0.185 6.58-0.0544 1.86-0.0544 1.86-0.11 3.76-0.204 2.76-0.204 2.76-1.2 3.76-1.67 0.0406-3.33 0.0427-5 0 0.119-5.69 0.243-11.4 0.372-17.1 0.0431-1.93 0.0848-3.87 0.125-5.8 0.0582-2.79 0.122-5.58 0.186-8.37 0.0167-0.856 0.0334-1.71 0.0506-2.59 0.124-5.12 0.547-10.1 1.27-15.2 0.66 1.32 1.32 2.64 2 4 0.66-23.1 1.32-46.2 2-70z" fill="#E0E1E3"/>
<path transform="translate(65 217)" d="m0 0c0.819 8.86e-4 1.64 0.00177 2.48 0.00269 10.2 0.194 20.6 2.21 29.5 7.37 2 3 2 3 2 7-5.35-0.433-9.57-2.53-14.3-4.84-4.32-1.86-8.35-2.28-13-2.29-0.999-0.00129-2-0.00258-3.03-0.00391-1.03 0.00387-2.07 0.00773-3.13 0.0117-1.03-0.00387-2.07-0.00773-3.13-0.0117-0.999 0.00129-2 0.00258-3.03 0.00391-1.36 0.00169-1.36 0.00169-2.74 0.00342-2.62 0.131-5.04 0.549-7.6 1.13v-3c-0.33-0.99-0.66-1.98-1-3 5.78-1.64 11-2.39 17-2.38z" fill="#E0E1E2"/>
<path transform="translate(961,334)" d="m0 0c2 1.19 2 1.19 4 3 0.188 2.62 0.188 2.62 0 5 0.495 0.495 0.495 0.495 1 1v-7l2 1c-0.33 1.98-0.66 3.96-1 6 1.32 0.33 2.64 0.66 4 1h-119c0.33-1.32 0.66-2.64 1-4v2c1.17-0.00222 2.34-0.00444 3.55-0.00673 11.1-0.0203 22.1-0.0353 33.2-0.0451 5.69-0.00521 11.4-0.0123 17.1-0.0236 5.49-0.0109 11-0.0168 16.5-0.0194 2.09-0.00184 4.18-0.00544 6.28-0.0109 2.94-0.00729 5.87-0.00826 8.81-0.0078 1.29-0.00539 1.29-0.00539 2.6-0.0109 5.1 0.00865 9.98 0.393 15 1.12 0.0825-1.11 0.165-2.23 0.25-3.38 0.75-3.62 0.75-3.62 2.81-5.06 0.959-0.278 0.959-0.278 1.94-0.562z" fill="#020202"/>
<path transform="translate(96,260)" d="m0 0c4.78 2.56 6.46 7.05 8 12 0.894 5.37 0.415 9.66-2.68 14.3-5.31 6.84-9.74 9.88-18.3 11.7v-2c-1.61 0.248-1.61 0.248-3.25 0.5-5.57 0.712-11.1 0.584-16.8 0.5v-1c0.99-0.193 1.98-0.387 3-0.586 16.7-2.34 16.7-2.34 30.1-11.5 2.35-4.86 1.32-10.8-0.0938-15.9h-2c-0.33-1.32-0.66-2.64-1-4 0.99-0.33 1.98-0.66 3-1v2h2c-0.66-1.65-1.32-3.3-2-5z" fill="#EAEBED"/>
<path transform="translate(1300,336)" d="m0 0c-0.33 1.98-0.66 3.96-1 6 2.97 0.495 2.97 0.495 6 1v1h-123c0.33-0.99 0.66-1.98 1-3 36 0.33 71.9 0.66 109 1 0.33-1.98 0.66-3.96 1-6 2.67-1.33 4.17-0.671 7 0z" fill="#020202"/>
<path transform="translate(974,146)" d="m0 0h1c1.3 6.93 1.15 13.8 1.12 20.9-8.86e-4 0.663-0.00177 1.33-0.00269 2.01-0.0249 16-0.542 32.1-1.12 48.1-2.15-3.23-2.2-4.28-2-8-0.33 2.31-0.66 4.62-1 7h-1v-65c0.99 1.49 0.99 1.49 2 3 0.33-2.64 0.66-5.28 1-8z" fill="#DFE0E1"/>
<path transform="translate(248,290)" d="m0 0c2.16 4.18 3.13 7.57 3.32 12.3 0.042 1.06 0.084 2.12 0.127 3.22 0.0392 1.14 0.0785 2.27 0.119 3.44 0.0425 1.16 0.0849 2.31 0.129 3.5 0.349 10.2 0.412 20.4 0.309 30.6-1.98 0.495-1.98 0.495-4 1-2.13-17.7-3.19-35.2-3-53 0.99 1.49 0.99 1.49 2 3 0.33-1.32 0.66-2.64 1-4z" fill="#DFE0E1"/>
<path transform="translate(843,137)" d="m0 0c1.65 0.33 3.3 0.66 5 1 0.0463 9.84 0.0819 19.7 0.104 29.5 0.0104 4.57 0.0246 9.14 0.0473 13.7 0.0217 4.41 0.0337 8.82 0.0389 13.2 0.0037 1.68 0.0109 3.37 0.0217 5.05 0.0145 2.36 0.0165 4.71 0.0156 7.07 0.00719 0.696 0.0144 1.39 0.0218 2.11-0.0154 3.61-0.275 6.25-2.25 9.32-0.717-4.58-1.16-9.05-1.28-13.7-0.0551-1.93-0.0551-1.93-0.111-3.89-0.0175-0.676-0.035-1.35-0.053-2.05-0.0553-2.14-0.116-4.27-0.177-6.41-0.152-5.3-0.296-10.6-0.439-15.9-0.122-4.49-0.247-8.98-0.377-13.5-0.0593-2.1-0.114-4.2-0.168-6.3-0.0367-1.28-0.0735-2.56-0.111-3.87-0.0303-1.12-0.0606-2.25-0.0918-3.4-0.174-2.77-0.639-5.31-1.19-8.02 0.438-2.31 0.438-2.31 1-4z" fill="#F5F6F8"/>
<path transform="translate(838,103)" d="m0 0c2.54 1.27 2.65 2.14 3.66 4.75 0.3 0.773 0.601 1.55 0.91 2.34 0.308 0.814 0.616 1.63 0.934 2.47 0.308 0.787 0.616 1.57 0.934 2.38 2.74 7.13 4.95 14.4 5.57 22.1-0.66 0.66-1.32 1.32-2 2-2.81-0.25-2.81-0.25-6-2-1.11-2.96-1.72-5.87-2.34-8.96-0.561-2.58-1.21-4.47-2.41-6.79-1.65-4.29-0.989-6.74-0.25-11.2-0.335-2.37-0.335-2.37-1-4h2v-3z" fill="#EBECEE"/>
<path transform="translate(1535,300)" d="m0 0h7c-0.33 0.99-0.66 1.98-1 3-0.142 2.92-0.233 5.83-0.281 8.75-0.0184 0.857-0.0368 1.71-0.0558 2.6-0.0787 3.67-0.147 7.33-0.215 11-0.0517 2.68-0.109 5.35-0.167 8.03-0.0136 0.833-0.0272 1.67-0.0411 2.53-0.127 5.87-0.127 5.87-1.24 8.1h-4v-44z" fill="#E2E3E4"/>
<path transform="translate(972,51)" d="m0 0h3c0.33 0.66 0.66 1.32 1 2 0.66-0.33 1.32-0.66 2-1 2.91 12.8 2.19 25.9 2 39-0.99 0.495-0.99 0.495-2 1-0.469 2.82-0.469 2.82-0.625 6.06-0.0748 1.1-0.15 2.21-0.227 3.35-0.049 0.855-0.098 1.71-0.148 2.59h-1c-1.29-4.92-1.11-9.77-1.06-14.8 0.00451-0.884 0.00902-1.77 0.0137-2.68 0.0117-2.17 0.0297-4.34 0.0488-6.51-0.66-0.33-1.32-0.66-2-1 0.00524-0.777 0.0105-1.55 0.0159-2.35 0.0207-3.51 0.0338-7.01 0.0466-10.5 0.00838-1.22 0.0168-2.45 0.0254-3.71 0.00322-1.17 0.00645-2.33 0.00977-3.54 0.00524-1.08 0.0105-2.16 0.0159-3.27 0.0653-2.6 0.0653-2.6-1.11-4.61z" fill="#E0E1E2"/>
<path transform="translate(979,45)" d="m0 0h32c1 4 1 4 0 6h-31v14h-1c-0.0606-0.699-0.121-1.4-0.184-2.12-0.0838-0.91-0.168-1.82-0.254-2.76-0.0812-0.905-0.162-1.81-0.246-2.74-0.186-2.39-0.186-2.39-1.32-4.38-0.33 4.29-0.66 8.58-1 13h-1c0.0116-1.06 0.0232-2.12 0.0352-3.21 0.00938-1.39 0.0185-2.78 0.0273-4.16 0.00838-0.699 0.0168-1.4 0.0254-2.12 0.0957-3.88 0.0957-3.88-1.09-7.51 3.75-1.12 3.75-1.12 6 0-0.33-1.32-0.66-2.64-1-4z" fill="#EAEBED"/>
<path transform="translate(612,45)" d="m0 0c6.23-0.0253 12.5-0.0428 18.7-0.0549 2.12-0.00504 4.24-0.0119 6.36-0.0205 3.04-0.0121 6.09-0.0178 9.13-0.0222 0.952-0.00516 1.9-0.0103 2.89-0.0156 0.881-7.55e-5 1.76-1.51e-4 2.67-2.29e-4 1.17-0.00333 1.17-0.00333 2.36-0.00673 1.91 0.12 1.91 0.12 3.91 1.12v3h-56v-1c0.638-0.049 1.28-0.098 1.93-0.148 0.826-0.0748 1.65-0.15 2.5-0.227 0.824-0.0696 1.65-0.139 2.5-0.211 0.682-0.137 1.36-0.273 2.07-0.414 0.33-0.66 0.66-1.32 1-2z" fill="#EDEEF0"/>
<path transform="translate(1378,219)" d="m0 0c0.66 0.33 1.32 0.66 2 1 0.253 26.3-0.442 52.7-1 79-4.84-0.707-6.73-2.36-10-6h3c-0.66-0.33-1.32-0.66-2-1 0.495-0.99 0.495-0.99 1-2 0.99 0.33 1.98 0.66 3 1v-29h1c0.33 9.24 0.66 18.5 1 28 1.87-1.87 1.17-5.04 1.21-7.54 0.0148-1.02 0.0148-1.02 0.03-2.07 0.0317-2.27 0.0564-4.53 0.0811-6.8 0.0206-1.57 0.0416-3.14 0.063-4.7 0.0553-4.13 0.105-8.27 0.153-12.4 0.0502-4.22 0.106-8.43 0.161-12.6 0.108-8.28 0.209-16.6 0.307-24.8z" fill="#F7F8FA"/>
<path transform="translate(1196,45)" d="m0 0c1.67-0.0427 3.33-0.0406 5 0 1 1 1 1 1.1 4.16-0.0116 1.29-0.0232 2.58-0.0352 3.9-0.00902 1.29-0.018 2.58-0.0273 3.91-0.0116 0.999-0.0232 2-0.0352 3.03h-2c0.0838 0.606 0.168 1.21 0.254 1.84 0.738 6.07 1.14 12.2-0.254 18.2-0.99 0.495-0.99 0.495-2 1-4.15-7.4-3.09-16.8-3.12-25.1-0.00467-0.846-0.00935-1.69-0.0142-2.56 0.0161-6.13 0.0161-6.13 1.14-8.37z" fill="#EBECEE"/>
<path transform="translate(1507,237)" d="m0 0c0.66 0.33 1.32 0.66 2 1 2.1-0.399 2.1-0.399 4-1 0 3.72-1.28 5.67-3.03 8.87-2.09 4.59-2.11 9.08-2.1 14.1-0.00387 1.78-0.00387 1.78-0.00781 3.59 0.124 3.25 0.52 6.28 1.13 9.47h-2c-2.15-7.8-2.16-14.9-2-23-0.33 6.6-0.66 13.2-1 20-0.33-0.66-0.66-1.32-1-2h-2c-0.551-11-0.647-20.1 5-30 0.33-0.33 0.66-0.66 1-1z" fill="#F5F6F8"/>
<path transform="translate(974,300)" d="m0 0h1v44h-4c-1.18-11.3-1.1-22.6-1-34l2-1c0.428-1.86 0.428-1.86 0.562-4 0.342-3.9 0.342-3.9 1.44-5z" fill="#E9EAEC"/>
<path transform="translate(657,133)" d="m0 0h2c0.33 0.66 0.66 1.32 1 2h3c1.13 3.38 1.31 6.29 1.54 9.86 0.043 0.662 0.086 1.32 0.13 2 0.136 2.11 0.267 4.22 0.397 6.33 0.0914 1.43 0.183 2.86 0.275 4.29 0.225 3.51 0.445 7.01 0.662 10.5-0.99 0.495-0.99 0.495-2 1-0.33-3.63-0.66-7.26-1-11v33h-1c-0.0501-0.921-0.1-1.84-0.152-2.79-0.193-3.49-0.391-6.99-0.593-10.5-0.0854-1.5-0.169-3-0.25-4.49-0.718-15.2-0.718-15.2-3.01-30.2-0.66-0.33-1.32-0.66-2-1-0.625-2.56-0.625-2.56-1-5h2v-4z" fill="#EBECEE"/>
<path transform="translate(241,225)" d="m0 0h7c2.51 2.51 2.26 4.09 2.27 7.52-0.00773 0.715-0.0155 1.43-0.0234 2.17 0.00773 0.695 0.0155 1.39 0.0234 2.11-0.0237 6.35-1.42 11.5-4.27 17.2v-9c-1.32-0.66-2.64-1.32-4-2-0.33-5.94-0.66-11.9-1-18z" fill="#DFE0E1"/>
<path transform="translate(849,138)" d="m0 0h1c1.24 6.73 1.37 13.4 1.56 20.2 0.0212 0.699 0.0424 1.4 0.0642 2.12 0.581 19.5 0.466 39.1 0.373 58.6-2.09-3.45-2.3-6.25-2.41-10.2-0.0598-1.9-0.0598-1.9-0.121-3.83-0.034-1.38-0.0678-2.76-0.101-4.14-0.0412-1.43-0.0832-2.85-0.126-4.28-0.11-3.76-0.209-7.51-0.306-11.3-0.0801-3.04-0.168-6.08-0.257-9.11-0.107-3.66-0.21-7.31-0.311-11-0.0287-1.03-0.0287-1.03-0.0579-2.07-0.178-6.49-0.335-13-0.395-19.5-0.00829-0.873-0.0166-1.75-0.0251-2.64 0.111-1.97 0.111-1.97 1.11-2.97z" fill="#F7F8FA"/>
<path transform="translate(629,81)" d="m0 0c2 2 2 2 2 7h-16v-1c-4.62-0.66-9.24-1.32-14-2 0.99-0.66 1.98-1.32 3-2-0.66-0.66-1.32-1.32-2-2 19.7-1.61 19.7-1.61 27 0z" fill="#DFE0E1"/>
<path transform="translate(789,86)" d="m0 0 2 1v2h32c0.495 1.98 0.495 1.98 1 4-4.17 0.198-8.33 0.382-12.5 0.562-1.17 0.0561-2.35 0.112-3.55 0.17-6.13 0.258-11.9 0.28-17.9-0.732-0.33-2.31-0.66-4.62-1-7z" fill="#E8E9EB"/>
<path transform="translate(594,89)" d="m0 0h1c0.712 5.07 1.11 9.88 1 15h2c0.0606 0.759 0.121 1.52 0.184 2.3 0.0838 0.994 0.168 1.99 0.254 3.01 0.0812 0.986 0.162 1.97 0.246 2.99 0.235 2.79 0.235 2.79 1.32 5.7 2.02 0.733 2.02 0.733 4 1-0.99 0.33-1.98 0.66-3 1-0.33 0.66-0.66 1.32-1 2 0.66 0.33 1.32 0.66 2 1h-2c0.33 1.32 0.66 2.64 1 4-2.38 0.125-2.38 0.125-5 0-2-2-2-2-2.23-5.53 3.17e-4 -1.51 0.0116-3.03 0.0317-4.54 0.00283-0.796 0.00566-1.59 0.00858-2.41 0.0112-2.55 0.0363-5.09 0.0617-7.64 0.01-1.73 0.0192-3.45 0.0273-5.18 0.0221-4.23 0.0566-8.47 0.0977-12.7z" fill="#EFF0F2"/>
<path transform="translate(1581,271)" d="m0 0h1c-0.623 12.1-0.623 12.1-4 17-0.99 0.33-1.98 0.66-3 1-0.312 0.636-0.624 1.27-0.945 1.93-1.3 2.55-2.37 3.08-4.93 4.26-1.02 0.485-1.02 0.485-2.05 0.98-2.01 0.807-3.96 1.36-6.07 1.83-0.33-0.66-0.66-1.32-1-2 0.99-0.66 1.98-1.32 3-2-0.33-0.66-0.66-1.32-1-2 0.687-0.352 1.37-0.704 2.08-1.07 6.13-3.17 6.13-3.17 9.98-8.62 0.309-1.09 0.619-2.19 0.938-3.31 0.33-0.99 0.66-1.98 1-3h2c0.33 0.66 0.66 1.32 1 2 0.66-2.31 1.32-4.62 2-7z" fill="#E3E4E5"/>
<path transform="translate(816,65)" d="m0 0c1.49 0.99 1.49 0.99 3 2 0.33-0.66 0.66-1.32 1-2 0.531 1.09 1.06 2.17 1.61 3.29 0.713 1.45 1.43 2.89 2.14 4.34 0.348 0.713 0.696 1.43 1.05 2.16 2.13 4.3 4.44 8.28 7.2 12.2-0.33 0.66-0.66 1.32-1 2-0.99-0.66-1.98-1.32-3-2h-3c-0.33-0.66-0.66-1.32-1-2h-2c-3.17-5.9-5.82-11.4-7-18 0.33-0.66 0.66-1.32 1-2z" fill="#F5F6F8"/>
<path transform="translate(1177,300)" d="m0 0c0.66 0.33 1.32 0.66 2 1 0.33 14.2 0.66 28.4 1 43h-4c-1.34-11.3-1.1-22.6-1-34h1c0.33-3.3 0.66-6.6 1-10z" fill="#E9EAEB"/>
<path transform="translate(846,305)" d="m0 0c2.23 3.62 2.39 6.86 2.62 11.1 0.0379 0.684 0.0759 1.37 0.115 2.07 0.426 8.62 0.344 17.2 0.26 25.9h-4c-0.0247-5.23-0.0429-10.5-0.0549-15.7-0.00504-1.78-0.0119-3.56-0.0205-5.34-0.0121-2.56-0.0178-5.11-0.0222-7.67-0.00516-0.799-0.0103-1.6-0.0156-2.42-5.75e-4 -5.64-5.75e-4 -5.64 1.11-7.87z" fill="#F7F8FA"/>
<path transform="translate(1563,222)" d="m0 0v-2c4.98 0.474 8.07 1.91 12 5v2h2c0.99 2.31 1.98 4.62 3 7-3.81 0-5.32-1.25-8.5-3.31-0.959-0.615-1.92-1.23-2.91-1.86-2.59-1.82-2.59-1.82-3.94-3.43-4.91-4.13-13-3.78-19.2-4.02-0.822-0.0387-1.64-0.0773-2.49-0.117-2-0.0931-4.01-0.177-6.01-0.258v-1c8.7-1.78 17.6-0.857 26 2z" fill="#DFE0E1"/>
<path transform="translate(1140,83)" d="m0 0h55v2h-25v2h-11v-2h-18c-0.33-0.66-0.66-1.32-1-2z" fill="#EAEBED"/>
<path transform="translate(972,114)" d="m0 0c2.68 2.68 2.39 4.39 2.62 8.12 0.0748 1.1 0.15 2.19 0.227 3.32 0.049 0.843 0.098 1.69 0.148 2.55h1v25c-1.32 0.66-2.64 1.32-4 2-0.98-4.8-1.06-9.37-0.879-14.2 0.0236-0.768 0.0472-1.54 0.0715-2.33 0.0761-2.44 0.16-4.87 0.245-7.3 0.0533-1.66 0.106-3.32 0.158-4.98 0.129-4.05 0.264-8.1 0.404-12.1z" fill="#EAEBED"/>
<path transform="translate(973 45)" d="m0 0c1.81 0.0707 1.81 0.0707 3.67 0.143 1.96 0.0725 1.96 0.0725 3.96 0.146 1.39 0.0565 2.78 0.113 4.17 0.17 1.39 0.0532 2.79 0.106 4.18 0.158 3.42 0.13 6.84 0.265 10.3 0.404v1h-19v2h-3c0.66 0.66 1.32 1.32 2 2h-36v-2h30v-2c-1.32-0.33-2.64-0.66-4-1 1-1 1-1 3.78-1.02z" fill="#F7F8FA"/>
<path transform="translate(96,260)" d="m0 0c4.77 2.55 6.49 7.05 8 12 0.619 4.8 0.725 7.91-2 12-0.33-1.65-0.66-3.3-1-5-0.66 1.32-1.32 2.64-2 4-0.049-0.782-0.098-1.56-0.148-2.37-0.0748-1.01-0.15-2.02-0.227-3.07-0.104-1.51-0.104-1.51-0.211-3.06-0.137-0.826-0.273-1.65-0.414-2.5-0.66-0.33-1.32-0.66-2-1v-3h-2c-0.33-1.32-0.66-2.64-1-4 0.99-0.33 1.98-0.66 3-1v2h2c-0.66-1.65-1.32-3.3-2-5z" fill="#F0F1F3"/>
<path transform="translate(1359,275)" d="m0 0c3.8 1.49 5.72 3.66 8 7v3c2.31 0.66 4.62 1.32 7 2v4l-4 1c0.99 0.33 1.98 0.66 3 1-0.66 0.33-1.32 0.66-2 1-5.2-1.87-8.24-6.42-11-11-0.799-2.82-0.946-5.04-1-8z" fill="#EDEEF0"/>
<path transform="translate(810,48)" d="m0 0c2.93 2.55 4.41 5.42 6.12 8.88 0.518 1.03 1.04 2.06 1.57 3.12 1.18 2.72 1.86 5.09 2.3 8.01-0.66 0.33-1.32 0.66-2 1-0.66-0.66-1.32-1.32-2-2h-2c-0.398-0.927-0.797-1.85-1.21-2.81-0.53-1.2-1.06-2.4-1.61-3.63-0.522-1.19-1.04-2.39-1.58-3.62-1.33-3.23-1.33-3.23-4.61-3.94v-2c0.639-0.124 1.28-0.248 1.94-0.375 1.02-0.309 1.02-0.309 2.06-0.625 0.33-0.66 0.66-1.32 1-2z" fill="#E9EAEB"/>
<path transform="translate(1566,294)" d="m0 0c-3 2-3 2-6 2v2c-8.02 2.24-15.8 2.37-24 1-0.66-0.66-1.32-1.32-2-2h16v-3c5.58-1.07 10.4-0.826 16 0z" fill="#E2E3E4"/>
<path transform="translate(410,47)" d="m0 0c2.71-0.28 5.19-0.372 7.89-0.328 0.784 0.00187 1.57 0.00375 2.38 0.00568 1.66 0.00673 3.32 0.0207 4.99 0.0412 2.53 0.031 5.07 0.041 7.6 0.0469 1.62 0.00918 3.23 0.0196 4.85 0.0312 1.13 0.00637 1.13 0.00637 2.29 0.0129 3.78 0.0509 7.32 0.285 11 1.19v1c-0.994 0.0251-1.99 0.0501-3.01 0.0759-3.68 0.0939-7.35 0.194-11 0.296-1.59 0.0434-3.19 0.0851-4.78 0.125-2.29 0.0576-4.57 0.121-6.86 0.186-1.08 0.0251-1.08 0.0251-2.17 0.0506-3.36-0.184-3.36-0.184-6.14 1.27-1.53-0.0894-3.05-0.245-4.56-0.438-1.24-0.153-1.24-0.153-2.5-0.309-0.638-0.0838-1.28-0.168-1.93-0.254 0.66-0.99 1.32-1.98 2-3z" fill="#ECEDEF"/>
<path transform="translate(1374,262)" d="m0 0h1c0.33 9.24 0.66 18.5 1 28 0.99-0.66 1.98-1.32 3-2v11c-5.38-1.08-6.48-2.08-10-6h3c-0.66-0.33-1.32-0.66-2-1 0.33-0.66 0.66-1.32 1-2 0.99 0.33 1.98 0.66 3 1v-29z" fill="#F6F7F9"/>
<path transform="translate(840,125)" d="m0 0c7.06 2.04 7.06 2.04 9 5 0.812 3.56 0.812 3.56 1 7-0.66 0.66-1.32 1.32-2 2-2.88-0.438-2.88-0.438-6-2-1.61-3.88-2-7.83-2-12z" fill="#DCDDDE"/>
<path transform="translate(843,238)" d="m0 0c3.04 3.04 2.51 6.66 2.69 10.8 0.0471 0.799 0.0941 1.6 0.143 2.42 0.223 4.44 0.109 8.45-0.83 12.8-3-2-3-2-4-5-0.122-2.64-0.185-5.24-0.188-7.88-0.0122-0.708-0.0245-1.42-0.0371-2.14-0.0115-4.11 0.39-7.28 2.22-11z" fill="#EBECEE"/>
<path transform="translate(1318,223)" d="m0 0c1.71 1.62 3.37 3.29 5 5v2c0.99 0.33 1.98 0.66 3 1 1.2 1.52 1.2 1.52 2.25 3.38 0.534 0.909 0.534 0.909 1.08 1.84 0.672 1.79 0.672 1.79-0.328 4.79-2.83-2.22-5.46-4.46-8-7-3.31-2.78-3.31-2.78-7-5 0.33-0.66 0.66-1.32 1-2h3v-4z" fill="#F2F3F4"/>
<path transform="translate(594,53)" d="m0 0h2c0.0606 1.31 0.121 2.63 0.184 3.98 0.0844 1.74 0.169 3.47 0.254 5.21 0.0393 0.864 0.0786 1.73 0.119 2.62 0.208 4.17 0.574 8.1 1.44 12.2-0.438 2.81-0.438 2.81-1 5-1.32-0.66-2.64-1.32-4-2 0.33-8.91 0.66-17.8 1-27z" fill="#EAEBED"/>
<path transform="translate(1349,262)" d="m0 0c3.72 1.51 5.77 3.68 8.31 6.75 1.08 1.26 1.08 1.26 2.18 2.55 1.9 3.4 1.4 5 0.512 8.7 0.33 0.66 0.66 1.32 1 2-4.03-1.34-4.75-3.49-7-7-0.598-0.516-1.2-1.03-1.81-1.56-0.392-0.474-0.784-0.949-1.19-1.44 0.312-2.69 0.312-2.69 1-5-0.99-0.66-1.98-1.32-3-2v-3z" fill="#F2F3F5"/>
<path transform="translate(977,108)" d="m0 0c0.66 0.33 1.32 0.66 2 1 0.0277 2.08 0.0467 4.17 0.0625 6.25 0.0116 1.16 0.0232 2.32 0.0352 3.52-0.0285 3.28-0.273 6.5-0.566 9.77-0.64 7.23-0.871 14.5-1.09 21.7-0.0433 1.34-0.087 2.68-0.131 4.03-0.105 3.24-0.207 6.48-0.307 9.72h-1c-0.025-5.89-0.043-11.8-0.0549-17.7-0.00499-2-0.0118-3.99-0.0205-5.99-0.0461-10.8-0.0588-21.6 1.08-32.4z" fill="#F5F6F8"/>
<path transform="translate(1198,87)" d="m0 0c1.48 0.99 1.48 0.99 3 2 0.26 2.55 0.326 4.83 0.25 7.38-0.011 0.738-0.0219 1.48-0.0332 2.24-0.175 9.14-0.689 18.3-1.22 27.4h-1c-1.06-13-1.11-26-1-39z" fill="#ECEDEF"/>
<path transform="translate(653,287)" d="m0 0c1.32 1.32 2.64 2.64 4 4 0.99-0.33 1.98-0.66 3-1 1.63 4.79 2.21 8.06 1 13h-2v-2c-0.99-0.33-1.98-0.66-3-1-2.18-1.94-2.95-3.35-3.19-6.27 0-2.25 0.0578-4.49 0.188-6.73z" fill="#EAEBED"/>
<path transform="translate(778,265)" d="m0 0v27c-0.99-0.33-1.98-0.66-3-1v-25c2-1 2-1 3-1z" fill="#DFE0E1"/>
<path transform="translate(1313,229)" d="m0 0c2.31 0.188 2.31 0.188 5 1 1.88 2.38 1.88 2.38 3 5-0.33 0.99-0.66 1.98-1 3h-2c-0.66 2.97-1.32 5.94-2 9h-1c-1.82-6.15-2.24-11.6-2-18z" fill="#020202"/>
<path transform="translate(776,229)" d="m0 0h2v36c-0.99 0.495-0.99 0.495-2 1-1.4-26-1.4-26 0-37z" fill="#EFF0F1"/>
<path transform="translate(793,67)" d="m0 0h3c-0.262 6.4-0.775 12.9-5 18-2.14 0.715-2.14 0.715-4 1-0.315-5.99 0.318-9.64 3-15 0.66 0.66 1.32 1.32 2 2-0.0206-0.804-0.0412-1.61-0.0625-2.44 0.0625-2.56 0.0625-2.56 1.06-3.56z" fill="#EEEFF1"/>
<path transform="translate(783,230)" d="m0 0c4 1 4 1 5.75 2.69 1.58 2.92 1.47 5.05 1.25 8.31-0.99-0.99-1.98-1.98-3-3-0.33 2.97-0.66 5.94-1 9-0.99-0.33-1.98-0.66-3-1v-16z" fill="#010101"/>
<path transform="translate(1546 217)" d="m0 0c1.1-0.0184 1.1-0.0184 2.23-0.0371 5.2-0.0137 9.65 0.79 14.6 2.22v3c-0.883-0.144-1.77-0.289-2.68-0.438-6.83-1.06-13.3-1.76-20.2-1.44-2.11-0.125-2.11-0.125-4.11-2.12 3.19-1.6 6.62-1.18 10.1-1.19z" fill="#EBECEE"/>
<path transform="translate(657 121)" d="m0 0c2.68 0.327 4.33 0.797 6.56 2.31 0.33 0.99 0.66 1.98 1 3-1.78 2.25-2.59 2.95-5.5 3.31-2.5-0.312-2.5-0.312-5.5-2.31v-2c-0.66-0.33-1.32-0.66-2-1 1.76-2.22 2.58-2.95 5.44-3.31z" fill="#080808"/>
<path transform="translate(1197,92)" d="m0 0h1c0.736 11.4 1.14 22.6 1 34-1.32-0.33-2.64-0.66-4-1 0.66-10.9 1.32-21.8 2-33z" fill="#F7F8FA"/>
<path transform="translate(800,59)" d="m0 0c0.66 0.66 1.32 1.32 2 2-1.98 4.29-3.96 8.58-6 13h-2c0.875-4.75 0.875-4.75 2-7-0.99-0.33-1.98-0.66-3-1 0.66-1.65 1.32-3.3 2-5h4c0.33-0.66 0.66-1.32 1-2zm-9 9c0.99 0.495 0.99 0.495 2 1v5c-0.66-0.33-1.32-0.66-2-1v-5z" fill="#F2F3F5"/>
<path transform="translate(66 217)" d="m0 0c0.87 0.00902 1.74 0.018 2.64 0.0273 2.12 0.0233 4.24 0.0592 6.36 0.0977v2c0.66 0.33 1.32 0.66 2 1-1.27-0.0232-2.53-0.0464-3.84-0.0703-1.7-0.0188-3.4-0.037-5.1-0.0547-0.831-0.0168-1.66-0.0335-2.52-0.0508-5.82-0.0453-10.9 0.73-16.5 2.18-0.33-0.99-0.66-1.98-1-3 6.16-1.81 11.6-2.25 18-2.12z" fill="#E6E7E9"/>
<path transform="translate(598,79)" d="m0 0c1.32 0.33 2.64 0.66 4 1v2h15v1c-6.43 0.495-6.43 0.495-13 1 3.47 1.16 6.54 1.33 10.2 1.56 1.91 0.126 1.91 0.126 3.86 0.254 0.976 0.0606 1.95 0.121 2.96 0.184v1c-3.46 0.0868-6.92 0.14-10.4 0.188-1.48 0.0377-1.48 0.0377-2.98 0.0762-1.41 0.0145-1.41 0.0145-2.85 0.0293-0.869 0.0157-1.74 0.0314-2.63 0.0476-0.711-0.112-1.42-0.225-2.15-0.341-2.32-3.48-2-3.98-2-8z" fill="#ECEDEF"/>
<path transform="translate(1198,46)" d="m0 0v21c-0.99-0.33-1.98-0.66-3-1v-19c2-1 2-1 3-1z" fill="#F6F7F9"/>
<path transform="translate(1537,306)" d="m0 0h1c-0.33 12.2-0.66 24.4-1 37h-1c-0.193-4.63-0.371-9.25-0.537-13.9-0.0583-1.57-0.12-3.15-0.187-4.72-0.0944-2.26-0.175-4.53-0.253-6.79-0.0322-0.701-0.0644-1.4-0.0976-2.12-0.113-3.7 0.0123-6.35 2.07-9.48z" fill="#ECEDEF"/>
<path transform="translate(805,44)" d="m0 0c1.32 0.33 2.64 0.66 4 1 0.33 1.65 0.66 3.3 1 5-2.31 0.66-4.62 1.32-7 2-0.66-0.66-1.32-1.32-2-2 1.32-1.98 2.64-3.96 4-6zm-5 7c0.66 0.66 1.32 1.32 2 2-0.66 0.66-1.32 1.32-2 2v-4z" fill="#F5F6F8"/>
<path transform="translate(1581,271)" d="m0 0h1c-0.115 1.73-0.243 3.46-0.375 5.19-0.0696 0.963-0.139 1.93-0.211 2.92-0.416 2.91-1.21 5.22-2.41 7.89-0.33-0.66-0.66-1.32-1-2h-2c-0.33 0.66-0.66 1.32-1 2-1.6-4-0.293-7.05 1-11h2c0.33 0.66 0.66 1.32 1 2 0.66-2.31 1.32-4.62 2-7z" fill="#EBECEE"/>
<path transform="translate(829,98)" d="m0 0c1.32 0.33 2.64 0.66 4 1 0.33 1.65 0.66 3.3 1 5h2c1.76 4.5 2.19 8.18 2 13-0.33-0.99-0.66-1.98-1-3h-2c-0.349-0.987-0.699-1.97-1.06-2.99-0.46-1.29-0.919-2.59-1.38-3.88-0.23-0.651-0.46-1.3-0.697-1.97-1.29-3.64-1.29-3.64-2.87-7.15z" fill="#F6F7F9"/>
<path transform="translate(973 45)" d="m0 0c1.81 0.0707 1.81 0.0707 3.67 0.143 1.96 0.0725 1.96 0.0725 3.96 0.146 1.39 0.0565 2.78 0.113 4.17 0.17 1.39 0.0532 2.79 0.106 4.18 0.158 3.42 0.13 6.84 0.265 10.3 0.404v1h-19v2h-7v-2c-1.32-0.33-2.64-0.66-4-1 1-1 1-1 3.78-1.02z" fill="#F6F7F9"/>
<path transform="translate(598,115)" d="m0 0c0.66 0.33 1.32 0.66 2 1v2c1.32 0.33 2.64 0.66 4 1-0.99 0.33-1.98 0.66-3 1-0.33 0.66-0.66 1.32-1 2 0.66 0.33 1.32 0.66 2 1h-2c0.33 1.32 0.66 2.64 1 4-2.38 0.125-2.38 0.125-5 0-0.66-0.66-1.32-1.32-2-2 0.375-2.62 0.375-2.62 1-5 0.66 0.33 1.32 0.66 2 1 0.33-1.98 0.66-3.96 1-6z" fill="#EBECEE"/>
<path transform="translate(1563,222)" d="m0 0v-2c2.97 0.495 2.97 0.495 6 1v2c-4.45 1.11-7.37 0.663-11.7-0.501-3.88-0.858-7.79-0.969-11.8-1.12-0.822-0.0387-1.64-0.0773-2.49-0.117-2-0.0931-4.01-0.177-6.01-0.258v-1c8.7-1.78 17.6-0.857 26 2z" fill="#E0E1E2"/>
<path transform="translate(656,277)" d="m0 0c3.49 3.49 4.92 7.55 5.19 12.4-0.0619 0.846-0.124 1.69-0.188 2.56-0.33-0.66-0.66-1.32-1-2h-3c-1.91-3.17-2.16-5.11-1.62-8.75 0.111-0.799 0.222-1.6 0.336-2.42 0.0954-0.603 0.191-1.21 0.289-1.83z" fill="#020202"/>
<path transform="translate(249,264)" d="m0 0h1c0.825 5.72 1.13 11.2 1.06 17-0.00451 0.775-0.00902 1.55-0.0137 2.35-0.0116 1.88-0.0296 3.77-0.0488 5.65h-1c-1.99-8.68-2.47-16.2-1-25z" fill="#F7F8FA"/>
<path transform="translate(971,309)" d="m0 0c2.45 3.68 2.23 6.44 2.12 10.7-0.00902 0.702-0.018 1.4-0.0273 2.13-0.0235 1.73-0.0594 3.46-0.0977 5.19-1.48-1.05-1.48-1.05-3-3-0.328-3.32-0.328-3.32-0.25-7.12 0.0155-1.26 0.0309-2.52 0.0469-3.82 0.203-3.05 0.203-3.05 1.2-4.05z" fill="#F1F2F4"/>
<path transform="translate(974,75)" d="m0 0h1c0.876 6.54 1.35 11.8-1 18h-1c-0.0271-2.25-0.0464-4.5-0.0625-6.75-0.0116-1.25-0.0232-2.51-0.0352-3.8 0.0774-2.74 0.27-4.87 1.1-7.45z" fill="#E8E9EB"/>
<path transform="translate(973,135)" d="m0 0c0.33 0.99 0.66 1.98 1 3h2v15h-1c-0.33-1.65-0.66-3.3-1-5h-1v-13z" fill="#EFF0F2"/>
<path transform="translate(972,108)" d="m0 0c0.99 0.33 1.98 0.66 3 1v23h-1c-0.0606-1.13-0.121-2.26-0.184-3.43-0.0844-1.48-0.169-2.96-0.254-4.45-0.059-1.12-0.059-1.12-0.119-2.26-0.159-4.06-0.159-4.06-1.44-7.86-0.04-2-0.0435-4 0-6z" fill="#F7F8FA"/>
<path transform="translate(1369,286)" d="m0 0c1.65 0.33 3.3 0.66 5 1v4c-1.32 0.33-2.64 0.66-4 1 0.99 0.33 1.98 0.66 3 1l-2 1c-2.12-0.938-2.12-0.938-4-2 0.506-2.17 1-4 2-6z" fill="#D9DADC"/>
<path transform="translate(1368,278)" d="m0 0c2.5 2.25 2.5 2.25 5 5v4c-1.98-0.66-3.96-1.32-6-2 0.33-2.31 0.66-4.62 1-7z" fill="#020202"/>
<path transform="translate(806,53)" d="m0 0c0.99 0.33 1.98 0.66 3 1 1.19 2.56 1.19 2.56 2 5-3.01 0.934-3.87 1.04-7 0 0.875-4.88 0.875-4.88 2-6z" fill="#020202"/>
<path transform="translate(1573,275)" d="m0 0v3c-1.88 1.06-1.88 1.06-4 2-0.66-0.33-1.32-0.66-2-1v-4c2.49-1.25 3.41-0.777 6 0z" fill="#020202"/>
<path transform="translate(1544,264)" d="m0 0v11c-0.99-0.33-1.98-0.66-3-1v-9c2-1 2-1 3-1z" fill="#010101"/>
<path transform="translate(595,72)" d="m0 0c0.99 0.33 1.98 0.66 3 1-0.33 2.97-0.66 5.94-1 9-1.32-0.66-2.64-1.32-4-2v-2h2v-6z" fill="#ECEDEF"/>
<path transform="translate(1543 217)" d="m0 0c0.91 0.00902 1.82 0.018 2.76 0.0273 0.699 0.0116 1.4 0.0232 2.12 0.0352-0.33 0.66-0.66 1.32-1 2-2 0.484-2 0.484-4.44 0.75-1.2 0.147-1.2 0.147-2.43 0.297-2.13-0.0469-2.13-0.0469-4.13-2.05 2.52-1.26 4.31-1.1 7.12-1.06z" fill="#EAEBEC"/>
<path transform="translate(245,276)" d="m0 0v10h-2c-1.48-2.96-1.06-5.74-1-9 2-1 2-1 3-1z" fill="#DFE0E1"/>
</svg>
