<?xml version="1.0" encoding="UTF-8"?>
<svg version="1.1" viewBox="0 0 1024 1600" width="1280" height="1280" xmlns="http://www.w3.org/2000/svg">
<path transform="translate(0)" d="m0 0h1024v1600h-1024v-1600z" fill="#000002"/>
<path transform="translate(46,188)" d="m0 0h3v2c1.02 0.309 1.02 0.309 2.06 0.625 3.18 1.49 5.27 3.23 7.87 5.55 2.39 2.11 4.85 4.13 7.32 6.14 1.41 1.15 1.41 1.15 2.86 2.33 0.955 0.779 1.91 1.56 2.89 2.36 1.85 1.52 3.71 3.04 5.56 4.56 8.99 7.52 8.99 7.52 18.4 14.4v2c0.525 0.226 1.05 0.451 1.59 0.684 3.26 1.78 6.08 4.06 8.97 6.38 0.621 0.492 1.24 0.985 1.88 1.49 4.61 3.66 9.17 7.39 13.7 11.1 3.23 2.62 6.5 5.19 9.78 7.75 5.65 4.41 11.2 8.94 16.6 13.6 2.45 2.09 2.45 2.09 5.43 4v2c0.99 0.278 0.99 0.278 2 0.562 3.47 1.66 5.76 3.77 8.59 6.34 2.73 2.38 5.58 4.55 8.47 6.73 5.66 4.28 11 8.85 16.3 13.5 5.13 4.49 10.4 8.64 15.9 12.7 4.86 3.81 4.86 3.81 6.71 6.12-0.129 1.97-0.129 1.97-1 4-0.298 0.732-0.596 1.46-0.902 2.22l-1.04 2.28-1.03 2.28c-0.681 1.46-1.4 2.9-2.16 4.33-1.11 2.39-1.02 4.29-0.879 6.89 3.88 0.452 3.88 0.452 5.62-1.5 0.454-0.495 0.908-0.99 1.38-1.5h2l0.75-2.25c1.37-3.02 2.66-4.69 5.25-6.75h4v2c0.593 0.275 1.19 0.549 1.8 0.833 2.11 1.12 3.67 2.27 5.44 3.85 0.888 0.775 0.888 0.775 1.79 1.57 0.911 0.806 0.911 0.806 1.84 1.63 5.06 4.48 5.06 4.48 10.6 8.38 1.26 0.862 1.26 0.862 2.55 1.74v2c0.804 0.34 0.804 0.34 1.62 0.688 3.2 1.77 5.67 3.85 8.38 6.31v2l2.24 0.777c2.88 1.28 4.6 2.63 6.88 4.79 5.98 5.48 12.1 10.9 18.9 15.4v2c0.787 0.323 0.787 0.323 1.59 0.652 3.36 1.88 6.1 4.38 8.97 6.91 1.25 1.09 2.5 2.17 3.75 3.25 0.62 0.538 1.24 1.08 1.88 1.63 5.08 4.37 10.3 8.64 15.6 12.7 0.723 0.619 1.45 1.24 2.19 1.88v2c0.722 0.206 1.44 0.413 2.19 0.625 3.89 1.9 5.4 3.76 7.81 7.38 0.125 2.62 0.125 2.62-1 5-3.07 2.98-6.37 4.82-10.3 6.58-4.66 3.79-6.18 8.97-6.81 14.7-0.0619 0.716-0.124 1.43-0.188 2.17-0.116 1.07-0.116 1.07-0.234 2.16-1.26 8.51-1.26 8.51 0.734 16.3 5.36 3.25 12.8 3.27 18.8 2.06 6.03-4.51 11.2-11.3 12.8-18.8 0.39-3.97-0.343-7.36-1.33-11.2-0.559-2.39-0.638-4.61-0.48-7.05 3.32-0.382 4.71-0.189 7.54 1.69l2.64 2.31 2.92 2.5c0.954 0.825 1.91 1.65 2.89 2.5 5.19 4.26 10.5 8.37 15.9 12.4 5.13 3.82 10 7.86 14.9 12 2.35 1.94 4.76 3.73 7.26 5.48 0.682 0.481 1.36 0.962 2.07 1.46 1.33 0.929 2.67 1.84 4.02 2.75 3.1 2.16 4.71 3.57 6.49 6.99 0.414 2.94 0.414 2.94-0.492 5.18-0.526 0.684-1.05 1.37-1.59 2.07-0.566 0.77-1.13 1.54-1.71 2.33-0.589 0.777-1.18 1.55-1.79 2.36-2.97 4.29-5.83 8.59-8.31 13.2-3.53 6.5-7.66 12.6-11.7 18.8-3.89 6.01-7.67 12-11.1 18.3-0.945 1.68-0.945 1.68-1.95 2.68-4.74 0.245-8.22-0.0299-12.8-1.41-5-1.34-10.1-2.15-15.2-3.09-6.77-1.25-13.4-2.53-20-4.5-3.45-0.857-6.91-1.65-10.4-2.44-0.967-0.22-1.93-0.441-2.93-0.667-6.61-1.48-13.2-2.75-19.9-3.87-5.01-0.851-9.88-1.97-14.8-3.27-4.62-1.17-9.29-2.08-14-3.01-2.66-0.655-4.63-1.48-7.03-2.75l-0.0759-1.79c-0.116-2.67-0.239-5.35-0.362-8.02-0.0393-0.929-0.0786-1.86-0.119-2.81-0.0628-1.34-0.0628-1.34-0.127-2.71-0.0367-0.822-0.0733-1.64-0.111-2.49-0.14-2.36-0.14-2.36-1.21-5.18-1.87-0.7-1.87-0.7-4.12-1-4.26-0.708-7.96-2.23-11.9-4l-3.66-1.61c-0.934-0.413-0.934-0.413-1.89-0.835-6.71-2.97-13.5-5.79-20.3-8.49-4.07-1.61-8.08-3.32-12.1-5.14-2.32-1.02-4.67-1.94-7.04-2.86-3.57-1.43-7.12-2.9-10.6-4.5-0.826-0.37-1.65-0.74-2.5-1.12-1.93-1.44-1.93-1.44-2.81-3.7-0.15-3.41 0.538-5.97 1.5-9.25 0.38-1.34 0.758-2.67 1.13-4.01l0.614-2.18c1.38-5.1 2.56-10.2 3.76-15.4 0.99-4.23 1.99-8.45 3.07-12.7 3.76-12.7 3.76-12.7 1.8-25.3-1.22-1.8-2.51-3.35-4.01-4.92l-2.31-2.44-1.69-1.56c1.49-6.28 5.27-10.9 9-16 2.37-2.95 2.37-2.95 2-7-2.41 0.124-2.41 0.124-5 1-1.76 2.18-1.76 2.18-3.06 4.88-1.89 3.59-3.37 6.06-6.94 8.12-8.12-1.08-13.2-9.21-18.2-15-2.2-2.48-4.55-4.78-6.92-7.1-1.71-1.74-3.29-3.54-4.87-5.4-5.13-5.91-10.8-11.3-16.4-16.8-1.42-1.39-2.83-2.78-4.24-4.18-1.25-1.23-1.25-1.23-2.53-2.48-1.82-2.03-1.82-2.03-1.82-4.03l-1.8-0.777c-2.41-1.34-3.65-2.66-5.39-4.79-3.46-4.12-7.21-7.84-11.1-11.6-1.72-1.88-1.72-1.88-1.72-3.88-0.596-0.258-1.19-0.517-1.81-0.783-2.38-1.32-3.58-2.59-5.29-4.69-5.31-6.27-11.3-11.9-17.1-17.6-0.871-0.86-1.74-1.72-2.64-2.61-0.793-0.776-1.59-1.55-2.4-2.35-1.72-1.94-1.72-1.94-1.72-3.94-0.639-0.268-1.28-0.536-1.94-0.812-2.06-1.19-2.06-1.19-3.06-4.19-0.99-0.495-0.99-0.495-2-1-2-1-2-1-3-4-1.33-0.68-2.66-1.35-4-2-1.78-1.8-1.78-1.8-3.5-3.88-1.92-2.28-3.8-4.42-5.94-6.5-1.56-1.62-1.56-1.62-1.56-3.62-0.639-0.268-1.28-0.536-1.94-0.812-2.06-1.19-2.06-1.19-3.06-4.19-1.33-0.669-2.67-1.34-4-2-1.43-1.45-2.8-2.96-4.12-4.5-4.11-4.73-8.5-9.03-13.1-13.3-1.77-2.23-1.77-2.23-1.91-4.17 1.71-3.11 4.24-5.25 6.88-7.55 0.526-0.473 1.05-0.946 1.59-1.43 3.13-2.8 6.37-5.44 9.66-8.07 0.804-0.804 1.61-1.61 2.44-2.44 1.88-1.88 3.7-3.53 5.75-5.19 2.93-2.25 2.93-2.25 4.81-5.38z" fill="#F5F6F8"/>
<path transform="translate(784 340)" d="m0 0c2.91 1.2 3.64 2.82 5.21 5.53 0.573 0.968 1.15 1.94 1.74 2.93 0.599 1.04 1.2 2.08 1.82 3.14 1.26 2.12 2.52 4.24 3.78 6.36 0.608 1.02 1.22 2.05 1.84 3.1 2.66 4.39 5.56 8.56 8.54 12.7 2.96 4.2 5.79 8.48 8.62 12.8 2.03 3.06 4.1 6.06 6.28 9.02 2.27 3.3 2.97 5.32 3.25 9.27-1.29 0.981-2.58 1.96-3.88 2.94-0.719 0.545-1.44 1.09-2.18 1.65-1.95 1.41-1.95 1.41-3.95 2.41-1.25 4.14-1.05 8.25-0.879 12.5 0.0355 1.09 0.0355 1.09 0.0717 2.21 0.0508 1.56 0.104 3.11 0.159 4.67 0.143 4.06 0.268 8.11 0.39 12.2 0.0366 1.21 0.0366 1.21 0.0739 2.44 0.299 10.3 0.275 20.7 0.184 31-7.45 3.24-7.45 3.24-11.1 4.44-1.13 0.369-1.13 0.369-2.29 0.746-4.15 1.31-8.31 2.58-12.5 3.85-3.2 0.992-6.37 2.05-9.55 3.12-4.16 1.37-8.36 2.64-12.5 3.93-4.08 1.27-8.09 2.65-12.1 4.17-4.02 1.51-7.66 2.37-11.9 2.75-1.54 4.57-3.05 9.15-4.5 13.7-0.5 1.56-1 3.13-1.5 4.69-0.371 1.2-0.371 1.2-0.75 2.43-0.247 0.765-0.495 1.53-0.75 2.32-0.217 0.686-0.433 1.37-0.656 2.08-0.844 1.74-0.844 1.74-3.84 3.74-2.13 0.471-2.13 0.471-4.57 0.781-0.897 0.12-1.79 0.24-2.72 0.363-1.4 0.176-1.4 0.176-2.84 0.355-5.96 0.766-11.8 1.65-17.7 3.01-4.72 1.03-9.52 1.65-14.3 2.34-3.55 0.536-6.9 1.14-10.4 2.14-5.52 1.55-11.2 2.12-16.8 2.86-0.893 0.12-1.79 0.24-2.71 0.363-1.2 0.154-1.2 0.154-2.42 0.311-2.77 0.453-2.77 0.453-6 1.44-3.46 0.984-6.82 1.66-10.4 2.25-1.27 0.21-2.54 0.42-3.84 0.637-0.654 0.106-1.31 0.212-1.98 0.322-1.96 0.318-3.91 0.643-5.87 0.967-8.5 1.4-17 2.67-25.6 3.86-3.84-4.71-7.28-9.18-9.84-14.7-2.67-5.31-6-10.3-9.16-15.3l-2.81-4.5c-0.357-0.567-0.714-1.13-1.08-1.72-0.843-1.36-1.67-2.73-2.49-4.1-1.49-2.48-3.02-4.93-4.57-7.37-1.1-1.77-2.2-3.54-3.3-5.31-0.567-0.889-1.13-1.78-1.72-2.7-0.531-0.864-1.06-1.73-1.61-2.62-0.733-1.17-0.733-1.17-1.48-2.36-1.17-2.9-0.922-4.39 0.0596-7.32 2.01-1.92 2.01-1.92 4.69-3.75 0.993-0.684 1.99-1.37 3.01-2.07 4.04-2.66 8.09-5.29 12.2-7.89 6.09-3.87 12-8.01 17.8-12.2 0.884-0.634 1.77-1.27 2.68-1.92 0.791-0.575 1.58-1.15 2.4-1.74 2.13-1.32 3.78-1.95 6.23-2.38v-2c1.84-1.26 1.84-1.26 4.38-2.69 3.67-2.12 7.18-4.34 10.6-6.81 4.16-2.97 8.44-5.61 12.9-8.14 2.03-1.3 3.45-2.65 5.13-4.36 1.33-0.934 2.68-1.83 4.06-2.69 0.692-0.437 1.38-0.874 2.1-1.32 1.84-0.988 1.84-0.988 3.84-0.988v-2c1.77-1.23 1.77-1.23 4.25-2.62 5.03-2.92 9.85-6.06 14.7-9.3 3.03-2.04 6.08-4.06 9.14-6.07 3.84-2.56 7.6-5.19 11.3-7.94 4.69-3.45 9.51-6.59 14.4-9.7 4.66-2.97 9.11-6.17 13.6-9.46 3.51-2.52 7.14-4.81 10.8-7.11 6.11-3.87 12.1-7.91 18.1-12 2.77-1.76 2.77-1.76 4.77-1.76v-2c24-12 24-12 25.9-11.9z" fill="#F5F6F8"/>
<path transform="translate(346,613)" d="m0 0c1.68 0.984 3.34 1.99 5 3 1.61 0.777 3.24 1.53 4.88 2.25 4.66 2.09 9.31 4.21 13.9 6.38 0.933 0.434 0.933 0.434 1.88 0.876 1.77 0.826 3.54 1.66 5.3 2.5 1.08 0.503 2.15 1.01 3.26 1.52 2.51 1.35 3.93 2.33 5.74 4.48 0.606 2.87 1.03 5.6 1.38 8.5 0.246 1.89 0.494 3.78 0.742 5.67 0.136 1.07 0.273 2.13 0.413 3.23 0.831 6.36 1.74 12.7 2.65 19.1 0.315 2.22 0.626 4.44 0.935 6.66 1.14 8.11 2.42 16.2 3.89 24.2 0.887 4.88 1.59 9.69 2 14.6 0.103 0.908 0.206 1.82 0.312 2.75-0.462 3.32-1.98 4.91-4.31 7.25-2.19 0.625-2.19 0.625-4 1-0.33 0.99-0.66 1.98-1 3-2 1.82-2 1.82-4.44 3.69-0.803 0.623-1.61 1.25-2.43 1.89-2.13 1.43-2.13 1.43-4.13 1.43-0.33 0.99-0.66 1.98-1 3-2.42-0.418-3.71-0.696-5.44-2.5-2.05-1.97-3.8-2.13-6.56-2.5 0.413 2.98 0.721 4.67 2.69 7 0.433 0.66 0.866 1.32 1.31 2-1.15 4.65-3.43 6.39-7.31 9-3.96 2.75-7.36 5.49-10.7 9-5.5 5-5.5 5-8 5-0.33 0.99-0.66 1.98-1 3-2.15 1.98-2.15 1.98-4.94 4.19-0.991 0.793-1.98 1.59-3 2.4-1.01 0.795-2.02 1.59-3.06 2.41-5.25 4.15-10.3 8.2-15 13-5.95 5.55-12.1 10.8-18.5 15.9-2.67 2.25-5.09 4.66-7.54 7.14-3.62 3-3.62 3-6 3-0.33 0.99-0.66 1.98-1 3-1.71 1.56-3.5 3.06-5.31 4.5-0.966 0.773-1.93 1.55-2.93 2.34-0.911 0.712-1.82 1.42-2.76 2.16-0.715 0.587-1.43 1.17-2.17 1.78-2.32 1.55-3.93 1.46-6.63 0.934-5.78-1.87-12.1-4.48-16.3-8.89-1.73-1.99-1.73-1.99-4.04-2.21-1.95 0.13-3.91 0.26-5.86 0.391 0.475 4.28 3.03 6.1 6 9 2.44 3.17 3.07 4.28 2.69 8.31-0.34 1.33-0.34 1.33-0.688 2.69-0.99 0.33-1.98 0.66-3 1-0.33 0.99-0.66 1.98-1 3-2.11 1.65-2.11 1.65-4.75 3.38-3 2.02-5.76 3.93-8.25 6.56-0.66 0.681-1.32 1.36-2 2.06h-2c-0.33 0.99-0.66 1.98-1 3-1.56 1.61-1.56 1.61-3.44 3.19-0.617 0.53-1.23 1.06-1.87 1.61-1.69 1.21-1.69 1.21-3.69 1.21-0.33 0.99-0.66 1.98-1 3-0.639 0.144-1.28 0.289-1.94 0.438-0.681 0.186-1.36 0.371-2.06 0.562-0.423 0.899-0.423 0.899-0.855 1.82-1.42 2.71-3.06 3.89-5.52 5.68-2.46 1.81-4.66 3.53-6.79 5.72-1.84 1.78-1.84 1.78-3.84 1.78-0.33 0.99-0.66 1.98-1 3-1.56 1.61-1.56 1.61-3.44 3.19-0.617 0.53-1.23 1.06-1.87 1.61-1.69 1.21-1.69 1.21-3.69 1.21-0.33 0.99-0.66 1.98-1 3-1.61 1.46-3.29 2.85-5 4.19-4.57 3.64-8.94 7.41-13.2 11.4-1.78 1.43-1.78 1.43-3.78 1.43l-0.625 1.69c-1.98 3.34-4.13 5.19-7.38 7.31-3.25-0.438-3.25-0.438-6-2-1.12-2-1.12-2-2-4-1.33-0.683-2.66-1.35-4-2l-1-3c-0.843-0.418-0.843-0.418-1.7-0.844-3.24-1.63-5.53-4.1-8.05-6.66-0.507-0.499-1.01-0.998-1.54-1.51-3.71-3.73-3.71-3.73-3.71-5.99-0.639-0.268-1.28-0.536-1.94-0.812-2.06-1.19-2.06-1.19-3.06-4.19-0.578-0.124-1.16-0.247-1.75-0.375-3.35-0.929-4.92-3.12-7.25-5.62-0.784-0.66-1.57-1.32-2.38-2-1.62-2-1.62-2-1.46-4.4 0.992-3.08 2.09-4.14 4.59-6.16 0.723-0.597 1.45-1.19 2.19-1.81 1.58-1.25 3.16-2.5 4.75-3.75 3.52-2.86 6.59-6.13 9.75-9.38 2.73-2.67 5.63-5.06 8.56-7.5 1.67-1.66 3.34-3.33 5-5 2.38-2.29 4.78-4.55 7.19-6.81 0.628-0.597 1.26-1.19 1.9-1.81l1.83-1.71c0.544-0.513 1.09-1.03 1.65-1.55 1.43-1.11 1.43-1.11 3.43-1.11 0.396-0.901 0.396-0.901 0.801-1.82 1.26-2.29 2.37-3.41 4.39-5.05 4.92-4.15 9.59-8.56 14.3-13 3.01-2.83 6.03-5.58 9.2-8.22 3.12-2.65 5.67-5.53 8.21-8.74 1.14-1.43 1.14-1.43 2.3-2.89 0.601-0.757 1.2-1.51 1.82-2.29 1-1 1-1 4.38-1.44 7.22 0.0779 13.8 4.67 19.1 9.31 2.52 2.55 2.52 2.55 6.56 2.12-0.433-5.09-1.73-8.91-3.87-13.5-1.24-2.72-2.4-5.44-3.5-8.22-0.358-0.882-0.717-1.76-1.09-2.67-0.688-3.29-0.173-4.67 1.46-7.58 1.84-1.91 1.84-1.91 3.94-3.62 2.95-2.43 2.95-2.43 5.69-5.09 1.37-1.29 1.37-1.29 3.37-1.29 0.389-0.877 0.389-0.877 0.787-1.77 1.3-2.39 2.7-3.96 4.63-5.87 0.679-0.677 1.36-1.35 2.06-2.05 1.07-1.05 1.07-1.05 2.15-2.12 1.03-1.03 1.03-1.03 2.08-2.08 3.44-3.41 6.93-6.7 10.6-9.87 2.65-2.28 5.01-4.56 7.2-7.3 2.88-3.41 5.94-5.98 9.61-8.52 0.625-0.469 1.25-0.938 1.89-1.42 0.693-0.509 1.39-1.02 2.1-1.54 2.75-3.55 2.34-6.91 2.18-11.2-0.0128-0.848-0.0255-1.7-0.0387-2.57-0.0422-2.71-0.111-5.41-0.184-8.12-0.0681-2.7-0.13-5.41-0.173-8.11-0.0272-1.68-0.0687-3.36-0.127-5.04-0.0976-5.7 1.02-8.81 4.77-13.2 4.24-4.2 4.24-4.2 6.46-4.2 0.218-0.545 0.437-1.09 0.661-1.65 1.78-3.13 4.2-5.44 6.76-7.93 0.535-0.53 1.07-1.06 1.62-1.61 1.71-1.69 3.43-3.38 5.15-5.07 2.25-2.21 4.49-4.42 6.73-6.64 0.537-0.53 1.07-1.06 1.63-1.61 3.6-3.57 6.97-7.27 10.2-11.2 0.421-0.43 0.842-0.859 1.28-1.3h2c0.258-0.583 0.516-1.17 0.781-1.77 1.32-2.41 2.77-4.05 4.72-5.98 0.608-0.614 1.22-1.23 1.84-1.86 1.66-1.39 1.66-1.39 3.66-1.39 0.289-0.639 0.577-1.28 0.875-1.94 2.25-4.13 5.02-3.03 9.12-2.06z" fill="#F5F6F8"/>
<path transform="translate(629,605)" d="m0 0c2.46 1.68 2.46 1.68 4.81 3.88 0.79 0.719 1.58 1.44 2.39 2.18 1.79 1.95 1.79 1.95 1.79 3.95 0.59 0.271 1.18 0.541 1.79 0.82 2.19 1.17 3.75 2.39 5.59 4.05 3.8 3.4 7.63 6.74 11.5 10.1 0.6 0.517 1.2 1.03 1.82 1.57 4.43 3.8 8.97 7.44 13.6 11 0.559 0.503 1.12 1.01 1.7 1.52v2c0.565 0.245 1.13 0.49 1.71 0.742 2.7 1.48 4.66 3.28 6.91 5.38 4.29 3.95 8.72 7.6 13.3 11.1 2.86 2.43 3.96 4.08 4.39 7.83 0.0542 1.25 0.108 2.5 0.164 3.79 0.0708 1.38 0.142 2.76 0.213 4.14 0.101 2.17 0.197 4.34 0.289 6.5 0.092 2.1 0.201 4.2 0.311 6.29 0.0553 1.25 0.111 2.51 0.168 3.8 0.896 6.13 3.86 8.96 8.68 12.6 1.64 1.23 3.25 2.49 4.81 3.81v2c0.596 0.276 1.19 0.552 1.8 0.836 2.08 1.1 3.58 2.22 5.32 3.79 4.5 3.95 9.19 7.65 13.9 11.4 2.59 2.08 5.18 4.16 7.77 6.24 1.47 1.17 2.98 2.29 4.52 3.37 0.565 0.46 1.13 0.92 1.71 1.39v2c0.619 0.309 1.24 0.619 1.88 0.938l4.12 2.06v2c0.837 0.379 0.837 0.379 1.69 0.766 6.82 3.64 12.7 9.08 17.3 15.2-1.46 4.27-3.62 7.38-6.38 10.9-3.04 3.94-5.88 7.92-8.62 12.1-2.1 2.98-4.24 5.93-6.38 8.88-2.37 3.3-4.54 6.63-6.62 10.1-1.99 2.79-4.02 5.53-6.06 8.28-1.96 2.67-1.96 2.67-3.56 5.44-1.38 2.28-1.38 2.28-3.38 4.28-3.44-0.34-5.58-1.97-8.25-4.06-0.706-0.548-1.41-1.1-2.14-1.66-0.531-0.422-1.06-0.843-1.61-1.28 0.524-5.87 1.76-10.5 4-16h-3c-1.7 2-1.7 2-3.19 4.5-0.53 0.835-1.06 1.67-1.61 2.53-0.597 0.975-0.597 0.975-1.21 1.97-1.4-0.573-2.79-1.16-4.19-1.75-0.777-0.325-1.55-0.65-2.36-0.984-2.81-1.45-5-3.28-7.46-5.27-2.9-1.72-5.83-3.38-8.77-5.02-2.23-1.98-2.23-1.98-2.65-5.01 0.49-3.45 1.87-5.87 3.42-8.97-0.195-2.3-0.195-2.3-1-4h-2c-0.205 0.626-0.41 1.25-0.621 1.9-0.269 0.817-0.539 1.63-0.816 2.48-0.267 0.812-0.534 1.62-0.809 2.46-0.754 2.16-0.754 2.16-1.75 4.16-5.07-0.483-7.89-2.06-12-5-2.31-1.38-4.65-2.69-7-4v-2c-0.804-0.206-1.61-0.413-2.44-0.625-4.71-1.82-8.43-4.51-12.6-7.38-2.45-1.66-4.91-3.3-7.38-4.94-0.652-0.435-1.3-0.87-1.97-1.32-3.69-2.46-7.4-4.88-11.2-7.24-4.51-2.85-8.98-5.75-13.4-8.69-0.639-0.416-1.28-0.833-1.94-1.26-3.4-2.25-6.35-4.52-9.12-7.55 1.02-0.99 1.02-0.99 2.06-2 2.7-4.18 1.91-6.22 0.938-11-3.4 1.01-4.76 1.65-6.81 4.62-0.392 0.784-0.784 1.57-1.19 2.38-5.48-0.481-9.11-1.87-13.8-4.69-0.602-0.357-1.2-0.714-1.83-1.08-1.79-1.07-3.58-2.15-5.36-3.23-0.998-0.592-2-1.18-3.02-1.79-3.38-2.01-6.71-4.03-9.98-6.21-0.363-1.88-0.363-1.88-0.312-4.12 0.00387-0.724 0.00773-1.45 0.0117-2.2 0.301-2.68 0.301-2.68 1.23-6.21 1.45-5.53 1.96-11.2 2.57-16.8 1.32-12 1.32-12 2.5-17.4 1.6-7.57 2-15.3 2.6-23 0.162-2.05 0.34-4.09 0.519-6.13 0.0972-1.2 0.194-2.41 0.295-3.65 0.793-4.57 2.02-8.22 5.83-11 0.869-0.424 1.74-0.848 2.63-1.29 0.985-0.499 1.97-0.998 2.98-1.51 1.04-0.512 2.07-1.02 3.14-1.55 2.05-1.07 4.09-2.16 6.12-3.25 1.61-0.86 1.61-0.86 3.26-1.74 2.73-1.49 5.39-3.07 8.05-4.68 0.758-0.458 1.52-0.916 2.3-1.39 1.49-0.905 2.97-1.82 4.45-2.74 6.79-4.12 6.79-4.12 10.8-3.2z" fill="#F5F6F8"/>
<path transform="translate(991,218)" d="m0 0c4.76 1.48 6.39 5.45 8.75 9.5 3.5 5.83 7.15 11.2 11.7 16.3 1.88 2.61 2.71 5.13 3.59 8.21-1.29 1.38-2.63 2.71-4 4h-2c-0.33 0.99-0.66 1.98-1 3-1.4 0.979-2.8 1.95-4.25 2.86-3.17 2.07-6.06 4.51-9 6.89-0.661 0.532-1.32 1.06-2 1.61-1.92 1.54-3.83 3.09-5.75 4.64-6.06 4.89-12.2 9.69-18.4 14.4-3.02 2.31-5.92 4.68-8.75 7.22-2.88 2.38-2.88 2.38-5.88 2.38-0.321 0.857-0.321 0.857-0.648 1.73-1.82 3.05-4.09 4.52-6.98 6.58-4.51 3.25-8.72 6.65-12.8 10.5-1.62 1.21-1.62 1.21-4.62 1.21-0.206 0.577-0.413 1.15-0.625 1.75-1.52 2.49-3.14 3.53-5.59 5.04-2.91 1.98-5.39 4.42-7.95 6.82-1.83 1.39-1.83 1.39-4.83 1.39-0.186 0.557-0.371 1.11-0.562 1.69-2.08 3.34-5.05 5.36-8.44 7.31h-2c-0.495 1.49-0.495 1.49-1 3-2.12 1.73-2.12 1.73-4.88 3.62-3.96 2.79-7.77 5.66-11.5 8.75-3.92 3.25-7.89 6.41-11.9 9.5-4.62 3.54-9.23 7.1-13.8 10.7-0.876 0.681-0.876 0.681-1.77 1.38-2.8 2.19-5.54 4.42-8.19 6.79-1.41 1.25-1.41 1.25-2.86 2.52-0.813 0.748-1.63 1.5-2.46 2.27-2.6 1.48-2.6 1.48-6.23 1.5-3.37-1.01-3.37-1.01-5.12-2.95-0.413-0.826-0.825-1.65-1.25-2.5-1.92-3.58-3.88-6.95-6.25-10.2-3.36-4.72-6.57-9.52-9.76-14.3-2.27-3.43-4.58-6.83-6.93-10.2-0.489-0.702-0.978-1.4-1.48-2.13-0.935-1.34-1.87-2.67-2.82-4-3.05-4.37-5.46-8.82-7.75-13.6 6.08-6.26 14.4-9.77 22.2-13.6 3.04-1.55 5.88-3.29 8.73-5.14 3.42-2.13 7-3.98 10.6-5.86 2.49-1.34 2.49-1.34 4.47-2.92 2.54-1.87 5.21-3.11 8.05-4.51 3.4-1.88 6.76-3.82 10.1-5.75 0.939-0.538 1.88-1.08 2.84-1.63 5.77-3.31 11.5-6.64 17.2-10 6.41-3.74 12.9-7.4 19.3-11.1 2.78-1.58 5.56-3.16 8.33-4.74 0.88-0.499 1.76-0.998 2.67-1.51 3.96-2.25 7.87-4.54 11.7-6.98 3.16-2 6.39-3.67 9.74-5.32 3.44-1.9 6.84-3.86 10.2-5.81 0.891-0.509 1.78-1.02 2.7-1.54 5.29-3.03 10.5-6.12 15.7-9.28 2.42-1.43 4.88-2.78 7.37-4.11 5.05-2.72 10-5.59 14.9-8.5 1.11-0.655 1.11-0.655 2.25-1.32 2.97-1.75 5.88-3.51 8.75-5.43z" fill="#F6F7F9"/>
<path transform="translate(494 16.3)" d="m0 0c1.29 0.235 2.59 0.469 3.92 0.711 1.58 0.0958 3.16 0.165 4.73 0.211 1.23 0.0425 1.23 0.0425 2.49 0.0859 1.7 0.0526 3.4 0.0967 5.1 0.133 0.816 0.0309 1.63 0.0619 2.47 0.0938 0.736 0.0198 1.47 0.0396 2.23 0.0601 2.67 0.564 3.38 1.18 4.97 3.42 0.25 2.65 0.315 5.04 0.236 7.69-0.0123 0.791-0.0246 1.58-0.0373 2.4-0.0477 2.64-0.121 5.28-0.198 7.91-0.0237 0.898-0.0475 1.8-0.0719 2.72-0.191 7.09-0.441 14.2-0.698 21.3-0.0818 2.33-0.163 4.66-0.245 6.99-0.217 6.2-0.439 12.4-0.661 18.6-0.23 6.44-0.458 12.9-0.685 19.3-0.322 9.11-0.646 18.2-0.971 27.3-0.459 12.8-0.911 25.7-1.35 38.5-0.236 6.83-0.476 13.7-0.716 20.5-0.158 4.48-0.314 8.96-0.467 13.4-0.142 4.14-0.287 8.28-0.436 12.4-0.0529 1.49-0.104 2.98-0.154 4.47-0.0676 2.01-0.141 4.03-0.214 6.04-0.039 1.12-0.078 2.23-0.118 3.38-0.207 2.98-0.207 2.98-0.727 5.27-0.732 4.13-0.542 8.21-0.488 12.4 0.0717 11.6-0.288 23.2-0.733 34.9-0.138 3.62-0.271 7.23-0.403 10.8-0.328 8.97-0.665 17.9-1 26.9-0.286 7.62-0.568 15.2-0.846 22.9-0.13 3.52-0.264 7.03-0.399 10.6-0.464 12.5-0.691 24.9-0.612 37.4 0.0285 6.31-0.269 12.6-0.748 18.9-0.0619 1.08-0.124 2.16-0.188 3.27-0.464 6.28-1.23 10.7-5.06 15.7-3.94 3.01-8.19 1.97-12.9 1.48-4.16-0.64-8.41-1.42-12.1-3.48-1.12-3.35-0.845-4.61-0.125-8 1.91-9.05 2.28-18.3 2.65-27.6 0.0413-1.01 0.0827-2.03 0.125-3.07 0.533-14 0.692-28.1 0.88-42.1 0.0408-3 0.0846-6 0.128-8.99 0.0529-3.62 0.105-7.24 0.156-10.9 0.00956-0.673 0.0191-1.35 0.029-2.04 0.0269-1.92 0.0528-3.83 0.0787-5.75 0.0158-1.16 0.0316-2.31 0.0479-3.5 0.0229-2.52 0.0104-5.03-0.023-7.55 0.0519-3.6 0.52-6.98 1.05-10.5 0.132-2.5 0.223-5.01 0.281-7.52 0.027-1.11 0.027-1.11 0.0546-2.24 0.0593-2.5 0.112-5 0.164-7.5 0.0417-1.84 0.0834-3.68 0.125-5.51 0.253-11.5 0.436-23 0.59-34.5 0.018-1.34 0.0361-2.68 0.0541-4.02 0.00904-0.673 0.0181-1.35 0.0274-2.04 0.0469-3.49 0.0939-6.98 0.141-10.5 0.0096-0.711 0.0192-1.42 0.0291-2.15 0.317-23.3 0.865-46.7 1.6-70 0.596-18.9 1.04-37.8 1.34-56.7 0.0577-3.57 0.117-7.13 0.177-10.7 0.178-10.6 0.351-21.3 0.491-31.9 0.0613-4.42 0.134-8.84 0.211-13.3 0.0332-2.08 0.061-4.16 0.0835-6.24 0.0314-2.86 0.0806-5.72 0.134-8.58 0.00717-1.26 0.00717-1.26 0.0145-2.55 0.133-5.68 0.133-5.68 1.81-7.89 1.67-1.24 1.67-1.24 4.74-0.955z" fill="#F6F7F9"/>
<path transform="translate(0)" d="m0 0h1023v1h-1022v1598c29.7-0.495 29.7-0.495 60-1 32.3-0.138 32.3-0.138 42.6-0.124 2.46 0.0018 4.92 0.00353 7.38 0.00521 1.87 0.00155 1.87 0.00155 3.78 0.00314 6.04 0.00398 12.1 0.00303 18.1 0.00232 12.3-0.00129 24.6 0.00194 36.9 0.00802 12.1 0.00598 24.3 0.00978 36.4 0.0109 0.763 6.87e-5 1.53 1.37e-4 2.31 2.08e-4 3.87 3.38e-4 7.75 6.4e-4 11.6 9.27e-4 27.2 0.00208 54.5 0.00878 81.7 0.0183 26.4 0.00923 52.8 0.0163 79.2 0.0205 0.818 1.32e-4 1.64 2.63e-4 2.48 3.99e-4 8.22 0.00132 16.4 0.00259 24.7 0.00384 16.7 0.00253 33.5 0.00536 50.2 0.00835 1.15 2.06e-4 1.15 2.06e-4 2.33 4.16e-4 51.1 0.00916 102 0.025 153 0.0419 0.0469-12.7 0.0822-25.5 0.104-38.2 0.0103-5.92 0.0242-11.8 0.0473-17.8 0.0949-25.1 0.0298-50-1.95-75-0.471-7-0.469-14-0.41-21 0.0189-2.34 0.0205-4.67 0.0203-7.01 0.0543-23.9 0.0543-23.9 2.19-26 0.159-2.29 0.251-4.58 0.316-6.88 0.0208-0.687 0.0416-1.37 0.063-2.08 0.0656-2.2 0.124-4.4 0.183-6.6 0.0432-1.49 0.0868-2.98 0.131-4.47 0.107-3.66 0.209-7.31 0.307-11h2c-0.582-5.31-0.582-5.31-3-10-0.368-2.72-0.65-5.39-0.875-8.12-0.626-6.52-1.6-12.8-3.12-19.2-0.166-0.698-0.332-1.4-0.503-2.12-0.676-2.72-1.37-5.3-2.54-7.85-1.19-3.42-1.19-6.28-1.18-9.91 6.87e-4 -1.03 6.87e-4 -1.03 0.00139-2.09 0.00301-1.46 0.0109-2.92 0.0233-4.38 0.018-2.18 0.0205-4.36 0.0203-6.54 0.0167-7.05 0.17-14.1 0.572-21.1 0.0679-1.19 0.136-2.38 0.206-3.61 0.407-3.07 0.407-3.07 1.41-5.06 1.45-2.91 1.42-5.56 1.6-8.8 0.0583-1.02 0.0583-1.02 0.118-2.05 0.126-2.26 0.237-4.52 0.347-6.78 0.0616-1.2 0.0616-1.2 0.124-2.42 1.32-25.7 1.72-51.3 2.02-77 0.0743-6.19 0.15-12.4 0.227-18.6 0.00952-0.772 0.019-1.54 0.0289-2.34 0.236-19 0.531-37.9 1.53-56.9 0.0419-0.796 0.0838-1.59 0.127-2.41 1.19-22 1.19-22 2.87-23.7-0.335-3.24-0.767-6.46-1.24-9.69-1.89-14.2-0.643-28.9-0.26-43.2 0.0484-1.86 0.0965-3.72 0.145-5.58 0.116-4.5 0.235-8.99 0.355-13.5l-3.43-0.148c-1.48-0.075-2.96-0.151-4.45-0.227l-2.26-0.0938c-5.64-0.305-5.64-0.305-7.86-2.53l1-4h39l1 5c-4 0.956-7.71 1.1-11.8 1.06-1.16-0.00902-2.32-0.018-3.52-0.0273-0.88-0.0116-1.76-0.0232-2.67-0.0352 0.00222 0.555 0.00444 1.11 0.00673 1.68 0.0221 5.77 0.0372 11.5 0.0482 17.3 0.00503 2.16 0.0119 4.31 0.0205 6.47 0.0121 3.1 0.0178 6.2 0.0222 9.29 0.00516 0.964 0.0103 1.93 0.0156 2.92 7.55e-5 0.901 1.51e-4 1.8 2.29e-4 2.73 0.00333 1.19 0.00333 1.19 0.00673 2.4-0.12 2.19-0.12 2.19-0.62 4.16-0.596 2.42-0.62 4.58-0.614 7.07 7.55e-5 1 1.51e-4 2 2.29e-4 3.03 0.00516 1.07 0.0103 2.15 0.0156 3.25 0.00141 1.1 0.00283 2.21 0.00429 3.35 0.0056 3.53 0.0181 7.05 0.0309 10.6 0.00502 2.39 0.00958 4.78 0.0137 7.17 0.011 5.86 0.0278 11.7 0.0488 17.6 0.746 0.00935 1.49 0.0187 2.26 0.0283 3.41 0.054 6.83 0.138 10.2 0.222l3.55 0.043c8.19 0.23 13.7 1.28 20.2 6.52 6.41 8.01 8.72 16 7.75 26.2-1.26 4.84-3.99 9.05-7 13-0.99 0.33-1.98 0.66-3 1l-1 3c-7.15 3.68-15 3.1-22.8 3-2.09-0.0254-4.18-0.0465-6.27-0.0625-0.92-0.0116-1.84-0.0232-2.79-0.0352-2.11-0.143-2.11-0.143-3.13 1.1-0.113 1.64-0.157 3.29-0.174 4.93-0.0136 1.07-0.0272 2.13-0.0411 3.23-0.0104 1.18-0.0207 2.35-0.0314 3.57-0.0316 2.54-0.0634 5.08-0.0955 7.62-0.0157 1.36-0.0312 2.73-0.0466 4.09-0.0812 7.05-0.187 14.1-0.299 21.2-0.0114 0.72-0.0228 1.44-0.0346 2.18-0.231 14.3-0.598 28.5-1.09 42.8-0.0829 2.41-0.162 4.82-0.238 7.24-0.107 3.35-0.227 6.7-0.351 10.1-0.0454 1.49-0.0454 1.49-0.0917 3-0.0367 0.903-0.0734 1.81-0.111 2.74-0.0281 0.783-0.0561 1.57-0.0851 2.37-0.485 3.18-2.55 5.39-4.31 8.03-1.33 9.13-1.19 18.6-1.19 27.8-0.00222 2.02-0.0206 4.04-0.0393 6.07-0.159 12.9-0.159 12.9 5.22 24.1 0.394 2.32 0.735 4.66 1 7l1 1c2.81 14.5 3.21 29.5 4.19 44.1 0.0682 1.01 0.0682 1.01 0.138 2.04 1.5 22.4 2.06 44.4 0.675 66.8-0.0926 1.57-0.184 3.14-0.276 4.71-0.175 3.01-0.353 6.02-0.534 9.02-0.136 2.13-0.136 2.13-0.19 4.26-0.158 1.33-0.319 2.67-0.48 4-0.522 4.66-0.733 9.28-0.836 14-0.0208 0.809-0.0416 1.62-0.063 2.45-0.0646 2.55-0.124 5.09-0.183 7.64-0.0433 1.74-0.0869 3.48-0.131 5.22-0.106 4.24-0.208 8.48-0.307 12.7h2c4.61 9.21 2.23 25.8 1.69 36-0.0346 0.697-0.0693 1.39-0.105 2.11-0.328 4.95-1.34 8.93-2.58 13.9v19h404v2h-1024v-1600z" fill="#010506"/>
<path transform="translate(782,772)" d="m0 0c4.2 0.549 6.99 3.07 10.2 5.62 0.873 0.686 0.873 0.686 1.76 1.39 1.16 0.916 2.33 1.83 3.49 2.75 1.92 1.52 3.87 3 5.81 4.49 5.14 4 10.1 8.19 15.2 12.3 6.77 5.59 13.7 11 20.6 16.4 1.35 1.05 1.35 1.05 2.73 2.13 4.2 3.29 4.2 3.29 8.52 6.43 0.58 0.474 1.16 0.949 1.76 1.44v2c0.7 0.226 1.4 0.451 2.12 0.684 3.5 1.6 6.1 3.85 8.94 6.38 5.25 4.57 10.6 8.79 16.3 12.9 6.84 5.33 6.84 5.33 8.62 9.13 0.0435 2.7-0.881 3.84-2.47 6-2.48 3.49-4.85 7-7.12 10.6-1.74 2.76-3.5 5.5-5.31 8.21-2.21 3.32-4.36 6.68-6.5 10-3.06 4.79-6.19 9.49-9.56 14.1-4.22-1.48-7.71-3.67-11.4-6.19-1.32-0.897-2.65-1.79-3.97-2.69-0.731-0.494-1.46-0.987-2.22-1.5-5.67-3.79-11.4-7.48-17.1-11.2-5.43-3.53-10.8-7.16-16.1-10.9-2.85-1.97-5.76-3.77-8.74-5.55-3.8-2.31-7.51-4.66-11.1-7.25-4.83-3.45-9.84-6.6-14.9-9.75-5.91-3.7-11.7-7.46-17.4-11.5-3.28-2.3-6.67-4.38-10.1-6.47 0.515-4.51 2.18-6.53 5-10 1.59-2.3 3.15-4.61 4.69-6.94 0.434-0.655 0.869-1.31 1.32-1.98 3.29-4.97 6.52-9.98 9.73-15 3.68-5.74 7.46-11.4 11.3-17.1 1.17-1.75 2.33-3.5 3.5-5.25 0.833-1.25 1.67-2.5 2.5-3.75z" fill="#F6F7F9"/>
<path transform="translate(599 1e3)" d="m0 0h39c0.495 2.48 0.495 2.48 1 5-4 0.956-7.71 1.1-11.8 1.06-1.16-0.00902-2.32-0.018-3.52-0.0273-0.88-0.0116-1.76-0.0232-2.67-0.0352 0.00222 0.555 0.00444 1.11 0.00673 1.68 0.0221 5.77 0.0372 11.5 0.0482 17.3 0.00503 2.16 0.0119 4.31 0.0205 6.47 0.0121 3.1 0.0178 6.2 0.0222 9.29 0.00516 0.964 0.0103 1.93 0.0156 2.92 1.13e-4 1.35 1.13e-4 1.35 2.29e-4 2.73 0.00222 0.791 0.00444 1.58 0.00673 2.4-0.12 2.19-0.12 2.19-0.62 4.16-0.596 2.42-0.62 4.58-0.614 7.07 1.13e-4 1.5 1.13e-4 1.5 2.29e-4 3.03 0.00516 1.07 0.0103 2.15 0.0156 3.25 0.00141 1.1 0.00283 2.21 0.00429 3.35 0.0056 3.53 0.0181 7.05 0.0309 10.6 0.00502 2.39 0.00958 4.78 0.0137 7.17 0.011 5.86 0.0278 11.7 0.0488 17.6 0.746 0.00935 1.49 0.0187 2.26 0.0283 3.41 0.054 6.83 0.138 10.2 0.222 1.76 0.0213 1.76 0.0213 3.55 0.043 8.19 0.23 13.7 1.28 20.2 6.52 6.41 8.01 8.72 16 7.75 26.2-1.26 4.84-3.99 9.05-7 13-0.99 0.33-1.98 0.66-3 1-0.33 0.99-0.66 1.98-1 3-7.15 3.68-15 3.1-22.8 3-2.09-0.0254-4.18-0.0465-6.27-0.0625-0.92-0.0116-1.84-0.0232-2.79-0.0352-2.11-0.143-2.11-0.143-3.13 1.1-0.113 1.64-0.157 3.29-0.174 4.93-0.0136 1.07-0.0272 2.13-0.0411 3.23-0.0104 1.18-0.0207 2.35-0.0314 3.57-0.0316 2.54-0.0634 5.08-0.0955 7.62-0.0157 1.36-0.0312 2.73-0.0466 4.09-0.0812 7.05-0.187 14.1-0.299 21.2-0.0171 1.08-0.0171 1.08-0.0346 2.18-0.231 14.3-0.598 28.5-1.09 42.8-0.0829 2.41-0.162 4.82-0.238 7.24-0.107 3.35-0.227 6.7-0.351 10.1-0.0303 0.991-0.0605 1.98-0.0917 3-0.0367 0.903-0.0734 1.81-0.111 2.74-0.0281 0.783-0.0561 1.57-0.0851 2.37-0.485 3.18-2.55 5.39-4.31 8.03-1.33 9.13-1.19 18.6-1.19 27.8-0.00222 2.02-0.0206 4.04-0.0393 6.07-0.159 12.9-0.159 12.9 5.22 24.1 0.394 2.32 0.735 4.66 1 7 0.33 0.33 0.66 0.66 1 1 2.81 14.5 3.21 29.5 4.19 44.1 0.0454 0.674 0.0909 1.35 0.138 2.04 1.5 22.4 2.06 44.4 0.675 66.8-0.0926 1.58-0.185 3.17-0.276 4.75-0.236 4.08-0.479 8.17-0.724 12.3-0.124-0.639-0.247-1.28-0.375-1.94-0.206-0.681-0.413-1.36-0.625-2.06-0.66-0.33-1.32-0.66-2-1h2c-0.165-1.13-0.33-2.27-0.5-3.44-0.576-4.53-0.595-9-0.5-13.6h2c-0.33-2.97-0.66-5.94-1-9h-1c-0.931-3.91-1.09-7.49-1.03-11.5 0.0184-1.85 0.0184-1.85 0.0371-3.74 0.0353-2.59 0.0743-5.19 0.117-7.78 0.011-1.23 0.0219-2.46 0.0332-3.73 0.0168-1.13 0.0337-2.25 0.051-3.41 0.00663-3.04 0.00663-3.04-2.21-5.83-0.893-4.05-1.12-7.91-1.1-12.1 0.00322-1.11 0.00645-2.22 0.00977-3.36 0.00838-1.14 0.0168-2.28 0.0254-3.46 0.00451-1.17 0.00902-2.33 0.0137-3.53 0.0117-2.86 0.0282-5.73 0.0488-8.59h2c-0.582-5.31-0.582-5.31-3-10-0.368-2.72-0.65-5.39-0.875-8.12-0.626-6.52-1.6-12.8-3.12-19.2-0.249-1.05-0.249-1.05-0.503-2.12-0.676-2.72-1.37-5.3-2.54-7.85-1.19-3.42-1.19-6.28-1.18-9.91 4.58e-4 -0.69 9.16e-4 -1.38 0.00139-2.09 0.00301-1.46 0.0109-2.92 0.0233-4.38 0.018-2.18 0.0205-4.36 0.0203-6.54 0.0167-7.05 0.17-14.1 0.572-21.1 0.0679-1.19 0.136-2.38 0.206-3.61 0.407-3.07 0.407-3.07 1.41-5.06 1.45-2.91 1.42-5.56 1.6-8.8 0.0389-0.677 0.0777-1.35 0.118-2.05 0.126-2.26 0.237-4.52 0.347-6.78 0.0411-0.798 0.0822-1.6 0.124-2.42 1.32-25.7 1.72-51.3 2.02-77 0.0743-6.19 0.15-12.4 0.227-18.6 0.00952-0.772 0.019-1.54 0.0289-2.34 0.236-19 0.531-37.9 1.53-56.9 0.0628-1.19 0.0628-1.19 0.127-2.41 1.19-22 1.19-22 2.87-23.7-0.335-3.24-0.767-6.46-1.24-9.69-1.89-14.2-0.643-28.9-0.26-43.2 0.0484-1.86 0.0965-3.72 0.145-5.58 0.116-4.5 0.235-8.99 0.355-13.5-1.13-0.049-2.26-0.098-3.43-0.148-1.48-0.075-2.96-0.151-4.45-0.227-0.746-0.0309-1.49-0.0619-2.26-0.0938-5.64-0.305-5.64-0.305-7.86-2.53 0.33-1.32 0.66-2.64 1-4z" fill="#F6F7F9"/>
<path transform="translate(519 1e3)" d="m0 0c3.31 3.06 4.87 6.64 6.69 10.7 0.708 1.54 1.42 3.08 2.13 4.62 0.361 0.782 0.722 1.56 1.09 2.37 1.66 3.54 3.44 7.02 5.21 10.5 10.8 21.3 10.8 21.3 11.2 31.8 0.0394 0.98 0.0787 1.96 0.119 2.97 0.0373 1.07 0.0747 2.14 0.113 3.24 0.0415 1.14 0.0831 2.28 0.126 3.46 0.488 14.3 0.649 28.7 0.815 43 0.0474 4.02 0.0994 8.04 0.151 12.1 0.204 16.1 0.388 32.2 0.564 48.2 0.0719 6.56 0.146 13.1 0.221 19.7 0.0612 5.4 0.118 10.8 0.172 16.2 0.0346 3.38 0.0727 6.75 0.112 10.1 0.0172 1.56 0.033 3.11 0.0471 4.67 0.0768 8.38 0.382 16.7 1.04 25.1 0.363 5.39 0.386 10.8 0.392 16.2 0.00608 1.77 0.00608 1.77 0.0123 3.57 0.00936 3.77 0.00941 7.55 0.00725 11.3 7.25e-4 1.28 0.00145 2.57 0.0022 3.89-0.00126 20.2-0.511 40.2-2.19 60.4h-1c-0.832-5.72-1.12-11.2-1-17h2c-0.483-1.16-0.483-1.16-0.976-2.34-1.34-4.79-1.36-9.27-1.4-14.2-0.017-1.02-0.034-2.04-0.0515-3.09-0.0529-3.26-0.0933-6.52-0.132-9.78-0.0586-4.27-0.123-8.54-0.191-12.8-0.024-1.55-0.024-1.55-0.0485-3.13-0.122-6.83-0.464-13.6-0.982-20.4-0.332-4.92-0.362-9.83-0.341-14.8-0.0058-1.4-0.0058-1.4-0.0117-2.82 0.00662-4.65 0.177-9.04 1.14-13.6h-2c-1.06-3.48-1.14-6.71-1.17-10.3-0.0135-1.28-0.027-2.57-0.0409-3.89-0.00506-0.684-0.0101-1.37-0.0153-2.07-0.0165-2.15-0.0397-4.3-0.0649-6.44-0.0706-6.11-0.131-12.2-0.182-18.3-0.0318-3.74-0.0731-7.48-0.12-11.2-0.016-1.42-0.0283-2.84-0.0369-4.27-0.0122-1.99-0.0374-3.98-0.0631-5.97-0.0103-1.13-0.0206-2.26-0.0312-3.43-0.273-3.06-0.977-5.28-2.27-8.04h-2c-1.63-1.98-1.63-1.98-3.56-4.75-2.28-3.23-4.56-6.44-6.96-9.58-0.412-0.54-0.825-1.08-1.25-1.64-1.18-1.53-2.36-3.07-3.54-4.6-1.69-2.43-1.69-2.43-1.69-4.43h-2c-1.29-1.46-1.29-1.46-2.62-3.38-0.446-0.626-0.892-1.25-1.35-1.9-1.02-1.73-1.02-1.73-1.02-3.73h-2c-1.62-1.5-1.62-1.5-3-3-1.61 3.23-1.12 6.75-1.1 10.3 0.00212 1.23 0.00212 1.23 0.00429 2.48 0.00561 2.62 0.0182 5.24 0.0309 7.86 0.00501 1.77 0.00958 3.55 0.0137 5.32 0.011 4.35 0.0283 8.7 0.0488 13.1h-4c-1.76-1.76-1.23-4.27-1.32-6.66-0.0421-1.18-0.0843-2.36-0.128-3.57-0.0391-1.26-0.0781-2.53-0.118-3.83-0.041-1.27-0.082-2.55-0.124-3.86-0.113-3.69-0.216-7.39-0.313-11.1-0.0248-0.928-0.0496-1.86-0.0752-2.81-0.0524-2.21-0.0882-4.42-0.112-6.63-0.0142-1.17-0.0284-2.35-0.043-3.56 0.235-3.06 0.926-5.25 2.23-8 4 0 4 0 5.93 1.91 0.642 0.856 1.28 1.71 1.95 2.59 0.703 0.923 1.41 1.85 2.13 2.8 0.988 1.34 0.988 1.34 2 2.7 0.483 0.645 0.967 1.29 1.46 1.95 0.924 1.23 1.84 2.47 2.76 3.7 2.91 3.85 5.91 7.63 8.9 11.4 0.898 1.14 1.79 2.28 2.69 3.42 0.999 1.27 2.01 2.54 3.01 3.8 1.17 1.7 1.17 1.7 1.17 3.7 1.65 0.33 3.3 0.66 5 1-0.0707-0.702-0.141-1.4-0.214-2.13-0.745-8.01-0.937-16-0.911-24-0.0058-1.83-0.0058-1.83-0.0117-3.69 0.00129-1.16 0.00258-2.32 0.00391-3.51 0.00113-1.04 0.00226-2.09 0.00342-3.16 0.129-2.52 0.129-2.52 1.13-4.52 0.0979-2.3 0.131-4.6 0.133-6.91 9.57e-4 -0.681 0.00191-1.36 0.0029-2.06 6.81e-4 -1.44-0.00117-2.88-0.00534-4.32-0.00535-2.21-5.12e-5 -4.41 0.00635-6.62-6.61e-4 -1.4-0.00194-2.79-0.00391-4.19-0.00169-1.91-0.00169-1.91-0.00342-3.87 0.0816-2.96 0.0816-2.96-1.13-5.04-0.133-2.21-0.231-4.42-0.312-6.62-0.36-7.22-1.84-13.9-3.75-20.8-0.938-3.56-0.938-3.56-1.94-9.56-12.9-0.495-12.9-0.495-26-1-0.495 2.47-0.495 2.47-1 5-0.959 1.97-1.98 3.91-3.06 5.81-0.548 0.976-1.1 1.95-1.66 2.96-0.632 1.1-0.632 1.1-1.28 2.23h-4c-0.33-0.66-0.66-1.32-1-2 0.753-2.02 0.753-2.02 1.99-4.52 0.454-0.929 0.907-1.86 1.37-2.82 0.498-1 0.995-2 1.51-3.03 4.23-8.63 8.3-17.3 12-26.2 2.13-4.88 4.48-8.55 8.08-12.5z" fill="#F1F2F4"/>
<path transform="translate(399 1e3)" d="m0 0c1.56 3.17e-4 3.11 0.0116 4.67 0.0317 1.23 0.00424 1.23 0.00424 2.48 0.00858 2.62 0.0112 5.24 0.0363 7.86 0.0617 1.77 0.01 3.55 0.0192 5.32 0.0273 4.35 0.0221 8.7 0.0566 13.1 0.0977 0.495 2.48 0.495 2.48 1 5-3.65 1.12-7.15 1.2-11 1.32-0.66 0.0208-1.32 0.0416-2 0.063-2.1 0.0651-4.2 0.124-6.3 0.183-1.43 0.0432-2.85 0.0868-4.28 0.131-3.49 0.107-6.98 0.208-10.5 0.307-0.027 1.94-0.0464 3.87-0.0625 5.81-0.0116 1.08-0.0232 2.16-0.0352 3.27-0.0386 2.98-0.0386 2.98 1.1 5.92h16c0.33 1.65 0.66 3.3 1 5-8.42 0.495-8.42 0.495-17 1-1.36 2.72-1.13 4.91-1.12 7.94-0.00258 1.06-0.00516 2.12-0.00781 3.21 0.00712 2.92 0.00712 2.92 1.13 5.85h33c1 4 1 4 1.44 7.62 0.237 3.44 0.237 3.44 2.56 5.38h1c0.901 4.63 1.16 9.11 1.17 13.8 0.0101 1.15 0.0101 1.15 0.0204 2.33 0.0141 1.68 0.0261 3.36 0.0361 5.04 0.0165 2.74 0.0387 5.49 0.0624 8.23 0.0341 4 0.0659 8.01 0.0959 12 0.0826 10.8 0.186 21.7 0.295 32.5 0.0113 1.13 0.0226 2.26 0.0343 3.43 0.263 25.9 0.716 51.7 1.22 77.6 0.0646 3.34 0.129 6.68 0.193 10 0.102 5.33 0.206 10.7 0.312 16 0.0405 2.05 0.0807 4.11 0.121 6.16 0.216 11.1 0.468 22.1 0.796 33.2 0.0834 2.93 0.166 5.86 0.249 8.79 0.0811 2.74 0.174 5.48 0.267 8.22 0.0474 1.64 0.0943 3.29 0.141 4.93 0.0435 1.12 0.0435 1.12 0.0879 2.26 0.0935 3.76 0.0478 5.26-2.1 8.48-0.495-1.49-0.495-1.49-1-3v11c-0.495-1.49-0.495-1.49-1-3h-2c-1.04-4.26-1.13-8.38-1.1-12.7 0.00143-0.767 0.00287-1.53 0.00435-2.32 0.00376-1.67 0.00985-3.33 0.018-5 0.013-2.67 0.02-5.35 0.0255-8.02 0.00833-3.81 0.0191-7.62 0.0318-11.4 0.0316-9.85 0.0414-19.7 0.0454-29.5 6.41e-4 -1.45 6.41e-4 -1.45 0.0013-2.93 0.00341-15.4-0.0994-30.8-0.466-46.1-0.0296-1.29-0.0296-1.29-0.0598-2.61-0.11-4.64-0.255-9.28-0.429-13.9-0.0816-2.6-0.119-5.2-0.156-7.81-0.0459-1.82-0.0926-3.65-0.14-5.47-0.00537-1.27-0.00537-1.27-0.0108-2.57-0.131-5.04-0.131-5.04-3.21-8.93-0.842-0.519-1.68-1.04-2.55-1.57-2.89-4-4.32-8.41-6-13-2.24-2.24-7.17-1.52-10.2-1.69-1.28-0.0899-1.28-0.0899-2.58-0.182-4.81-0.272-8.81-0.351-13.2 1.87-1.2 1.66-1.2 1.66-1.62 3.69-1.28 4.2-3.11 7.56-5.38 11.3-1.65-0.33-3.3-0.66-5-1 3.05-7.36 6.57-14.5 10.1-21.6 0.476-0.987 0.953-1.97 1.44-2.99 0.647-1.33 0.647-1.33 1.31-2.69 1.26-2.85 2.25-5.72 3.19-8.68h2c0.0928-1.24 0.0928-1.24 0.188-2.5 1.02-4.37 2.83-8.11 5.81-11.5h3c0.531 1.07 1.06 2.15 1.61 3.25 0.713 1.44 1.43 2.87 2.14 4.31 0.348 0.704 0.696 1.41 1.05 2.13 1.69 3.4 3.42 6.75 5.34 10 1.53 2.68 2.76 5.21 3.86 8.09 0.487 1.26 0.487 1.26 0.984 2.54 0.335 0.873 0.67 1.75 1.02 2.64 0.747 1.88 1.5 3.75 2.25 5.62 0.583 1.46 1.17 2.92 1.75 4.38h3c-0.0664-0.955-0.133-1.91-0.201-2.9-0.7-11-0.943-22.1-1.08-33.1-0.00955-0.759-0.0191-1.52-0.0289-2.3-0.0784-6.34-0.148-12.7-0.216-19-0.0511-4.77-0.106-9.53-0.166-14.3-0.0264-2.21-0.0473-4.42-0.068-6.64-0.0166-1.35-0.0335-2.71-0.0507-4.06-0.0125-1.18-0.0251-2.35-0.038-3.56-0.139-2.87-0.311-5.38-1.15-8.13-3.21-2.14-4.5-2.32-8.25-2.56-3.25-0.235-6.35-0.535-9.56-1.06-3.36-0.395-5.88 0.00499-9.19 0.625-4.67 0.246-7.74-0.158-12-2-0.0506-6.8-0.0857-13.6-0.11-20.4-0.0101-2.31-0.0237-4.63-0.041-6.94-0.0242-3.32-0.0356-6.64-0.0444-9.96-0.0103-1.04-0.0206-2.08-0.0313-3.15-1.51e-4 -0.961-3.02e-4 -1.92-4.58e-4 -2.91-0.00444-0.848-0.00888-1.7-0.0135-2.57 0.461-3.96 2.13-4.06 5.86-4.29z" fill="#F5F6F8"/>
<path transform="translate(965,1109)" d="m0 0c3.37 2.79 5.23 4.69 6 9 0.66 0.33 1.32 0.66 2 1-3.74-0.365-5.82-0.876-8.94-3.06-6.07-3.77-15.2-2.48-22-1.54-2.27 0.384-2.27 0.384-3.23 2.47-0.433 1.05-0.433 1.05-0.875 2.12-0.474 0.454-0.949 0.908-1.44 1.38-4.11 4.27-4.8 8.36-4.94 14.1 0.128 4.88 0.38 8.47 3.38 12.5 4.86 4.51 4.86 4.51 11 6 0.33-1.65 0.66-3.3 1-5h2c-0.119-0.904-0.237-1.81-0.359-2.74-0.193-1.77-0.193-1.77-0.391-3.57-0.139-1.17-0.278-2.34-0.422-3.55 0.172-3.14 0.172-3.14 1.88-4.81 2.64-1.53 4.18-1.72 7.21-1.73 0.926-0.00387 1.85-0.00773 2.8-0.0117 1.44 0.0174 1.44 0.0174 2.91 0.0352 0.967-0.0116 1.93-0.0232 2.93-0.0352 0.923 0.00387 1.85 0.00773 2.8 0.0117 1.27 0.00508 1.27 0.00508 2.56 0.0103 0.69 0.128 1.38 0.256 2.09 0.388 3.32 4.97 2.2 10.5 1.38 16.2-0.811 3.73-1.15 4.55-4.12 7.19-1.07 0.516-2.14 1.03-3.25 1.56-0.908 0.557-1.82 1.11-2.75 1.69-3.78 1.53-7.04 1.76-11.1 1.91-1.08 0.201-1.08 0.201-2.17 0.406-2.4 3.59-2.26 6.15-2.2 10.3 0.00424 1.06 0.00424 1.06 0.00858 2.14 0.0112 2.25 0.0363 4.5 0.0617 6.76 0.01 1.53 0.0192 3.06 0.0273 4.58 0.022 3.74 0.0566 7.49 0.0977 11.2 0.66-1.32 1.32-2.64 2-4v271h-1c-0.33 1.98-0.66 3.96-1 6h-1c-1.08-7.1-1.21-14.1-1.29-21.3-0.019-1.36-0.0383-2.72-0.0579-4.09-0.0525-3.76-0.0984-7.53-0.143-11.3-0.0288-2.43-0.0592-4.85-0.09-7.28-0.584-46.4-0.779-92.8-0.989-139-0.0451-9.85-0.0965-19.7-0.149-29.5-0.0512-9.62-0.0985-19.2-0.143-28.9-0.0262-5.69-0.0539-11.4-0.0854-17.1-0.0291-5.28-0.0534-10.6-0.0739-15.8-0.00833-1.94-0.0184-3.87-0.0303-5.81-0.0159-2.63-0.0256-5.26-0.0337-7.89-0.00612-0.772-0.0122-1.54-0.0186-2.34-0.00658-5.26-0.00658-5.26 1.11-7.48 0.466-4.12 0.603-6.2-1.94-9.56-2.48-1.97-4.9-3.63-7.56-5.31-5.54-3.6-8.43-7.37-10.8-13.5-1.45-7.64-1.24-14.6 2.31-21.6 4.81-6.85 10.5-11.9 18.9-13.7 6.3-0.92 12.2-0.72 18.1 1.69z" fill="#F5F6F8"/>
<path transform="translate(815,1108)" d="m0 0c4.28 3.36 7.5 6.66 10.8 11.1 3.38 4.52 6.85 8.94 10.5 13.2 3.33 3.95 6.51 7.94 9.5 12.2 1.36 1.8 1.36 1.8 4.25 3.52v-38c1.32-0.66 2.64-1.32 4-2 2 2 2 2 2.2 4.14-0.0222 0.884-0.0444 1.77-0.0673 2.68-0.0202 1-0.0403 2-0.0611 3.03-0.0483 1.63-0.0483 1.63-0.0976 3.28-0.0375 1.66-0.0375 1.66-0.0758 3.35-0.0824 3.55-0.179 7.09-0.276 10.6-0.0582 2.4-0.116 4.8-0.172 7.2-0.14 5.89-0.292 11.8-0.453 17.7-4.39-1.59-6.9-3.46-10-7v-2h-2c-1.32-1.61-2.55-3.29-3.75-5-2.48-3.51-4.98-6.98-7.62-10.4-2.08-2.75-3.59-5.3-4.62-8.62h-2c-2.62-2.31-2.62-2.31-5-5v-3h-3c0.164 0.786 0.328 1.57 0.498 2.38 0.631 4.54 0.597 8.95 0.54 13.5-8e-3 0.983-0.016 1.97-0.0242 2.98-0.0279 3.25-0.0634 6.5-0.0993 9.75-0.0218 2.28-0.0433 4.57-0.0644 6.85-0.0455 4.8-0.0947 9.6-0.147 14.4-0.0655 6.07-0.123 12.1-0.178 18.2-0.0435 4.73-0.0907 9.46-0.139 14.2-0.0225 2.23-0.0441 4.47-0.0645 6.7-0.00993 1.06-0.0199 2.12-0.0301 3.21-0.00826 0.917-0.0165 1.83-0.025 2.78-0.121 9.45-0.36 18.9-0.767 28.3-0.508 12.5-0.669 25-0.704 37.6-0.00962 2.25-0.0196 4.5-0.03 6.75-0.0266 6.01-0.0479 12-0.068 18-0.0221 6.32-0.0494 12.6-0.0761 19-0.044 10.6-0.0849 21.2-0.123 31.7-0.0396 10.9-0.081 21.8-0.125 32.6-0.00409 1.01-0.00409 1.01-0.00826 2.04-0.0137 3.38-0.0274 6.77-0.0411 10.1-0.113 27.9-0.22 55.9-0.323 83.8h-2c-1.2-2.39-1.16-3.93-1.2-6.6-0.0195-0.989-0.0391-1.98-0.0592-3-0.0163-1.11-0.0326-2.22-0.0495-3.36-0.0205-1.19-0.041-2.39-0.0621-3.62-0.0554-3.42-0.105-6.83-0.151-10.2-0.0301-2.24-0.0616-4.48-0.0932-6.72-0.702-50.9-0.533-102-0.511-153 0.0045-10.9 0.00367-21.8-9.09e-4 -32.7-0.00541-12.9-0.00743-25.7-0.00439-38.6 3.18e-4 -1.38 6.33e-4 -2.76 9.43e-4 -4.14 1.54e-4 -0.678 3.09e-4 -1.36 4.68e-4 -2.06 8.45e-4 -4.66-6.05e-4 -9.33-0.00295-14-0.0203-47.3-0.0203-47.3 0.464-70.4 0.0367-1.76 0.0707-3.51 0.102-5.27 0.0439-2.38 0.1-4.75 0.161-7.13 0.0306-1.32 0.0612-2.63 0.0927-3.99 0.792-9.12 0.792-9.12 3.32-11.6z" fill="#F1F2F4"/>
<path transform="translate(181 1108)" d="m0 0c1.14-0.00499 1.14-0.00499 2.31-0.0101 1.61-0.00507 3.23-0.00741 4.84-0.00725 2.46-0.00218 4.92-0.0203 7.39-0.0393 1.57-0.00294 3.14-0.00492 4.71-0.00586 0.734-0.00719 1.47-0.0144 2.22-0.0218 4.06 0.018 7.2 0.446 10.9 2.25-0.33 0.99-0.66 1.98-1 3-5.43 1.81-11.3 1.05-17 1-0.057 11.3 0.0715 22.5 0.372 33.8 0.0648 2.44 0.125 4.89 0.184 7.33 0.213 8.39 0.519 16.8 0.947 25.1 0.576 11.4 0.796 22.8 0.996 34.2 0.207 11.8 0.451 23.6 0.977 35.4 0.0384 0.875 0.0768 1.75 0.116 2.65 0.526 11.1 1.21 22.2 4.03 33 3.64 15.9 3.11 34.2-2.62 49.5h-2c-0.0909 0.888-0.0909 0.888-0.184 1.79-0.0838 0.79-0.168 1.58-0.254 2.39-0.0812 0.777-0.162 1.55-0.246 2.36-0.316 2.46-0.316 2.46-0.828 4.61-0.619 3.6-0.631 7.14-0.621 10.8-0.00141 0.781-0.00282 1.56-0.00427 2.37-0.00214 2.57 0.00419 5.13 0.0121 7.7 0.00155 0.878 0.0031 1.76 0.0047 2.66 0.0256 12.4 0.148 24.9 0.44 37.3 0.0367 1.58 0.0707 3.15 0.102 4.73 0.158 7.66 0.353 15 2.36 22.5 0.0727 0.593 0.145 1.19 0.22 1.8-0.66 0.66-1.32 1.32-2 2-0.278 2.52-0.278 2.52-0.195 5.45 0.00645 1.08 0.0129 2.15 0.0195 3.26 0.0168 1.13 0.0335 2.26 0.0508 3.42 0.00902 1.14 0.018 2.27 0.0273 3.44 0.0236 2.81 0.0566 5.62 0.0977 8.43h-2c-1.28-2.55-1.28-4.58-1.46-7.43-0.0769-1.17-0.154-2.33-0.233-3.53-0.0791-1.29-0.158-2.58-0.24-3.91-0.0624-1-0.0624-1-0.126-2.02-4.79-77.1-4.79-77.1-0.936-102h2l1-6h2c-0.186-0.536-0.371-1.07-0.562-1.62-0.552-2.99-0.0435-5.41 0.562-8.38 0.99 0.33 1.98 0.66 3 1 1.04-7.42 1.03-14.6 0.75-22.1-0.0271-1.13-0.0541-2.26-0.082-3.43-0.237-6.55-1.06-11.5-3.67-17.5-2.13-6.21-2.64-12.2-3.06-18.8-0.0823-1.24-0.165-2.48-0.25-3.76-1.2-19.8-1.26-39.7-1.54-59.5-0.0167-1.19-0.0334-2.38-0.0506-3.61-0.0705-5.65-0.104-11.3-0.05-17 0.00819-1.02 0.0164-2.03 0.0248-3.08 0.0187-1.89 0.0461-3.77 0.0839-5.66 0.00843-0.83 0.0169-1.66 0.0255-2.51 0.0129-0.716 0.0257-1.43 0.039-2.17-0.26-2.37-1.1-3.93-2.22-6.01-1.2-5.22-1.22-10.4-1.32-15.8-0.0208-0.924-0.0416-1.85-0.063-2.8-0.0651-2.93-0.124-5.87-0.183-8.8-0.0432-2-0.0868-3.99-0.131-5.99-0.107-4.88-0.208-9.76-0.307-14.6-1.06-0.049-2.12-0.098-3.21-0.148-1.39-0.075-2.78-0.151-4.16-0.227-1.05-0.0464-1.05-0.0464-2.12-0.0938-5.28-0.305-5.28-0.305-7.51-2.53v-3c3.07-1.54 6.3-1.16 9.68-1.17z" fill="#F4F5F7"/>
<path transform="translate(1023)" d="m0 0h1v1598h-1v-5c-2.64 0.66-5.28 1.32-8 2v-7c5.75-1.13 5.75-1.13 8 0v-1588z" fill="#010506"/>
<path transform="translate(542,1345)" d="m0 0h4c1.23 3.68 1.1 7.06 1.06 10.9-0.00869 1.66-0.0172 3.32-0.0256 4.98-0.00621 0.878-0.0124 1.76-0.0188 2.66-0.105 15.8 0.0217 31.6 0.419 47.5 0.0296 1.28 0.0296 1.28 0.0598 2.59 0.0565 2.41 0.12 4.81 0.186 7.22 0.0167 0.718 0.0334 1.44 0.0506 2.18-0.171 3.29-0.171 3.29 1.27 6.01 0.205 1.42 0.348 2.85 0.465 4.29 0.0769 0.91 0.154 1.82 0.233 2.76 0.0791 0.996 0.158 1.99 0.24 3.02 0.173 2.13 0.346 4.25 0.52 6.38 0.0885 1.09 0.177 2.19 0.268 3.32 0.255 3.01 0.544 6.01 0.849 9.02 1.61 16.4 1.64 32.7 1.43 49.2-0.66-0.33-1.32-0.66-2-1-0.625-2.06-0.625-2.06-1-4-1.89 1.89-1.24 5.14-1.32 7.66-0.0208 0.664-0.0416 1.33-0.063 2.01-0.0656 2.13-0.124 4.26-0.183 6.39-0.0432 1.44-0.0868 2.88-0.131 4.32-0.107 3.54-0.209 7.08-0.307 10.6h-3c-0.495-4.95-0.495-4.95-1-10h-2c-0.495 0.99-0.495 0.99-1 2-2.17-4.37-2.24-8.33-2.15-13.1 0.00837-0.856 0.0167-1.71 0.0254-2.6 0.0208-1.98 0.0464-3.95 0.0758-5.93 0.0535-3.69 0.0914-7.38 0.128-11.1 0.0841-8.39 0.187-16.8 0.292-25.2 0.0317-2.52 0.0631-5.03 0.0945-7.55 0.0986-7.89 0.198-15.8 0.3-23.7 0.116-9.08 0.229-18.2 0.338-27.2 0.0849-7.05 0.174-14.1 0.265-21.2 0.0544-4.2 0.107-8.4 0.156-12.6 0.0458-3.93 0.0962-7.86 0.15-11.8 0.019-1.44 0.0364-2.89 0.052-4.33 0.0214-1.96 0.0494-3.93 0.0778-5.89 0.0138-1.1 0.0277-2.2 0.0419-3.33 0.154-2.58 0.154-2.58 1.15-4.58z" fill="#202323"/>
<path transform="translate(295 1108)" d="m0 0c2.16-0.0097 4.33-0.0407 6.49-0.0723 1.38-0.00653 2.77-0.0118 4.15-0.0156 1.88-0.014 1.88-0.014 3.8-0.0283 3.63 0.384 5.47 1.2 8.37 3.36 3.03 3.79 5.28 8.18 5.69 13.1-0.894 5.12-2.83 8.45-6.69 11.9-3.38 1-3.38 1-6 1 1.89 6.41 4.41 11.8 7.79 17.6 1.21 2.38 1.21 2.38 1.21 5.38-4.03-1.29-5.82-2.54-8.06-6.12-0.501-0.798-1-1.6-1.52-2.42-1.97-3.41-3.68-6.92-5.42-10.5-1.77-2.18-1.77-2.18-3.97-2.23-1.18 0.0157-1.18 0.0157-2.38 0.0317-1.15 0.00749-1.15 0.00749-2.32 0.0151-1.46 0.0273-1.46 0.0273-2.95 0.0552-3.09 0.0412-6.19 0.0825-9.38 0.125-0.33 6.6-0.66 13.2-1 20h-4c-1.58-1.58-1.13-3.2-1.13-5.4-0.00315-0.934-0.0063-1.87-0.00955-2.83 0.00202-1.02 0.00405-2.03 0.00613-3.08-9.57e-4 -1.04-0.00191-2.07-0.0029-3.14-6.82e-4 -2.2 0.00117-4.4 0.00534-6.59 0.00534-3.37 5.85e-5 -6.75-0.00635-10.1 6.61e-4 -2.13 0.00194-4.26 0.00391-6.39-0.00202-1.01-0.00405-2.03-0.00613-3.07 0.00315-0.938 0.0063-1.88 0.00955-2.84 7.96e-4 -0.827 0.00159-1.65 0.00241-2.51 0.127-2.02 0.127-2.02 1.13-4.02 5.19-1.73 10.8-1.23 16.2-1.24z" fill="#F6F7F9"/>
<path transform="translate(735,1108)" d="m0 0c0.99 0.66 1.98 1.32 3 2 0.327 2.94 0.465 5.69 0.477 8.64 0.0156 0.872 0.0312 1.74 0.0472 2.64 0.0476 2.8 0.0752 5.61 0.101 8.41 0.0369 2.76 0.0781 5.51 0.123 8.27 0.0265 1.71 0.0481 3.43 0.0635 5.14 0.0619 4.91 0.322 9.76 0.707 14.6 0.639 9.17 0.533 18.3 0.435 27.5-0.0429 4.29-0.0657 8.59-0.09 12.9-0.0452 7.95-0.0979 15.9-0.185 23.9-0.985 36.4-0.985 36.4 5.32 72 0.33 0.33 0.66 0.66 1 1 0.0733 2.86 0.0924 5.7 0.0625 8.56-0.00451 0.806-0.00902 1.61-0.0137 2.44-0.0118 2-0.0298 4-0.0488 5.99h-3c0.206 0.969 0.413 1.94 0.625 2.94 0.687 4.59-0.413 8.64-1.62 13.1-0.66-0.66-1.32-1.32-2-2-2.76 14.7-2.76 14.7 0 29 0.187 2.69 0.0858 5.3 0 8-0.33 0.33-0.66 0.66-1 1h1c0.168 1.96 0.334 3.92 0.5 5.88 0.0928 1.09 0.186 2.18 0.281 3.3 1.02 13.1 0.219 26.6 0.219 39.8h-1c-0.66 21.5-1.32 42.9-2 65h-1c-0.53-19.1-0.974-38.1-1.25-57.2-0.0104-0.701-0.0207-1.4-0.0314-2.12-0.104-7.03-0.204-14.1-0.295-21.1-0.0439-3.33-0.0908-6.66-0.138-10-0.0183-1.29-0.0366-2.59-0.0555-3.92-0.105-6.6-0.261-13.2-0.513-19.8-0.0497-1.31-0.0994-2.62-0.151-3.97-0.0984-2.47-0.203-4.94-0.315-7.41-0.343-8.39 0.0327-16.3 1.75-24.5h2c-0.186-0.681-0.371-1.36-0.562-2.06-0.425-2.85-0.124-4.99 0.311-7.81 0.509-4.32 0.436-8.66 0.439-13 0.0122-0.923 0.0245-1.85 0.0371-2.8 0.0115-5.65-0.432-11-1.23-16.6-1.71-12.8-1.22-25.8-1.13-38.7 0.0208-3.51 0.0297-7.01 0.0397-10.5 0.0212-6.83 0.0552-13.7 0.0977-20.5h2c-0.118-3.97-0.242-7.94-0.372-11.9-0.0434-1.35-0.0851-2.7-0.125-4.05-0.0576-1.94-0.122-3.88-0.186-5.82-0.0367-1.17-0.0733-2.34-0.111-3.54 0.0939-2.6 0.0939-2.6-1.21-3.68-0.133-1.47-0.203-2.94-0.246-4.41-0.0329-0.908-0.0657-1.82-0.0996-2.75-0.0603-1.91-0.118-3.81-0.172-5.72-0.0342-0.917-0.0683-1.83-0.104-2.78-0.0251-0.832-0.0501-1.66-0.0759-2.52-0.244-2.99-0.244-2.99-1.31-6.45-1.35-5.17-1.28-10.3-1.26-15.6-0.00191-1.05-0.00383-2.1-0.0058-3.18-0.00135-2.2 0.00229-4.41 0.0107-6.61 0.0108-3.38 4.6e-5 -6.77-0.0127-10.2 0.00132-2.14 0.00388-4.29 0.00781-6.43-0.00405-1.01-0.0081-2.03-0.0123-3.07 0.0063-0.935 0.0126-1.87 0.0191-2.83 0.00159-0.824 0.00318-1.65 0.00482-2.5 0.254-2.01 0.254-2.01 2.25-4.01z" fill="#F6F7F9"/>
<path transform="translate(677 437)" d="m0 0c4.69 4.44 6.82 9.99 8.31 16.2-0.113 4.63-2.47 9.16-5 13-6.79 5.76-14.5 5.46-23 5-5.75-0.679-9.35-2.38-13-7-3.04-6.38-2.99-13.6-1-20.4 2.01-4.6 5.53-6.65 10-8.62 8.24-2.99 16.3-3.18 23.7 1.81z" fill="#000002"/>
<path transform="translate(649 1115)" d="m0 0c1.57 0.949 1.57 0.949 2.57 3.95h2c4.77 7.3 5.18 14.4 4 23-1.39 3.91-2.94 7.16-6 10-5.7 2.31-11.2 2.3-17.3 2.25-1.36 0.0116-1.36 0.0116-2.74 0.0234-0.864-0.00258-1.73-0.00516-2.62-0.00781-0.783-0.00226-1.57-0.00451-2.37-0.00684-1.95-0.259-1.95-0.259-3.95-2.26-0.175-2.8-0.231-5.49-0.195-8.29 0.00283-0.818 0.00566-1.64 0.00858-2.48 0.0112-2.62 0.0363-5.24 0.0617-7.86 0.01-1.77 0.0192-3.55 0.0273-5.32 0.0221-4.35 0.0566-8.7 0.0977-13.1 8.42-3.59 17.9-2.94 26.4 0.0508z" fill="#000002"/>
<path transform="translate(965,1109)" d="m0 0c3.37 2.79 5.23 4.69 6 9 0.66 0.33 1.32 0.66 2 1-3.74-0.365-5.82-0.876-8.94-3.06-6.07-3.77-15.2-2.48-22-1.54-2.27 0.384-2.27 0.384-3.23 2.47-0.433 1.05-0.433 1.05-0.875 2.12-0.474 0.454-0.949 0.908-1.44 1.38-4.11 4.27-4.8 8.36-4.94 14.1 0.128 4.88 0.38 8.47 3.38 12.5 4.86 4.51 4.86 4.51 11 6 0.33-1.65 0.66-3.3 1-5h2c-0.119-0.904-0.237-1.81-0.359-2.74-0.193-1.77-0.193-1.77-0.391-3.57-0.139-1.17-0.278-2.34-0.422-3.55 0.172-3.14 0.172-3.14 1.88-4.81 2.64-1.53 4.18-1.72 7.21-1.73 0.926-0.00387 1.85-0.00773 2.8-0.0117 1.44 0.0174 1.44 0.0174 2.91 0.0352 0.967-0.0116 1.93-0.0232 2.93-0.0352 0.923 0.00387 1.85 0.00773 2.8 0.0117 1.27 0.00508 1.27 0.00508 2.56 0.0103 0.69 0.128 1.38 0.256 2.09 0.388 3.32 4.97 2.2 10.5 1.38 16.2-0.811 3.73-1.15 4.55-4.12 7.19-1.07 0.516-2.14 1.03-3.25 1.56-0.908 0.557-1.82 1.11-2.75 1.69-3.78 1.53-7.04 1.76-11.1 1.91-1.08 0.201-1.08 0.201-2.17 0.406-2.3 3.44-2.54 5.94-3 10h-1c-0.0168-0.557-0.0335-1.11-0.0508-1.69-0.478-4.22-1.16-6.59-4.36-9.52-2.83-1.99-5.7-3.9-8.59-5.8-5.34-4.68-8.5-9.93-9.2-17-0.199-9.08 2.09-15.6 8.38-22.2 8.63-8.17 20.8-10.2 31.8-5.72z" fill="#F5F6F8"/>
<path transform="translate(63,1289)" d="m0 0h1c0.146 5.35 0.288 10.7 0.427 16 0.0476 1.81 0.0961 3.62 0.146 5.43 0.614 22.5 0.308 45-0.372 67.5-0.117 3.89-0.227 7.78-0.336 11.7-0.0851 3.01-0.175 6.03-0.265 9.04-0.0425 1.44-0.0836 2.87-0.123 4.31-0.0552 1.99-0.117 3.98-0.179 5.96-0.0333 1.13-0.0666 2.26-0.101 3.42-0.196 2.66-0.196 2.66-1.2 4.66-0.0862 1.94-0.107 3.87-0.0977 5.81 0.00495 1.83 0.00495 1.83 0.01 3.69 0.00412 0.652 0.00824 1.3 0.0125 1.98 0.0127 2.04 0.0193 4.08 0.0241 6.11 0.0114 4.32 0.0307 8.65 0.051 13 0.0236 5.01 0.044 10 0.0559 15 0.00651 2.01 0.019 4.03 0.0317 6.04 0.0033 1.21 0.00661 2.43 0.01 3.68 0.00524 1.08 0.0105 2.15 0.0159 3.26-0.114 2.42-0.114 2.42-1.11 3.42-0.368 2.33-0.702 4.66-1 7h-1c-2.59-18.8-4.65-37-4-56 0.0509-1.97 0.102-3.94 0.15-5.91 0.0872-3.47 0.186-6.93 0.287-10.4 0.0193-0.671 0.0386-1.34 0.0584-2.03 0.0571-1.9 0.122-3.8 0.188-5.7 0.0367-1.1 0.0733-2.2 0.111-3.33 0.205-2.62 0.205-2.62 1.21-4.62 0.538-4.88 0.778-9.79 1.06-14.7 0.0445-0.756 0.089-1.51 0.135-2.29 0.803-14.1 0.996-28.2 0.99-42.3 0.00122-1.45 0.00122-1.45 0.00247-2.92-0.00137-14.3-0.465-28.5-1.19-42.8 1.32 0.33 2.64 0.66 4 1 0.33-1.65 0.66-3.3 1-5z" fill="#F3F4F6"/>
<path transform="translate(611 685)" d="m0 0c4.4 2.37 6.59 5.08 9.3 9.2 2.61 3.11 5.68 3.75 9.52 4.8v4c-0.742-0.0206-1.49-0.0412-2.25-0.0625-2.56 0.0582-4.38 0.121-6.75 1.06-0.959 1.92-0.959 1.92-1.44 4.25-1.33 4.43-2.64 7.04-6.56 9.75-6.46 0.969-11.4-0.689-17-4-2.94-2.62-2.94-2.62-5-5l-2-2c-1.59-7.4-1.18-14.6 2.94-21.1 5.32-5 13.1-3.71 19.2-0.938z" fill="#000002"/>
<path transform="translate(611 475)" d="m0 0c0.962-0.00258 1.92-0.00516 2.91-0.00781 2.46 0.133 2.46 0.133 4.46 1.13v2h2c4.34 3.92 4.98 8.51 6.21 14 1.06 4.06 2.75 7.37 4.79 11-1.95 0.124-1.95 0.124-3.94 0.25-3.62 0.381-6.36 1.2-9.62 2.81-4.55 2.16-7.41 2.58-12.4 1.94-4.1-1.51-8.42-3.37-11-7-0.398-3.36-0.398-3.36-0.375-7.31-0.00773-1.3-0.0155-2.59-0.0234-3.93 0.618-5.83 2.86-10 7.4-13.8 3.22-1.08 6.25-1.13 9.62-1.12z" fill="#000002"/>
<path transform="translate(320 1007)" d="m0 0c1.48 1.78 2.88 3.58 4.24 5.46 0.418 0.54 0.835 1.08 1.27 1.64 4.27 6.68 3.8 15.7 2.73 23.4-1.93 6.31-6.31 11.6-12 15-6.13 1.54-12.4 1.18-18.7 1.19-1.87 0.0184-1.87 0.0184-3.78 0.0371-1.19 0.00193-2.38 0.00387-3.6 0.00586-1.63 0.00616-1.63 0.00616-3.3 0.0125-2.63-0.243-2.63-0.243-4.63-2.24-0.254-2.01-0.254-2.01-0.259-4.51-0.0063-0.934-0.0126-1.87-0.0191-2.83 0.00405-1.01 0.0081-2.02 0.0123-3.07-0.00191-1.04-0.00383-2.07-0.0058-3.14-0.00136-2.19 0.00234-4.38 0.0107-6.58 0.0107-3.36 1.07e-4 -6.73-0.0127-10.1 0.00132-2.13 0.00388-4.25 0.00781-6.38-0.00405-1.01-0.0081-2.02-0.0123-3.07 0.0063-0.934 0.0126-1.87 0.0191-2.83 0.00159-0.824 0.00318-1.65 0.00482-2.5 0.254-2.01 0.254-2.01 2.25-4.01 11.1-1.8 26.7-3.37 35.8 4.54zm-28 0.968c-1.88 0.242-1.88 0.242-3.8 0.49-0.0247 5.38-0.0428 10.8-0.0549 16.1-0.00504 1.83-0.0119 3.66-0.0205 5.49-0.0121 2.63-0.0178 5.25-0.0222 7.88-0.00516 0.821-0.0103 1.64-0.0156 2.49-0.11 4.14-0.11 4.14 1.11 8.02 3.37 0.0585 6.75 0.0937 10.1 0.125 0.951 0.0168 1.9 0.0335 2.88 0.0508 7.2 0.0544 7.2 0.0544 14-2.18 1.92-1.78 1.92-1.78 3.31-3.94 0.737-1.03 0.737-1.03 1.49-2.09 3.44-5.66 2.73-12.6 2.2-19-0.97-2.96-2.06-4.46-4-7-0.598-0.928-1.2-1.86-1.81-2.81-4.36-4.36-9.26-4.3-15.1-4.38-3.46 0.0233-6.83 0.256-10.3 0.698z" fill="#F6F7F9"/>
<path transform="translate(378,688)" d="m0 0c4.07 3.61 7.64 7.41 8.2 13 0.138 6.56-1.34 11.1-4.89 16.6-2.31 2.34-2.31 2.34-5.45 3-7.48-0.0822-14.2-0.247-19.9-5.66-1.55-2.69-2.2-4.95-3-8-0.959-2.33-0.959-2.33-4-4 1.05-0.124 2.1-0.247 3.19-0.375 2.83-0.769 3.64-1.35 5.21-3.88 0.817-1.79 1.62-3.59 2.42-5.39 1.53-3.05 3-4.16 6.18-5.35 4.24-1.34 7.73-1.25 12 0z" fill="#000002"/>
<path transform="translate(104,1112)" d="m0 0c1.31 2.69 1.31 2.69 2 5-1.69 0.688-1.69 0.688-4 1-2.5-1.38-2.5-1.38-5-3-3.63-1.25-7.19-1.13-11-1.12-1.22-0.00258-2.43-0.00516-3.69-0.00781-3.76 0.121-3.76 0.121-7.31 1.13-0.99 1.48-0.99 1.48-2 3h-2c0.103 1.28 0.206 2.56 0.312 3.88 0.087 1.08 0.087 1.08 0.176 2.18 0.386 2.34 0.386 2.34 3.51 3.95 2.38 0.361 2.38 0.361 5.04 0.422 0.992 0.0567 1.98 0.113 3.01 0.172 2.07 0.103 4.15 0.192 6.22 0.266 7.14 0.443 11.7 1.98 16.7 7.14 3.11 3.8 3.48 5.99 3.28 10.8-0.584 4.59-2.88 7.05-6.34 9.86-8.18 5.42-17.6 4.57-26.9 3.31-1.34-0.305-2.68-0.626-4-1v-2c-0.743-0.268-1.48-0.536-2.25-0.812-2.75-1.19-2.75-1.19-4.88-2.81-1.89-1.67-1.89-1.67-4.88-1.38 0.495-2.97 0.495-2.97 1-6h4v2c0.908 0.289 1.82 0.578 2.75 0.875 2.57 0.89 4.86 1.84 7.25 3.12v2c3.23 0.0583 6.46 0.0937 9.69 0.125 0.912 0.0168 1.82 0.0335 2.76 0.0508 6.51 0.0855 6.51 0.0855 12.5-2.18 2.51-2.51 2.3-3.47 2.31-6.94 0.0168-0.875 0.0335-1.75 0.0508-2.65-0.442-2.93-1.04-3.62-3.36-5.41-2.28-0.439-2.28-0.439-4.82-0.371-0.947-0.0174-1.89-0.0348-2.87-0.0527-1.98-0.00903-3.95-0.0143-5.93-0.0156-7.69-0.151-13.2-1.58-18.9-6.87-2-3.58-2.06-5.64-1.5-9.69 2.57-6.2 5.99-9.11 12-12 8.16-2.65 20.2-1.55 27 4z" fill="#F6F7F9"/>
<path transform="translate(399 1e3)" d="m0 0c1.56 3.17e-4 3.11 0.0116 4.67 0.0317 1.23 0.00424 1.23 0.00424 2.48 0.00858 2.62 0.0112 5.24 0.0363 7.86 0.0617 1.77 0.01 3.55 0.0192 5.32 0.0273 4.35 0.0221 8.7 0.0566 13.1 0.0977 0.495 2.48 0.495 2.48 1 5-3.65 1.12-7.15 1.2-11 1.32-0.66 0.0208-1.32 0.0416-2 0.063-2.1 0.0651-4.2 0.124-6.3 0.183-1.43 0.0432-2.85 0.0868-4.28 0.131-3.49 0.107-6.98 0.208-10.5 0.307-0.027 1.94-0.0464 3.87-0.0625 5.81-0.0116 1.08-0.0232 2.16-0.0352 3.27-0.0386 2.98-0.0386 2.98 1.1 5.92h16c0.33 1.65 0.66 3.3 1 5-8.42 0.495-8.42 0.495-17 1-1.36 2.72-1.13 4.91-1.12 7.94-0.00258 1.06-0.00516 2.12-0.00781 3.21 0.00712 2.92 0.00712 2.92 1.13 5.85h33c0.968 3.87 1.08 7.04 1 11-0.897-0.712-0.897-0.712-1.81-1.44-3.9-1.91-7.18-2.1-11.5-2.38-2.71-0.188-2.71-0.188-6.53-0.812-3.36-0.395-5.88 0.00499-9.19 0.625-4.67 0.246-7.74-0.158-12-2-0.0506-6.8-0.0857-13.6-0.11-20.4-0.0101-2.31-0.0237-4.63-0.041-6.94-0.0242-3.32-0.0356-6.64-0.0444-9.96-0.0103-1.04-0.0206-2.08-0.0313-3.15-1.51e-4 -0.961-3.02e-4 -1.92-4.58e-4 -2.91-0.00444-0.848-0.00888-1.7-0.0135-2.57 0.461-3.96 2.13-4.06 5.86-4.29z" fill="#F6F7F9"/>
<path transform="translate(615,1407)" d="m0 0h1c0.309 1.11 0.619 2.23 0.938 3.38 0.886 3.42 0.886 3.42 2.06 5.62 0.0854 2.11 0.107 4.21 0.0977 6.32-0.00322 1.26-0.00645 2.51-0.00977 3.81-0.00838 1.32-0.0168 2.64-0.0254 4-0.00502 1.34-0.00958 2.68-0.0137 4.02-0.0118 3.29-0.0283 6.57-0.0488 9.86h2v14h-2c0.0838 1.22 0.168 2.43 0.254 3.68 0.103 1.58 0.206 3.17 0.309 4.75 0.0561 0.802 0.112 1.6 0.17 2.43 0.129 2.04 0.203 4.09 0.268 6.13-0.495 0.495-0.495 0.495-1 1-0.0406 1.67-0.0427 3.33 0 5 0.66 0.33 1.32 0.66 2 1-0.239 1.73-0.239 1.73-0.482 3.5-0.519 4.17-0.717 8.31-0.799 12.5-0.018 0.749-0.0361 1.5-0.0547 2.27-0.0382 1.6-0.0747 3.2-0.11 4.8-0.0739 3.38-0.158 6.75-0.241 10.1-0.0425 1.73-0.0846 3.45-0.126 5.18-0.186 7.71-0.391 15.4-0.627 23.1-0.059 1.96-0.113 3.92-0.168 5.88-0.0367 1.19-0.0735 2.37-0.111 3.59-0.0303 1.03-0.0606 2.05-0.0918 3.11-0.196 3.03-0.641 5.94-1.19 8.92h-1c-0.85-3.7-1.14-7.14-1.17-10.9-0.0136-1.18-0.0271-2.36-0.0411-3.57-0.0104-1.27-0.0207-2.55-0.0314-3.86-0.0149-1.34-0.0304-2.68-0.0465-4.02-0.0338-2.84-0.0657-5.68-0.0961-8.51-0.224-27.9-0.224-27.9-1.67-55.7-0.886-11.6-1.13-23-1.12-34.6-8.16e-4 -0.807-0.00163-1.61-0.00247-2.44 0.00289-25 0.00289-25 3.19-34.3z" fill="#202323"/>
<path transform="translate(435,1320)" d="m0 0c1.32 0.33 2.64 0.66 4 1 1.58 11.3 1.1 22.6 0.647 34-0.951 24-0.762 48-0.716 72 0.0104 6 0.0148 12 0.0198 18 0.0106 11.7 0.0276 23.4 0.0488 35.1-0.99-0.66-1.98-1.32-3-2h-2c-1.74-3.47-1.14-7.5-1.13-11.3-0.00136-0.983-0.00273-1.97-0.00414-2.98-0.00207-3.31 0.00441-6.63 0.0119-9.94 0.00122-1.15 0.00244-2.3 0.00369-3.48 0.025-20.4 0.241-40.9 0.527-61.3 0.0308-2.2 0.0607-4.4 0.0906-6.61 0.286-20.8 0.812-41.6 1.5-62.4z" fill="#F6F7F9"/>
<path transform="translate(549,1499)" d="m0 0c2 3 2 3 2.5 5.12 0.165 0.619 0.33 1.24 0.5 1.88 0.66 0.33 1.32 0.66 2 1 0.353 17.8 0.353 17.8-1.55 26.7-0.973 5-0.515 9.84 0.117 14.9 0.571 5.6 0.165 10.9-0.441 16.5-0.0915 0.948-0.183 1.9-0.277 2.87-0.705 6.92-0.705 6.92-1.85 8.06-0.0721 1.69-0.0839 3.38-0.0625 5.06 0.0135 1.38 0.0135 1.38 0.0273 2.79 0.0116 0.71 0.0232 1.42 0.0352 2.15-2.31-0.33-4.62-0.66-7-1-0.049-1.19-0.098-2.39-0.148-3.62-0.266-9.62-0.266-9.62-1.85-19.1-3.46-13.5-2.12-28.5-2-42.3 0.454 0.495 0.908 0.99 1.38 1.5 1.5 1.73 1.5 1.73 3.62 1.5 1.61 3.21 1.06 6.44 1 10h3c-0.00524-0.888-0.0105-1.78-0.0159-2.69-0.0171-3.3-0.0296-6.6-0.0391-9.91-0.00502-1.43-0.0118-2.86-0.0205-4.28-0.0122-2.06-0.0178-4.11-0.0222-6.17-0.00524-1.24-0.0105-2.47-0.0159-3.75 0.0928-2.62 0.33-4.72 1.11-7.21z" fill="#010506"/>
<path transform="translate(379,474)" d="m0 0c3.54 2.44 4.71 4.29 6.31 8.25 1.63 8.9 0.849 15-4.25 22.7-4.79 3.23-9.46 2.75-15.1 2.06-4.19-1.08-6.53-2.3-9-6 0.108-1.91 0.108-1.91 0.609-4.05 0.178-0.78 0.356-1.56 0.539-2.36 0.199-0.811 0.397-1.62 0.602-2.46 0.183-0.803 0.366-1.61 0.555-2.43 2.47-10.6 2.47-10.6 6.2-14 4.62-2.23 8.45-2.65 13.5-1.69z" fill="#000002"/>
<path transform="translate(710 1e3)" d="m0 0c1.32 0.66 2.64 1.32 4 2 0.0606 1.29 0.121 2.58 0.184 3.9 0.0844 1.68 0.169 3.36 0.254 5.04 0.0393 0.85 0.0786 1.7 0.119 2.58 0.0419 0.809 0.0838 1.62 0.127 2.45 0.0367 0.749 0.0733 1.5 0.111 2.27 0.023 1.79 0.023 1.79 1.21 2.77 4.47 0.386 8.96 0.47 13.4 0.625 1.9 0.0773 1.9 0.0773 3.84 0.156 1.21 0.0438 2.41 0.0877 3.66 0.133 1.11 0.0408 2.23 0.0815 3.38 0.124 2.66 0.158 2.66 0.158 4.69-1.04 0.0251-0.565 0.0501-1.13 0.0759-1.71 0.116-2.55 0.239-5.11 0.362-7.66 0.0393-0.889 0.0786-1.78 0.119-2.7 0.0628-1.28 0.0628-1.28 0.127-2.58 0.0367-0.786 0.0733-1.57 0.111-2.38 0.205-1.97 0.205-1.97 1.21-3.97 3.88 0.875 3.88 0.875 5 2 0.0931 1.5 0.117 3.01 0.114 4.52-7.55e-5 0.961-1.51e-4 1.92-2.29e-4 2.91-0.00516 1.04-0.0103 2.09-0.0156 3.17-0.00141 1.06-0.00283 2.13-0.00429 3.22-0.00562 3.41-0.0182 6.83-0.0309 10.2-0.00501 2.31-0.00958 4.62-0.0137 6.92-0.0111 5.67-0.0278 11.3-0.0488 17-1.88 0.625-1.88 0.625-4 1-2.48-2.48-2.28-3.33-2.38-6.75-0.0342-0.937-0.0683-1.87-0.104-2.84-0.0264-0.98-0.0529-1.96-0.0801-2.97-0.0597-1.94-0.123-3.88-0.191-5.82-0.0239-0.862-0.0479-1.72-0.0725-2.61 0.0438-2.01 0.0438-2.01-1.17-3.01-1.61-0.0992-3.23-0.131-4.84-0.133-0.98-0.00129-1.96-0.00258-2.97-0.00391-1.03 0.00387-2.06 0.00773-3.13 0.0117-1.03-0.00387-2.06-0.00773-3.12-0.0117-1.47 0.00193-1.47 0.00193-2.97 0.00391-1.36 0.00169-1.36 0.00169-2.74 0.00342-2.27-0.0156-2.27-0.0156-4.23 1.13h-6v22h-4c-2.09-3.14-2.25-3.86-2.26-7.44-0.0063-0.894-0.0126-1.79-0.0191-2.71 0.00405-0.963 0.0081-1.93 0.0123-2.92-0.00191-0.99-0.00383-1.98-0.0058-3-0.00136-2.09 0.00233-4.18 0.0107-6.28 0.0107-3.21 9.6e-5 -6.42-0.0127-9.63 0.00132-2.03 0.00388-4.06 0.00781-6.09-0.00405-0.965-0.0081-1.93-0.0123-2.92 0.0063-0.891 0.0126-1.78 0.0191-2.7 0.00239-1.18 0.00239-1.18 0.00482-2.38 0.254-1.93 0.254-1.93 2.25-3.93z" fill="#F6F7F9"/>
<path transform="translate(608,1282)" d="m0 0h3c-0.0722 0.795-0.144 1.59-0.219 2.41-0.704 9.14-0.918 18.3-0.958 27.4-0.00678 1.37-0.017 2.75-0.0308 4.12-0.377 13.8-0.377 13.8 5.21 26 0.394 2.32 0.735 4.66 1 7 0.33 0.33 0.66 0.66 1 1 2.81 14.5 3.21 29.5 4.19 44.1 0.0454 0.674 0.0909 1.35 0.138 2.04 1.5 22.4 2.06 44.4 0.675 66.8-0.0926 1.58-0.185 3.17-0.276 4.75-0.236 4.08-0.479 8.17-0.724 12.3-0.124-0.639-0.247-1.28-0.375-1.94-0.206-0.681-0.413-1.36-0.625-2.06-0.66-0.33-1.32-0.66-2-1h2c-0.165-1.13-0.33-2.27-0.5-3.44-0.576-4.53-0.595-9-0.5-13.6h2c-0.33-2.97-0.66-5.94-1-9h-1c-0.931-3.91-1.09-7.49-1.03-11.5 0.0122-1.23 0.0245-2.47 0.0371-3.74 0.0353-2.59 0.0743-5.19 0.117-7.78 0.011-1.23 0.0219-2.46 0.0332-3.73 0.0253-1.69 0.0253-1.69 0.051-3.41 0.00663-3.04 0.00663-3.04-2.21-5.83-0.893-4.05-1.12-7.91-1.1-12.1 0.00322-1.11 0.00645-2.22 0.00977-3.36 0.00838-1.14 0.0168-2.28 0.0254-3.46 0.00451-1.17 0.00902-2.33 0.0137-3.53 0.0117-2.86 0.0282-5.73 0.0488-8.59h2c-0.582-5.31-0.582-5.31-3-10-0.368-2.72-0.65-5.39-0.875-8.12-0.626-6.52-1.6-12.8-3.12-19.2-0.249-1.05-0.249-1.05-0.503-2.12-0.676-2.72-1.37-5.3-2.54-7.85-1.19-3.42-1.19-6.28-1.18-9.91 4.58e-4 -0.69 9.16e-4 -1.38 0.00139-2.09 0.00301-1.46 0.0109-2.92 0.0233-4.38 0.018-2.18 0.0205-4.36 0.0203-6.54 0.0634-25.6 0.0634-25.6 2.19-29.8z" fill="#F2F3F5"/>
<path transform="translate(316,1117)" d="m0 0c1.22 2.44 1.24 4.21 1.31 6.94 0.0561 1.31 0.0561 1.31 0.113 2.65-0.426 2.41-0.426 2.41-2.03 4.04-3.19 1.82-5.47 1.71-9.13 1.66-1.3-0.00967-2.59-0.0193-3.93-0.0293-1.36-0.0251-2.73-0.0505-4.09-0.0762-1.38-0.0151-2.76-0.0287-4.14-0.041-3.37-0.0354-6.74-0.0847-10.1-0.146-1.11-3.91-0.901-7.19-0.562-11.2 0.102-1.26 0.204-2.53 0.309-3.83 0.0838-0.964 0.168-1.93 0.254-2.92 4.39-0.284 8.79-0.521 13.2-0.75 1.87-0.122 1.87-0.122 3.78-0.246 1.2-0.058 2.4-0.116 3.64-0.176 1.1-0.0628 2.21-0.126 3.35-0.19 3.79 0.451 5.35 1.73 8.05 4.36z" fill="#000002"/>
<path transform="translate(201,1435)" d="m0 0v10h1c0.0103 0.559 0.0206 1.12 0.0312 1.69 0.11 5.92 0.224 11.8 0.341 17.8 0.0428 2.2 0.0845 4.4 0.125 6.59 0.321 17.3 0.68 34.7 2.5 51.9-0.33-0.66-0.66-1.32-1-2h-3c-0.66 10.2-1.32 20.5-2 31h-1c-0.346-5.62-0.679-11.2-1-16.9-0.072-1.26-0.072-1.26-0.146-2.55-0.655-11.7-0.961-23.2-0.815-34.9 0.0602-7.76-0.541-15.3-1.6-23-1.11-9.37-1.11-9.37 0.562-12.7h2c-0.0722-0.643-0.144-1.29-0.219-1.95-0.549-5.34-0.931-10.7-1.09-16.1-0.0374-1.07-0.0748-2.14-0.113-3.25 0.426-2.75 0.426-2.75 2.38-4.62 2.04-1.12 2.04-1.12 3.04-1.12z" fill="#272A2A"/>
<path transform="translate(60,1155)" d="m0 0h1c0.66 2.97 1.32 5.94 2 9h2c-0.33 0.99-0.66 1.98-1 3-0.0912 1.34-0.131 2.68-0.133 4.02-0.00129 0.775-0.00258 1.55-0.00391 2.35 0.00387 0.806 0.00773 1.61 0.0117 2.44-0.00387 0.795-0.00773 1.59-0.0117 2.41 0.00129 0.779 0.00258 1.56 0.00391 2.36 0.00113 0.704 0.00226 1.41 0.00342 2.13 0.0808 2.35 0.0808 2.35 0.636 4.87 0.601 4.16 0.581 8.16 0.515 12.4-0.00961 0.879-0.0192 1.76-0.0291 2.66-0.0328 2.89-0.0732 5.78-0.114 8.67-0.0243 2.01-0.0482 4.02-0.0715 6.03-0.0627 5.28-0.132 10.6-0.202 15.8-0.0708 5.39-0.136 10.8-0.201 16.2-0.129 10.6-0.264 21.1-0.404 31.7h-1c-0.293-3.03-0.293-3.03-0.586-6.05-0.278-2.17-0.278-2.17-2.41-3.95-1.96-11.8-1.15-24.4-1.13-36.4-6.75e-4 -2.14-0.00165-4.29-0.0029-6.43-0.00147-4.46 6.41e-4 -8.92 0.00534-13.4 0.00573-5.72 0.00239-11.4-0.00357-17.1-0.00361-4.41-0.00246-8.82 1.28e-4 -13.2 6.66e-4 -2.11-1.48e-4 -4.22-0.00248-6.33-0.00254-2.94 0.00133-5.88 0.0069-8.81-0.00202-0.867-0.00405-1.73-0.00613-2.63 0.0141-4.01 0.135-7.71 1.14-11.6z" fill="#F6F7F9"/>
<path transform="translate(666,689)" d="m0 0c3.83 2.22 5.92 4.77 7.5 8.93 0.962 3.95 1.22 8.06 0.504 12.1-2.41 3.23-5.35 3.98-9.06 5.16-2.17 0.945-3.38 2.09-4.94 3.84-1.71-1.62-3.37-3.29-5-5v-2c-0.639-0.309-1.28-0.619-1.94-0.938-2.06-1.06-2.06-1.06-3.06-2.06-0.179-2.1-0.268-4.21-0.312-6.31-0.0374-1.15-0.0748-2.3-0.113-3.49 0.51-3.83 1.43-4.86 4.43-7.2 4.12-2.51 7.17-3.72 12-3z" fill="#000002"/>
<path transform="translate(194,1341)" d="m0 0h3c-0.162 1.15-0.325 2.3-0.492 3.49-0.529 4.25-0.653 8.46-0.641 12.7-0.00141 0.777-0.00282 1.55-0.00427 2.35-0.00213 2.53 0.00417 5.07 0.0121 7.6 0.00155 0.871 0.0031 1.74 0.0047 2.64 0.0257 12.4 0.15 24.8 0.44 37.2 0.0367 1.58 0.0707 3.15 0.102 4.73 0.158 7.66 0.353 15 2.36 22.5 0.0727 0.593 0.145 1.19 0.22 1.8-0.99 0.99-0.99 0.99-2 2-0.278 2.52-0.278 2.52-0.195 5.45 0.00645 1.08 0.0129 2.15 0.0195 3.26 0.0168 1.13 0.0335 2.26 0.0508 3.42 0.0135 1.7 0.0135 1.7 0.0273 3.44 0.0236 2.81 0.0566 5.62 0.0977 8.43h-2c-1.28-2.55-1.28-4.58-1.46-7.43-0.0769-1.17-0.154-2.33-0.233-3.53-0.119-1.94-0.119-1.94-0.24-3.91-0.0624-1-0.0624-1-0.126-2.02-4.79-77.1-4.79-77.1-0.936-102h2v-2z" fill="#F0F1F3"/>
<path transform="translate(307,492)" d="m0 0h19c4.94 8.64 4.94 8.64 4 14-2.61 4.7-5.89 9-11 11-3.81 0.188-3.81 0.188-7 0v-2h-2c-2.38-6.91-3.95-13.7-4-21 0.33-0.66 0.66-1.32 1-2z" fill="#010506"/>
<path transform="translate(739,1327)" d="m0 0c-0.126 1.56-0.126 1.56-0.254 3.15-1.48 12.7-1.48 12.7 1.25 24.9 0.187 2.69 0.0858 5.3 0 8-0.495 0.495-0.495 0.495-1 1h1c0.168 1.96 0.334 3.92 0.5 5.88 0.0928 1.09 0.186 2.18 0.281 3.3 1.02 13.1 0.219 26.6 0.219 39.8h-1c-0.66 21.5-1.32 42.9-2 65h-1c-0.53-19.1-0.974-38.1-1.25-57.2-0.0104-0.701-0.0207-1.4-0.0314-2.12-0.104-7.03-0.204-14.1-0.295-21.1-0.0439-3.33-0.0907-6.66-0.138-10-0.0184-1.29-0.0368-2.59-0.0557-3.92-0.105-6.6-0.26-13.2-0.508-19.8-0.0491-1.31-0.0983-2.62-0.149-3.97-0.0973-2.47-0.2-4.94-0.31-7.41-0.332-8.19-0.512-16.5 1.74-24.5 2-1 2-1 3-1z" fill="#F6F7F9"/>
<path transform="translate(190,1385)" d="m0 0h1c0.0354 0.783 0.0707 1.57 0.107 2.37 0.336 7.44 0.674 14.9 1.01 22.3 0.175 3.82 0.349 7.65 0.521 11.5 0.167 3.7 0.336 7.4 0.506 11.1 0.064 1.4 0.127 2.8 0.19 4.2 0.364 8.12 0.822 16.2 1.47 24.3 0.205 3.41 0.209 6.79 0.192 10.2 0.126 1.52 0.279 3.04 0.473 4.55 0.0947 0.781 0.189 1.56 0.287 2.37 0.204 1.62 0.41 3.23 0.617 4.85 0.727 6.02 0.727 6.02-0.377 8.23-4.75-0.875-4.75-0.875-7-2-0.287-7.99-0.565-16-0.834-24-0.125-3.71-0.253-7.42-0.387-11.1-0.13-3.59-0.252-7.18-0.37-10.8-0.0678-2.01-0.143-4.03-0.218-6.04-0.672-21.1-0.672-21.1 1.81-26.1 0.154-1.96 0.25-3.92 0.316-5.88 0.0419-1.17 0.0838-2.33 0.127-3.54 0.059-1.83 0.059-1.83 0.119-3.71 0.0432-1.23 0.0864-2.46 0.131-3.73 0.106-3.05 0.208-6.1 0.307-9.14z" fill="#020607"/>
<path transform="translate(546,1211)" d="m0 0h1c0.0251 0.775 0.0501 1.55 0.0759 2.35 0.118 3.59 0.24 7.18 0.362 10.8 0.0393 1.22 0.0786 2.44 0.119 3.69 0.2 5.81 0.462 11.6 0.967 17.4 0.884 11.8 0.671 23.7 0.664 35.6 7.25e-4 1.28 0.00145 2.57 0.0022 3.89-0.00126 20.2-0.511 40.2-2.19 60.4h-1c-0.832-5.72-1.12-11.2-1-17h2c-0.322-0.772-0.644-1.54-0.976-2.34-1.34-4.79-1.36-9.27-1.4-14.2-0.017-1.02-0.034-2.04-0.0515-3.09-0.0529-3.26-0.0933-6.52-0.132-9.78-0.0586-4.27-0.123-8.54-0.191-12.8-0.0161-1.03-0.0321-2.06-0.0487-3.12-0.122-6.84-0.461-13.6-0.977-20.4-0.337-4.88-0.404-9.74-0.408-14.6-0.0184-1.37-0.0184-1.37-0.0371-2.77-0.0105-4.88 0.41-9.09 1.75-13.8 0.901-3.78 0.952-7.64 1.1-11.5 0.0387-0.822 0.0773-1.64 0.117-2.49 0.0931-2 0.177-4.01 0.258-6.01z" fill="#F6F7F9"/>
<path transform="translate(314,693)" d="m0 0c4.27-0.418 6.29-0.547 9.75 2.12 4.96 6.34 5.59 10.9 5.65 18.9-0.439 3.33-0.954 4.74-3.4 7.02-3.06 0.831-5.91 0.642-9 0-3.1-2.44-4.82-4.73-7-8-0.892-7.68-0.666-13.7 4-20z" fill="#000002"/>
<path transform="translate(547,1150)" d="m0 0c1.49 0.99 1.49 0.99 3 2 0.505 2.84 0.839 5.51 1.06 8.38 0.151 1.66 0.304 3.31 0.461 4.97 0.0757 0.806 0.151 1.61 0.229 2.44 0.306 2.74 0.854 5.4 1.43 8.09 1.38 7.8 0.523 15.6-0.0186 23.5-0.167 2.62-0.29 5.24-0.396 7.86-0.408 10-1.22 19.9-2.77 29.8-1.49 0.495-1.49 0.495-3 1-0.154-11.2-0.302-22.4-0.443-33.5-0.0657-5.19-0.133-10.4-0.205-15.6-0.0693-5.01-0.134-10-0.195-15-0.0241-1.91-0.0501-3.83-0.0778-5.74-0.0385-2.67-0.0706-5.34-0.101-8.02-0.0129-0.797-0.0259-1.59-0.0392-2.42-0.0531-5.48-0.0531-5.48 1.06-7.71z" fill="#010506"/>
<path transform="translate(671 494)" d="m0 0c1.87-0.0387 1.87-0.0387 3.79-0.0781 1.04 0.108 2.08 0.217 3.15 0.328 2 3 2 3 1.61 6-0.284 1.14-0.567 2.27-0.859 3.44-0.273 1.13-0.547 2.27-0.828 3.43-0.766 2.6-1.6 4.78-2.92 7.13-2.42 0.108-4.83 0.187-7.25 0.25-1.02 0.0503-1.02 0.0503-2.07 0.102-3.38 0.0656-5.33-0.105-8.13-2.06-2.65-3.91-2.42-7.75-1.55-12.3 4.33-5.74 8.17-6.16 15.1-6.25z" fill="#000002"/>
<path transform="translate(542,1345)" d="m0 0h4c1.23 3.69 1.1 7.08 1.06 10.9-0.00859 1.66-0.017 3.33-0.0254 4.99-0.0062 0.88-0.0124 1.76-0.0188 2.67-0.105 15.7 0.0312 31.3 0.482 47 0.024 0.836 0.048 1.67 0.0728 2.53 0.135 4.63 0.277 9.27 0.427 13.9h-1v-7h-2v-7c-1.58 1.58-1.35 3.38-1.56 5.56-0.0838 0.826-0.168 1.65-0.254 2.5-0.0606 0.638-0.121 1.28-0.184 1.93h-1c-1-8.75-1.15-17.4-1.13-26.2-6.75e-4 -1.44-0.00165-2.87-0.0029-4.31-0.00146-2.99 6.34e-4 -5.97 0.00534-8.96 0.00574-3.83 0.00238-7.66-0.00357-11.5-0.00361-2.96-0.00247-5.91 1.28e-4 -8.87 6.67e-4 -1.41-1.51e-4 -2.83-0.00248-4.24-0.00253-1.96 0.00201-3.93 0.0069-5.89 7.96e-4 -1.12 0.00159-2.23 0.00241-3.39 0.127-2.63 0.127-2.63 1.13-4.63z" fill="#F6F7F9"/>
<path transform="translate(735,1108)" d="m0 0c0.99 0.66 1.98 1.32 3 2 0.327 2.94 0.465 5.69 0.477 8.64 0.0156 0.872 0.0312 1.74 0.0472 2.64 0.0476 2.8 0.0752 5.61 0.101 8.41 0.0488 3.65 0.106 7.3 0.164 10.9 0.0129 0.894 0.0258 1.79 0.039 2.71 0.107 6.44 0.478 12.8 0.958 19.2 0.342 5.45 0.321 10.9 0.276 16.3-0.00451 1.08-0.00902 2.15-0.0137 3.26-0.0116 2.6-0.0278 5.2-0.0488 7.8h-2c-2.1-3.14-2.26-4-2.34-7.61-0.0296-0.902-0.0593-1.8-0.0898-2.73-0.0219-0.94-0.0438-1.88-0.0664-2.85-0.044-1.85-0.0959-3.7-0.156-5.54-0.028-1.23-0.028-1.23-0.0566-2.48-0.227-2.96-0.227-2.96-1.29-6.42-1.35-5.17-1.28-10.3-1.26-15.6-0.00191-1.05-0.00383-2.1-0.0058-3.18-0.00135-2.2 0.00229-4.41 0.0107-6.61 0.0108-3.38 4.6e-5 -6.77-0.0127-10.2 0.00132-2.14 0.00388-4.29 0.00781-6.43-0.00405-1.01-0.0081-2.03-0.0123-3.07 0.0063-0.935 0.0126-1.87 0.0191-2.83 0.00159-0.824 0.00318-1.65 0.00482-2.5 0.254-2.01 0.254-2.01 2.25-4.01z" fill="#F5F6F8"/>
<path transform="translate(739,1394)" d="m0 0h1c0.0251 0.574 0.0501 1.15 0.0759 1.74 0.117 2.63 0.239 5.26 0.362 7.88 0.0393 0.904 0.0786 1.81 0.119 2.74 0.173 3.64 0.367 7.18 0.971 10.8 0.604 3.65 0.618 7.23 0.598 10.9 0.00387 0.675 0.00773 1.35 0.0117 2.04-0.00778 4.21-0.245 8.36-0.614 12.6-0.602 7.66-0.801 15.3-0.969 23-0.0557 2.55-0.116 5.1-0.177 7.64-0.151 6.32-0.296 12.6-0.439 18.9-0.122 5.37-0.247 10.7-0.377 16.1-0.0593 2.5-0.114 5.01-0.168 7.51-0.0368 1.53-0.0739 3.07-0.111 4.6-0.0135 0.691-0.0271 1.38-0.041 2.09-0.0932 3.58-0.411 6.94-1.24 10.4h-1c-1.02-5.04-1.14-9.83-1.11-14.9-1.46e-4 -0.879-2.92e-4 -1.76-4.43e-4 -2.66 6.94e-4 -2.89 0.00846-5.78 0.0163-8.67 0.00187-2.01 0.00329-4.02 0.00429-6.03 0.00381-5.28 0.0136-10.6 0.0247-15.8 0.0102-5.39 0.0148-10.8 0.0198-16.2 0.0107-10.6 0.0278-21.1 0.0488-31.7 0.66 0.66 1.32 1.32 2 2 0.33-14.8 0.66-29.7 1-45z" fill="#212424"/>
<path transform="translate(436,1472)" d="m0 0h1c1.49 5.33 2.25 9.99 2.27 15.6 0.00511 0.708 0.0102 1.42 0.0155 2.15 0.0138 2.31 0.013 4.62 0.0106 6.94 0.00389 1.62 0.00823 3.24 0.013 4.85 0.00743 3.38 0.00719 6.75 0.00191 10.1-0.00582 4.33 0.0112 8.66 0.0343 13 0.0147 3.33 0.0156 6.67 0.0125 10 5.14e-4 1.6 0.00576 3.19 0.0158 4.79 0.0123 2.23 0.00561 4.45-0.00601 6.68 6.29e-4 1.27 0.00126 2.53 0.00191 3.84-0.374 3.08-0.374 3.08-1.9 5.01-0.487 0.352-0.975 0.705-1.48 1.07-2-2-2-2-2.21-4.02 0.0168-0.808 0.0337-1.62 0.051-2.45 0.0164-1.32 0.0164-1.32 0.0332-2.67 0.0213-0.924 0.0425-1.85 0.0645-2.8 0.0345-1.82 0.0646-3.64 0.0898-5.46 0.018-0.809 0.0359-1.62 0.0544-2.45 0.0113-2.33 0.0113-2.33-1.08-5.14-0.0881-1.79-0.118-3.59-0.114-5.39 7.55e-5 -1.1 1.51e-4 -2.2 2.29e-4 -3.34 0.00516-1.19 0.0103-2.38 0.0156-3.6 0.00141-1.22 0.00283-2.43 0.00429-3.69 0.00561-3.89 0.0182-7.78 0.0309-11.7 0.00501-2.64 0.00958-5.27 0.0137-7.91 0.011-6.47 0.0278-12.9 0.0488-19.4 0.33 0.66 0.66 1.32 1 2h2v-6z" fill="#202323"/>
<path transform="translate(612,1275)" d="m0 0h1c2.19 6.18 2.25 11.8 2.16 18.3-0.0052 1.07-0.0104 2.15-0.0158 3.25-0.0177 3.41-0.0489 6.82-0.0819 10.2-0.0276 3.43-0.0523 6.86-0.0712 10.3-0.0123 2.13-0.0299 4.26-0.0533 6.39-0.00653 0.958-0.0131 1.92-0.0198 2.9-0.00825 0.845-0.0165 1.69-0.025 2.56-0.0271 2.12-0.0271 2.12 1.11 4.05 0.0695 1.54 0.0845 3.08 0.0625 4.62-0.00902 0.817-0.018 1.63-0.0273 2.48-0.0116 0.626-0.0232 1.25-0.0352 1.9-3.85-1.72-3.85-1.72-5.19-4.25-1.54-5.22-1.94-10.2-1.95-15.6-0.00129-1.32-0.00258-2.63-0.00391-3.99 0.00209-0.681 0.00419-1.36 0.00635-2.06 0.00528-2.04 7.61e-5 -4.08-0.00635-6.11-0.00689-11.8 0.171-23.5 3.14-35z" fill="#202323"/>
<path transform="translate(57,1469)" d="m0 0h1c0.33 2.97 0.66 5.94 1 9h4v87h-3c0.0116-1.1 0.0232-2.19 0.0352-3.32 0.00938-1.45 0.0185-2.91 0.0273-4.36 0.0126-1.08 0.0126-1.08 0.0254-2.19 0.0175-3.84-0.153-7.39-1.09-11.1h2c-0.322-0.813-0.644-1.63-0.976-2.46-1.2-4.15-1.36-7.82-1.4-12.1-0.0167-0.827-0.0334-1.65-0.0505-2.51-0.0526-2.68-0.0927-5.37-0.133-8.05-0.052-2.77-0.107-5.54-0.163-8.32-0.0371-1.85-0.0732-3.71-0.108-5.56-0.158-8.19-0.419-16.4-0.729-24.6-0.0439-1.18-0.0878-2.35-0.133-3.56-0.0994-2.63-0.201-5.25-0.304-7.88z" fill="#212424"/>
<path transform="translate(960 1137)" d="m0 0c0.837-0.0142 1.67-0.0284 2.54-0.043 2.57 0.247 4.19 0.937 6.4 2.23 0.286 8.57 0.286 8.57-2 12h-2c-0.33 0.99-0.66 1.98-1 3-3.03 1.19-6.02 1.1-9.25 1.06-1.57-0.0206-3.13-0.0412-4.75-0.0625v-17c3.62-0.724 6.46-1.16 10.1-1.19z" fill="#020607"/>
<path transform="translate(201,1521)" d="m0 0h3c0.309 0.949 0.619 1.9 0.938 2.88 0.936 2.99 0.936 2.99 2.06 5.12 0.0162 1.74-0.035 3.49-0.121 5.23l-0.146 3.12c-0.0561 1.08-0.112 2.16-0.17 3.27-0.0522 1.09-0.104 2.18-0.158 3.3-0.13 2.69-0.265 5.39-0.404 8.08h-2c-0.11 0.86-0.219 1.72-0.332 2.61-1.11 8.27-2.65 16.3-4.67 24.4h-1c-0.622-14.3-1.18-28.6-1-43 0.66 0.66 1.32 1.32 2 2 0.0606-1.06 0.121-2.12 0.184-3.21 0.0844-1.39 0.169-2.78 0.254-4.16 0.059-1.05 0.059-1.05 0.119-2.12 0.33-5.28 0.33-5.28 1.44-7.51z" fill="#010506"/>
<path transform="translate(949,1439)" d="m0 0h1c0.176 3.65 0.339 7.29 0.5 10.9 0.0477 0.983 0.0954 1.97 0.145 2.98 0.87 20.2 0.36 40.5-0.0168 60.7-0.0663 3.61-0.125 7.22-0.184 10.8-0.0419 2.32-0.0842 4.65-0.127 6.97-0.0167 1.07-0.0334 2.13-0.0506 3.23-0.104 5.22-0.375 10.2-1.27 15.4h-2v-89h1c0.33-7.26 0.66-14.5 1-22z" fill="#202323"/>
<path transform="translate(541,1227)" d="m0 0c0.33 1.32 0.66 2.64 1 4h2c-0.00524 0.77-0.0105 1.54-0.0159 2.33-0.0211 3.58-0.0339 7.15-0.0466 10.7-0.00838 1.21-0.0168 2.42-0.0254 3.67-0.0161 6.08 0.101 12.1 0.561 18.2 0.89 12.1 0.891 24.2 1.08 36.4 0.0514 3.23 0.109 6.46 0.167 9.69 0.0136 0.998 0.0272 2 0.0411 3.02 0.0167 0.913 0.0334 1.83 0.0507 2.77 0.0125 0.805 0.0251 1.61 0.038 2.44-0.047 1.86-0.047 1.86 1.15 2.84 0.0406 1.67 0.0427 3.33 0 5h-2c0.0838 1.15 0.168 2.29 0.254 3.47 0.103 1.53 0.206 3.06 0.309 4.59 0.0561 0.752 0.112 1.5 0.17 2.28 0.308 4.74 0.106 8.98-0.732 13.7h-1v-7h-2c0.00222-1.04 0.00444-2.08 0.00673-3.14 0.0202-9.76 0.0352-19.5 0.0451-29.3 0.00523-5.02 0.0123-10 0.0236-15 0.0108-4.84 0.0168-9.67 0.0194-14.5 0.00185-1.85 0.00547-3.7 0.0109-5.55 0.00721-2.58 0.00826-5.16 0.0078-7.74 0.0036-0.773 0.00719-1.55 0.0109-2.34 0.313-3.49 0.313-3.49-1.12-6.39-0.0885-2.52-0.115-5.01-0.0977-7.54 0.00141-0.753 0.00283-1.51 0.00429-2.28 0.00561-2.41 0.0182-4.83 0.0309-7.24 0.00501-1.63 0.00958-3.27 0.0137-4.9 0.011-4.01 0.0283-8.02 0.0488-12z" fill="#1F2222"/>
<path transform="translate(62,1415)" d="m0 0h2v140h-1c-0.942-3.97-1.12-7.64-1.1-11.7 0.00146-0.656 0.00292-1.31 0.00443-1.99 0.0038-1.42 0.0099-2.85 0.0181-4.27 0.0129-2.29 0.0193-4.57 0.0241-6.86 0.0133-5.7 0.037-11.4 0.0614-17.1 0.0234-5.56 0.042-11.1 0.0521-16.7 0.00222-1.17 0.00222-1.17 0.00448-2.37 0.0154-12.9-0.323-25.8-0.836-38.8-0.312-7.98-0.381-16-0.356-23.9-0.00359-1.39-0.0075-2.79-0.0117-4.18 0.00193-1.96 0.00193-1.96 0.00391-3.96 0.00113-1.15 0.00226-2.29 0.00342-3.47 0.129-2.7 0.129-2.7 1.13-4.7z" fill="#000405"/>
<path transform="translate(812,1482)" d="m0 0c0.33 0.66 0.66 1.32 1 2h3c-0.24 9.29-0.483 18.6-0.73 27.9-0.115 4.32-0.229 8.63-0.34 12.9-0.107 4.18-0.218 8.35-0.331 12.5-0.0422 1.58-0.0833 3.17-0.123 4.75-0.236 9.32-0.646 18.6-1.48 27.9-2.46-3.68-2.28-6.45-2.24-10.7-0.0019-0.784-0.0038-1.57-0.00575-2.38-0.00371-2.59 7e-3 -5.19 0.0182-7.78 0.00119-1.8 0.00164-3.6 0.00139-5.41 0.00156-3.78 0.00985-7.56 0.0233-11.3 0.017-4.84 0.0208-9.69 0.0201-14.5 2.72e-4 -3.72 0.00576-7.44 0.013-11.2 0.00318-1.79 0.00515-3.57 0.00589-5.36 0.00217-2.5 0.0109-4.99 0.0216-7.49-4.53e-4 -0.738-9.06e-4 -1.48-0.00137-2.24 0.0209-3.34 0.108-6.41 1.15-9.6z" fill="#202323"/>
<path transform="translate(59,1257)" d="m0 0h1c0.0606 0.987 0.121 1.97 0.184 2.99 0.0838 1.28 0.168 2.56 0.254 3.88 0.0812 1.28 0.162 2.55 0.246 3.87 0.108 3.14 0.108 3.14 1.32 5.26 0.0695 1.54 0.0845 3.08 0.0625 4.62-0.00902 0.817-0.018 1.63-0.0273 2.48-0.0116 0.626-0.0232 1.25-0.0352 1.9h2c-0.114 1.96-0.241 3.92-0.375 5.88-0.0696 1.09-0.139 2.18-0.211 3.3-0.414 2.82-0.414 2.82-2.41 4.82v-3c-1.98 0.495-1.98 0.495-4 1-2.09-6.03-2.37-11.6-2.38-17.9-0.0245-0.951-0.049-1.9-0.0742-2.88-0.0269-6.51 1.11-10.6 4.45-16.2z" fill="#202323"/>
<path transform="translate(59,1150)" d="m0 0c4.71 1.88 9.07 3.72 13 7 1.06 3 1.06 3 1 6-1.31 2.38-1.31 2.38-3 4h-2v7h-1c-0.113 5.08-0.113 5.08 1 10h-2c-0.33 0.66-0.66 1.32-1 2-0.66-0.33-1.32-0.66-2-1-0.0539-2.94-0.0936-5.87-0.125-8.81-0.0168-0.833-0.0335-1.67-0.0508-2.53-0.00645-0.802-0.0129-1.6-0.0195-2.43-0.0105-0.738-0.0209-1.48-0.0317-2.24 0.227-1.99 0.227-1.99 2.23-4.99h-2c-0.33 0.66-0.66 1.32-1 2-0.66-1.98-1.32-3.96-2-6h-1c-1.12-6.62-1.12-6.62 0-10z" fill="#202323"/>
<path transform="translate(743,1312)" d="m0 0c0.99 0.33 1.98 0.66 3 1 0.218 5.92 9.77e-4 11.6-0.938 17.4-1.13 7.63-1.71 15.2-2.19 22.9-0.0867 1.33-0.174 2.67-0.262 4-0.209 3.21-0.414 6.42-0.613 9.62-0.495-1.48-0.495-1.48-1-3h-2c-0.33 0.99-0.66 1.98-1 3v-4h2c-0.133-0.594-0.266-1.19-0.402-1.8-2.02-9.47-2.93-18.1-1.79-27.8 0.123-1.06 0.123-1.06 0.249-2.13 0.684-5.05 0.684-5.05 2.94-7.31h1c0.169-1.44 0.335-2.87 0.5-4.31 0.0928-0.801 0.186-1.6 0.281-2.43 0.267-2.38 0.267-2.38 0.219-5.26z" fill="#030708"/>
<path transform="translate(409,1117)" d="m0 0c1.93 0.0859 1.93 0.0859 4 1 1.16 2.48 1.16 2.48 2.06 5.62 1.4 4.63 2.94 8.98 4.94 13.4-3.11 1.55-6.17 0.686-9.5 0.25-0.69-0.0748-1.38-0.15-2.09-0.227-2-0.258-2-0.258-5.41-1.02-0.66-0.99-1.32-1.98-2-3 0.413-0.619 0.825-1.24 1.25-1.88 2-3.56 3.43-7.2 4.88-11 0.867-2.11 0.867-2.11 1.87-3.11z" fill="#010203"/>
<path transform="translate(744,1436)" d="m0 0c2.39 14.8 0.661 29.4-1.27 44.2-0.814 6.26-1.37 12.5-1.73 18.8-0.66-0.33-1.32-0.66-2-1-0.146-10.9 0.0945-21.8 0.438-32.8 0.0392-1.3 0.0785-2.6 0.119-3.94 0.206-6.24 0.467-12.5 0.854-18.7 0.0645-1.06 0.129-2.11 0.196-3.2 0.13-0.794 0.26-1.59 0.394-2.41 2-1 2-1 3-1z" fill="#010506"/>
<path transform="translate(517,1010)" d="m0 0c1.89 0.266 1.89 0.266 4 1 1 1.64 1 1.64 1.7 3.75 0.258 0.755 0.516 1.51 0.781 2.29 0.253 0.793 0.505 1.59 0.766 2.4 0.268 0.79 0.536 1.58 0.812 2.39 1.94 5.8 1.94 5.8 1.94 8.17h-15c-0.844-4.22-1.13-5.74-0.25-9.62 0.16-0.755 0.32-1.51 0.484-2.29 0.867-2.36 1.97-3.37 3.77-5.09 0.33-0.99 0.66-1.98 1-3z" fill="#040809"/>
<path transform="translate(671 494)" d="m0 0c1.87-0.0387 1.87-0.0387 3.79-0.0781 1.04 0.108 2.08 0.217 3.15 0.328 2 3 2 3 1.61 6-0.284 1.14-0.567 2.27-0.859 3.44-0.273 1.13-0.547 2.27-0.828 3.43-0.766 2.6-1.6 4.78-2.92 7.13-4.88-1.88-4.88-1.88-6-3-0.0726-2.19-0.0837-4.38-0.0625-6.56 0.00902-1.2 0.018-2.4 0.0273-3.63 0.0116-0.927 0.0232-1.85 0.0352-2.81-4.46 0.495-4.46 0.495-9 1 0.33-1.32 0.66-2.64 1-4 3.5-1.17 6.38-1.2 10.1-1.25z" fill="#000405"/>
<path transform="translate(541,1261)" d="m0 0c0.66 0.33 1.32 0.66 2 1 0.121 28.4-0.0514 56.7-1 85-1.95-3.28-2.25-5.72-2.24-9.51-0.00308-1.11-0.00615-2.21-0.00932-3.35 0.00719-1.2 0.0144-2.4 0.0218-3.63 4.58e-4 -1.25 9.16e-4 -2.5 0.00139-3.79 0.00303-2.66 0.00984-5.31 0.0233-7.97 0.0199-3.99 0.0205-7.97 0.0203-12 0.0218-15.3 0.366-30.5 1.19-45.8z" fill="#010506"/>
<path transform="translate(433,1551)" d="m0 0c0.454 0.66 0.908 1.32 1.38 2 0.536 0.66 1.07 1.32 1.62 2h2v-2c0.99-0.33 1.98-0.66 3-1 0.0289 3.46 0.0468 6.92 0.0625 10.4 0.00838 0.985 0.0168 1.97 0.0254 2.98 0.00322 0.941 0.00645 1.88 0.00977 2.85 0.00524 0.869 0.0105 1.74 0.0159 2.63-0.114 2.15-0.114 2.15-1.11 4.15-0.228 1.87-0.41 3.75-0.562 5.62-0.126 1.5-0.126 1.5-0.254 3.04-0.0606 0.771-0.121 1.54-0.184 2.34h-4c-0.34-3.96-0.671-7.92-1-11.9-0.143-1.66-0.143-1.66-0.289-3.36-0.544-6.61-0.846-13.1-0.711-19.8z" fill="#000405"/>
<path transform="translate(622,1026)" d="m0 0c2.03 3.05 2.25 3.62 2.24 7.04 0.00308 0.808 0.00615 1.62 0.00932 2.45-0.00719 0.872-0.0144 1.74-0.0218 2.64-4.58e-4 0.904-9.16e-4 1.81-0.00139 2.74-0.00302 1.92-0.0109 3.83-0.0233 5.75-0.0181 2.91-0.0205 5.81-0.0203 8.72-0.00492 1.87-0.0108 3.74-0.0176 5.6-0.00111 0.858-0.00223 1.72-0.00337 2.6-0.126 16.4-0.126 16.4-2.16 18.5-0.231 1.35-0.412 2.7-0.562 4.06-0.144 1.3-0.289 2.6-0.438 3.94h-1c-0.952-7.68-1.15-15.3-1.12-23-0.00387-1.13-0.00773-2.26-0.0117-3.43 0.00129-1.08 0.00258-2.15 0.00391-3.26 0.00113-0.973 0.00226-1.95 0.00342-2.95 0.129-2.36 0.129-2.36 1.13-4.36 0.142-1.86 0.226-3.73 0.281-5.59 0.0374-1.11 0.0748-2.22 0.113-3.37 0.0348-1.17 0.0696-2.33 0.105-3.54 0.0687-2.3 0.141-4.6 0.219-6.91 0.0303-1.02 0.0606-2.05 0.0918-3.1 0.189-2.49 0.189-2.49 1.19-4.49z" fill="#010506"/>
<path transform="translate(666,689)" d="m0 0c3.83 2.23 5.9 4.77 7.51 8.92 0.942 3.99 0.713 8.02 0.492 12.1-1.51-1.96-2.89-3.78-4-6-0.949 0.0206-1.9 0.0412-2.88 0.0625-3.12-0.0625-3.12-0.0625-5.12-1.06-0.0619-0.949-0.124-1.9-0.188-2.88-0.444-3.14-0.444-3.14-2.43-4.19-1.76-0.735-3.57-1.34-5.38-1.94v-2c4.18-2.39 7.17-3.72 12-3z" fill="#040809"/>
<path transform="translate(739,1157)" d="m0 0c1.49 0.99 1.49 0.99 3 2 0.356 2.4 0.356 2.4 0.328 5.52-0.00451 1.21-0.00902 2.41-0.0137 3.66-0.0211 1.36-0.0426 2.72-0.0645 4.08-0.0121 1.42-0.0231 2.83-0.0332 4.25-0.0451 5.17-0.13 10.3-0.217 15.5-0.0178 1.1-0.0356 2.2-0.054 3.33-0.275 16.9-0.595 33.8-0.946 50.7h-2v-89z" fill="#1E2021"/>
<path transform="translate(200,1284)" d="m0 0c0.341 4.25 0.671 8.5 1 12.8 0.0954 1.19 0.191 2.37 0.289 3.6 1.65 21.6 1.65 21.6-1.29 29.7-0.495-1.48-0.495-1.48-1-3h-3c-0.123-14 0.0843-28 1-42 2-1 2-1 3-1z" fill="#1F2222"/>
<path transform="translate(307,496)" d="m0 0c1.95 0.742 1.95 0.742 4 2 0.839 2.68 0.818 5.17 1 8 1.22-0.0412 2.43-0.0825 3.69-0.125 3.53 0.0125 6.23 0.255 9.31 2.12 0.629 2.08 0.629 2.08 1 4-6.03 4.92-6.03 4.92-10.9 5.31-1.01-0.103-2.02-0.206-3.06-0.312v-2h-2c-2.3-6.57-3.34-12-3-19z" fill="#000002"/>
<path transform="translate(739,1394)" d="m0 0h1c0.0376 0.862 0.0376 0.862 0.0759 1.74 0.117 2.63 0.239 5.26 0.362 7.88 0.0393 0.904 0.0786 1.81 0.119 2.74 0.173 3.64 0.367 7.18 0.971 10.8 0.604 3.65 0.618 7.23 0.598 10.9 0.00387 0.675 0.00773 1.35 0.0117 2.04-0.00806 4.36-0.254 8.68-0.609 13-0.589 7.22-0.858 14.4-1.09 21.7-0.0432 1.28-0.0864 2.55-0.131 3.87-0.105 3.11-0.207 6.21-0.307 9.32-0.99 0.495-0.99 0.495-2 1-0.152-28.3 0.256-56.7 1-85z" fill="#1B1E1E"/>
<path transform="translate(614,475)" d="m0 0 4 1v2h2c3.57 3.67 4.75 6.85 5.75 11.8 0.242 1.16 0.485 2.32 0.734 3.52 0.17 0.88 0.34 1.76 0.516 2.67-1.98 0.99-3.96 1.98-6 3 0.99 0.33 1.98 0.66 3 1l-2 1c-3.21-1.89-5.56-3.27-7.5-6.5-0.5-2.5-0.5-2.5 0.188-4.69 1.31-1.81 1.31-1.81 4.31-3.81 0.25-3.08 0.25-3.08 0-6-1.98-0.66-3.96-1.32-6-2 0.33-0.99 0.66-1.98 1-3z" fill="#010506"/>
<path transform="translate(59,1548)" d="m0 0c0.99 0.495 0.99 0.495 2 1-0.0464 0.953-0.0928 1.91-0.141 2.89-0.0361 1.25-0.0722 2.51-0.109 3.8-0.0464 1.24-0.0928 2.48-0.141 3.76 0.0743 3.62 0.0743 3.62 2.42 6.05 2.72 3.44 2.2 5.46 1.72 9.75-0.131 1.33-0.26 2.66-0.387 3.99-0.12 1.24-0.24 2.48-0.363 3.76-0.0828 3.01-0.0528 5.99 0 9-0.99 0.495-0.99 0.495-2 1-0.66 0.99-1.32 1.98-2 3-0.685-16-1.15-32-1-48z" fill="#010506"/>
<path transform="translate(474,403)" d="m0 0c1.91 0.812 3.52 1.52 5 3 0.331 5.72 0.213 11.4-1 17l-2-2c-1.67-0.0406-3.33-0.0427-5 0-1.71-1.71-1.17-3.92-1.19-6.25-0.0142-0.954-0.0284-1.91-0.043-2.89 0.244-3.02 0.867-5.16 2.23-7.86 0.66-0.33 1.32-0.66 2-1z" fill="#010506"/>
<path transform="translate(185,366)" d="m0 0c1.65 0.33 3.3 0.66 5 1-0.556 3.82-1.58 6.24-3.81 9.38-2.63 3.78-4.96 7.6-7.19 11.6-1.38-1.29-2.71-2.63-4-4v-2c-0.66-0.33-1.32-0.66-2-1 0.681-0.619 1.36-1.24 2.06-1.88 3.92-3.89 6.86-8.56 9.94-13.1z" fill="#010506"/>
<path transform="translate(183,418)" d="m0 0c2.44 4.53 1.76 8.02 0.625 12.8-0.228 1.04-0.228 1.04-0.461 2.1-0.375 1.7-0.768 3.39-1.16 5.09-2.31-0.66-4.62-1.32-7-2-1.05-3.92-0.89-6.35 0.375-10.2 0.276-0.86 0.552-1.72 0.836-2.61 0.789-2.21 0.789-2.21 1.79-4.21 3-1 3-1 5-1z" fill="#000405"/>
<path transform="translate(416 1053)" d="m0 0c3.53 0.494 7.09 0.588 10.7 0.734 3.21 0.722 4.45 2.11 6.55 4.57-27.7 1.98-27.7 1.98-34-3 2-2 2-2 3.88-2.16 0.701 0.0322 1.4 0.0645 2.12 0.0977 3.98 0.168 6.77-0.932 10.8-0.246z" fill="#010506"/>
<path transform="translate(276 700)" d="m0 0c1.13 0.0206 2.27 0.0412 3.44 0.0625 0.0269 2.48 0.0468 4.96 0.0625 7.44 0.00838 0.707 0.0168 1.41 0.0254 2.14 0.00865 1.81-0.0357 3.61-0.0879 5.42-1 1-1 1-4.06 1.06-0.969-0.0206-1.94-0.0412-2.94-0.0625-2.36-4.41-3.31-6.68-2.12-11.7 1.46-4.3 1.46-4.3 5.69-4.38z" fill="#040809"/>
<path transform="translate(196,1406)" d="m0 0c3.88 1.75 3.88 1.75 5 4 0.154 1.96 0.25 3.92 0.316 5.88 0.0628 1.75 0.0628 1.75 0.127 3.54 0.0393 1.22 0.0786 2.45 0.119 3.71 0.0432 1.23 0.0864 2.46 0.131 3.73 0.106 3.05 0.208 6.1 0.307 9.14h-3c-2.22-7.4-3.15-14.2-3.06-21.9 0.00451-0.784 0.00902-1.57 0.0137-2.38 0.0117-1.92 0.0296-3.83 0.0488-5.75z" fill="#010506"/>
<path transform="translate(951,1160)" d="m0 0h1c1.13 7.52 1.13 7.52 0.514 9.85-0.552 2.31-0.627 4.32-0.611 6.7 0.00322 0.844 0.00645 1.69 0.00977 2.56 0.00838 0.873 0.0168 1.75 0.0254 2.64 0.00677 1.33 0.00677 1.33 0.0137 2.69 0.0118 2.19 0.0282 4.37 0.0488 6.56h-2v11h-1c-0.966-8.67-1.16-17.3-1.25-26.1-0.0319-1.66-0.0319-1.66-0.0645-3.35-0.00451-1.05-0.00902-2.1-0.0137-3.18-0.00935-0.944-0.0187-1.89-0.0283-2.86 0.417-2.98 1.33-4.36 3.36-6.54z" fill="#27292A"/>
<path transform="translate(386,704)" d="m0 0c-0.769 9.23-0.769 9.23-4 12-2.69 0.25-2.69 0.25-5 0-1.41-2.63-2.63-5.03-3-8 2.37-6.39 6.17-4.85 12-4z" fill="#010506"/>
<path transform="translate(950,1191)" d="m0 0h3v48c-0.99-0.33-1.98-0.66-3-1v-47z" fill="#000304"/>
<path transform="translate(62,1415)" d="m0 0h2v35c-0.99-0.33-1.98-0.66-3-1-0.0247-4.52-0.0429-9.04-0.0549-13.6-0.00503-1.54-0.0119-3.08-0.0205-4.62-0.0121-2.21-0.0178-4.42-0.0222-6.63-0.00516-0.69-0.0103-1.38-0.0156-2.09-5.75e-4 -4.88-5.75e-4 -4.88 1.11-7.11z" fill="#202323"/>
<path transform="translate(740,1324)" d="m0 0h1c1.03 4.24 1.15 8.35 1.12 12.7-0.00193 0.703-0.00387 1.41-0.00586 2.13-0.0448 5.43-0.394 10.8-1.12 16.2h-2c-4.2-8.4-1.53-20.1 0-29 0.33-0.66 0.66-1.32 1-2z" fill="#202323"/>
<path transform="translate(537,1125)" d="m0 0h1c0.848 7.69 1.12 15.3 1 23-4.56-0.544-4.56-0.544-6.58-2.63-0.406-0.638-0.812-1.28-1.23-1.93-0.628-0.961-0.628-0.961-1.27-1.94-0.303-0.494-0.606-0.987-0.918-1.5l1-2c0.33 0.33 0.66 0.66 1 1 0.66-0.99 1.32-1.98 2-3v2h2c0.144-1.03 0.289-2.06 0.438-3.12 0.479-3.3 1-6.59 1.56-9.88z" fill="#030708"/>
<path transform="translate(385,486)" d="m0 0h1c0.379 6.19-0.12 10.5-3 16-1 1-1 1-4.06 1.06-0.969-0.0206-1.94-0.0412-2.94-0.0625-0.144-0.619-0.289-1.24-0.438-1.88-0.494-2.16-0.494-2.16-1.56-4.12 0.625-2.06 0.625-2.06 2-4 2.95-1.09 4.38-1.25 7.31-0.0625 0.557 0.351 1.11 0.701 1.69 1.06v-8z" fill="#010506"/>
<path transform="translate(241 821)" d="m0 0c3.96 0.049 5.72 1.14 8.61 3.93 4.14 3.5 9.59 5.74 14.7 7.44v2c-4.87-0.525-8.14-1.97-12.3-4.5-1.05-0.629-2.1-1.26-3.18-1.91-2.51-1.59-2.51-1.59-3.51-2.59-0.33 0.99-0.66 1.98-1 3-2.31-0.66-4.62-1.32-7-2-0.562-1.94-0.562-1.94-1-4 1-1 1-1 4.69-1.38z" fill="#010506"/>
<path transform="translate(541,1227)" d="m0 0c0.33 1.32 0.66 2.64 1 4h2v43h-1c-0.0606-0.855-0.121-1.71-0.184-2.59-0.0838-1.1-0.168-2.21-0.254-3.35-0.0812-1.1-0.162-2.2-0.246-3.34-0.0206-2.63-0.0206-2.63-1.32-3.72-0.0885-2.52-0.115-5.01-0.0977-7.54 0.00141-0.753 0.00283-1.51 0.00429-2.28 0.00561-2.41 0.0182-4.83 0.0309-7.24 0.00501-1.63 0.00958-3.27 0.0137-4.9 0.011-4.01 0.0283-8.02 0.0488-12z" fill="#212424"/>
<path transform="translate(572 673)" d="m0 0c1.45 0.0309 1.45 0.0309 2.94 0.0625v11c-2.88 0.625-2.88 0.625-6 1-2-2-2-2-2.01-4.13 0.107-0.803 0.214-1.61 0.324-2.43 0.0993-0.806 0.199-1.61 0.301-2.44 0.632-3.26 0.989-2.99 4.45-3.06z" fill="#010506"/>
<path transform="translate(813,1558)" d="m0 0h2c0.0295 3.62 0.047 7.25 0.0625 10.9 0.00838 1.01 0.0168 2.03 0.0254 3.07 0.0438 13.7 0.0438 13.7-1.09 19.1-0.66 0.66-1.32 1.32-2 2-0.33-8.58-0.66-17.2-1-26h1c0.33-2.97 0.66-5.94 1-9z" fill="#050909"/>
<path transform="translate(608,727)" d="m0 0h4c1.84 3.78 2.16 5.95 1 10-3.16 0-6.12-0.17-9.25-0.5-0.892-0.0928-1.78-0.186-2.7-0.281-1.01-0.108-1.01-0.108-2.05-0.219v-1c0.763-0.0412 1.53-0.0825 2.31-0.125 3-0.647 3-0.647 4.44-3.88 0.413-0.99 0.825-1.98 1.25-3l1-1z" fill="#010506"/>
<path transform="translate(66,1165)" d="m0 0c0.99 0.66 1.98 1.32 3 2-0.33 2.31-0.66 4.62-1 7h-1c-0.113 5.08-0.113 5.08 1 10h-2c-0.33 0.66-0.66 1.32-1 2-0.66-0.33-1.32-0.66-2-1-0.0807-2.96-0.14-5.92-0.188-8.88-0.0251-0.842-0.0503-1.68-0.0762-2.55-0.00967-0.806-0.0193-1.61-0.0293-2.44-0.0157-0.744-0.0314-1.49-0.0476-2.25 0.112-0.62 0.225-1.24 0.341-1.88 0.99-0.66 1.98-1.32 3-2z" fill="#5A5C5D"/>
<path transform="translate(733 1028)" d="m0 0c1.02-0.0206 2.05-0.0412 3.1-0.0625 0.977-0.00516 1.95-0.0103 2.96-0.0156 0.898-0.00935 1.8-0.0187 2.72-0.0283 0.731 0.118 1.46 0.235 2.21 0.356 0.66 0.99 1.32 1.98 2 3h-26v-2c3.89-1.95 8.72-1.23 13-1.25z" fill="#202323"/>
<path transform="translate(724,799)" d="m0 0c0.99 0.66 1.98 1.32 3 2-1.65 4.95-3.3 9.9-5 15h-2v-5h-3c1.36-5.2 3.47-8.1 7-12z" fill="#010506"/>
<path transform="translate(947,1550)" d="m0 0h1v8h2c0.185 16.9 0.185 16.9-1 24h-1c-0.908-3.86-1.12-7.43-1.1-11.4 0.00322-1.2 0.00645-2.4 0.00977-3.64 0.00838-1.25 0.0168-2.49 0.0254-3.78 0.00451-1.27 0.00902-2.53 0.0137-3.83 0.0118-3.12 0.0282-6.24 0.0488-9.35z" fill="#010506"/>
<path transform="translate(439,1309)" d="m0 0c2.58 1.29 2.95 2.34 4 5 0.563 5.7-0.0229 11.4-1 17-0.99-0.33-1.98-0.66-3-1-1.12-6.75-1.12-6.75 0-9 0.0707-2.04 0.0842-4.08 0.0625-6.12-0.00902-1.1-0.018-2.19-0.0273-3.32-0.0116-0.843-0.0232-1.69-0.0352-2.55z" fill="#242727"/>
<path transform="translate(175 454)" d="m0 0c1.11 0.557 1.11 0.557 2.25 1.12-0.66 3.3-1.32 6.6-2 10-0.33-0.99-0.66-1.98-1-3-0.804-0.144-1.61-0.289-2.44-0.438-2.56-0.562-2.56-0.562-3.56-1.56-0.0406-1.67-0.0427-3.33 0-5 2.73-1.82 3.54-2.15 6.75-1.12z" fill="#010506"/>
<path transform="translate(548,1312)" d="m0 0h2c0.058 4.42 0.0936 8.83 0.125 13.2 0.0251 1.88 0.0251 1.88 0.0508 3.8 0.00645 1.21 0.0129 2.41 0.0195 3.65 0.0105 1.11 0.0209 2.22 0.0317 3.36-0.222 2.87-0.734 4.5-2.23 6.93-1.2-10.5-0.764-20.5 0-31z" fill="#111415"/>
<path transform="translate(355,646)" d="m0 0c0.381 1.99 0.713 3.99 1 6-0.33 0.33-0.66 0.66-1 1-6.4-0.698-6.4-0.698-9-2 0.25-1.88 0.25-1.88 1-4 2.91-2.11 4.65-2.2 8-1z" fill="#212424"/>
<path transform="translate(509,369)" d="m0 0h1v26c-0.99-0.33-1.98-0.66-3-1v-17h2v-8z" fill="#000405"/>
<path transform="translate(694,778)" d="m0 0c0.66 0.33 1.32 0.66 2 1-0.653 3.52-1.51 6.89-2.56 10.3-0.269 0.883-0.539 1.77-0.816 2.68-0.205 0.664-0.41 1.33-0.621 2.01-1.32-0.99-2.64-1.98-4-3 0.543-4.56 1.69-8.03 4-12 0.66-0.33 1.32-0.66 2-1z" fill="#212424"/>
<path transform="translate(365,734)" d="m0 0c1.98 0.66 3.96 1.32 6 2v2h2v3c1.32 0.33 2.64 0.66 4 1-1.36-0.0309-1.36-0.0309-2.75-0.0625-2.68 0.0515-4.72 0.284-7.25 1.06-1.56-1.69-1.56-1.69-3-4 0.312-2.75 0.312-2.75 1-5z" fill="#020607"/>
<path transform="translate(339 451)" d="m0 0c3.06 0.188 3.06 0.188 5.06 2.19-0.25 2.56-0.25 2.56-1 5-2 1-2 1-5.12 0.0625-0.949-0.351-1.9-0.701-2.88-1.06-0.0427-1.67-0.0406-3.33 0-5 1-1 1-1 3.94-1.19z" fill="#010506"/>
<path transform="translate(620,695)" d="m0 0 10 4v4c-0.742-0.0206-1.49-0.0412-2.25-0.0625-2.99-0.0331-2.99-0.0331-6.75 1.06-0.33-2.97-0.66-5.94-1-9z" fill="#0E1212"/>
<path transform="translate(207,335)" d="m0 0c2 2 2 2 2 4 1.32-1.32 2.64-2.64 4-4-0.33 1.32-0.66 2.64-1 4 0.66 0.33 1.32 0.66 2 1-0.639 0.103-1.28 0.206-1.94 0.312-0.681 0.227-1.36 0.454-2.06 0.688-0.33 0.99-0.66 1.98-1 3-1.65-0.33-3.3-0.66-5-1 0.256-2.34 0.593-4.68 1-7 0.66-0.33 1.32-0.66 2-1z" fill="#000405"/>
<path transform="translate(511,238)" d="m0 0h3v22c-0.99-0.33-1.98-0.66-3-1v-21z" fill="#080B0C"/>
<path transform="translate(951,1160)" d="m0 0h1c1.02 5.79 0.963 9.46-1 15h-3c-0.0814-1.75-0.139-3.5-0.188-5.25-0.0348-0.975-0.0696-1.95-0.105-2.95 0.333-3.18 1.12-4.5 3.29-6.8z" fill="#1F2222"/>
<path transform="translate(742,1247)" d="m0 0v20c-0.99-0.66-1.98-1.32-3-2-0.221-2.95-0.281-5.68-0.188-8.62 0.0135-0.802 0.0271-1.6 0.041-2.43 0.0354-1.98 0.0892-3.96 0.146-5.95 2-1 2-1 3-1z" fill="#212424"/>
<path transform="translate(202,1320)" d="m0 0c1.06 4.26 0.775 5.67-0.438 9.75-0.287 0.985-0.575 1.97-0.871 2.98-0.342 1.12-0.342 1.12-0.691 2.27h-2c-0.33 1.98-0.66 3.96-1 6-0.66-0.33-1.32-0.66-2-1v-3h2c-0.186-0.536-0.371-1.07-0.562-1.62-0.552-2.99-0.0435-5.41 0.562-8.38 0.99 0.33 1.98 0.66 3 1 0.66-2.64 1.32-5.28 2-8z" fill="#F6F7F9"/>
<path transform="translate(431,1139)" d="m0 0c2 1 2 1 3.12 3.19 0.958 3.08 1.02 5.61 0.875 8.81h-2c-0.33 0.66-0.66 1.32-1 2-3.07-6.38-3.07-6.38-2.75-9.25 0.371-0.866 0.371-0.866 0.75-1.75 0.33-0.99 0.66-1.98 1-3z" fill="#0B0E0F"/>
<path transform="translate(742,1186)" d="m0 0c-0.33 6.93-0.66 13.9-1 21-0.66 0.33-1.32 0.66-2 1v-21c2-1 2-1 3-1z" fill="#171B1B"/>
<path transform="translate(433,1047)" d="m0 0h2v2h2c1.16 3.47 1.07 6.36 1 10-0.99 0.33-1.98 0.66-3 1-1.78-3.06-2.23-5.22-2.12-8.75 0.018-0.799 0.0361-1.6 0.0547-2.42 0.0232-0.603 0.0464-1.21 0.0703-1.83z" fill="#202323"/>
<path transform="translate(622,1026)" d="m0 0c2.84 4.26 2.4 8 2 13-1 3.62-1 3.62-2 6h-1c-0.0269-2.79-0.0468-5.58-0.0625-8.38-0.00838-0.794-0.0168-1.59-0.0254-2.41-0.0254-5.99-0.0254-5.99 1.09-8.22z" fill="#000405"/>
<path transform="translate(622,1044)" d="m0 0c0.66 0.33 1.32 0.66 2 1v12c-0.99 0.33-1.98 0.66-3 1-0.66-0.33-1.32-0.66-2-1 0.308-1.98 0.621-3.96 0.938-5.94 0.174-1.1 0.348-2.2 0.527-3.34 0.535-2.72 0.535-2.72 1.54-3.72z" fill="#060A0B"/>
<path transform="translate(948,1136)" d="m0 0h1v12h-2c-0.66 1.32-1.32 2.64-2 4-0.38-6.2 0.165-10.4 3-16z" fill="#212424"/>
<path transform="translate(523,1022)" d="m0 0h2c0.66 2.64 1.32 5.28 2 8h-10c0.66-0.99 1.32-1.98 2-3h2c0.144-0.639 0.289-1.28 0.438-1.94 0.562-2.06 0.562-2.06 1.56-3.06z" fill="#000103"/>
<path transform="translate(615,1075)" d="m0 0h2c0.883 4.52 1.11 8.78 1.06 13.4-0.00902 1.25-0.018 2.49-0.0273 3.77-0.0116 0.941-0.0232 1.88-0.0352 2.85-3.37-3.53-3.56-7.03-3.75-11.7-0.0425-0.689-0.0851-1.38-0.129-2.09-0.0924-1.74-0.113-3.48-0.121-5.22 0.33-0.33 0.66-0.66 1-1z" fill="#212424"/>
<path transform="translate(622,1457)" d="m0 0c-0.33 7.59-0.66 15.2-1 23-0.33-1.32-0.66-2.64-1-4-0.66-0.33-1.32-0.66-2-1h2c-0.165-1.13-0.33-2.27-0.5-3.44-0.576-4.53-0.595-9-0.5-13.6 2-1 2-1 3-1z" fill="#F6F7F9"/>
<path transform="translate(969,1143)" d="m0 0c-0.33 2.31-0.66 4.62-1 7h-4c-0.553-2.08-1-3.84-1-6 2-1 2-1 6-1z" fill="#000002"/>
<path transform="translate(625,659)" d="m0 0h5c1 4.75 1 4.75 1 7-3.27-0.564-4.83-1.5-7-4 0.33-0.99 0.66-1.98 1-3z" fill="#1C1F1F"/>
<path transform="translate(619,642)" d="m0 0c1.65 0.33 3.3 0.66 5 1 0.33 1.65 0.66 3.3 1 5h-6c-1.12-3.75-1.12-3.75 0-6z" fill="#010506"/>
<path transform="translate(555,1489)" d="m0 0v13c-0.99-0.33-1.98-0.66-3-1v-11c2-1 2-1 3-1z" fill="#000405"/>
<path transform="translate(817,1119)" d="m0 0h5c0.66 2.31 1.32 4.62 2 7-3 1-3 1-5.19 0.0625-0.598-0.351-1.2-0.701-1.81-1.06v-6z" fill="#080C0C"/>
<path transform="translate(507,1119)" d="m0 0c0.99 0.66 1.98 1.32 3 2v2h2c0.33 0.99 0.66 1.98 1 3h-2c-0.33 0.66-0.66 1.32-1 2-2.34-1.51-3.77-2.46-4.88-5.06-0.0412-0.639-0.0825-1.28-0.125-1.94 0.66-0.66 1.32-1.32 2-2z" fill="#0D1011"/>
<path transform="translate(724,799)" d="m0 0c0.99 0.66 1.98 1.32 3 2-1.48 4.68-1.48 4.68-4.12 6.31-0.928 0.34-0.928 0.34-1.88 0.688-0.75-1.69-0.75-1.69-1-4 1.94-2.75 1.94-2.75 4-5z" fill="#2E3131"/>
<path transform="translate(343,664)" d="m0 0c1.67-0.0427 3.33-0.0406 5 0 1 1 1 1 1.06 3.56-0.0206 0.804-0.0412 1.61-0.0625 2.44-3 0-3 0-4.69-1.31-1.31-1.69-1.31-1.69-1.31-4.69z" fill="#0A0E0E"/>
<path transform="translate(314,693)" d="m0 0c6.62-0.25 6.62-0.25 10 2v2h-11c0.33-1.32 0.66-2.64 1-4z" fill="#000405"/>
<path transform="translate(400,1029)" d="m0 0c1.53 0.0894 3.05 0.245 4.56 0.438 1.24 0.153 1.24 0.153 2.5 0.309 0.638 0.0838 1.28 0.168 1.93 0.254-2 2-2 2-5.62 2.12-1.11-0.0412-2.23-0.0825-3.38-0.125v6h-1c-0.0977-6.15-0.0977-6.15 0-8 0.33-0.33 0.66-0.66 1-1z" fill="#000405"/>
<path transform="translate(409,1117)" d="m0 0c1.98 0.495 1.98 0.495 4 1 0.33 1.32 0.66 2.64 1 4l-4 2v-2h-2c0.33-1.65 0.66-3.3 1-5z" fill="#040809"/>
<path transform="translate(199,1422)" d="m0 0c0.33 3.63 0.66 7.26 1 11h-2c-0.66-3.3-1.32-6.6-2-10 2-1 2-1 3-1z" fill="#1D2020"/>
<path transform="translate(418,1053)" d="m0 0v2c-2.64 0.33-5.28 0.66-8 1-0.33-0.99-0.66-1.98-1-3 3.07-1.53 5.7-0.55 9 0z" fill="#1E2121"/>
</svg>
